<svg width="19" height="11" viewBox="0 0 19 11" fill="none" xmlns="http://www.w3.org/2000/svg">
<path d="M18.2536 9.60327C18.2536 9.52997 18.1803 9.52997 18.1803 9.45666C17.887 8.8702 17.2273 8.13713 16.3476 7.33075C15.9077 6.96421 15.6878 6.67098 15.5412 6.52436C15.3213 6.23113 15.3213 6.01122 15.3946 5.71799C15.4679 5.49806 15.7611 5.13152 16.2743 4.47175C16.5675 4.10521 16.7141 3.8853 16.934 3.66537C18.0336 2.19922 18.5468 1.24622 18.4002 0.806376L18.3269 0.733075C18.2536 0.659767 18.1802 0.586462 18.0336 0.586462C17.887 0.513155 17.6671 0.513155 17.4472 0.586462H14.6615C14.5882 0.586462 14.5882 0.586462 14.4416 0.586462C14.3683 0.586462 14.295 0.586462 14.295 0.586462H14.2217H14.1483L14.075 0.659763C14.0017 0.73307 14.0017 0.733068 14.0017 0.806376C13.7085 1.61276 13.342 2.27253 12.9754 3.0056C12.7555 3.37214 12.5356 3.73868 12.3157 4.03191C12.0957 4.32514 11.9491 4.54506 11.8025 4.69167C11.6559 4.83829 11.5093 4.9116 11.436 5.05821C11.3627 5.13152 11.216 5.20483 11.216 5.13152C11.1427 5.13152 11.0694 5.13152 11.0694 5.05821C10.9961 4.9849 10.9228 4.9116 10.8495 4.83829C10.7762 4.76498 10.7762 4.61837 10.7029 4.47175C10.7029 4.32514 10.7029 4.17852 10.7029 4.10521C10.7029 4.03191 10.7029 3.81199 10.7029 3.66537C10.7029 3.44545 10.7029 3.29883 10.7029 3.22553C10.7029 3.0056 10.7029 2.71238 10.7029 2.41915C10.7029 2.12592 10.7029 1.90599 10.7029 1.75938C10.7029 1.61276 10.7029 1.39284 10.7029 1.24623C10.7029 1.0263 10.7029 0.879683 10.7029 0.806376C10.7029 0.733068 10.6296 0.586458 10.6296 0.51315C10.5563 0.439843 10.483 0.366533 10.4097 0.293225C10.3364 0.219918 10.1897 0.21992 10.1164 0.146613C9.7499 0.0733052 9.31006 0 8.79691 0C7.62399 0 6.8176 0.0733097 6.52437 0.219925C6.37776 0.293232 6.23114 0.366535 6.15784 0.51315C6.01122 0.659765 6.01122 0.733075 6.08452 0.733075C6.45106 0.806382 6.74429 0.952991 6.89091 1.17291L6.96422 1.31954C7.03753 1.39284 7.03752 1.53945 7.11082 1.75938C7.18413 1.9793 7.18413 2.19922 7.18413 2.49245C7.18413 2.9323 7.18413 3.37214 7.18413 3.66537C7.18413 4.03191 7.11082 4.25183 7.11082 4.47175C7.11082 4.69167 7.03753 4.83829 6.96422 4.9116C6.89091 5.05821 6.89091 5.13152 6.8176 5.13152C6.8176 5.13152 6.81759 5.20482 6.74429 5.20482C6.67098 5.20482 6.59768 5.27814 6.45106 5.27814C6.37775 5.27814 6.23114 5.20483 6.15784 5.13152C6.01122 5.05822 5.8646 4.9116 5.7913 4.76499C5.64468 4.61837 5.49806 4.39844 5.35145 4.10521C5.20483 3.81198 4.9849 3.51876 4.83829 3.07891L4.69169 2.78569C4.61838 2.63907 4.47176 2.34584 4.32515 1.9793C4.17853 1.61276 4.03191 1.31954 3.8853 0.953C3.81199 0.806385 3.73869 0.73307 3.66539 0.659763H3.59207C3.59207 0.659763 3.51876 0.586462 3.44545 0.586462C3.37214 0.586462 3.29884 0.51315 3.22554 0.51315H0.586462C0.293232 0.51315 0.146619 0.586455 0.073312 0.659763L0 0.733075C0 0.733075 0 0.80638 0 0.879688C0 0.952995 4.47324e-06 1.0263 0.073312 1.17291C0.439849 2.0526 0.879692 2.9323 1.31954 3.81199C1.75938 4.61837 2.19923 5.35145 2.49246 5.8646C2.859 6.37775 3.15222 6.8909 3.51876 7.33075C3.8853 7.77059 4.10522 8.06382 4.17852 8.21044C4.32514 8.35705 4.39844 8.43036 4.47175 8.50366L4.69169 8.72359C4.8383 8.8702 5.05822 9.09013 5.35145 9.31005C5.64468 9.52997 6.01121 9.74989 6.37775 9.96981C6.74429 10.1897 7.18414 10.3364 7.62398 10.483C8.13714 10.6296 8.57698 10.7029 9.01682 10.6296H10.1164C10.3364 10.6296 10.483 10.5563 10.6296 10.4097L10.7029 10.3363C10.7029 10.263 10.7762 10.263 10.7762 10.1897C10.7762 10.1164 10.7762 10.0431 10.7762 9.89651C10.7762 9.60328 10.7762 9.38336 10.8495 9.16344C10.9228 8.94351 10.9228 8.7969 10.9961 8.65029C11.0694 8.50367 11.1427 8.43036 11.216 8.35705C11.2894 8.28374 11.3627 8.21044 11.3627 8.21044H11.436C11.5826 8.13713 11.8025 8.21043 11.9491 8.35705C12.169 8.50366 12.389 8.72359 12.5356 8.94351C12.6822 9.16343 12.9021 9.38336 13.1954 9.67659C13.4886 9.96982 13.7085 10.1897 13.8551 10.263L14.075 10.4097C14.2216 10.483 14.3683 10.5563 14.5882 10.6296C14.8081 10.7029 14.9547 10.7029 15.1013 10.7029L17.5938 10.6296C17.8137 10.6296 18.0336 10.5563 18.1803 10.483C18.3269 10.4097 18.4002 10.3364 18.4002 10.1897C18.4002 10.1164 18.4002 9.96982 18.4002 9.89651C18.2536 9.7499 18.2536 9.67658 18.2536 9.60327Z" fill="white"/>
</svg>
