<svg width="20" height="16" viewBox="0 0 20 16" fill="none" xmlns="http://www.w3.org/2000/svg">
<path fill-rule="evenodd" clip-rule="evenodd" d="M1.6253 6.8879C6.72557 4.62993 10.1265 3.14134 11.8282 2.42212C16.6869 0.36862 17.6965 0.0119045 18.3545 0.00012559C18.4992 -0.00246506 18.8228 0.0339819 19.0325 0.206816C19.2094 0.352754 19.2581 0.549895 19.2815 0.68826C19.3048 0.826626 19.3338 1.14183 19.3107 1.38811C19.0474 4.1992 17.9082 11.021 17.3286 14.1694C17.0833 15.5017 16.6004 15.9484 16.1329 15.9921C15.1169 16.0871 14.3454 15.3098 13.3614 14.6543C11.8216 13.6287 10.9517 12.9902 9.457 11.9893C7.72966 10.8327 8.84942 10.1969 9.83383 9.15799C10.0915 8.88609 14.5679 4.74867 14.6546 4.37335C14.6654 4.32641 14.6755 4.15143 14.5732 4.05904C14.4709 3.96664 14.3199 3.99824 14.2109 4.02337C14.0565 4.05898 11.5966 5.71112 6.83127 8.97978C6.13304 9.46697 5.50061 9.70435 4.93397 9.69191C4.30929 9.6782 3.10767 9.33301 2.21438 9.03795C1.11873 8.67605 0.247929 8.48471 0.323756 7.87009C0.363251 7.54996 0.7971 7.22256 1.6253 6.8879Z" fill="white"/>
</svg>
