<svg width="13" height="21" viewBox="0 0 13 21" fill="none" xmlns="http://www.w3.org/2000/svg">
<path d="M11.8057 13.1257C12.2691 12.6624 12.3353 12.0005 11.9381 11.3386C11.6072 10.8091 11.0115 10.5444 10.3496 10.6767C10.0848 10.7429 9.82007 10.8753 9.55532 11.0739C7.50346 12.4638 4.72353 12.3976 2.67167 11.0077C2.53929 10.9415 2.40691 10.8753 2.27453 10.8091C1.54645 10.4782 0.81838 10.6105 0.421246 11.2724C-0.0420765 11.9343 0.0241045 12.6624 0.619805 13.2581C0.752183 13.3905 0.884561 13.4567 0.95075 13.5891L1.01694 13.6552C1.94359 14.3833 3.0688 14.8466 4.52496 15.0452L3.6645 15.9057C2.93642 16.6337 2.14216 17.428 1.41408 18.1561C1.21551 18.3547 0.95075 18.6856 0.95075 19.1489C0.95075 19.7446 1.2817 20.3403 1.8774 20.6051C2.07597 20.7375 2.27453 20.7375 2.4731 20.7375C2.80404 20.7375 3.20118 20.6051 3.46593 20.2741C4.45877 19.2813 5.25304 18.487 6.04731 17.6928C6.1135 17.6266 6.11349 17.6266 6.11349 17.6266C6.11349 17.6266 6.17969 17.6266 6.17969 17.6928C6.7092 18.2885 7.3049 18.818 7.83441 19.4137C8.09917 19.6784 8.36392 19.9432 8.62868 20.2079C8.95962 20.5389 9.22438 20.6713 9.62151 20.6713C10.2172 20.7375 10.8791 20.3403 11.1439 19.7446C11.4086 19.2151 11.2762 18.5532 10.8129 18.1561C10.151 17.4942 9.48913 16.7661 8.76105 16.1042L7.63584 14.979C8.23154 14.9128 8.89343 14.7804 9.48913 14.5157C10.482 14.1847 11.21 13.7214 11.8057 13.1257Z" fill="white"/>
<path d="M6.11349 11.2724C8.95962 11.2724 11.2762 9.022 11.2762 6.17587C11.2762 4.7859 10.7467 3.46213 9.75389 2.46929C8.76105 1.47646 7.50346 0.946945 6.17968 0.946945C3.33356 0.946945 1.08313 3.26356 1.01694 6.04349C1.01694 7.43346 1.54646 8.69105 2.53929 9.68389C3.46594 10.7429 4.72352 11.2724 6.11349 11.2724ZM4.65734 4.65353C5.05447 4.2564 5.58398 4.05782 6.11349 4.05782C7.30489 4.05782 8.16535 4.98447 8.16535 6.10969C8.16535 7.30109 7.2387 8.16154 6.11349 8.16154C4.92209 8.16154 4.06164 7.2349 4.06164 6.10969C4.06164 5.58017 4.2602 5.05066 4.65734 4.65353Z" fill="white"/>
<path d="M11.8057 13.1257C12.2691 12.6624 12.3353 12.0005 11.9381 11.3386C11.6072 10.8091 11.0115 10.5444 10.3496 10.6767C10.0848 10.7429 9.82007 10.8753 9.55532 11.0739C7.50346 12.4638 4.72353 12.3976 2.67167 11.0077C2.53929 10.9415 2.40691 10.8753 2.27453 10.8091C1.54645 10.4782 0.81838 10.6105 0.421246 11.2724C-0.0420765 11.9343 0.0241045 12.6624 0.619805 13.2581C0.752183 13.3905 0.884561 13.4567 0.95075 13.5891L1.01694 13.6552C1.94359 14.3833 3.0688 14.8466 4.52496 15.0452L3.6645 15.9057C2.93642 16.6337 2.14216 17.428 1.41408 18.1561C1.21551 18.3547 0.95075 18.6856 0.95075 19.1489C0.95075 19.7446 1.2817 20.3403 1.8774 20.6051C2.07597 20.7375 2.27453 20.7375 2.4731 20.7375C2.80404 20.7375 3.20118 20.6051 3.46593 20.2741C4.45877 19.2813 5.25304 18.487 6.04731 17.6928C6.1135 17.6266 6.11349 17.6266 6.11349 17.6266C6.11349 17.6266 6.17969 17.6266 6.17969 17.6928C6.7092 18.2885 7.3049 18.818 7.83441 19.4137C8.09917 19.6784 8.36392 19.9432 8.62868 20.2079C8.95962 20.5389 9.22438 20.6713 9.62151 20.6713C10.2172 20.7375 10.8791 20.3403 11.1439 19.7446C11.4086 19.2151 11.2762 18.5532 10.8129 18.1561C10.151 17.4942 9.48913 16.7661 8.76105 16.1042L7.63584 14.979C8.23154 14.9128 8.89343 14.7804 9.48913 14.5157C10.482 14.1847 11.21 13.7214 11.8057 13.1257Z" fill="white"/>
</svg>
