<svg width="120" height="120" viewBox="0 0 120 120" fill="none" xmlns="http://www.w3.org/2000/svg">
<rect width="120" height="120" fill="#1B5773"/>
<path fill-rule="evenodd" clip-rule="evenodd" d="M61.0551 89.9999C41.1293 89.9999 23.6475 76.7408 24.0235 62.5936C23.5848 52.3161 29.2868 41.4045 42.132 35.6312C46.894 33.4744 55.1023 31.6345 63.0601 31.5711C64.8145 31.5077 65.9424 31.3173 67.5089 31.0002C68.5113 30.8098 69.6392 30.556 71.2684 30.3658C73.9002 29.985 77.4718 29.6045 80.6047 30.8732C84.2389 32.713 87.8105 35.5045 87.8105 36.8368C87.8105 38.1689 85.4294 40.5797 83.8628 40.7699C81.1686 41.0873 77.7851 40.5797 73.5241 39.8817C70.266 39.3744 66.5063 38.7398 62.2455 38.4226C44.2622 38.1689 31.1039 50.413 31.4799 62.3398C31.8558 77.4386 50.5909 84.0365 62.1829 84.0365C94.3896 84.2267 93.3872 55.1709 85.8053 53.7752C83.3617 53.3312 81.3565 57.6451 79.2262 62.4032C76.7198 67.9226 73.9628 74.0762 69.7646 74.0128C65.8798 73.9494 62.8095 67.4151 60.2405 61.8956C58.4233 58.0893 56.9195 54.7903 55.541 54.5999C53.0346 54.3462 51.1548 60.2461 49.463 65.4484C48.3352 68.9376 47.3325 72.1095 46.3301 72.8075C44.0118 75.1547 37.9338 70.0795 38.7484 68.1128C39.563 66.2098 40.3776 66.9075 41.2548 67.7322C41.9439 68.3666 42.7585 69.1279 43.6357 68.3032C43.949 67.986 44.4503 66.5903 45.0768 64.6237C46.9567 59.1042 50.215 49.2075 55.8543 48.7635C59.8644 48.4464 63.0601 55.8055 65.6291 61.6419C67.2583 65.4484 68.6368 68.6204 69.8272 68.6204C71.1431 68.6204 72.4591 65.7022 74.0254 62.086C76.7198 56.1226 80.166 48.3828 85.8053 49.3345C100.28 51.8721 101.47 90.0633 61.0551 89.9999ZM79.6647 33.9184C79.6647 34.5527 78.6623 34.6163 76.5944 34.5527C75.028 34.4893 74.0254 34.0454 74.2761 33.2206C74.5267 32.3959 75.9052 32.3325 77.409 32.6496C78.0983 32.7764 79.6647 33.2206 79.6647 33.9184Z" fill="white"/>
</svg>
