<svg width="64" height="64" viewBox="0 0 64 64" fill="none" xmlns="http://www.w3.org/2000/svg">
<g clip-path="url(#clip0_1_771)">
<path d="M28.4971 65.2488C27.6878 64.9583 26.8497 64.73 26.0771 64.3629C24.6787 63.6972 23.622 62.6357 22.8909 61.2661C22.7265 60.9596 22.5589 60.8064 22.163 60.8128C17.4619 60.8878 14.1097 57.1126 13.9565 53.2448C13.9549 53.1857 13.9198 53.1282 13.9006 53.0708C13.3659 53.0708 12.8391 53.0963 12.3171 53.0644C11.6084 53.0197 11.2093 52.6366 11.2205 52.0731C11.2316 51.5256 11.6882 51.0977 12.3586 51.1265C13.9772 51.1951 15.3995 50.7114 16.7005 49.7696C17.2704 49.3562 17.8387 49.4408 18.1611 49.8989C18.4979 50.3762 18.3558 50.9525 17.77 51.3659C17.3725 51.6453 16.9767 51.9613 16.5313 52.1321C15.9359 52.3604 15.7922 52.7371 15.8784 53.307C16.2408 55.6887 17.4492 57.4701 19.6951 58.3992C21.9363 59.3266 24.053 58.9706 25.9765 57.4909C26.0771 57.4127 26.1681 57.3217 26.2686 57.2435C26.8433 56.7965 27.4212 56.8045 27.7899 57.2626C28.1427 57.7 28.0836 58.3018 27.5297 58.7056C26.7811 59.2516 25.9717 59.7145 25.1832 60.2046C25.0251 60.3019 24.8448 60.3626 24.6388 60.4568C25.8648 62.3851 27.5952 63.3812 29.8188 63.3014C32.06 63.2216 33.7393 62.1201 34.8774 59.9603C34.4384 59.9603 34.116 59.9731 33.7935 59.9572C33.0577 59.9236 32.6091 59.5437 32.6139 58.9754C32.6187 58.4024 33.0784 58.0193 33.8063 58.0017C34.3108 57.9889 34.8152 58.0001 35.3547 58.0001V50.9525C34.1144 51.01 32.8805 50.9732 31.6785 51.152C30.5371 51.3228 29.6639 52.4562 29.5219 53.6311C29.5059 53.7572 29.5171 53.8865 29.4963 54.0126C29.4038 54.5888 28.9712 54.9592 28.4492 54.9145C27.9208 54.8698 27.5888 54.4579 27.5888 53.8482C27.5888 51.6086 29.308 49.5414 31.53 49.1966C32.3425 49.0705 33.179 49.0992 34.0043 49.0705C34.4448 49.0545 34.8854 49.0673 35.3563 49.0673V35.9601H34.5821C29.8667 35.9601 25.1513 35.9601 20.4358 35.9601C19.4254 35.9601 18.9353 35.6393 18.9465 34.9896C18.9576 34.3351 19.4397 34.027 20.4582 34.027C25.1736 34.027 29.889 34.027 34.6045 34.027C34.8359 34.027 35.0674 34.027 35.3435 34.027V17.9604C35.1137 17.9604 34.8886 17.9604 34.6619 17.9604C32.325 17.9604 29.988 17.9828 27.6526 17.9524C24.8831 17.9173 22.6754 15.748 22.6227 13.0646C22.61 12.3846 22.9117 11.9951 23.4831 11.9568C24.0785 11.9169 24.4664 12.2888 24.5383 12.972C24.725 14.7487 25.7179 15.9076 27.4866 15.9874C30.0886 16.1039 32.7001 16.0177 35.3483 16.0177V9.67888C34.8215 9.67888 34.2788 9.68526 33.7361 9.67888C33.0529 9.6693 32.6107 9.29257 32.6075 8.72749C32.6043 8.164 33.0481 7.78248 33.7297 7.77131C34.2389 7.76173 34.7481 7.76014 35.2589 7.75375C35.2765 7.75375 35.2941 7.733 35.3116 7.72183C35.6261 5.68656 33.8813 3.07823 31.6912 2.31042C28.9408 1.34466 26.0787 2.34553 24.6436 4.83095C24.848 4.92513 25.0475 5.01612 25.2454 5.1087C28.2975 6.54536 29.98 8.91745 30.1556 12.3128C30.1907 13.0055 29.8459 13.4509 29.2856 13.4924C28.7078 13.5355 28.2975 13.0997 28.2401 12.3846C27.9687 8.95097 25.7227 6.6172 22.2955 6.39851C19.4924 6.21972 16.6766 8.12888 16.0045 11.3342C15.8848 11.9073 15.88 12.5139 15.896 13.1029C15.9263 14.2746 15.5097 14.6481 14.3715 14.4007C10.8086 13.6249 7.78204 15.4319 6.77638 18.9373C6.47628 19.9797 6.54173 21.1833 6.92165 22.1555C8.16675 21.9719 9.38792 21.7548 10.6187 21.6239C11.4551 21.5345 12.001 22.1714 11.76 22.8658C11.57 23.4117 11.1087 23.5426 10.5883 23.5618C7.95444 23.6639 5.75476 24.7031 3.97968 26.6474C0.301839 30.6748 1.28675 37.4559 5.95749 40.2669C5.99261 40.2877 6.0389 40.2893 5.92237 40.259C6.93123 39.4464 7.82995 38.6515 8.80528 37.9635C9.45018 37.5086 10.2084 37.8821 10.301 38.5924C10.3776 39.1783 10.0089 39.4784 9.57308 39.7466C8.17154 40.6054 7.23611 41.8249 6.81629 43.4164C6.32783 45.2697 6.67104 46.9825 7.7629 48.5517C7.88421 48.7257 8.01829 48.8917 8.13323 49.0689C8.46845 49.5892 8.41896 50.1113 8.01191 50.4417C7.5873 50.7881 7.00625 50.7226 6.5992 50.2453C5.65898 49.1423 5.0524 47.8764 4.78742 46.4462C4.51445 44.9728 4.67088 43.5377 5.1769 42.1138C1.75446 39.8679 -0.175445 36.7535 -0.185023 32.6287C-0.1946 28.523 1.70499 25.4183 5.13222 23.1627C4.20956 20.3054 4.55596 17.6188 6.46991 15.2691C8.3631 12.9449 10.8884 12.0111 13.808 12.292C14.0363 11.3805 14.172 10.4754 14.4881 9.63577C15.6629 6.50865 18.624 4.46699 21.9555 4.46859C22.4887 4.46859 22.7297 4.27225 22.9675 3.83965C24.5447 0.974316 28.0325 -0.56131 31.2826 0.150635C34.5997 0.875349 37.0899 3.75505 37.3006 7.10247C37.3134 7.30998 37.3453 7.51751 37.3756 7.7777C38.0477 7.7777 38.6814 7.80164 39.3119 7.75854C39.454 7.74896 39.6232 7.52708 39.7062 7.36586C40.3543 6.12714 41.6728 5.35613 42.9243 5.50778C44.444 5.69135 45.5326 6.65711 45.8567 8.10654C46.1903 9.60385 45.3427 11.1922 43.8964 11.7764C42.4023 12.3814 40.6337 11.8211 39.8786 10.3972C39.5753 9.82414 39.2257 9.6677 38.6463 9.72516C38.2504 9.76507 37.8465 9.73315 37.398 9.73315V16.0433C38.8059 16.0433 40.1819 16.0433 41.5579 16.0433C42.6418 16.0433 43.7256 16.0656 44.8079 16.0289C45.124 16.0177 45.5183 15.9283 45.7322 15.7224C46.8783 14.621 47.9798 13.4717 49.0988 12.3351C48.3341 10.5824 48.5193 9.1952 49.6591 8.15442C50.818 7.09608 52.518 6.98115 53.7631 7.87826C55.0306 8.79134 55.4919 10.4483 54.8677 11.8418C54.2404 13.245 52.7 14.0591 51.1995 13.7047C50.7764 13.6057 50.5402 13.6887 50.2593 13.9761C49.2648 14.9945 48.2415 15.9842 47.2439 16.9979C46.599 17.6539 45.8487 17.9764 44.9149 17.9684C42.431 17.9445 39.9472 17.9604 37.4059 17.9604V21.9144C37.6262 21.9144 37.8497 21.9144 38.0732 21.9144C41.1955 21.9144 44.3179 21.9272 47.4402 21.9064C48.3485 21.9001 49.094 22.197 49.7229 22.8323C50.2608 23.375 50.8147 23.9034 51.3463 24.4541C51.8571 24.9825 51.8922 25.5571 51.4644 25.969C51.051 26.3665 50.5099 26.3345 49.9959 25.8477C49.4563 25.3369 48.9599 24.7798 48.4028 24.2881C48.1649 24.0774 47.8265 23.8555 47.5312 23.8523C44.1774 23.822 40.822 23.8332 37.4075 23.8332V29.2749H39.687C40.1579 28.1814 40.9178 27.3753 42.1533 27.1311C43.5197 26.8613 44.6451 27.3099 45.4528 28.4097C46.2334 29.4713 46.3228 30.6541 45.6859 31.8274C45.041 33.0182 44.0034 33.5897 42.6513 33.537C41.3679 33.4875 40.4469 32.8298 39.8786 31.7061C39.7174 31.3884 39.5529 31.2655 39.2081 31.2782C38.6191 31.3006 38.0269 31.2846 37.3916 31.2846V38.187C37.6087 38.1998 37.813 38.2205 38.0173 38.2205C40.8842 38.2221 43.7528 38.2141 46.6197 38.2301C47.0411 38.2317 47.2854 38.1487 47.4913 37.7193C48.1522 36.348 49.7053 35.6457 51.1117 36.0001C52.6345 36.3848 53.6514 37.657 53.6498 39.1767C53.6498 40.6979 52.6393 41.9574 51.1069 42.3469C49.6973 42.7045 48.1585 42.0021 47.4881 40.6341C47.2997 40.2494 47.0986 40.1249 46.6788 40.1281C43.641 40.1488 40.6033 40.1424 37.5672 40.1456C37.5257 40.1456 37.4858 40.1648 37.3948 40.1871V46.4829C37.5895 46.4957 37.7747 46.5164 37.9583 46.5164C40.316 46.518 42.6737 46.51 45.0314 46.526C45.4289 46.5292 45.6556 46.4494 45.8503 46.0455C46.5144 44.6647 48.0117 43.9799 49.4579 44.3215C50.9664 44.6791 52.0184 45.9641 52.0375 47.4726C52.0567 48.9252 51.0239 50.2405 49.5537 50.6396C48.1138 51.0291 46.5319 50.3459 45.8615 48.9651C45.654 48.5373 45.4177 48.4415 44.9931 48.4447C42.6785 48.4607 40.3623 48.4527 38.0477 48.4527H37.3868V53.5321C38.7612 53.5321 40.1164 53.5944 41.4653 53.5145C42.8509 53.4331 43.9571 53.8609 44.8366 54.9241C45.0394 55.1683 45.2996 55.363 45.5087 55.6041C46.0802 56.2585 46.6101 56.6401 47.6477 56.4102C49.3462 56.0367 50.9856 57.609 51.1356 59.4846C51.2633 61.0713 49.8665 62.6565 48.2735 62.8337C45.5119 63.1433 43.8246 60.2381 44.9069 58.2523C44.9835 58.1134 44.8622 57.8596 44.8159 57.6633C44.8031 57.6106 44.7233 57.5771 44.6866 57.526C43.4702 55.81 41.8452 55.1284 39.7493 55.454C39.0038 55.5689 38.2264 55.4732 37.3437 55.4732C37.3437 56.0925 37.3437 56.6784 37.3437 57.2626C37.3453 60.3419 36.0699 62.7283 33.3833 64.2527C32.5548 64.7237 31.5731 64.9248 30.66 65.2488H28.4939H28.4971ZM50.5498 10.5121C50.5338 11.1826 51.134 11.8099 51.8236 11.845C52.5228 11.8802 53.1884 11.2576 53.2044 10.5552C53.2204 9.88001 52.6281 9.27182 51.929 9.24468C51.1947 9.21595 50.5673 9.7938 50.5498 10.5137V10.5121ZM42.6928 7.47121C41.9649 7.46003 41.3807 8.00756 41.36 8.7211C41.3392 9.4522 41.9426 10.07 42.6737 10.0652C43.3856 10.062 43.9667 9.48253 43.9731 8.77219C43.9794 8.05545 43.4144 7.48238 42.6928 7.47281V7.47121ZM42.803 29.0195C42.0815 29.0243 41.4988 29.5958 41.4956 30.3013C41.4924 30.9973 42.0895 31.5959 42.795 31.6055C43.5245 31.6151 44.1598 30.9877 44.1391 30.2758C44.1183 29.5782 43.5181 29.0147 42.8014 29.0195H42.803ZM50.3997 40.4872C51.1212 40.4792 51.723 39.8519 51.6991 39.1304C51.6767 38.4424 51.0542 37.8438 50.3742 37.8549C49.6607 37.8677 49.0556 38.503 49.0812 39.2166C49.1051 39.911 49.7085 40.492 50.3981 40.4856L50.3997 40.4872ZM50.0549 47.5221C50.0677 46.7974 49.5218 46.2163 48.8018 46.1908C48.0883 46.1636 47.4865 46.7223 47.4626 47.4311C47.437 48.1781 48.0117 48.7943 48.7428 48.8055C49.4404 48.8167 50.0438 48.226 50.0549 47.5221ZM47.8648 58.3273C47.1258 58.3273 46.5734 58.8685 46.567 59.598C46.5606 60.3419 47.1593 60.9373 47.8952 60.9181C48.6103 60.899 49.1706 60.3163 49.1642 59.5996C49.1578 58.8717 48.6023 58.3273 47.8648 58.3273Z" fill="#AE3D8D"/>
<path d="M61.834 32.8713C61.7605 34.3894 61.1332 35.4206 59.8689 35.9697C58.5839 36.5284 57.3516 36.3241 56.3347 35.3615C55.3418 34.4229 55.0258 33.248 55.5126 31.9375C55.6483 31.5704 55.5637 31.3628 55.3035 31.1202C54.8214 30.6732 54.3537 30.2071 53.9036 29.7282C53.4343 29.2286 53.4263 28.6555 53.8477 28.2628C54.2388 27.8989 54.8087 27.9292 55.2716 28.3666C55.7345 28.804 56.1974 29.2446 56.6221 29.7187C56.903 30.0331 57.1488 30.0826 57.5543 29.9389C59.6295 29.2046 61.8547 30.8217 61.8355 32.8713H61.834ZM58.5631 34.2936C59.2942 34.2936 59.8561 33.7413 59.8625 33.0166C59.8689 32.2887 59.3214 31.7268 58.5919 31.714C57.8273 31.7012 57.2542 32.2647 57.2638 33.0214C57.2717 33.7493 57.8288 34.2952 58.5647 34.2936H58.5631Z" fill="#AE3D8D"/>
<path d="M18.2984 22.6535C18.2872 25.8157 15.6374 28.4847 12.5151 28.48C11.9564 28.48 11.5046 28.0841 11.4711 27.5685C11.436 27.0289 11.8765 26.6682 12.5278 26.5085C13.2924 26.3202 14.1209 26.1526 14.7594 25.7311C16.1195 24.8324 16.6398 23.1723 16.2328 21.6399C15.8162 20.0723 14.4801 18.9421 12.8104 18.7474C12.6635 18.7298 12.5119 18.7378 12.3666 18.7139C11.8334 18.6293 11.4535 18.2031 11.4727 17.721C11.4934 17.1862 11.9021 16.8127 12.4943 16.8111C14.105 16.8063 15.4794 17.4129 16.6031 18.5335C17.7317 19.6589 18.2808 21.0572 18.3 22.6567L18.2984 22.6535Z" fill="#AE3D8D"/>
<path d="M19.0024 41.1145C20.3832 41.1145 21.7639 41.0794 23.1431 41.1385C23.5135 41.1545 24.0019 41.3556 24.2111 41.6381C24.6628 42.2479 24.1344 43.0333 23.2868 43.0556C22.1838 43.0844 21.0775 43.0636 19.9745 43.0636C18.4022 43.0636 16.8314 43.054 15.2591 43.0684C13.6404 43.0828 12.4656 44.181 12.2996 45.8012C12.2197 46.5866 11.8302 46.9969 11.2173 46.9426C10.5931 46.8867 10.3345 46.4302 10.3728 45.6336C10.4782 43.3845 12.4209 41.0651 15.4985 41.1145C16.667 41.1337 17.8339 41.1177 19.0024 41.1177V41.1145Z" fill="#AE3D8D"/>
<path d="M59.6917 54.4659C59.6613 56.2474 58.1034 57.7591 56.349 57.708C54.5772 57.6553 53.0958 56.142 53.1246 54.4133C53.1549 52.6126 54.6602 51.1648 56.4656 51.1983C58.2486 51.2318 59.7204 52.7244 59.6917 54.4659ZM57.7075 54.4532C57.7139 53.73 57.16 53.1538 56.44 53.1362C55.7233 53.1187 55.1311 53.6758 55.1103 54.3893C55.088 55.1523 55.6435 55.7238 56.4065 55.7238C57.1456 55.7238 57.6995 55.1842 57.7059 54.4547L57.7075 54.4532Z" fill="#AE3D8D"/>
<path d="M63.8149 44.4779C63.8085 46.269 62.3783 47.7008 60.5809 47.7152C58.777 47.7296 57.2973 46.2514 57.3053 44.4444C57.3117 42.6805 58.7834 41.2055 60.5505 41.188C62.3304 41.1704 63.8213 42.6725 63.8149 44.4779ZM60.5665 43.1722C59.8529 43.1722 59.2543 43.7468 59.2415 44.446C59.2288 45.1372 59.8258 45.7438 60.5346 45.7598C61.2704 45.7757 61.901 45.1643 61.8898 44.4476C61.8786 43.75 61.2816 43.1738 60.5681 43.1738L60.5665 43.1722Z" fill="#AE3D8D"/>
<path d="M60.6207 20.026C60.6127 21.7995 59.1441 23.2617 57.3723 23.2617C55.5764 23.2617 54.1047 21.7724 54.1158 19.9654C54.1254 18.1999 55.6052 16.7281 57.3707 16.7265C59.1633 16.7249 60.6287 18.2142 60.6207 20.0276V20.026ZM57.4042 21.2887C58.1066 21.2743 58.7116 20.6629 58.6988 19.9781C58.686 19.255 58.0587 18.682 57.3084 18.7091C56.6332 18.733 56.0522 19.3141 56.0426 19.9781C56.0314 20.6901 56.6699 21.3047 57.4026 21.2903L57.4042 21.2887Z" fill="#AE3D8D"/>
<path d="M24.2797 49.8351C24.302 52.6445 22.1646 54.8506 19.6361 54.9049C19.0487 54.9177 18.6097 54.5713 18.557 54.0525C18.4995 53.489 18.7901 53.1538 19.403 52.9877C19.9873 52.8297 20.6178 52.7196 21.1206 52.4131C22.1087 51.8113 22.5078 50.6204 22.2492 49.4663C22.013 48.4144 21.1254 47.5827 20.016 47.3784C19.8069 47.3401 19.5962 47.3145 19.3887 47.2762C18.8284 47.1741 18.5219 46.8005 18.5538 46.2658C18.5857 45.7342 18.9928 45.3814 19.5882 45.3719C21.4351 45.3447 23.3506 46.6952 23.9652 48.4974C24.1408 49.013 24.219 49.5621 24.2813 49.8335L24.2797 49.8351Z" fill="#AE3D8D"/>
<path d="M33.4791 27.0704C33.4791 29.2861 31.7918 31.0867 29.5809 31.2319C28.8115 31.283 28.3853 30.9957 28.3326 30.3891C28.28 29.7873 28.6663 29.4026 29.4085 29.318C30.9936 29.1344 31.9402 27.7409 31.4167 26.3186C31.107 25.4789 30.4892 24.9729 29.5889 24.8372C29.3591 24.8021 29.1164 24.7845 28.9073 24.6967C28.4316 24.4972 28.2592 24.1077 28.363 23.6097C28.4779 23.051 28.8961 22.8578 29.4005 22.869C31.6625 22.9185 33.4823 24.8037 33.4807 27.072L33.4791 27.0704Z" fill="#AE3D8D"/>
<path d="M25.4322 23.6975C25.362 27.2939 22.1151 30.4306 18.6592 30.3811C18.043 30.3716 17.588 29.9916 17.5577 29.4617C17.5258 28.8934 17.968 28.4672 18.6943 28.4289C19.858 28.3682 20.8844 27.9851 21.7639 27.2173C22.7105 26.3904 23.2932 25.3688 23.4225 24.1045C23.4432 23.8938 23.4847 23.6847 23.5182 23.4756C23.6172 22.8578 23.9796 22.5274 24.5223 22.5545C25.0507 22.5817 25.4066 22.9823 25.4322 23.5825C25.4354 23.6671 25.4322 23.7517 25.4322 23.6959V23.6975Z" fill="#AE3D8D"/>
<path d="M12.7449 35.941C11.511 35.9889 10.2946 35.9617 9.18042 35.3009C7.58094 34.3511 6.73651 32.948 6.59124 31.1122C6.54016 30.4705 6.88495 30.0204 7.41971 29.9533C8.00076 29.8799 8.39026 30.2263 8.50519 30.9191C8.87234 33.1172 9.94663 34.0286 12.1671 34.0302C12.8231 34.0302 13.4808 34.0239 14.1369 34.035C14.3444 34.0382 14.5663 34.0526 14.7578 34.1244C15.2064 34.2952 15.4219 34.6496 15.3564 35.1269C15.2926 35.5962 15.0116 35.9107 14.5248 35.9346C13.9326 35.9634 13.3387 35.941 12.7465 35.941H12.7449Z" fill="#AE3D8D"/>
<path d="M22.3753 8.09696C23.0904 8.06823 23.5645 8.41462 23.606 8.99886C23.6475 9.56235 23.2038 9.97579 22.487 10.0412C21.1014 10.1673 20.5092 10.6957 20.2107 12.0733C20.075 12.6991 19.6408 13.0582 19.1157 12.9768C18.5729 12.8922 18.2648 12.4468 18.3063 11.8051C18.434 9.80978 20.2155 8.18635 22.3753 8.09855V8.09696Z" fill="#AE3D8D"/>
<path d="M29.1755 43.062C28.5817 43.062 27.9879 43.0732 27.3941 43.0589C26.7172 43.0413 26.2751 42.6534 26.2655 42.0963C26.2559 41.5264 26.6614 41.1353 27.3637 41.1226C28.5929 41.1002 29.8236 41.1002 31.0543 41.1226C31.7392 41.1353 32.1733 41.5488 32.1606 42.0979C32.1462 42.647 31.6944 43.0301 31.0208 43.0605C31.0001 43.0605 30.9777 43.0605 30.957 43.0605C30.3631 43.0605 29.7693 43.0605 29.1755 43.0605V43.062Z" fill="#AE3D8D"/>
</g>
<defs>
<clipPath id="clip0_1_771">
<rect width="64" height="64" fill="white"/>
</clipPath>
</defs>
</svg>
