<svg width="278" height="39" viewBox="0 0 278 39" fill="none" xmlns="http://www.w3.org/2000/svg">
<path d="M0 1.91198V36.804C0 37.8443 0.854018 38.6893 1.90548 38.6893H37.1708C38.2231 38.6893 39.0771 37.8443 39.0771 36.804V1.91198C39.0771 0.870857 38.2231 0.0258795 37.1708 0.0258795H1.90548C0.854018 0.0250949 0 0.870073 0 1.91198Z" fill="white"/>
<path d="M29.3316 1.98268C29.2698 2.20628 29.7154 2.5303 30.46 2.56012C31.4655 2.60091 31.8723 2.54992 31.9294 2.33024C31.9825 2.11056 31.4528 1.85401 30.7288 1.67591C30.0064 1.50566 29.3792 1.76692 29.3316 1.98268Z" fill="#BBBDBF"/>
<path d="M7.50458 3.44345C10.7042 2.0226 16.1439 0.842612 21.4393 0.784554C23.1045 0.734342 24.4589 0.261249 26.2605 0.0258789H1.90548C0.855604 0.0258789 0 0.870072 0 1.91355V9.03191C1.85711 6.78884 4.33908 4.84076 7.50458 3.44345Z" fill="#BBBDBF"/>
<path d="M33.0871 0.286947C35.1575 1.18449 36.4413 2.88386 37.8972 4.17683L36.4366 5.19912L38.9614 6.55328L35.9973 6.04331L35.7229 7.18407C33.4178 6.95733 30.897 6.55328 28.6188 6.32654C25.9243 5.71379 23.6858 5.30896 20.8834 5.24776C8.90657 5.07908 0.793004 13.1005 1.07371 20.8481C1.34887 30.7367 13.945 34.4156 21.6574 34.4187C31.3537 34.4721 36.7514 30.6693 39.0771 26.4405V16.8476C38.3365 15.9508 37.3255 15.3836 36.1027 15.3216C33.9713 15.2219 30.7812 28.7133 25.6261 28.6624C21.2181 28.6168 18.6346 15.8826 16.4746 15.8826C14.6278 15.9265 12.5431 25.0306 10.8057 28.1461C9.85892 29.8949 4.8823 24.9262 5.21852 24.1346C5.55473 23.3493 7.39361 26.8892 8.68137 25.7767C9.52905 25.0306 11.3196 11.8012 16.3509 11.398C20.7724 11.0653 23.9562 25.4503 25.8672 25.3146C28.2096 25.2636 31.8501 11.2473 35.7776 11.6333C37.0178 11.7589 38.12 12.1355 39.0779 12.7043V1.91257C39.0779 0.870665 38.2247 0.0249023 37.174 0.0249023H32.0475C32.4155 0.0931596 32.7715 0.175539 33.0871 0.286947Z" fill="#BBBDBF"/>
<path d="M24.1075 38.6893H37.1732C38.2238 38.6893 39.077 37.8427 39.077 36.804V31.9365C35.9615 35.3125 31.0689 37.9604 24.1075 38.6893Z" fill="#BBBDBF"/>
<path d="M0 31.0376V36.8042C0 37.8429 0.854018 38.6895 1.90548 38.6895H16.5086C9.64557 37.9159 3.74912 35.0028 0 31.0376Z" fill="#BBBDBF"/>
<path d="M74.7571 13.1142C75.4898 13.8407 75.4898 14.7108 75.4898 16.8887H74.9022C74.7571 14.4205 73.1418 13.2577 71.0896 13.2577C68.1525 13.2577 66.8322 15.8719 66.8322 19.2118C66.8322 22.5509 68.1525 25.1659 71.0896 25.1659C73.1418 25.1659 74.3154 24.295 75.3439 22.842L75.9307 23.2766C74.6104 25.4562 72.8468 26.3263 70.4989 26.3263C66.0995 26.3263 64.0442 23.1331 64.0442 19.2126C64.0442 15.2921 66.0987 12.0981 70.4989 12.0981C72.555 12.0974 74.0228 12.3892 74.7571 13.1142Z" fill="#808183"/>
<path d="M85.3241 26.0367H84.7341L79.7448 15.1461V26.0367H78.572V12.3892H81.3585L85.7626 21.9703L90.1651 12.3892H92.8072V21.6816C92.8072 23.8587 93.6851 26.0367 95.0093 26.0367V26.6173C91.3403 26.6173 90.1651 24.7312 90.1651 21.6816V15.438L85.3241 26.0367Z" fill="#808183"/>
<path d="M103.811 17.3237H96.328V19.3581H103.811V17.3237Z" fill="#808183"/>
<path d="M116.58 13.1142C117.312 13.8407 117.312 14.7108 117.312 16.8887H116.725C116.579 14.4205 114.964 13.2577 112.91 13.2577C109.975 13.2577 108.655 15.8719 108.655 19.2118C108.655 22.5509 109.975 25.1659 112.91 25.1659C114.964 25.1659 116.138 24.295 117.166 22.842L117.753 23.2766C116.433 25.4562 114.668 26.3263 112.321 26.3263C107.921 26.3263 105.865 23.1331 105.865 19.2126C105.865 15.2921 107.921 12.0981 112.321 12.0981C114.377 12.0974 115.845 12.3892 116.58 13.1142Z" fill="#808183"/>
<path d="M122.301 13.5501C120.539 13.5501 119.218 14.5669 119.218 16.453H118.633V14.7105C118.633 13.5501 119.073 12.3882 120.832 12.3882H131.254V13.5501H126.411V26.0365H123.771V13.5501H122.301Z" fill="#808183"/>
<path d="M138.589 13.2599C136.39 13.2599 134.921 15.8717 134.921 19.2108C134.921 22.5499 136.391 25.1657 138.589 25.1657C140.792 25.1657 142.257 22.5499 142.257 19.2108C142.257 15.8717 140.792 13.2599 138.589 13.2599ZM138.589 12.0972C142.699 12.0972 145.047 15.2904 145.047 19.2108C145.047 23.1321 142.699 26.3268 138.589 26.3268C134.479 26.3268 132.133 23.1321 132.133 19.2108C132.133 15.2911 134.479 12.0972 138.589 12.0972Z" fill="#808183"/>
<path d="M154.73 26.0367H154.145L149.153 15.1461V26.0367H147.98V12.3892H150.771L155.173 21.9703L159.576 12.3892H162.218V21.6816C162.218 23.8587 163.097 26.0367 164.417 26.0367V26.6173C160.749 26.6173 159.576 24.7312 159.576 21.6816V15.438L154.73 26.0367Z" fill="#808183"/>
<path d="M174.102 19.3575H173.223C170.288 19.3575 168.522 20.5195 168.522 22.2628C168.522 24.1473 169.847 25.019 171.314 25.019C172.782 25.019 173.514 24.1481 174.103 23.2765V19.3575H174.102ZM175.274 26.0366L174.248 24.731H174.102C173.514 25.4568 172.194 26.3276 169.992 26.3276C168.38 26.3276 165.736 25.4568 165.736 22.2628C165.736 19.068 169.259 18.1964 173.222 18.1964H174.102C174.102 14.1315 172.78 13.2599 171.019 13.2599C169.404 13.2599 168.23 13.8405 167.789 15.7281H166.471C166.471 14.7106 166.471 13.8405 167.204 13.114C167.936 12.3882 169.846 12.0972 171.607 12.0972C174.247 12.0972 176.743 12.968 176.743 18.1964V26.0358H175.274V26.0366Z" fill="#808183"/>
<path d="M182.173 13.5501C180.411 13.5501 179.091 14.5669 179.091 16.453H178.506V14.7105C178.506 13.5501 178.944 12.3882 180.705 12.3882H191.126V13.5501H186.284V26.0365H183.643V13.5501H182.173Z" fill="#808183"/>
<path d="M198.461 13.2599C196.262 13.2599 194.792 15.8717 194.792 19.2108C194.792 22.5499 196.262 25.1657 198.461 25.1657C200.663 25.1657 202.129 22.5499 202.129 19.2108C202.129 15.8717 200.663 13.2599 198.461 13.2599ZM198.461 12.0972C202.57 12.0972 204.918 15.2904 204.918 19.2108C204.918 23.1321 202.57 26.3268 198.461 26.3268C194.352 26.3268 192.004 23.1321 192.004 19.2108C192.004 15.2911 194.352 12.0972 198.461 12.0972Z" fill="#808183"/>
<path d="M211.669 17.0346C211.669 24.0031 210.494 26.3278 207.707 26.3278C207.265 26.3278 206.53 26.1818 206.092 26.0367V25.3102C208.292 25.1658 209.171 22.8419 209.171 15.8718C209.171 14.1317 208.88 12.969 207.091 12.969V12.3892H219.007V26.0367H216.366V13.5511H211.669V17.0346Z" fill="#808183"/>
<path d="M228.69 13.2599C226.489 13.2599 225.024 15.8717 225.024 19.2108C225.024 22.5499 226.489 25.1657 228.69 25.1657C230.892 25.1657 232.362 22.5499 232.362 19.2108C232.362 15.8717 230.892 13.2599 228.69 13.2599ZM228.69 12.0972C232.804 12.0972 235.148 15.2904 235.148 19.2108C235.148 23.1321 232.804 26.3268 228.69 26.3268C224.582 26.3268 222.234 23.1321 222.234 19.2108C222.234 15.2911 224.582 12.0972 228.69 12.0972Z" fill="#808183"/>
<path d="M238.085 15.8723C238.085 14.129 237.792 12.9694 236.028 12.9694H235.737V12.3896H245.421C247.182 12.3896 247.623 13.55 247.623 14.7104V16.4553H247.037C247.037 14.566 245.712 13.55 243.954 13.55H240.725V26.0372H238.085V15.8723Z" fill="#808183"/>
<path d="M259.068 15.0031L252.904 26.0365H250.264V15.874C250.264 14.1307 249.97 12.9688 248.207 12.9688H247.768V12.3882H250.263C252.317 12.3882 252.904 12.9688 252.904 15.874V23.4231L259.067 12.3882H261.708V26.0365H259.067V15.0031H259.068Z" fill="#808183"/>
<path d="M273.302 13.6947C272.862 13.5511 271.982 13.4067 271.394 13.4067C269.34 13.4067 268.021 14.2768 268.021 16.3089C268.021 18.3424 269.34 19.2117 271.394 19.2117C271.982 19.2117 272.862 19.0682 273.302 18.9238V13.6947ZM275.944 26.0367H273.302V20.2285H271.011L269.251 23.7144C268.372 25.4569 267.343 26.3278 265.672 26.3278C265.084 26.3278 264.497 26.1818 264.057 26.0367V25.4569C265.376 25.3102 266.259 24.1482 266.846 23.133L268.607 20.0834C266.846 19.7939 265.231 18.4868 265.231 16.3089C265.231 13.26 267.872 12.3892 271.099 12.3892H278V12.969C276.237 12.969 275.943 14.1317 275.943 15.8718V26.0367H275.944Z" fill="#808183"/>
<path d="M53.1173 0H51.9937V39H53.1173V0Z" fill="#893439"/>
</svg>
