<svg width="64" height="64" viewBox="0 0 64 64" fill="none" xmlns="http://www.w3.org/2000/svg">
<g clip-path="url(#clip0_1_721)">
<path d="M57.6831 22.136C57.5052 27.3655 56.268 32.3046 53.8861 36.9556C53.8761 36.9731 53.8736 36.9957 53.8611 37.0132C52.0728 39.4401 51.6495 42.3429 51.0109 45.1731C49.8963 50.1197 48.7793 55.0637 47.6347 60.0028C46.7355 63.8849 42.3675 65.2724 39.3871 62.6376C38.5481 61.8937 38.0697 60.9269 37.8843 59.8299C37.1254 55.3392 36.3816 50.8485 35.6277 46.3578C35.3046 44.4293 35.0016 42.4982 34.6359 40.5797C34.3879 39.2773 33.3085 38.4183 32.0311 38.3957C30.7538 38.3732 29.6217 39.2523 29.3763 40.5922C28.8854 43.2696 28.4546 45.9596 28.0038 48.647C27.3751 52.3988 26.7765 56.1582 26.1128 59.9026C25.6945 62.2719 23.6984 63.94 21.3466 63.9976C18.9747 64.0552 16.936 62.4422 16.3725 59.9927C14.8622 53.4332 13.377 46.8662 11.8743 40.3042C11.8116 40.0262 11.7039 39.7457 11.5562 39.5027C8.97144 35.3226 7.30088 30.8118 6.68475 25.9329C6.33912 23.1979 6.12373 20.4454 6.91017 17.7479C8.61329 11.8922 12.4478 8.20046 18.3711 6.75281C21.2113 6.05653 24.039 6.28445 26.784 7.30131C28.427 7.90992 30.065 8.48598 31.8533 8.496C33.5063 8.50601 35.0642 8.13033 36.5895 7.53424C40.9374 5.83613 45.2453 5.94132 49.3854 8.1153C53.8686 10.4696 56.5585 14.209 57.3976 19.2231C57.5578 20.1849 57.5954 21.1667 57.6881 22.1385L57.6831 22.136ZM55.4966 22.151C55.4665 21.6325 55.454 21.1116 55.4064 20.5956C55.0107 16.2201 52.9695 12.8014 49.2451 10.4997C45.5884 8.23802 41.6738 7.91243 37.6339 9.43271C36.051 10.0288 34.4556 10.5222 32.7474 10.6174C30.5409 10.7401 28.4521 10.2692 26.4209 9.45275C24.1868 8.55861 21.8726 8.29563 19.5007 8.72642C14.6994 9.59801 11.3708 12.328 9.46985 16.7987C8.37284 19.3734 8.44298 22.0683 8.71347 24.7833C9.15929 29.259 10.4792 33.4542 12.7834 37.3087C13.5799 38.6412 14.0407 40.0362 14.3738 41.5264C15.7213 47.5475 17.0963 53.561 18.4788 59.5745C18.8019 60.9745 19.9766 61.8962 21.2915 61.8637C22.6364 61.8311 23.7585 60.8869 24.0039 59.4643C24.8129 54.7732 25.5818 50.0746 26.3758 45.381C26.6914 43.5176 26.9518 41.6392 27.3751 39.7983C27.861 37.6794 29.8847 36.2318 32.0963 36.2518C34.1776 36.2693 36.1912 37.7445 36.617 39.8008C37.2081 42.6485 37.6439 45.5288 38.1298 48.3965C38.761 52.1058 39.362 55.8201 40.0107 59.5269C40.2136 60.694 40.9525 61.4679 42.1071 61.7535C43.7751 62.1667 45.1802 61.1824 45.6035 59.3265C46.9534 53.3907 48.3134 47.4573 49.6283 41.5139C49.969 39.9786 50.4924 38.5635 51.2738 37.1835C52.2005 35.5455 52.982 33.8073 53.6507 32.0466C54.8554 28.8708 55.4089 25.5522 55.4991 22.151H55.4966Z" fill="#AE3D8D"/>
<path d="M58.9154 44.7924C59.0857 44.9577 59.4263 45.2032 59.6492 45.5288C59.827 45.7917 59.8446 46.1574 59.9648 46.4655C60.4757 47.7779 61.43 48.6069 62.7824 48.9876C62.8626 49.0101 62.9452 49.0202 63.0254 49.0402C63.5814 49.1779 63.9871 49.4835 63.9997 50.0946C64.0147 50.7408 63.5964 51.0814 63.0154 51.2067C62.016 51.4221 61.157 51.8804 60.5809 52.7169C60.2227 53.2354 59.9848 53.8515 59.7769 54.4501C59.5891 54.9911 59.3462 55.4194 58.73 55.4344C58.0914 55.4494 57.7532 55.0687 57.608 54.4701C57.1772 52.7094 56.0952 51.6074 54.3119 51.1966C53.7584 51.0689 53.3727 50.7558 53.3777 50.1197C53.3827 49.4885 53.7684 49.1779 54.3194 49.0477C56.1252 48.6219 57.2072 47.4924 57.6255 45.7041C57.7557 45.1506 58.0914 44.84 58.9154 44.7899V44.7924ZM58.6148 51.3219C59.0506 50.9337 59.5565 50.4828 59.9422 50.1397C59.524 49.7315 59.0506 49.2681 58.7175 48.9425C58.3393 49.2831 57.8234 49.749 57.4151 50.1197C57.8309 50.5379 58.2992 51.0063 58.6148 51.3244V51.3219Z" fill="#AE3D8D"/>
<path d="M5.48255 10.6199C4.77375 10.6299 4.40308 10.3143 4.27785 9.77835C3.84706 7.90242 2.70747 6.77285 0.834045 6.35208C0.313092 6.23437 -0.00248979 5.8687 1.47975e-05 5.3252C1.47975e-05 4.71909 0.383218 4.37096 0.94174 4.24823C2.18902 3.97273 3.1608 3.32154 3.77693 2.19948C3.99232 1.80626 4.11004 1.35544 4.24529 0.922145C4.40808 0.398687 4.69861 0.0154857 5.27717 0.000458219C5.88328 -0.0145693 6.23392 0.341082 6.37167 0.912127C6.80747 2.72044 7.90699 3.8475 9.74034 4.26075C10.2688 4.38097 10.6245 4.70907 10.622 5.31018C10.622 5.90376 10.2938 6.23687 9.75286 6.36461C7.90698 6.79289 6.78243 7.92496 6.36166 9.77084C6.24395 10.2943 5.91584 10.5999 5.48004 10.6224L5.48255 10.6199ZM6.55703 5.30517C6.16882 4.91195 5.69293 4.43357 5.33728 4.07291C4.91401 4.46112 4.41811 4.91696 4.04994 5.25758C4.46069 5.72093 4.909 6.22435 5.25964 6.62007C5.71046 6.16173 6.17132 5.69338 6.55703 5.30517Z" fill="#AE3D8D"/>
<path d="M11.7816 21.3069C11.5412 16.9189 14.6544 13.4475 17.9254 12.8715C18.0581 13.5277 18.1934 14.1839 18.3336 14.8727C15.248 15.9171 13.9331 18.1837 13.8454 21.3069H11.7816Z" fill="#AE3D8D"/>
<path d="M22.3484 14.8827H20.2921V12.8064H22.3484V14.8827Z" fill="#AE3D8D"/>
</g>
<defs>
<clipPath id="clip0_1_721">
<rect width="64" height="64" fill="white"/>
</clipPath>
</defs>
</svg>
