<svg width="64" height="64" viewBox="0 0 64 64" fill="none" xmlns="http://www.w3.org/2000/svg">
<g clip-path="url(#clip0_1_697)">
<path d="M61.9295 39.331C59.4334 35.9111 56.9698 32.5312 54.5013 29.1563C53.2745 27.4764 52.1228 25.7339 50.5456 24.3394C47.0555 21.2499 42.9571 19.8779 38.3279 20.0382C37.1687 20.0782 36.1422 20.5088 35.276 21.2975C34.4748 22.026 33.6662 22.7471 32.86 23.4706C32.2141 24.049 31.8285 24.049 31.1776 23.4656C30.3714 22.7446 29.5627 22.021 28.7616 21.2925C27.8578 20.4738 26.7862 20.0557 25.582 20.0332C19.6209 19.9205 14.7513 22.1462 11.1636 26.9482C8.1618 30.9665 5.24008 35.0449 2.2833 39.0982C2.23573 39.1658 2.19568 39.2384 2.13058 39.3486C3.57016 41.3465 5.01475 43.3544 6.45934 45.3623C6.76228 45.7854 7.07523 46.201 7.36815 46.6316C7.75872 47.2024 7.70113 47.7282 7.23296 48.0587C6.76478 48.3916 6.24403 48.279 5.83844 47.7207C4.10594 45.3272 2.38094 42.9262 0.653447 40.5278C0.580842 40.4276 0.508237 40.325 0.435632 40.2248C-0.1402 39.4287 -0.145207 39.2359 0.425618 38.4523C2.15311 36.0814 3.88312 33.7104 5.61812 31.342C7.14283 29.259 8.60494 27.1284 10.2173 25.1155C13.2441 21.3325 17.1974 19.0593 22.0018 18.3908C23.4514 18.188 24.9461 18.203 26.4132 18.2556C27.7151 18.3032 28.8517 18.9015 29.8406 19.7477C30.5667 20.3686 31.2727 21.0121 32.0238 21.6755C32.7423 21.0396 33.4358 20.4162 34.1368 19.8028C35.3411 18.7463 36.7631 18.1905 38.3504 18.1579C45.0376 18.0127 50.4654 20.5414 54.4712 25.9317C57.5632 30.0902 60.5826 34.3038 63.647 38.4823C64.0376 39.0156 64.1527 39.4813 63.7346 40.0596C60.6902 44.2532 57.756 48.5318 54.5989 52.6378C51.1815 57.0817 46.5773 59.678 41.0193 60.5092C39.9127 60.6744 38.7836 60.742 37.6619 60.7495C33.8089 60.777 29.9533 60.762 26.1002 60.7595C22.0018 60.757 18.2213 59.6554 14.7538 57.4748C14.6186 57.3896 14.4734 57.317 14.2606 57.1994C14.2306 57.6325 14.2206 57.998 14.178 58.3585C14.0153 59.7556 12.9011 60.7545 11.5217 60.757C10.1422 60.757 9.00802 59.7531 8.86532 58.3661C8.81775 57.8954 8.8578 57.4147 8.8578 56.8439C8.36459 56.8439 7.954 56.8664 7.54591 56.8389C6.13637 56.7487 5.06983 55.7773 4.90459 54.4579C4.74686 53.1986 5.55804 51.9217 6.80984 51.5863C7.30055 51.4536 7.83883 51.4736 8.35708 51.4686C8.71009 51.4661 8.83527 51.3409 8.82776 50.9929C8.81775 50.5998 8.82776 50.1993 8.87783 49.8087C9.04307 48.5143 10.1972 47.5179 11.5091 47.5129C12.8185 47.5079 13.9852 48.4943 14.1555 49.7887C14.2256 50.3194 14.2256 50.8577 14.2606 51.4636C14.6912 51.4636 15.0818 51.4511 15.4724 51.4636C16.6591 51.5086 17.5854 52.1621 17.9735 53.2061C18.3716 54.2827 18.0761 55.3792 17.1648 56.1979C17.0722 56.2805 16.977 56.3607 16.7217 56.581C18.1112 57.1193 19.378 57.6801 20.6874 58.0982C22.4399 58.6565 24.2576 58.8818 26.1027 58.8793C29.9157 58.8743 33.7287 58.8893 37.5393 58.8743C44.2339 58.8518 49.6392 56.1929 53.6325 50.8151C56.4366 47.0397 59.143 43.1941 61.927 39.331H61.9295ZM16.2585 54.0673C16.1884 53.6542 15.9455 53.3563 15.4448 53.3513C14.7989 53.3438 14.153 53.3538 13.507 53.3413C12.6658 53.3238 12.3478 53.0033 12.3278 52.1546C12.3153 51.5712 12.3328 50.9879 12.3203 50.4046C12.3078 49.7711 12.0174 49.4081 11.5367 49.3956C11.036 49.3831 10.7305 49.7586 10.718 50.4296C10.708 50.9929 10.723 51.5537 10.713 52.117C10.698 53.0058 10.3825 53.3263 9.50624 53.3413C8.9229 53.3513 8.33956 53.3363 7.75621 53.3463C7.13031 53.3588 6.77229 53.6618 6.7798 54.15C6.78731 54.6257 7.16035 54.9386 7.77874 54.9536C8.38212 54.9686 8.98799 54.9486 9.59136 54.9611C10.385 54.9787 10.6879 55.2716 10.713 56.0602C10.7305 56.6636 10.7105 57.2695 10.723 57.8728C10.7355 58.5163 11.0159 58.8643 11.5041 58.8743C12.0174 58.8868 12.3128 58.5263 12.3253 57.8453C12.3353 57.262 12.3178 56.6786 12.3328 56.0953C12.3554 55.2666 12.6508 54.9762 13.4795 54.9611C14.1054 54.9486 14.7313 54.9737 15.3547 54.9511C15.9205 54.9286 16.2735 54.5856 16.2635 54.0698L16.2585 54.0673Z" fill="#AE3D8D"/>
<path d="M31.9687 47.7908C28.9469 47.7908 25.9275 47.8083 22.9056 47.7833C21.1055 47.7683 19.4256 47.245 17.8333 46.4188C13.9201 44.3909 10.007 42.363 6.09383 40.3375C5.67322 40.1197 5.28265 39.8869 5.27014 39.3436C5.25762 38.7928 5.63817 38.5575 6.06879 38.3421C10.1973 36.2842 14.3157 34.2037 18.4542 32.1682C19.8863 31.4622 21.431 31.1217 23.0383 31.1217C28.9769 31.1192 34.9155 31.1217 40.8541 31.1167C42.6992 31.1167 44.4367 31.5648 46.0791 32.386C50.0774 34.3814 54.0732 36.3868 58.0715 38.3822C58.4745 38.5825 58.8526 38.8604 58.7424 39.311C58.6548 39.6641 58.3769 40.0822 58.0664 40.2474C54.0406 42.373 49.9973 44.4685 45.9514 46.554C44.2164 47.4478 42.3562 47.8233 40.4109 47.8183C37.5969 47.8108 34.7853 47.8183 31.9712 47.8183C31.9712 47.8108 31.9712 47.8033 31.9712 47.7958L31.9687 47.7908ZM19.8212 40.2574C19.0776 40.2574 18.4367 40.2574 17.7932 40.2574C16.3962 40.2574 15.8905 40.6855 15.6501 42.065C15.6276 42.1877 15.6251 42.3179 15.5825 42.4331C15.4198 42.8787 15.5425 43.1491 15.9906 43.3594C16.8369 43.7525 17.6656 44.1931 18.4867 44.6387C20.1316 45.535 21.8816 45.9381 23.7544 45.9306C29.2748 45.9106 34.7928 45.9356 40.3133 45.9106C41.1795 45.9081 42.1009 45.9031 42.902 45.6227C44.4217 45.0919 45.8888 44.3934 47.346 43.7024C48.6528 43.0815 48.6353 43.0439 48.2923 41.6169C48.1071 40.8508 47.6414 40.3375 46.9153 40.29C46.0491 40.2299 45.1778 40.2749 44.234 40.2749C44.234 40.6655 44.2515 41.0135 44.2289 41.3615C44.1889 42.0175 43.8384 42.3805 43.2826 42.3805C42.7218 42.3805 42.3838 42.015 42.3512 41.3565C42.3337 41.0085 42.3487 40.658 42.3487 40.2574C41.6677 40.2574 41.0694 40.2574 40.4685 40.2574C39.6523 40.2549 39.2593 39.957 39.2518 39.3411C39.2442 38.7052 39.6598 38.3847 40.5036 38.3797C41.0994 38.3797 41.6953 38.3797 42.3512 38.3797C42.3512 37.9691 42.3337 37.6386 42.3562 37.3107C42.3963 36.6873 42.7293 36.3568 43.2826 36.3568C43.8259 36.3568 44.1739 36.6948 44.2239 37.3081C44.2515 37.6511 44.2289 37.9966 44.2289 38.3747C45.1803 38.3747 46.0316 38.3997 46.8828 38.3672C47.5337 38.3421 48.0845 37.8439 48.2648 37.193C48.3574 36.8525 48.4726 36.5045 48.4726 36.159C48.4726 35.9512 48.3324 35.6407 48.1621 35.5481C47.2333 35.0424 46.2694 34.5942 45.3255 34.116C43.8334 33.3574 42.2586 32.9894 40.5812 32.9919C34.8729 33.0044 29.1672 32.9894 23.4589 33.0069C22.7154 33.0069 21.9242 33.0069 21.2407 33.2498C19.6835 33.8031 18.1638 34.4766 16.6566 35.1625C15.3472 35.7584 15.3622 35.796 15.7828 37.203C15.9656 37.8114 16.3712 38.2771 16.9896 38.3321C17.9109 38.4147 18.8473 38.3547 19.8187 38.3547C19.8187 37.9666 19.7961 37.6311 19.8237 37.3031C19.8737 36.6923 20.2268 36.3543 20.77 36.3593C21.3233 36.3643 21.6513 36.6948 21.6914 37.3207C21.7139 37.6637 21.6964 38.0067 21.6964 38.3421H27.3295C27.3295 37.9716 27.3095 37.6386 27.3345 37.3081C27.3821 36.6923 27.7276 36.3568 28.2734 36.3568C28.8217 36.3568 29.1572 36.6898 29.2022 37.3132C29.2273 37.6562 29.2072 37.9991 29.2072 38.3421H34.8404C34.8404 37.9716 34.8203 37.6386 34.8454 37.3107C34.8904 36.6873 35.2284 36.3568 35.7792 36.3568C36.325 36.3568 36.6981 36.6923 36.7106 37.3107C36.7381 38.6851 36.7381 40.0596 36.7106 41.4341C36.6981 42.045 36.3075 42.388 35.7692 42.3855C35.2309 42.3805 34.8879 42.0375 34.8454 41.4166C34.8203 41.0511 34.8404 40.683 34.8404 40.2975H29.2172C29.2172 40.5353 29.2172 40.7406 29.2172 40.9459C29.2097 41.9799 28.9293 42.398 28.2534 42.388C27.5999 42.378 27.332 41.9649 27.322 40.9734C27.322 40.7531 27.302 40.5328 27.2895 40.3H21.6939C21.6939 40.7081 21.7114 41.0786 21.6889 41.4491C21.6588 41.9999 21.3759 42.3454 20.8026 42.3855C20.2643 42.423 19.8813 42.0725 19.8262 41.4717C19.7936 41.1011 19.8212 40.7256 19.8212 40.2649V40.2574ZM13.5997 36.6797C11.9248 37.5185 10.1572 38.4022 8.28199 39.3436C10.1572 40.315 11.9172 41.2288 13.5796 42.0901C13.9827 41.1111 14.3633 40.1873 14.7213 39.3236C14.3683 38.4924 13.9927 37.6086 13.5997 36.6822V36.6797ZM50.4554 36.6822C50.0524 37.6161 49.6643 38.5124 49.3313 39.2835C49.7119 40.2274 50.0824 41.1462 50.4655 42.0951C52.1679 41.2113 53.923 40.2975 55.7681 39.3386C53.8854 38.3972 52.1229 37.5134 50.4579 36.6822H50.4554Z" fill="#AE3D8D"/>
<path d="M57.2577 7.85808C57.8987 7.90565 58.4645 7.90064 59.0103 7.99327C60.3672 8.22611 61.241 9.41533 61.1559 10.8524C61.0808 12.1092 60.0167 13.1783 58.7199 13.2709C58.2667 13.3034 57.811 13.2759 57.2603 13.2759C57.2603 13.7115 57.2678 14.0771 57.2603 14.4426C57.2227 16.0449 56.0134 17.2717 54.5113 17.2416C53.0016 17.2116 51.9 16.0299 51.88 14.4151C51.875 14.0821 51.88 13.7516 51.88 13.2809C51.3792 13.2809 50.9111 13.306 50.4479 13.2759C49.1035 13.1908 48.1045 12.2169 47.9368 10.8499C47.7916 9.67821 48.6102 8.38634 49.7995 8.06838C50.4329 7.89814 51.1139 7.91316 51.88 7.83304C51.88 7.48003 51.8725 7.09448 51.88 6.70892C51.9125 5.18171 53.0291 4.02254 54.4837 4C55.9934 3.97747 57.1626 5.08157 57.2527 6.63131C57.2753 7.02437 57.2552 7.41744 57.2552 7.86058L57.2577 7.85808ZM53.7627 13.4762C53.7627 13.7666 53.7577 14.0595 53.7627 14.35C53.7727 14.9834 54.0506 15.3414 54.5363 15.3539C55.027 15.3664 55.3625 14.9659 55.375 14.3249C55.3875 13.7441 55.375 13.1607 55.38 12.5774C55.39 11.7337 55.698 11.4257 56.5567 11.4107C57.1401 11.4007 57.7209 11.4157 58.3043 11.4057C58.9502 11.3932 59.2782 11.1203 59.2807 10.6146C59.2807 10.1163 58.9402 9.81591 58.3093 9.80089C57.6658 9.78336 57.0199 9.8109 56.3765 9.78837C55.7055 9.76333 55.4001 9.44788 55.385 8.7744C55.37 8.08841 55.4026 7.39992 55.3675 6.71643C55.3425 6.22572 55.0696 5.87521 54.5388 5.89024C54.0156 5.90526 53.7652 6.23323 53.7652 6.75148C53.7652 7.37488 53.7727 7.99828 53.7627 8.62419C53.7502 9.45789 53.4222 9.78086 52.581 9.79588C51.9576 9.80589 51.3317 9.78086 50.7083 9.8084C50.145 9.83093 49.7744 10.1839 49.8245 10.6471C49.8796 11.1578 50.19 11.4157 50.7108 11.4107C51.0438 11.4107 51.3767 11.4107 51.7097 11.4107C53.7176 11.4107 53.7652 11.4583 53.7652 13.4787L53.7627 13.4762Z" fill="#AE3D8D"/>
<path d="M4.52153 18.5861C4.57161 17.85 4.45894 16.9337 5.48543 16.9162C6.57701 16.8986 6.40175 17.875 6.46685 18.5685C7.84634 18.7388 8.15428 18.9216 8.15178 19.5575C8.15178 20.2009 7.82881 20.3962 6.45933 20.5514C6.41677 21.2574 6.56198 22.1487 5.47541 22.2138C4.85702 22.2514 4.60666 21.7832 4.51653 20.5339C3.81301 20.4588 2.83159 20.639 2.88417 19.4849C2.93174 18.4509 3.84055 18.6712 4.52153 18.5836V18.5861Z" fill="#AE3D8D"/>
<path d="M13.3919 10.4493C13.3994 10.945 12.9963 11.3631 12.4956 11.3832C11.9623 11.4032 11.5242 10.9951 11.5191 10.4693C11.5141 9.97613 11.9197 9.54551 12.4104 9.51797C12.9137 9.49043 13.3818 9.93357 13.3894 10.4468L13.3919 10.4493Z" fill="#AE3D8D"/>
</g>
<defs>
<clipPath id="clip0_1_697">
<rect width="64" height="56.762" fill="white" transform="translate(0 4)"/>
</clipPath>
</defs>
</svg>
