<svg width="54" height="54" viewBox="0 0 54 54" fill="none" xmlns="http://www.w3.org/2000/svg">
<circle cx="27" cy="27" r="27" fill="#389DAC"/>
<path fill-rule="evenodd" clip-rule="evenodd" d="M35.1382 35.1402C34.6641 35.6143 33.8955 35.6143 33.4214 35.1402L17.9697 19.6886C17.4956 19.2145 17.4956 18.4458 17.9697 17.9717C18.4438 17.4976 19.2125 17.4976 19.6866 17.9717L35.1382 33.4234C35.6123 33.8975 35.6123 34.6662 35.1382 35.1402Z" fill="white"/>
<path fill-rule="evenodd" clip-rule="evenodd" d="M17.9711 35.1402C18.4452 35.6143 19.2139 35.6143 19.688 35.1402L35.1397 19.6886C35.6138 19.2145 35.6138 18.4458 35.1397 17.9717C34.6656 17.4976 33.8969 17.4976 33.4228 17.9717L17.9711 33.4234C17.497 33.8975 17.497 34.6662 17.9711 35.1402Z" fill="white"/>
</svg>
