<svg width="485" height="98" viewBox="0 0 485 98" fill="none" xmlns="http://www.w3.org/2000/svg">
<rect width="485" height="98" rx="30" fill="#389DAC"/>
<path d="M113.478 53.088C111.504 55.566 109.74 56.658 106.506 56.658C102.012 56.658 99.114 53.34 99.114 48.846C99.114 44.478 101.844 41.118 106.548 41.118C109.362 41.118 111.546 42.504 113.1 44.646L118.014 39.69C115.158 35.658 110.874 34.23 106.002 34.23C97.35 34.23 91.428 40.53 91.428 49.056C91.428 57.624 97.392 63.714 106.002 63.714C111.168 63.714 115.326 61.74 118.476 57.792L113.478 53.088ZM120.602 63H127.742L128.288 46.578L133.748 56.154H137.822L142.736 46.578L143.408 63H150.926L149.624 34.986H142.484L135.806 47.208L129.002 34.986H121.904L120.602 63ZM155.397 54.642H169.257V47.838H155.397V54.642ZM195.263 53.088C193.289 55.566 191.525 56.658 188.291 56.658C183.797 56.658 180.899 53.34 180.899 48.846C180.899 44.478 183.629 41.118 188.333 41.118C191.147 41.118 193.331 42.504 194.885 44.646L199.799 39.69C196.943 35.658 192.659 34.23 187.787 34.23C179.135 34.23 173.213 40.53 173.213 49.056C173.213 57.624 179.177 63.714 187.787 63.714C192.953 63.714 197.111 61.74 200.261 57.792L195.263 53.088ZM200.68 43.008V48.972H206.854V63H213.952V48.972H220.126V43.008H200.68ZM232.108 57.456C229.756 57.456 228.244 55.692 228.244 53.004C228.244 50.316 229.756 48.552 232.108 48.552C234.46 48.552 235.972 50.316 235.972 53.004C235.972 55.692 234.46 57.456 232.108 57.456ZM221.566 53.004C221.566 58.968 225.892 63.672 232.108 63.672C238.324 63.672 242.65 58.968 242.65 53.004C242.65 47.04 238.324 42.336 232.108 42.336C225.892 42.336 221.566 47.04 221.566 53.004ZM259.18 58.8L262.288 52.584L262.75 63H269.47L268.504 43.008H261.952L257.542 51.828L253.132 43.008H246.706L245.74 63H252.166L252.628 52.626L255.736 58.8H259.18ZM291.825 63V50.904C291.825 45.318 288.087 42.378 282.627 42.378C277.923 42.378 274.983 43.722 273.303 45.066L275.991 49.14C277.167 48.3 279.099 47.544 281.619 47.544C283.047 47.544 284.895 48.006 284.895 50.064V50.442C283.929 50.316 283.383 50.274 282.081 50.274C276.999 50.274 272.631 52.752 272.631 57.624C272.631 62.412 276.201 63.672 278.805 63.672C281.493 63.672 283.089 63.042 284.895 61.152L285.147 63H291.825ZM284.895 55.608C284.895 58.128 283.341 58.842 281.871 58.842C280.317 58.842 279.519 58.086 279.519 56.574C279.519 55.188 280.611 54.096 282.963 54.096C283.887 54.096 284.517 54.138 284.895 54.264V55.608ZM294.031 43.008V48.972H300.205V63H307.303V48.972H313.477V43.008H294.031ZM325.459 57.456C323.107 57.456 321.595 55.692 321.595 53.004C321.595 50.316 323.107 48.552 325.459 48.552C327.811 48.552 329.323 50.316 329.323 53.004C329.323 55.692 327.811 57.456 325.459 57.456ZM314.917 53.004C314.917 58.968 319.243 63.672 325.459 63.672C331.675 63.672 336.001 58.968 336.001 53.004C336.001 47.04 331.675 42.336 325.459 42.336C319.243 42.336 314.917 47.04 314.917 53.004ZM342.844 43.008C342.634 54.096 340.87 56.91 337.72 56.91H337.426V63.042C337.888 63.084 338.266 63.126 338.728 63.126C344.818 63.126 348.136 59.178 349.018 48.972H352.336V63H359.434V43.008H342.844ZM373.242 57.456C370.89 57.456 369.378 55.692 369.378 53.004C369.378 50.316 370.89 48.552 373.242 48.552C375.594 48.552 377.106 50.316 377.106 53.004C377.106 55.692 375.594 57.456 373.242 57.456ZM362.7 53.004C362.7 58.968 367.026 63.672 373.242 63.672C379.458 63.672 383.784 58.968 383.784 53.004C383.784 47.04 379.458 42.336 373.242 42.336C367.026 42.336 362.7 47.04 362.7 53.004ZM401.532 43.008H387.042V63H394.14V48.972H401.532V43.008ZM424.845 63V43.008H418.713L411.195 53.382V43.008H404.433V63H410.145L418.083 52.122V63H424.845ZM440.09 52.206H437.822C436.436 52.206 435.596 51.408 435.596 50.106C435.596 48.804 436.436 48.006 437.822 48.006H440.09V52.206ZM447.02 63V43.008H436.058C432.32 43.008 428.624 45.15 428.624 49.518C428.624 52.668 430.934 54.558 433.118 55.314C431.774 55.776 430.934 56.532 429.926 58.254L427.112 63H434.588L436.688 58.842C437.318 57.54 437.78 57.036 438.914 57.036H440.09V63H447.02Z" fill="white"/>
<path d="M28 40.6631C28 33.7611 28 30.2953 30.1328 28.1328C32.2953 26 35.7611 26 42.6631 26H59.8738C66.7758 26 70.2416 26 72.4041 28.1328C74.5369 30.2953 74.5369 33.7315 74.5369 40.6631V57.8738C74.5369 64.7758 74.5369 68.2416 72.4041 70.4041C70.2416 72.5369 66.8054 72.5369 59.8738 72.5369H42.6631C35.7611 72.5369 32.2953 72.5369 30.1328 70.4041C27.9704 68.2712 28 64.8054 28 57.8738V40.6631Z" fill="white"/>
<path fill-rule="evenodd" clip-rule="evenodd" d="M51.6117 63.0159C42.1918 63.0159 33.9271 56.8248 34.1048 50.219C33.8975 45.4201 36.5931 40.3251 42.6657 37.6294C44.917 36.6223 48.7976 35.7632 52.5596 35.7336C53.3891 35.704 53.9223 35.6151 54.6628 35.467C55.1368 35.3781 55.67 35.2596 56.4402 35.1708C57.6843 34.993 59.3728 34.8153 60.8539 35.4077C62.572 36.2668 64.2605 37.5702 64.2605 38.1923C64.2605 38.8143 63.1348 39.94 62.3943 40.0288C61.1205 40.177 59.5209 39.94 57.5066 39.6141C55.9662 39.3772 54.1889 39.0809 52.1745 38.9328C43.6729 38.8143 37.4522 44.5315 37.6299 50.1005C37.8076 57.1506 46.6648 60.2314 52.1449 60.2314C67.3709 60.3202 66.8969 46.7531 63.3126 46.1014C62.1573 45.8941 61.2094 47.9084 60.2022 50.1301C59.0173 52.7073 57.7139 55.5806 55.7292 55.551C53.8926 55.5214 52.4411 52.4703 51.2266 49.8931C50.3676 48.1158 49.6566 46.5754 49.0049 46.4865C47.82 46.368 46.9314 49.1229 46.1316 51.552C45.5984 53.1812 45.1244 54.6623 44.6504 54.9882C43.5544 56.0842 40.681 53.7144 41.0661 52.7961C41.4512 51.9074 41.8363 52.2333 42.251 52.6184C42.5769 52.9146 42.962 53.2701 43.3767 52.885C43.5248 52.7369 43.7618 52.0852 44.058 51.1669C44.9467 48.5897 46.487 43.9686 49.153 43.7613C51.0489 43.6132 52.5596 47.0494 53.7741 49.7746C54.5443 51.552 55.196 53.0331 55.7589 53.0331C56.3809 53.0331 57.003 51.6705 57.7436 49.982C59.0173 47.1975 60.6466 43.5835 63.3126 44.0279C70.1554 45.2128 70.7182 63.0455 51.6117 63.0159ZM60.4096 36.8296C60.4096 37.1258 59.9356 37.1555 58.9581 37.1258C58.2175 37.0962 57.7436 36.8889 57.862 36.5038C57.9805 36.1187 58.6322 36.0891 59.3432 36.2372C59.669 36.2964 60.4096 36.5038 60.4096 36.8296Z" fill="#3E1631"/>
</svg>
