<svg width="60" height="60" viewBox="0 0 60 60" fill="none" xmlns="http://www.w3.org/2000/svg">
<g clip-path="url(#clip0)">
<path d="M59.7413 1.80895C59.6506 0.991846 59.0056 0.346399 58.1881 0.255762C44.2775 -1.28919 32.4196 4.27538 22.7471 14.2322C19.979 17.0818 17.578 20.098 15.5286 23.0089C12.0601 22.8679 8.21447 24.4371 5.48803 27.1636L0.5158 32.1358C-0.046791 32.6984 -0.161232 33.5691 0.236565 34.258C0.634361 34.9469 1.44506 35.2825 2.2141 35.0769C3.36767 34.767 5.24221 34.4068 7.04305 34.323C7.70132 34.2923 8.24834 34.3019 8.7029 34.3367C7.60564 36.447 6.76473 38.2149 6.48595 38.6576C6.04925 39.3524 6.15041 40.2565 6.73086 40.837L9.6079 43.714C5.42074 49.4246 5.35162 52.3493 5.36626 52.7635C5.39693 53.6411 6.08129 54.4632 7.21471 54.4632C8.19616 54.4632 11.0109 54.0467 16.1352 50.2413L19.1614 53.2675C19.746 53.8521 20.6592 53.9501 21.355 53.5033C21.8284 53.1989 23.4923 52.3932 25.4877 51.3504C25.5207 52.8377 25.3188 55.0217 24.8807 57.9821C24.6317 59.6611 26.6729 60.6719 27.8626 59.4826L32.8348 54.5104C35.3988 51.9464 36.8856 48.1383 36.7757 44.5659C39.8423 42.4231 43.0324 39.8954 46.0111 36.9744C55.8732 27.3032 61.2665 15.535 59.7413 1.80895ZM56.3785 3.61804C56.6591 7.40832 56.3598 11.0823 55.4877 14.6378C53.322 13.9557 51.2049 12.6158 49.2928 10.7042C47.3739 8.78481 46.0312 6.65896 45.3519 4.4855C48.906 3.62628 52.5823 3.33514 56.3785 3.61804ZM6.81371 30.8101L7.97369 29.6497C9.37673 28.2471 11.2014 27.2368 13.016 26.7827C12.0679 28.2874 11.2229 29.7243 10.4777 31.0504C9.32638 30.7964 8.04647 30.7492 6.81371 30.8101ZM10.1403 39.2746C10.5207 38.5239 10.9807 37.5827 11.8253 35.987L14.1393 38.3014C13.2783 39.2252 12.501 40.1027 11.8006 40.9345L10.1403 39.2746ZM18.7366 38.6022C20.0174 37.3218 21.2456 37.0879 22.7714 37.0549C22.7379 38.5417 22.4994 39.8116 21.2227 41.0883C15.7653 46.5457 12.0244 48.9829 9.78735 50.0705C10.891 47.7904 13.3346 44.0042 18.7366 38.6022ZM20.7137 49.848L18.901 48.0348C19.7286 47.3317 20.6034 46.5522 21.5262 45.6879L23.9895 48.1511C22.3699 49.0158 21.6942 49.3413 20.7137 49.848ZM30.3483 52.0243L28.9411 53.4319C29.0551 51.7267 29.0157 50.4843 28.8546 49.5258C30.1473 48.7979 31.5513 47.9726 33.0225 47.0493C32.6032 48.9078 31.6607 50.7123 30.3483 52.0243ZM27.1897 46.3796L24.038 43.2274C26.3703 40.6612 26.2833 38.1884 26.2833 35.2994C26.2833 34.3285 25.4964 33.5416 24.5255 33.5416C21.8265 33.5416 19.2292 33.3969 16.5975 35.7874L13.5877 32.7776C21.8064 18.3658 31.3064 9.24166 41.98 5.48434C42.8251 8.21856 44.4698 10.853 46.8072 13.1903C49.1335 15.5171 51.7556 17.1578 54.4779 18.006C50.6986 28.6211 41.5767 38.1151 27.1897 46.3796Z" fill="#A22D2F"/>
<path d="M44.32 15.6757C40.8927 12.2489 35.3163 12.2489 31.8895 15.6757C28.4626 19.103 28.4626 24.6795 31.8895 28.1063C35.3163 31.5331 40.8927 31.5336 44.32 28.1063C47.7468 24.6795 47.7468 19.103 44.32 15.6757ZM41.8339 25.6202C39.7776 27.6764 36.4314 27.6764 34.3756 25.6202C32.3193 23.5639 32.3193 20.2181 34.3756 18.1618C36.4314 16.106 39.7772 16.1055 41.8339 18.1618C43.8902 20.2181 43.8902 23.5639 41.8339 25.6202Z" fill="#A22D2F"/>
</g>
<defs>
<clipPath id="clip0">
<rect width="60" height="60" fill="white"/>
</clipPath>
</defs>
</svg>
