<svg width="50" height="50" viewBox="0 0 50 50" fill="none" xmlns="http://www.w3.org/2000/svg">
<rect width="50" height="50" rx="25" fill="#389DAC"/>
<path d="M15.7358 35C15.5865 35 15.4465 34.944 15.3158 34.832C15.2038 34.7013 15.1478 34.5613 15.1478 34.412C15.1478 34.3 15.1572 34.216 15.1758 34.16L21.6998 16.212C21.8865 15.6707 22.2598 15.4 22.8198 15.4H27.1878C27.7478 15.4 28.1212 15.6707 28.3078 16.212L34.8318 34.16C34.8505 34.216 34.8598 34.3 34.8598 34.412C34.8598 34.5613 34.7945 34.7013 34.6638 34.832C34.5518 34.944 34.4212 35 34.2718 35H30.6318C30.1838 35 29.8665 34.7947 29.6798 34.384L28.6718 31.668H21.3358L20.3278 34.384C20.1412 34.7947 19.8238 35 19.3758 35H15.7358ZM22.5118 27.468H27.4958L25.0038 20.328L22.5118 27.468Z" fill="white"/>
</svg>
