<svg width="24" height="24" viewBox="0 0 24 24" fill="none" xmlns="http://www.w3.org/2000/svg">
<g clip-path="url(#clip0)">
<path d="M4.64489 18.3879H0.704203C0.315281 18.3879 0 18.0738 0 17.6864C0 17.299 0.315281 16.9849 0.704203 16.9849H4.64489C5.03381 16.9849 5.34909 17.2989 5.34909 17.6864C5.34909 18.0738 5.03381 18.3879 4.64489 18.3879Z" fill="#3B9670"/>
<path d="M23.2958 24H0.704203C0.315281 24 0 23.6859 0 23.2985C0 22.911 0.315281 22.5969 0.704203 22.5969H23.2957C23.6847 22.5969 24 22.911 24 23.2985C24 23.6859 23.6847 24 23.2958 24Z" fill="#3B9670"/>
<path d="M23.2958 21.194H0.704203C0.315281 21.194 0 20.88 0 20.4925C0 20.1051 0.315281 19.791 0.704203 19.791H23.2957C23.6847 19.791 24 20.1051 24 20.4925C24 20.8799 23.6847 21.194 23.2958 21.194Z" fill="#3B9670"/>
<path d="M23.2458 0.700734C22.7922 0.248859 22.1873 0 21.5426 0C20.8978 0 20.2929 0.248859 19.8394 0.700734L9.68164 10.8194L13.0815 14.2193L23.2458 4.09406C24.1849 3.15853 24.1849 1.63627 23.2458 0.700734Z" fill="#3B9670"/>
<path d="M8.6864 11.812C8.61876 11.8794 8.56443 11.9605 8.52853 12.0518L6.97439 16.0013C6.8722 16.2609 6.93412 16.5562 7.13207 16.7533C7.26665 16.8875 7.44675 16.9588 7.63017 16.9588C7.71651 16.9588 7.80365 16.943 7.88704 16.9104L11.8517 15.3622C11.9405 15.3275 12.0195 15.2757 12.0858 15.2113L8.6864 11.812Z" fill="#3B9670"/>
</g>
<defs>
<clipPath id="clip0">
<rect width="24" height="24" fill="white"/>
</clipPath>
</defs>
</svg>
