<svg width="36" height="36" viewBox="0 0 36 36" fill="none" xmlns="http://www.w3.org/2000/svg">
<path d="M30.728 5.27203C27.3281 1.87228 22.808 0 18 0C13.192 0 8.67185 1.87228 5.27203 5.27203C1.87221 8.67178 0 13.192 0 18C0 22.808 1.87228 27.3281 5.27203 30.728C8.67178 34.1278 13.192 36 18 36C22.808 36 27.3281 34.1277 30.728 30.728C34.1278 27.3282 36 22.808 36 18C36 13.192 34.1277 8.67185 30.728 5.27203ZM29.9325 29.9325C26.7452 33.1197 22.5075 34.875 18 34.875C13.4925 34.875 9.25481 33.1197 6.06755 29.9325C2.88028 26.7452 1.125 22.5075 1.125 18C1.125 13.4925 2.88028 9.25481 6.06755 6.06755C9.25481 2.88028 13.4925 1.125 18 1.125C22.5075 1.125 26.7452 2.88028 29.9325 6.06755C33.1197 9.25481 34.875 13.4925 34.875 18C34.875 22.5075 33.1197 26.7452 29.9325 29.9325Z" fill="#3B9670"/>
<path d="M3.375 18C3.375 9.93579 9.93579 3.375 18 3.375C20.9087 3.375 23.7182 4.22655 26.125 5.83763C26.3831 6.01045 26.7325 5.94127 26.9053 5.68308C27.0781 5.42496 27.0089 5.07558 26.7507 4.90275C24.1582 3.1673 21.1323 2.25 18 2.25C13.793 2.25 9.83784 3.88828 6.86306 6.86306C3.88828 9.83784 2.25 13.793 2.25 18C2.25 21.8813 3.67411 25.6101 6.26006 28.4996C6.37116 28.6238 6.525 28.687 6.67941 28.687C6.81293 28.687 6.94702 28.6398 7.05431 28.5436C7.28578 28.3364 7.30554 27.9809 7.09833 27.7494C4.69737 25.0664 3.375 21.604 3.375 18Z" fill="#3B9670"/>
<path d="M31.0961 9.24943C30.9233 8.99125 30.5739 8.92206 30.3158 9.09489C30.0576 9.26772 29.9884 9.6171 30.1612 9.87522C31.7722 12.2819 32.6238 15.0914 32.6238 18C32.6238 26.0642 26.063 32.625 17.9988 32.625C14.6531 32.625 11.3826 31.4664 8.79002 29.3625C8.54877 29.1667 8.19454 29.2036 7.99879 29.4448C7.80304 29.686 7.83988 30.0403 8.08113 30.236C10.8736 32.5021 14.3958 33.75 17.9988 33.75C22.2058 33.75 26.1609 32.1118 29.1357 29.137C32.1105 26.1622 33.7488 22.207 33.7488 18C33.7488 14.8678 32.8315 11.8419 31.0961 9.24943Z" fill="#3B9670"/>
<path d="M27.7499 7.09813C28.1281 7.43654 28.4927 7.79872 28.8337 8.17447C28.9447 8.29682 29.0973 8.35897 29.2504 8.35897C29.3852 8.35897 29.5206 8.31074 29.6283 8.21301C29.8583 8.00425 29.8756 7.64847 29.6668 7.4184C29.2998 7.01397 28.9072 6.62415 28.5001 6.25979C28.2686 6.05265 27.913 6.07234 27.7059 6.30381C27.4987 6.53528 27.5183 6.89092 27.7499 7.09813Z" fill="#3B9670"/>
<path d="M18 7.3125C18.3106 7.3125 18.5625 7.06064 18.5625 6.75V5.0625C18.5625 4.75186 18.3106 4.5 18 4.5C17.6894 4.5 17.4375 4.75186 17.4375 5.0625V6.75C17.4375 7.06064 17.6894 7.3125 18 7.3125Z" fill="#3B9670"/>
<path d="M17.4375 29.25V30.9375C17.4375 31.2481 17.6894 31.5 18 31.5C18.3106 31.5 18.5625 31.2481 18.5625 30.9375V29.25C18.5625 28.9394 18.3106 28.6875 18 28.6875C17.6894 28.6875 17.4375 28.9394 17.4375 29.25Z" fill="#3B9670"/>
<path d="M7.3125 18C7.3125 17.6894 7.06064 17.4375 6.75 17.4375H5.0625C4.75186 17.4375 4.5 17.6894 4.5 18C4.5 18.3106 4.75186 18.5625 5.0625 18.5625H6.75C7.06064 18.5625 7.3125 18.3106 7.3125 18Z" fill="#3B9670"/>
<path d="M28.6875 18C28.6875 18.3106 28.9394 18.5625 29.25 18.5625H30.9375C31.2481 18.5625 31.5 18.3106 31.5 18C31.5 17.6894 31.2481 17.4375 30.9375 17.4375H29.25C28.9394 17.4375 28.6875 17.6894 28.6875 18Z" fill="#3B9670"/>
<path d="M12.8622 7.97566L12.0184 6.51422C11.8631 6.24513 11.5191 6.15309 11.2501 6.30834C10.9811 6.46366 10.8889 6.8077 11.0442 7.07672L11.888 8.53816C11.9922 8.71859 12.1812 8.81948 12.3756 8.81948C12.4711 8.81948 12.5678 8.79516 12.6564 8.74404C12.9253 8.58872 13.0175 8.24468 12.8622 7.97566Z" fill="#3B9670"/>
<path d="M24.1122 27.4614C23.9569 27.1924 23.6128 27.1004 23.3438 27.2556C23.0748 27.4109 22.9826 27.7549 23.1379 28.0239L23.9817 29.4854C24.0859 29.6658 24.275 29.7667 24.4694 29.7667C24.5648 29.7667 24.6616 29.7424 24.7502 29.6912C25.0192 29.5359 25.1114 29.1919 24.956 28.9229L24.1122 27.4614Z" fill="#3B9670"/>
<path d="M6.79744 25.0311C6.89285 25.0311 6.98961 25.0068 7.0782 24.9557L8.53964 24.1119C8.80866 23.9566 8.90084 23.6125 8.74552 23.3435C8.5902 23.0745 8.24609 22.9825 7.97714 23.1376L6.5157 23.9814C6.24668 24.1367 6.1545 24.4808 6.30982 24.7498C6.41396 24.9302 6.60303 25.0311 6.79744 25.0311Z" fill="#3B9670"/>
<path d="M27.7428 12.9373C27.8382 12.9373 27.9349 12.913 28.0235 12.8619L29.485 12.0181C29.754 11.8628 29.8462 11.5188 29.6908 11.2498C29.5355 10.9808 29.1915 10.8887 28.9225 11.0439L27.461 11.8876C27.192 12.043 27.0998 12.387 27.2551 12.656C27.3593 12.8364 27.5484 12.9373 27.7428 12.9373Z" fill="#3B9670"/>
<path d="M24.7501 6.30865C24.4811 6.15326 24.137 6.24544 23.9817 6.51453L23.1379 7.97597C22.9826 8.24499 23.0748 8.58903 23.3438 8.74435C23.4324 8.79554 23.5291 8.81979 23.6246 8.81979C23.819 8.81979 24.0081 8.71889 24.1123 8.53847L24.956 7.07703C25.1113 6.80801 25.0191 6.46397 24.7501 6.30865Z" fill="#3B9670"/>
<path d="M12.6563 27.2556C12.3873 27.1003 12.0433 27.1925 11.8879 27.4615L11.0442 28.9229C10.8889 29.192 10.9811 29.536 11.2501 29.6913C11.3387 29.7425 11.4353 29.7668 11.5308 29.7668C11.7252 29.7668 11.9143 29.6659 12.0185 29.4854L12.8623 28.024C13.0175 27.755 12.9253 27.4109 12.6563 27.2556Z" fill="#3B9670"/>
<path d="M27.4629 24.112L28.9244 24.9557C29.013 25.0069 29.1097 25.0312 29.2052 25.0312C29.3996 25.0312 29.5886 24.9303 29.6928 24.7499C29.8482 24.4808 29.756 24.1368 29.487 23.9815L28.0255 23.1377C27.7565 22.9823 27.4125 23.0746 27.2571 23.3436C27.1017 23.6126 27.1939 23.9567 27.4629 24.112Z" fill="#3B9670"/>
<path d="M8.53769 11.8877L7.07624 11.044C6.80723 10.8886 6.46319 10.9808 6.30787 11.2499C6.15255 11.5189 6.24473 11.8629 6.51375 12.0182L7.97519 12.862C8.06378 12.9132 8.16046 12.9374 8.25595 12.9374C8.45036 12.9374 8.63943 12.8365 8.74363 12.6561C8.89888 12.3871 8.8067 12.0431 8.53769 11.8877Z" fill="#3B9670"/>
<path d="M21.9159 25.3442C22.0113 25.3442 22.108 25.3199 22.1966 25.2688C22.4656 25.1134 22.5578 24.7694 22.4025 24.5004L19.282 19.0955C19.5345 18.8004 19.6875 18.4179 19.6875 18C19.6875 17.2667 19.2172 16.6414 18.5625 16.4093V9C18.5625 8.68936 18.3106 8.4375 18 8.4375C17.6894 8.4375 17.4375 8.68936 17.4375 9V16.4093C16.7828 16.6414 16.3125 17.2667 16.3125 18C16.3125 18.9305 17.0695 19.6875 18 19.6875C18.1053 19.6875 18.2082 19.6773 18.3082 19.6588L21.4282 25.0629C21.5324 25.2433 21.7215 25.3442 21.9159 25.3442ZM17.4375 18C17.4375 17.6899 17.6899 17.4375 18 17.4375C18.3102 17.4375 18.5625 17.6899 18.5625 18C18.5625 18.3101 18.3102 18.5625 18 18.5625C17.6899 18.5625 17.4375 18.3101 17.4375 18Z" fill="#3B9670"/>
</svg>
