<svg width="48" height="48" viewBox="0 0 48 48" fill="none" xmlns="http://www.w3.org/2000/svg">
<g clip-path="url(#clip0)">
<path d="M31.1511 30.3549C29.3201 30.4574 27.482 30.315 25.6887 29.9324L23.7214 29.5125C23.673 29.5023 23.6237 29.497 23.5743 29.497L17.2236 29.4968C17.0851 29.4968 16.9495 29.5377 16.834 29.6142L12.6567 32.3835C11.6554 33.0474 10.3265 32.8 9.63102 31.8202C8.99894 30.9298 9.10535 29.728 9.88417 28.9626L14.1164 24.8027L20.0532 21.4456C20.095 21.4219 20.1344 21.3941 20.1706 21.3624L20.6531 20.94C20.6893 20.9083 20.7221 20.873 20.751 20.8346L25.7893 14.1699L27.909 15.3424C28.0171 15.4022 28.1342 15.4305 28.2496 15.4305C28.4978 15.4305 28.7385 15.2993 28.8671 15.0666C29.0556 14.726 28.9321 14.2969 28.5914 14.1085L26.6483 13.0337L29.2857 9.54493C29.629 9.0908 29.775 8.53006 29.6966 7.96622C29.6183 7.40229 29.325 6.90276 28.8708 6.55936L27.5069 5.52823C27.0528 5.18493 26.4925 5.03903 25.9281 5.11734C25.3643 5.19574 24.8647 5.48903 24.5214 5.94316L21.3688 10.1135L20.7318 9.76114C20.4802 9.62201 20.1955 9.54841 19.908 9.54841H14.8935C14.1031 9.54841 13.3355 9.82957 12.7323 10.3402L8.60619 13.832C8.30895 14.0835 8.27191 14.5283 8.52337 14.8255C8.66287 14.9903 8.86178 15.0751 9.06192 15.0751C9.22276 15.0751 9.38463 15.0203 9.51699 14.9082L13.6431 11.4165C13.9922 11.1211 14.4362 10.9585 14.8935 10.9585H19.908C19.9573 10.9585 20.0062 10.9711 20.0493 10.995L20.5098 11.2497L15.9805 17.2411L9.78237 20.7031C9.58176 20.8151 9.44837 21.0178 9.42487 21.2463L8.71298 28.151C8.11765 28.8268 7.81072 29.6729 7.80809 30.5266L7.74013 30.6928C7.49525 31.2918 6.91891 31.6789 6.27178 31.6789C5.39707 31.6789 4.68546 30.9672 4.68546 30.0925V20.9216C4.68546 19.6984 5.22091 18.5438 6.15465 17.7536L7.21784 16.854C7.51508 16.6025 7.55221 16.1576 7.30066 15.8604C7.0492 15.5634 6.60446 15.5262 6.30703 15.7776L5.24385 16.6773C3.99284 17.736 3.2755 19.283 3.2755 20.9216V30.0925C3.2755 31.0651 3.74157 31.9306 4.46173 32.4784L1.27039 36.6999C1.12901 36.8869 1.02795 37.1067 0.977942 37.3358L0.0230484 41.7136C-0.0580772 42.0858 0.0783228 42.4622 0.379136 42.6959C0.55577 42.8332 0.766057 42.9033 0.9786 42.9033C0.999845 42.9033 25.7943 42.9027 25.7943 42.9027C26.1837 42.9027 26.4993 42.5871 26.4993 42.1976C26.4993 41.8082 26.1837 41.4926 25.7943 41.4926H4.0232L5.47256 40.766C5.69516 40.6544 5.89229 40.4903 6.04241 40.2916L10.7256 34.0967C10.9571 34.1429 11.1929 34.1677 11.43 34.1677C12.1186 34.1677 12.8157 33.97 13.436 33.5587L17.4362 30.9069L23.5 30.9071L25.3945 31.3114C27.3103 31.7202 29.2734 31.8721 31.23 31.7628C31.6187 31.7411 31.9163 31.4083 31.8945 31.0195C31.8728 30.6307 31.5395 30.3338 31.1511 30.3549ZM19.67 19.9266L19.2962 20.2538L13.3415 23.621C13.2878 23.6514 13.2382 23.6887 13.1942 23.7319L11.8211 25.0816L20.8803 13.0979L23.4094 14.9801L19.67 19.9266ZM23.0796 10.1887L25.6086 12.0708L24.2597 13.8553L21.7306 11.9731L23.0796 10.1887ZM25.6462 6.79362C25.7624 6.63983 25.9315 6.54065 26.1223 6.51405C26.156 6.50935 26.1897 6.50709 26.2231 6.50709C26.3791 6.50709 26.53 6.55739 26.6566 6.65308L28.0205 7.68421C28.3377 7.92411 28.4008 8.3773 28.1609 8.69466L26.459 10.9461L23.93 9.06391L25.6462 6.79362ZM13.8673 20.0367L10.5091 24.479L10.7899 21.7556L13.8673 20.0367ZM2.18918 38.3995L3.91999 39.9671L1.59282 41.1338L2.18918 38.3995ZM5.12991 39.1605L2.78414 37.0359L5.7965 33.051C5.95142 33.0758 6.11 33.0891 6.27178 33.0891C7.03284 33.0891 7.7406 32.8042 8.27868 32.3168C8.34025 32.4255 8.40718 32.5324 8.48107 32.6364C8.73638 32.996 9.04434 33.2944 9.38614 33.5303L5.12991 39.1605Z" fill="#3B9670"/>
<path d="M47.295 31.2586H40.8277C40.4764 31.2586 40.1795 30.8495 40.1795 30.3653V17.4444C40.1795 16.9603 40.4763 16.5512 40.8277 16.5512H47.295C47.6845 16.5512 48.0001 16.2356 48.0001 15.8461C48.0001 15.4567 47.6845 15.1411 47.295 15.1411H40.8277C39.9141 15.1411 39.138 15.8109 38.8699 16.7346H33.3396L31.2351 15.5705C30.8944 15.3822 30.4654 15.5058 30.2769 15.8463C30.0885 16.1871 30.2119 16.616 30.5527 16.8045L32.8165 18.0566C32.9209 18.1143 33.0384 18.1446 33.1577 18.1446H38.7695V29.1483H37.1886C37.1137 29.1483 37.0392 29.1602 36.968 29.1837L36.4623 29.3503C35.6755 29.6095 34.8613 29.8237 34.0422 29.9871C33.6604 30.0633 33.4126 30.4346 33.4887 30.8165C33.5557 31.1517 33.8502 31.3836 34.1795 31.3836C34.2252 31.3836 34.2716 31.3792 34.3182 31.3699C35.193 31.1953 36.0628 30.9663 36.9035 30.6894L37.3018 30.5582H38.7773C38.8654 31.7381 39.751 32.6684 40.8278 32.6684H47.2951C47.6846 32.6684 48.0002 32.3528 48.0002 31.9633C48.0002 31.5739 47.6845 31.2586 47.295 31.2586Z" fill="#3B9670"/>
</g>
<defs>
<clipPath id="clip0">
<rect width="48" height="48" fill="white"/>
</clipPath>
</defs>
</svg>
