<svg width="28" height="32" viewBox="0 0 28 32" fill="none" xmlns="http://www.w3.org/2000/svg">
<path d="M27.9801 30.0121L26.5835 21.8198C26.433 20.9371 25.8081 20.2281 24.9524 19.9694L21.1854 18.8306C21.1074 17.908 20.7299 17.0376 20.1015 16.3486C19.5989 15.7975 18.9668 15.3962 18.27 15.1748C18.3892 15.0422 18.4998 14.9101 18.6012 14.7808C19.497 13.6393 19.9766 12.3817 20.0987 11.5235H20.3893C21.1452 11.5235 21.7601 10.9074 21.7601 10.1501V9.446C21.7601 8.94057 21.4763 8.48258 21.0496 8.24491V6.55187C21.0496 6.29603 20.8426 6.08863 20.5872 6.08863C20.3319 6.08863 20.125 6.29597 20.125 6.55187V8.4525C19.9449 8.48382 19.7301 8.53794 19.5103 8.63067C19.4878 8.63889 19.4659 8.6484 19.4452 8.65983C19.3956 8.68251 19.3459 8.70642 19.2964 8.73335V5.00042C19.2964 3.96912 18.459 3.13013 17.4297 3.13013H16.1536C15.7135 3.13013 15.2835 3.28378 14.9428 3.56291L14.8176 3.66546C14.5876 3.85389 14.2973 3.95769 14.0001 3.95769C13.703 3.95769 13.4126 3.85389 13.1826 3.66546L13.0575 3.56291C12.7167 3.28384 12.2867 3.13013 11.8466 3.13013H10.5704C9.54111 3.13013 8.70375 3.96912 8.70375 5.00042V8.73335C8.65424 8.70642 8.60454 8.68251 8.5549 8.65983C8.53419 8.6484 8.51236 8.63889 8.48985 8.63067C8.27009 8.53794 8.0552 8.48382 7.87521 8.4525V3.64662C7.87521 2.1467 9.09314 0.926405 10.5901 0.926405H17.4099C18.907 0.926405 20.1248 2.1467 20.1248 3.64662V4.37477C20.1248 4.6306 20.3318 4.838 20.5871 4.838C20.8424 4.838 21.0495 4.63067 21.0495 4.37477V3.64662C21.0495 1.6359 19.4167 0 17.4099 0H10.5901C8.58327 0 6.95061 1.6359 6.95061 3.64662V8.24497C6.52385 8.48265 6.24009 8.94057 6.24009 9.44606V10.1501C6.24009 10.9075 6.85503 11.5236 7.61087 11.5236H7.90148C8.02351 12.3818 8.50317 13.6394 9.39898 14.7809C9.50029 14.91 9.61079 15.042 9.72991 15.1745C8.12796 15.6843 6.95973 17.1274 6.81477 18.8306L3.04765 19.9694C2.19198 20.2281 1.56699 20.9371 1.41654 21.8198L0.849378 25.1466C0.8064 25.3988 0.975598 25.6381 1.22724 25.6812C1.47881 25.7243 1.71775 25.5548 1.76079 25.3026L2.32795 21.9757C2.41896 21.4417 2.79706 21.0128 3.31471 20.8564L6.79886 19.8031V20.7193C6.00023 20.8666 5.32066 21.4163 5.04078 22.1779C4.96648 22.38 4.9203 22.5917 4.90353 22.8069L4.56679 27.1375C4.54139 27.4637 4.65405 27.7885 4.87572 28.0285C5.09739 28.2686 5.4118 28.4064 5.73829 28.4064H6.3147C6.57004 28.4064 6.77703 28.199 6.77703 27.9431C6.77703 27.6872 6.57004 27.48 6.3147 27.48H5.73829C5.66868 27.48 5.60171 27.4507 5.55442 27.3994C5.50719 27.3483 5.4832 27.2791 5.48863 27.2096L5.82536 22.879C5.83553 22.7485 5.86346 22.6203 5.90848 22.498C6.1032 21.9682 6.62905 21.6094 7.21711 21.6053L7.29326 21.6047C7.29683 21.6047 7.30035 21.6047 7.30386 21.6047C7.8754 21.6047 8.38133 21.9294 8.59474 22.4342C8.65461 22.5757 8.69099 22.7254 8.70295 22.879L9.03981 27.2096C9.04517 27.2791 9.02118 27.3483 8.97395 27.3995C8.92672 27.4506 8.85969 27.48 8.79008 27.48H8.21367C7.95833 27.48 7.75134 27.6873 7.75134 27.9431C7.75134 28.199 7.95833 28.4064 8.21367 28.4064H8.79008C9.11657 28.4064 9.43104 28.2687 9.65265 28.0285C9.87439 27.7884 9.98704 27.4636 9.96164 27.1375L9.62478 22.8069C9.60505 22.5535 9.54493 22.3064 9.44609 22.0727C9.14155 21.3525 8.49034 20.8518 7.7234 20.7163V19.5236L9.31266 19.0431C9.45725 19.3482 9.74379 20.0076 10.3114 21.429C10.8834 22.8632 11.5944 24.7015 12.2763 26.4886C12.2812 26.5036 12.2868 26.5182 12.2931 26.5326C12.7482 27.7256 13.1896 28.8941 13.5671 29.9022C13.6348 30.0829 13.8073 30.2027 14 30.2027C14.1927 30.2027 14.3652 30.0829 14.4329 29.9022C14.8103 28.8941 15.2518 27.7256 15.7069 26.5326C15.7133 26.5182 15.7188 26.5035 15.7237 26.4886C16.4051 24.7025 17.1157 22.8654 17.6875 21.4317C18.2558 20.0084 18.5426 19.3485 18.6873 19.0431L20.2765 19.5236V22.2595C19.1754 22.4739 18.3413 23.4469 18.3413 24.612C18.3413 25.9335 19.4144 27.0088 20.7334 27.0088C22.0525 27.0088 23.1256 25.9336 23.1256 24.612C23.1256 23.4507 22.297 22.48 21.2011 22.2615V19.8031L24.6854 20.8564C25.203 21.0129 25.581 21.4417 25.6721 21.9758L27.0687 30.1681C27.0919 30.304 27.0558 30.4368 26.9671 30.5421C26.8785 30.6474 26.7538 30.7055 26.6163 30.7055H1.38373C1.24617 30.7055 1.12161 30.6475 1.03288 30.5421C0.944212 30.4368 0.908079 30.304 0.931263 30.1681L1.39218 27.4645C1.43516 27.2123 1.26596 26.973 1.01432 26.9299C0.762744 26.8867 0.523808 27.0564 0.480768 27.3085L0.0198523 30.0122C-0.0488997 30.4157 0.0627684 30.8266 0.326184 31.1396C0.589723 31.4524 0.975166 31.6318 1.38373 31.6318H26.6163C27.0248 31.6318 27.4103 31.4524 27.6738 31.1395C27.9372 30.8266 28.0489 30.4157 27.9801 30.0121ZM20.1304 9.3962C20.3767 9.33467 20.5745 9.33578 20.5767 9.33584C20.6564 9.33689 20.7338 9.31823 20.8026 9.28209C20.8232 9.33343 20.8354 9.3886 20.8354 9.44606V10.1501C20.8354 10.3966 20.6352 10.5972 20.3892 10.5972H20.1304V9.3962ZM7.8696 10.5972H7.61081C7.36479 10.5972 7.16463 10.3966 7.16463 10.1501V9.44606C7.16463 9.3886 7.17684 9.33343 7.19738 9.28215C7.26613 9.31829 7.34357 9.33695 7.4233 9.33584C7.42682 9.33646 7.62401 9.33535 7.8696 9.39645V10.5972ZM8.79421 11.1166V9.89959C8.9343 9.94166 9.08753 9.93592 9.22898 9.87679C9.47162 9.77535 9.62836 9.53978 9.62836 9.27653V5.00042C9.62836 4.47998 10.051 4.05654 10.5704 4.05654H11.8465C12.0739 4.05654 12.2961 4.13592 12.4721 4.28012L12.5973 4.38268C12.992 4.70604 13.4901 4.88403 14 4.88403C14.5099 4.88403 15.008 4.70598 15.4027 4.38268L15.5279 4.28012C15.7039 4.13592 15.9261 4.05654 16.1535 4.05654H17.4296C17.949 4.05654 18.3716 4.47998 18.3716 5.00042V9.27659C18.3716 9.53978 18.5284 9.77541 18.771 9.87686C18.852 9.91071 18.9369 9.92715 19.021 9.92715C19.0837 9.92715 19.1459 9.91794 19.2058 9.90002V11.1166C19.2058 11.7929 18.7391 13.1062 17.8743 14.2083C17.5878 14.5733 17.2196 14.9655 16.7662 15.3083C16.7518 15.3179 16.7381 15.3283 16.7249 15.3395C16.0225 15.8598 15.1194 16.2584 14 16.2584C12.8806 16.2584 11.9775 15.8598 11.275 15.3394C11.2619 15.3283 11.2482 15.3179 11.2339 15.3083C10.7805 14.9655 10.4123 14.5733 10.1257 14.2083C9.26092 13.1063 8.79421 11.7929 8.79421 11.1166ZM17.0288 18.6004L14 20.8686L10.9712 18.6004C11.2716 18.2179 11.4398 17.7269 11.4398 17.2888V16.5421C12.1521 16.9259 13.002 17.1849 14 17.1849C14.998 17.1849 15.848 16.9259 16.5602 16.5421V17.2888C16.5602 17.7269 16.7284 18.2179 17.0288 18.6004ZM10.1996 18.0833C9.95276 17.9891 9.67905 17.9737 9.42013 18.044C9.40879 18.0467 9.39769 18.0497 9.3869 18.0529L7.78969 18.5358C8.05983 17.2049 9.1384 16.1456 10.5152 15.9405V17.2888C10.5152 17.5794 10.3857 17.8798 10.1996 18.0833ZM11.4544 21.8018C11.4535 21.7996 11.4527 21.7975 11.4519 21.7954C11.4284 21.736 11.4053 21.6774 11.3824 21.6196C11.3782 21.6091 11.3741 21.5986 11.37 21.5882C11.3475 21.5316 11.3253 21.4754 11.3033 21.4201C11.3018 21.4162 11.3002 21.4123 11.2987 21.4084C11.2302 21.2358 11.1642 21.0703 11.1006 20.9117C11.096 20.9002 11.0914 20.8886 11.0868 20.8771C11.0685 20.8317 11.0506 20.7869 11.0328 20.7426C11.0262 20.7264 11.0197 20.7103 11.0133 20.6943C10.996 20.6514 10.9789 20.6088 10.962 20.5671C10.9569 20.5546 10.952 20.5425 10.947 20.53C10.9163 20.4543 10.8864 20.3805 10.8571 20.3085C10.8492 20.289 10.8412 20.2692 10.8333 20.25C10.8219 20.2219 10.8107 20.1946 10.7995 20.1671C10.7874 20.1375 10.7753 20.1081 10.7635 20.0792C10.759 20.0684 10.7544 20.0569 10.75 20.0462C10.7464 20.0375 10.7431 20.0296 10.7396 20.021C10.6862 19.891 10.6355 19.7685 10.5873 19.6533C10.5869 19.6523 10.5865 19.6514 10.5861 19.6505C10.5605 19.5891 10.5354 19.5292 10.5113 19.4721C10.4988 19.4425 10.4864 19.4134 10.4743 19.3849L13.0792 21.3356L11.9908 21.7988C11.9889 21.7996 11.9869 21.8005 11.985 21.8013L11.5305 21.9948C11.5048 21.9294 11.4795 21.8654 11.4544 21.8018ZM12.5575 24.6381C12.4662 24.4006 12.3742 24.1618 12.282 23.9233C12.1378 23.5502 12.0001 23.1955 11.8684 22.8575L12.0409 22.7841L12.7458 23.6051L12.5575 24.6381ZM14.0089 28.4029C13.9957 28.3753 13.9799 28.3493 13.9616 28.3251C13.7527 27.7718 13.4876 27.0718 13.1942 26.3016L13.6258 23.9338H14.3742L14.8058 26.3016C14.4983 27.1085 14.2222 27.8381 14.0089 28.4029ZM14.5476 23.0075H13.4524L12.9341 22.4039L14 21.9502L15.0659 22.4039L14.5476 23.0075ZM15.718 23.9233C15.6258 24.1618 15.5338 24.4006 15.4425 24.6381L15.2542 23.605L15.9591 22.784L16.1316 22.8575C15.9999 23.1954 15.8622 23.5502 15.718 23.9233ZM17.4888 19.4721C17.4659 19.5262 17.4421 19.583 17.4179 19.641C17.4147 19.6485 17.4115 19.6561 17.4084 19.6637C17.3844 19.7212 17.36 19.7798 17.3347 19.8409C17.333 19.845 17.3313 19.8492 17.3296 19.8533C17.3078 19.906 17.2854 19.9604 17.2627 20.0158C17.2584 20.0262 17.2544 20.0357 17.2501 20.0462C17.2451 20.0586 17.2397 20.0718 17.2345 20.0843C17.2244 20.109 17.2141 20.1342 17.2038 20.1594C17.1911 20.1905 17.1784 20.2215 17.1654 20.2533C17.1613 20.2634 17.157 20.274 17.1528 20.2842C17.1207 20.3632 17.0876 20.4446 17.0538 20.5283C17.0485 20.5414 17.0433 20.5542 17.038 20.5675C17.0213 20.6088 17.0042 20.651 16.9872 20.6935C16.9805 20.7101 16.9738 20.7266 16.9671 20.7434C16.9494 20.7872 16.9316 20.8316 16.9136 20.8766C16.9085 20.8891 16.9034 20.902 16.8984 20.9146C16.8357 21.071 16.7706 21.2342 16.7031 21.4042C16.7009 21.4098 16.6987 21.4153 16.6964 21.421C16.6746 21.4759 16.6525 21.5318 16.6302 21.588C16.6261 21.5986 16.6219 21.6091 16.6177 21.6196C16.5946 21.6778 16.5714 21.7366 16.5478 21.7964C16.5474 21.7975 16.547 21.7986 16.5465 21.7996C16.5211 21.864 16.4956 21.9288 16.4696 21.9949L16.0147 21.8013C16.0131 21.8006 16.0115 21.7999 16.01 21.7992L14.9209 21.3357L17.5258 19.385C17.5136 19.4134 17.5012 19.4425 17.4888 19.4721ZM18.6131 18.053C18.613 18.053 18.6129 18.0529 18.6129 18.0529C18.6125 18.0528 18.6121 18.0528 18.6117 18.0526C18.3435 17.9719 18.0574 17.9853 17.8004 18.0833C17.6143 17.8798 17.4848 17.5794 17.4848 17.2888V15.9398C18.8703 16.1444 19.9456 17.1938 20.2122 18.5364L18.6131 18.053ZM22.201 24.612C22.201 25.4228 21.5426 26.0824 20.7334 26.0824C19.9243 26.0824 19.2659 25.4228 19.2659 24.612C19.2659 23.8012 19.9243 23.1416 20.7334 23.1416C21.5426 23.1416 22.201 23.8012 22.201 24.612Z" fill="#3B9670"/>
</svg>
