<svg width="36" height="36" viewBox="0 0 36 36" fill="none" xmlns="http://www.w3.org/2000/svg">
<path d="M32.0625 4.5H29.25V3.375C29.25 2.77826 29.0129 2.20597 28.591 1.78401C28.169 1.36205 27.5967 1.125 27 1.125C26.4033 1.125 25.831 1.36205 25.409 1.78401C24.9871 2.20597 24.75 2.77826 24.75 3.375V4.5H20.25V3.375C20.25 2.77826 20.0129 2.20597 19.591 1.78401C19.169 1.36205 18.5967 1.125 18 1.125C17.4033 1.125 16.831 1.36205 16.409 1.78401C15.9871 2.20597 15.75 2.77826 15.75 3.375V4.5H11.25V3.375C11.25 2.77826 11.0129 2.20597 10.591 1.78401C10.169 1.36205 9.59674 1.125 9 1.125C8.40326 1.125 7.83097 1.36205 7.40901 1.78401C6.98705 2.20597 6.75 2.77826 6.75 3.375V4.5H3.9375C3.19158 4.5 2.47621 4.79632 1.94876 5.32376C1.42132 5.85121 1.125 6.56658 1.125 7.3125V29.8125C1.125 30.5584 1.42132 31.2738 1.94876 31.8012C2.47621 32.3287 3.19158 32.625 3.9375 32.625H19.6875C19.8367 32.625 19.9798 32.5657 20.0852 32.4602C20.1907 32.3548 20.25 32.2117 20.25 32.0625C20.25 31.9133 20.1907 31.7702 20.0852 31.6648C19.9798 31.5593 19.8367 31.5 19.6875 31.5H3.9375C3.49036 31.4987 3.06191 31.3204 2.74573 31.0043C2.42955 30.6881 2.25134 30.2596 2.25 29.8125V12.375H33.75V21.9375C33.75 22.0867 33.8093 22.2298 33.9148 22.3352C34.0202 22.4407 34.1633 22.5 34.3125 22.5C34.4617 22.5 34.6048 22.4407 34.7102 22.3352C34.8157 22.2298 34.875 22.0867 34.875 21.9375V7.3125C34.875 6.56658 34.5787 5.85121 34.0512 5.32376C33.5238 4.79632 32.8084 4.5 32.0625 4.5ZM25.875 3.375C25.875 3.07663 25.9935 2.79048 26.2045 2.5795C26.4155 2.36853 26.7016 2.25 27 2.25C27.2984 2.25 27.5845 2.36853 27.7955 2.5795C28.0065 2.79048 28.125 3.07663 28.125 3.375V6.75C28.125 7.04837 28.0065 7.33452 27.7955 7.5455C27.5845 7.75647 27.2984 7.875 27 7.875C26.7016 7.875 26.4155 7.75647 26.2045 7.5455C25.9935 7.33452 25.875 7.04837 25.875 6.75V3.375ZM16.875 3.375C16.875 3.07663 16.9935 2.79048 17.2045 2.5795C17.4155 2.36853 17.7016 2.25 18 2.25C18.2984 2.25 18.5845 2.36853 18.7955 2.5795C19.0065 2.79048 19.125 3.07663 19.125 3.375V6.75C19.125 7.04837 19.0065 7.33452 18.7955 7.5455C18.5845 7.75647 18.2984 7.875 18 7.875C17.7016 7.875 17.4155 7.75647 17.2045 7.5455C16.9935 7.33452 16.875 7.04837 16.875 6.75V3.375ZM7.875 3.375C7.875 3.07663 7.99353 2.79048 8.2045 2.5795C8.41548 2.36853 8.70163 2.25 9 2.25C9.29837 2.25 9.58452 2.36853 9.7955 2.5795C10.0065 2.79048 10.125 3.07663 10.125 3.375V6.75C10.125 7.04837 10.0065 7.33452 9.7955 7.5455C9.58452 7.75647 9.29837 7.875 9 7.875C8.70163 7.875 8.41548 7.75647 8.2045 7.5455C7.99353 7.33452 7.875 7.04837 7.875 6.75V3.375ZM33.75 11.25H2.25V7.3125C2.25134 6.86536 2.42955 6.43691 2.74573 6.12073C3.06191 5.80455 3.49036 5.62634 3.9375 5.625H6.75V6.75C6.75 7.34674 6.98705 7.91903 7.40901 8.34099C7.83097 8.76295 8.40326 9 9 9C9.59674 9 10.169 8.76295 10.591 8.34099C11.0129 7.91903 11.25 7.34674 11.25 6.75V5.625H15.75V6.75C15.75 7.34674 15.9871 7.91903 16.409 8.34099C16.831 8.76295 17.4033 9 18 9C18.5967 9 19.169 8.76295 19.591 8.34099C20.0129 7.91903 20.25 7.34674 20.25 6.75V5.625H24.75V6.75C24.75 7.34674 24.9871 7.91903 25.409 8.34099C25.831 8.76295 26.4033 9 27 9C27.5967 9 28.169 8.76295 28.591 8.34099C29.0129 7.91903 29.25 7.34674 29.25 6.75V5.625H32.0625C32.5096 5.62634 32.9381 5.80455 33.2543 6.12073C33.5704 6.43691 33.7487 6.86536 33.75 7.3125V11.25Z" fill="#3B9670"/>
<path d="M16.875 16.3125C16.875 16.0141 16.7565 15.728 16.5455 15.517C16.3345 15.306 16.0484 15.1875 15.75 15.1875H13.5C13.2016 15.1875 12.9155 15.306 12.7045 15.517C12.4935 15.728 12.375 16.0141 12.375 16.3125V18C12.375 18.2984 12.4935 18.5845 12.7045 18.7955C12.9155 19.0065 13.2016 19.125 13.5 19.125H15.75C16.0484 19.125 16.3345 19.0065 16.5455 18.7955C16.7565 18.5845 16.875 18.2984 16.875 18V16.3125ZM13.5 18V16.3125H15.75V18H13.5Z" fill="#3B9670"/>
<path d="M10.125 16.3125C10.125 16.0141 10.0065 15.728 9.7955 15.517C9.58452 15.306 9.29837 15.1875 9 15.1875H6.75C6.45163 15.1875 6.16548 15.306 5.95451 15.517C5.74353 15.728 5.625 16.0141 5.625 16.3125V18C5.625 18.2984 5.74353 18.5845 5.95451 18.7955C6.16548 19.0065 6.45163 19.125 6.75 19.125H9C9.29837 19.125 9.58452 19.0065 9.7955 18.7955C10.0065 18.5845 10.125 18.2984 10.125 18V16.3125ZM6.75 18V16.3125H9V18H6.75Z" fill="#3B9670"/>
<path d="M29.25 19.125C29.5484 19.125 29.8345 19.0065 30.0455 18.7955C30.2565 18.5845 30.375 18.2984 30.375 18V16.3125C30.375 16.0141 30.2565 15.728 30.0455 15.517C29.8345 15.306 29.5484 15.1875 29.25 15.1875H27C26.7016 15.1875 26.4155 15.306 26.2045 15.517C25.9935 15.728 25.875 16.0141 25.875 16.3125V18C25.875 18.2984 25.9935 18.5845 26.2045 18.7955C26.4155 19.0065 26.7016 19.125 27 19.125H29.25ZM27 16.3125H29.25V18H27V16.3125Z" fill="#3B9670"/>
<path d="M16.875 21.375C16.875 21.0766 16.7565 20.7905 16.5455 20.5795C16.3345 20.3685 16.0484 20.25 15.75 20.25H13.5C13.2016 20.25 12.9155 20.3685 12.7045 20.5795C12.4935 20.7905 12.375 21.0766 12.375 21.375V23.0625C12.375 23.3609 12.4935 23.647 12.7045 23.858C12.9155 24.069 13.2016 24.1875 13.5 24.1875H15.75C16.0484 24.1875 16.3345 24.069 16.5455 23.858C16.7565 23.647 16.875 23.3609 16.875 23.0625V21.375ZM13.5 23.0625V21.375H15.75V23.0625H13.5Z" fill="#3B9670"/>
<path d="M10.125 21.375C10.125 21.0766 10.0065 20.7905 9.7955 20.5795C9.58452 20.3685 9.29837 20.25 9 20.25H6.75C6.45163 20.25 6.16548 20.3685 5.95451 20.5795C5.74353 20.7905 5.625 21.0766 5.625 21.375V23.0625C5.625 23.3609 5.74353 23.647 5.95451 23.858C6.16548 24.069 6.45163 24.1875 6.75 24.1875H9C9.29837 24.1875 9.58452 24.069 9.7955 23.858C10.0065 23.647 10.125 23.3609 10.125 23.0625V21.375ZM6.75 23.0625V21.375H9V23.0625H6.75Z" fill="#3B9670"/>
<path d="M15.75 25.3125H13.5C13.2016 25.3125 12.9155 25.431 12.7045 25.642C12.4935 25.853 12.375 26.1391 12.375 26.4375V28.125C12.375 28.4234 12.4935 28.7095 12.7045 28.9205C12.9155 29.1315 13.2016 29.25 13.5 29.25H15.75C16.0484 29.25 16.3345 29.1315 16.5455 28.9205C16.7565 28.7095 16.875 28.4234 16.875 28.125V26.4375C16.875 26.1391 16.7565 25.853 16.5455 25.642C16.3345 25.431 16.0484 25.3125 15.75 25.3125ZM13.5 28.125V26.4375H15.75V28.125H13.5Z" fill="#3B9670"/>
<path d="M20.25 19.125H22.5C22.7984 19.125 23.0845 19.0065 23.2955 18.7955C23.5065 18.5845 23.625 18.2984 23.625 18V16.3125C23.625 16.0141 23.5065 15.728 23.2955 15.517C23.0845 15.306 22.7984 15.1875 22.5 15.1875H20.25C19.9516 15.1875 19.6655 15.306 19.4545 15.517C19.2435 15.728 19.125 16.0141 19.125 16.3125V18C19.125 18.2984 19.2435 18.5845 19.4545 18.7955C19.6655 19.0065 19.9516 19.125 20.25 19.125ZM20.25 16.3125H22.5V18H20.25V16.3125Z" fill="#3B9670"/>
<path d="M19.125 23.0625C19.125 23.3609 19.2435 23.647 19.4545 23.858C19.6655 24.069 19.9516 24.1875 20.25 24.1875C20.3992 24.1875 20.5423 24.1282 20.6477 24.0227C20.7532 23.9173 20.8125 23.7742 20.8125 23.625C20.8125 23.4758 20.7532 23.3327 20.6477 23.2273C20.5423 23.1218 20.3992 23.0625 20.25 23.0625V21.375H22.5C22.6492 21.375 22.7923 21.3157 22.8977 21.2102C23.0032 21.1048 23.0625 20.9617 23.0625 20.8125C23.0625 20.6633 23.0032 20.5202 22.8977 20.4148C22.7923 20.3093 22.6492 20.25 22.5 20.25H20.25C19.9516 20.25 19.6655 20.3685 19.4545 20.5795C19.2435 20.7905 19.125 21.0766 19.125 21.375V23.0625Z" fill="#3B9670"/>
<path d="M9 25.3125H6.75C6.45163 25.3125 6.16548 25.431 5.95451 25.642C5.74353 25.853 5.625 26.1391 5.625 26.4375V28.125C5.625 28.4234 5.74353 28.7095 5.95451 28.9205C6.16548 29.1315 6.45163 29.25 6.75 29.25H9C9.29837 29.25 9.58452 29.1315 9.7955 28.9205C10.0065 28.7095 10.125 28.4234 10.125 28.125V26.4375C10.125 26.1391 10.0065 25.853 9.7955 25.642C9.58452 25.431 9.29837 25.3125 9 25.3125ZM6.75 28.125V26.4375H9V28.125H6.75Z" fill="#3B9670"/>
<path d="M27.5625 20.25C26.1162 20.25 24.7024 20.6789 23.4999 21.4824C22.2974 22.2859 21.3601 23.4279 20.8066 24.7641C20.2532 26.1003 20.1084 27.5706 20.3905 28.9891C20.6727 30.4076 21.3691 31.7105 22.3918 32.7332C23.4145 33.7559 24.7174 34.4523 26.1359 34.7345C27.5544 35.0166 29.0247 34.8718 30.3609 34.3184C31.697 33.7649 32.8391 32.8276 33.6426 31.6251C34.4461 30.4226 34.875 29.0088 34.875 27.5625C34.8728 25.6238 34.1016 23.7651 32.7307 22.3942C31.3599 21.0234 29.5012 20.2522 27.5625 20.25ZM27.5625 33.75C26.3387 33.75 25.1424 33.3871 24.1249 32.7072C23.1074 32.0273 22.3143 31.061 21.846 29.9303C21.3777 28.7997 21.2551 27.5556 21.4939 26.3554C21.7326 25.1551 22.3219 24.0526 23.1873 23.1873C24.0526 22.3219 25.1551 21.7326 26.3554 21.4939C27.5556 21.2551 28.7997 21.3777 29.9303 21.846C31.061 22.3143 32.0273 23.1074 32.7072 24.1249C33.3871 25.1424 33.75 26.3387 33.75 27.5625C33.7481 29.2029 33.0955 30.7756 31.9356 31.9356C30.7756 33.0955 29.2029 33.7481 27.5625 33.75Z" fill="#3B9670"/>
<path d="M30.8129 25.2045L26.4378 29.5797L24.4494 27.5907C24.3433 27.4882 24.2012 27.4315 24.0537 27.4328C23.9062 27.4341 23.7651 27.4932 23.6608 27.5975C23.5566 27.7018 23.4974 27.8429 23.4961 27.9904C23.4948 28.1379 23.5515 28.2799 23.654 28.386L26.0401 30.7727C26.1456 30.8782 26.2887 30.9374 26.4378 30.9374C26.587 30.9374 26.73 30.8782 26.8355 30.7727L31.6083 25.9999C31.7108 25.8938 31.7675 25.7517 31.7662 25.6042C31.7649 25.4568 31.7057 25.3157 31.6014 25.2114C31.4972 25.1071 31.3561 25.0479 31.2086 25.0467C31.0611 25.0454 30.919 25.1021 30.8129 25.2045Z" fill="#3B9670"/>
</svg>
