<svg width="50" height="50" viewBox="0 0 50 50" fill="none" xmlns="http://www.w3.org/2000/svg">
<rect width="50" height="50" rx="25" fill="#389DAC"/>
<path d="M18.3755 35C18.1888 35 18.0208 34.9347 17.8715 34.804C17.7408 34.6547 17.6755 34.4867 17.6755 34.3V16.128C17.6755 15.9227 17.7408 15.7547 17.8715 15.624C18.0022 15.4747 18.1702 15.4 18.3755 15.4H31.9275C32.1328 15.4 32.3008 15.4747 32.4315 15.624C32.5808 15.7547 32.6555 15.9227 32.6555 16.128V19.068C32.6555 19.2733 32.5808 19.4507 32.4315 19.6C32.3008 19.7307 32.1328 19.796 31.9275 19.796H22.9395V22.904H26.6915C28.9502 22.904 30.7328 23.436 32.0395 24.5C33.3462 25.564 33.9995 27.02 33.9995 28.868C33.9995 30.044 33.7102 31.0987 33.1315 32.032C32.5715 32.9467 31.7408 33.6747 30.6395 34.216C29.5382 34.7387 28.2222 35 26.6915 35H18.3755ZM26.2155 31.22C26.9435 31.22 27.5128 30.996 27.9235 30.548C28.3342 30.0813 28.5395 29.512 28.5395 28.84C28.5395 28.1867 28.3342 27.6453 27.9235 27.216C27.5315 26.7867 26.9622 26.572 26.2155 26.572H22.9395V31.22H26.2155Z" fill="white"/>
</svg>
