<svg width="37" height="32" viewBox="0 0 37 32" fill="none" xmlns="http://www.w3.org/2000/svg">
<path fill-rule="evenodd" clip-rule="evenodd" d="M18.2018 6.74655C8.54248 10.4559 0.558879 13.5432 0.460428 13.6074C0.221878 13.7629 0.000289509 14.1361 7.9469e-07 14.3829C-0.000432277 14.6863 0.176189 15.043 0.406583 15.204C0.520264 15.2835 2.51333 16.0515 4.83567 16.9107C7.15802 17.77 9.09334 18.5098 9.13643 18.5546C9.17945 18.5995 9.93834 20.9634 10.8228 23.8076C11.7073 26.6519 12.4815 29.0879 12.5432 29.2209C12.605 29.3539 12.7555 29.5235 12.8778 29.5977C13.1283 29.7497 13.6412 29.7767 13.8784 29.6505C13.9638 29.605 15.0741 28.7224 16.3458 27.6891C19.1227 25.4329 19.0297 25.502 19.4057 25.4179C19.9997 25.2851 20.1156 25.3528 23.6069 27.8742C29.7332 32.2988 29.2869 31.9956 29.6743 31.9956C30.0756 31.9956 30.3589 31.8196 30.5509 31.4511C30.7422 31.0838 36.9774 1.10797 36.9227 0.818083C36.8395 0.376721 36.3745 -0.00610318 35.9289 7.3728e-05C35.8383 0.00129474 27.8611 3.03717 18.2018 6.74655ZM28.9289 6.69182C28.9765 6.73922 29.0155 6.83058 29.0155 6.89487C29.0155 6.95915 26.3612 9.46568 23.117 12.4649C15.2262 19.7599 14.9138 20.055 14.7036 20.4119C14.4255 20.8842 14.3187 21.3603 14.0708 23.233C13.9409 24.2145 13.7987 25.0264 13.7404 25.1184C13.6346 25.2856 13.3353 25.335 13.1472 25.2164C13.0936 25.1827 12.6255 23.6883 12.107 21.8956C11.1052 18.4327 11.0477 18.1295 11.2879 17.5784C11.352 17.4311 11.51 17.2116 11.6388 17.0907C11.9279 16.8194 28.575 6.60786 28.7304 6.60656C28.792 6.60606 28.8812 6.64442 28.9289 6.69182Z" fill="#1B5773"/>
</svg>
