<svg width="68" height="68" viewBox="0 0 68 68" fill="none" xmlns="http://www.w3.org/2000/svg">
<rect width="68" height="68" rx="17.9109" fill="white"/>
<path fill-rule="evenodd" clip-rule="evenodd" d="M34.2018 24.7466C24.5425 28.4559 16.5589 31.5432 16.4604 31.6074C16.2219 31.7629 16.0003 32.1361 16 32.3829C15.9996 32.6863 16.1762 33.043 16.4066 33.204C16.5203 33.2835 18.5133 34.0515 20.8357 34.9107C23.158 35.77 25.0933 36.5098 25.1364 36.5546C25.1795 36.5995 25.9383 38.9634 26.8228 41.8076C27.7073 44.6519 28.4815 47.0879 28.5432 47.2209C28.605 47.3539 28.7555 47.5235 28.8778 47.5977C29.1283 47.7497 29.6412 47.7767 29.8784 47.6505C29.9638 47.605 31.0741 46.7224 32.3458 45.6891C35.1227 43.4329 35.0297 43.502 35.4057 43.4179C35.9997 43.2851 36.1156 43.3528 39.6069 45.8742C45.7332 50.2988 45.2869 49.9956 45.6743 49.9956C46.0756 49.9956 46.3589 49.8196 46.5509 49.4511C46.7422 49.0838 52.9774 19.108 52.9227 18.8181C52.8395 18.3767 52.3745 17.9939 51.9289 18.0001C51.8383 18.0013 43.8611 21.0372 34.2018 24.7466ZM44.9289 24.6918C44.9765 24.7392 45.0155 24.8306 45.0155 24.8949C45.0155 24.9592 42.3612 27.4657 39.117 30.4649C31.2262 37.7599 30.9138 38.055 30.7036 38.4119C30.4255 38.8842 30.3187 39.3603 30.0708 41.233C29.9409 42.2145 29.7987 43.0264 29.7404 43.1184C29.6346 43.2856 29.3353 43.335 29.1472 43.2164C29.0936 43.1827 28.6255 41.6883 28.107 39.8956C27.1052 36.4327 27.0477 36.1295 27.2879 35.5784C27.352 35.4311 27.51 35.2116 27.6388 35.0907C27.9279 34.8194 44.575 24.6079 44.7304 24.6066C44.792 24.6061 44.8812 24.6444 44.9289 24.6918Z" fill="#1B5773"/>
</svg>
