<svg width="43" height="26" viewBox="0 0 43 26" fill="none" xmlns="http://www.w3.org/2000/svg">
<path fill-rule="evenodd" clip-rule="evenodd" d="M6.16323 0H1.55812C0.276999 0 0 0.63 0 1.33C0 2.555 1.55812 8.645 7.2366 16.73C11.0453 22.225 16.3776 25.2 21.2597 25.2C24.1682 25.2 24.5491 24.535 24.5491 23.38V19.215C24.5491 17.885 24.826 17.64 25.7609 17.64C26.4534 17.64 27.596 17.99 30.3314 20.65C33.4476 23.8 33.967 25.2 35.6983 25.2H40.3034C41.6191 25.2 42.277 24.535 41.8961 23.24C41.4806 21.945 39.9918 20.055 38.0181 17.815C36.9448 16.52 35.352 15.155 34.8673 14.455C34.1748 13.58 34.3825 13.16 34.8673 12.39C34.8673 12.39 40.4765 4.41 41.0305 1.715C41.3075 0.735 41.0305 0 39.6455 0H35.0404C33.8631 0 33.3438 0.63 33.0322 1.33C33.0322 1.33 30.7123 7.07 27.3883 10.815C26.3149 11.9 25.8302 12.25 25.2415 12.25C24.9646 12.25 24.5144 11.9 24.5144 10.92V1.715C24.5144 0.525 24.1682 0 23.1987 0H15.9967C15.2696 0 14.8195 0.56 14.8195 1.05C14.8195 2.17 16.4814 2.415 16.6546 5.565V12.39C16.6546 13.895 16.3776 14.175 15.789 14.175C14.2308 14.175 10.4567 8.4 8.2061 1.785C7.7906 0.525 7.34048 0 6.16323 0Z" fill="#1B5773"/>
</svg>
