<svg width="42" height="42" viewBox="0 0 42 42" fill="none" xmlns="http://www.w3.org/2000/svg">
<path fill-rule="evenodd" clip-rule="evenodd" d="M21 0C26.7028 0 27.4349 0.0385321 29.6697 0.115596C31.9046 0.231193 33.4459 0.577982 34.756 1.0789C36.1431 1.61835 37.2991 2.35046 38.4936 3.50642C39.6495 4.66239 40.3817 5.85688 40.9211 7.24404C41.422 8.59266 41.8073 10.0954 41.8844 12.3303C42 14.5651 42 15.2972 42 21C42 26.7028 41.9615 27.4349 41.8844 29.6697C41.7688 31.9046 41.422 33.4459 40.9211 34.756C40.3817 36.1431 39.6495 37.2991 38.4936 38.4936C37.3376 39.6495 36.1431 40.3817 34.756 40.9211C33.4073 41.422 31.9046 41.8073 29.6697 41.8844C27.4349 42 26.7028 42 21 42C15.2972 42 14.5651 41.9615 12.3303 41.8844C10.0954 41.7688 8.55413 41.422 7.24404 40.9211C5.85688 40.3817 4.70092 39.6495 3.50642 38.4936C2.35046 37.3376 1.61835 36.1431 1.0789 34.756C0.577982 33.4073 0.231193 31.9046 0.115596 29.6697C0.0385321 27.4349 0 26.7028 0 21C0 15.2972 0.0385321 14.5651 0.115596 12.3303C0.231193 10.0954 0.577982 8.55413 1.0789 7.24404C1.61835 5.85688 2.35046 4.70092 3.50642 3.50642C4.66239 2.35046 5.85688 1.61835 7.24404 1.0789C8.59266 0.577982 10.0954 0.192661 12.3303 0.115596C14.5651 0.0385321 15.2972 0 21 0ZM29.4771 3.89174C27.2807 3.77615 26.5872 3.77615 21 3.77615C15.3743 3.77615 14.7193 3.81468 12.5229 3.89174C10.4807 3.96881 9.3633 4.3156 8.63119 4.62385C7.66789 5.00917 6.93578 5.47156 6.20367 6.20367C5.47156 6.93578 5.00917 7.62936 4.62385 8.63119C4.35413 9.3633 4.00734 10.4807 3.89174 12.5229C3.77615 14.7193 3.77615 15.4128 3.77615 21C3.77615 26.6257 3.81468 27.2807 3.89174 29.4771C3.96881 31.5193 4.3156 32.6367 4.62385 33.3688C5.00917 34.3321 5.47156 35.0642 6.20367 35.7963C6.93578 36.5284 7.62936 36.9908 8.63119 37.3761C9.3633 37.6459 10.4807 37.9927 12.5229 38.1083C14.7193 38.2239 15.4128 38.2239 21 38.2239C26.6257 38.2239 27.2807 38.1853 29.4771 38.1083C31.5193 38.0312 32.6367 37.6844 33.3688 37.3761C34.3321 36.9908 35.0642 36.5284 35.7963 35.7963C36.5284 35.0642 36.9908 34.3706 37.3761 33.3688C37.6459 32.6367 37.9927 31.5193 38.1083 29.4771C38.2239 27.2807 38.2239 26.5872 38.2239 21C38.2239 15.3743 38.1853 14.7193 38.1083 12.5229C38.0312 10.4807 37.6844 9.3633 37.3761 8.63119C36.9908 7.66789 36.5284 6.93578 35.7963 6.20367C35.0642 5.47156 34.3706 5.00917 33.3688 4.62385C32.6367 4.35413 31.5193 4.00734 29.4771 3.89174ZM21 28.0128C24.8532 28.0128 28.0128 24.8917 28.0128 21C28.0128 17.1468 24.8917 13.9872 21 13.9872C17.1468 13.9872 13.9872 17.1083 13.9872 21C13.9872 24.8532 17.1468 28.0128 21 28.0128ZM21 10.211C26.9725 10.211 31.789 15.0275 31.789 21C31.789 26.9725 26.9725 31.789 21 31.789C15.0275 31.789 10.211 26.9725 10.211 21C10.211 15.0275 15.0275 10.211 21 10.211ZM34.7174 9.78716C34.7174 11.1743 33.6 12.2917 32.2128 12.2917C30.8257 12.2917 29.7083 11.1743 29.7083 9.78716C29.7083 8.4 30.8257 7.28257 32.2128 7.28257C33.6 7.28257 34.7174 8.4 34.7174 9.78716Z" fill="#1B5773"/>
</svg>
