<svg width="25" height="42" viewBox="0 0 25 42" fill="none" xmlns="http://www.w3.org/2000/svg">
<g clip-path="url(#clip0_115_4249)">
<path d="M12.3528 21.654C18.4003 21.654 23.3414 16.7855 23.3414 10.827C23.3414 4.86851 18.4003 0 12.3528 0C6.30543 0 1.36426 4.86851 1.36426 10.827C1.36426 16.7855 6.26856 21.654 12.3528 21.654ZM12.3528 6.3218C14.8603 6.3218 16.9253 8.32007 16.9253 10.827C16.9253 13.3339 14.8972 15.3322 12.3528 15.3322C9.80851 15.3322 7.78041 13.3339 7.78041 10.827C7.78041 8.3564 9.80851 6.3218 12.3528 6.3218Z" fill="#1B5773"/>
<path d="M16.8147 30.4835C19.064 29.9749 21.2028 29.1029 23.2309 27.8676C24.7427 26.923 25.2221 24.9973 24.2633 23.4714C23.3046 21.9818 21.3503 21.5095 19.8015 22.4541C15.3028 25.2517 9.47668 25.2517 5.01487 22.4541C3.50302 21.5095 1.5118 21.9454 0.553066 23.4714C-0.405669 24.961 0.0368241 26.923 1.58555 27.8676C3.57677 29.1029 5.75236 29.9749 8.0017 30.4835L1.76992 36.551C0.516192 37.7863 0.516192 39.8209 1.76992 41.0562C2.43366 41.6738 3.2449 42.0008 4.05614 42.0008C4.86738 42.0008 5.71549 41.7101 6.34235 41.0562L12.3898 35.0977L18.4372 41.0562C19.6909 42.2915 21.7559 42.2915 23.0096 41.0562C24.2633 39.8209 24.2633 37.7863 23.0096 36.551L16.8147 30.4835Z" fill="#1B5773"/>
</g>
<defs>
<clipPath id="clip0_115_4249">
<rect width="24.7059" height="42" fill="white"/>
</clipPath>
</defs>
</svg>
