<svg width="24" height="30" viewBox="0 0 24 30" fill="none" xmlns="http://www.w3.org/2000/svg">
<path fill-rule="evenodd" clip-rule="evenodd" d="M10.4272 0.0127177C8.97058 0.191157 8.09144 0.429702 7.28155 0.866155C5.25693 1.95726 3.9025 3.82709 3.42804 6.18592C3.38184 6.41567 3.35458 8.5326 3.33769 13.1998L3.31351 19.8847L2.95287 20.1021C1.80041 20.797 0.747437 22.1112 0.327728 23.3785C0.0159029 24.3199 0 24.5133 0 27.3588V30H12H24V27.3588C24 24.5133 23.9841 24.3199 23.6723 23.3785C23.2523 22.1105 22.1977 20.7947 21.0463 20.1021L20.6847 19.8847L20.6656 13.0239L20.6466 6.16311L20.5178 5.78195C20.1227 4.6128 19.1755 3.72412 18.0532 3.46968L17.7523 3.40149L17.6476 2.98632C17.315 1.66793 16.3412 0.702199 15 0.360742C14.0279 0.113225 13.2587 0.0239764 11.9417 0.00579821C11.2209 -0.00411184 10.5393 -0.00100395 10.4272 0.0127177ZM13.4642 1.05884C14.8806 1.24866 15.556 1.50861 16.079 2.06521C16.5022 2.51574 16.7139 3.0069 16.7927 3.72136L16.8566 4.3009L17.2972 4.33848C17.8786 4.38803 18.2232 4.4988 18.6191 4.76333C19.0167 5.02896 19.3445 5.43475 19.5249 5.88445L19.6602 6.22175L19.6757 12.8404L19.6913 19.4591L19.5592 19.4225C19.4866 19.4023 18.5164 19.1814 17.4032 18.9316L15.3792 18.4774L15.3789 17.847C15.3788 17.5003 15.3993 17.2166 15.4246 17.2166C15.4499 17.2166 15.6568 17.0455 15.8844 16.8365C16.57 16.2066 17.097 15.4127 17.4189 14.5249C17.7435 13.6297 17.7665 13.3037 17.7668 9.60817L17.767 6.25106H17.305C16.8736 6.25106 16.8418 6.25957 16.8245 6.38001C16.7784 6.69925 15.6623 7.34328 14.7527 7.57555C14.2167 7.71247 14.1289 7.71705 12.055 7.71705C10.8558 7.71705 9.71056 7.74467 9.45565 7.77979C8.88763 7.85796 8.06417 8.12981 7.5925 8.39492C7.39503 8.50587 7.21812 8.59664 7.1993 8.59664C7.18043 8.59664 7.16505 8.50428 7.16505 8.3914V8.18616H6.69903H6.23301L6.23324 10.5757C6.23348 13.2217 6.27355 13.6766 6.58113 14.5249C6.90297 15.4127 7.42998 16.2066 8.11561 16.8365C8.3432 17.0455 8.55006 17.2166 8.5754 17.2166C8.60068 17.2166 8.62124 17.5003 8.62107 17.847L8.62078 18.4774L6.5968 18.9316C5.48359 19.1814 4.51305 19.4023 4.44006 19.4226L4.3073 19.4595L4.32402 12.9286L4.34074 6.39766L4.50023 5.81127C4.97883 4.05174 6.12944 2.58511 7.68932 1.74627C8.39144 1.36869 9.22089 1.12816 10.2233 1.01146C10.732 0.952237 12.9058 0.98402 13.4642 1.05884ZM16.8345 10.1359C16.8342 11.434 16.8077 12.7336 16.7757 13.0239C16.4955 15.5571 14.4903 17.3905 12 17.3905C10.1856 17.3905 8.62153 16.4375 7.75206 14.8021C7.28283 13.9196 7.16627 13.2019 7.16551 11.1923L7.16505 9.88841L7.4993 9.62435C7.68315 9.4791 8.02194 9.26777 8.25216 9.15477C9.05499 8.76071 9.08575 8.75696 11.9126 8.7128C14.4239 8.67363 14.4872 8.6697 15.0447 8.52052C15.5486 8.38571 16.4769 7.98134 16.6282 7.83075C16.8261 7.63372 16.835 7.73265 16.8345 10.1359ZM10.2044 18.0709C10.7902 18.2756 11.2598 18.3481 12 18.3481C12.8624 18.3481 13.5104 18.2188 14.2864 17.892C14.3789 17.8531 14.3883 17.8956 14.3883 18.3484C14.3883 18.7854 14.3482 18.9817 14.0657 19.9232C13.4779 21.883 12.1038 25.778 12.0002 25.778C11.907 25.778 10.671 22.3202 10.0708 20.3807C9.68738 19.1417 9.64293 18.9475 9.62266 18.4249C9.60151 17.8789 9.60658 17.8473 9.70788 17.8898C9.76707 17.9147 9.99052 17.9961 10.2044 18.0709ZM7.27188 19.9771C6.37421 21.0819 5.78184 22.032 5.32969 23.0924C5.0375 23.7776 4.55353 25.2797 4.60748 25.334C4.6214 25.348 5.49722 25.1105 6.55381 24.8063L8.4748 24.2532L10.0481 25.8365C11.5452 27.3433 11.6295 27.4398 11.7885 27.8304C11.8805 28.0561 11.9756 28.2408 12 28.2408C12.0244 28.2408 12.1195 28.0561 12.2115 27.8304C12.3705 27.4398 12.4548 27.3433 13.9519 25.8365L15.5252 24.2532L17.4462 24.8063C18.5028 25.1105 19.3784 25.3482 19.3921 25.3344C19.4381 25.2882 19.0379 23.9956 18.776 23.3444C18.3314 22.2391 17.6957 21.165 16.9367 20.2367C16.7258 19.9787 16.5601 19.7607 16.5684 19.7523C16.6203 19.7 19.4509 20.4019 19.8319 20.5616C21.3231 21.1864 22.4472 22.488 22.8978 24.1115C23.0179 24.5438 23.0285 24.7284 23.0522 26.7895L23.0776 29.0031H21.1519H19.2262L19.2102 28.0502L19.1942 27.0974H18.7282H18.2621L18.2461 28.0502L18.2301 29.0031H12H5.7699L5.75388 28.0502L5.73786 27.0974H5.27184H4.80583L4.78981 28.0502L4.77379 29.0031H2.84808H0.922369L0.947825 26.7895C0.971534 24.7284 0.982136 24.5438 1.10219 24.1115C1.55307 22.4872 2.67682 21.1865 4.16977 20.5609C4.53478 20.4079 7.04895 19.7698 7.38839 19.744C7.43132 19.7408 7.37918 19.8451 7.27188 19.9771ZM9.3208 21.1748C9.66711 22.2754 10.2121 23.8505 10.5991 24.8691C10.6466 24.9941 10.3996 24.778 9.74493 24.1214C9.23837 23.6134 8.78487 23.1978 8.73717 23.1978C8.66755 23.1978 6.6127 23.7723 6.12536 23.928C6.00967 23.965 6.01223 23.9464 6.17907 23.5391C6.52823 22.6868 7.17454 21.6096 7.76627 20.8938C8.26264 20.2935 8.8126 19.731 8.85559 19.7797C8.87808 19.8052 9.08744 20.433 9.3208 21.1748ZM15.9142 20.5285C16.7094 21.4268 17.4065 22.5275 17.8209 23.5391C17.9878 23.9464 17.9903 23.965 17.8746 23.928C17.3873 23.7723 15.3324 23.1978 15.2628 23.1978C15.2151 23.1978 14.7616 23.6134 14.2551 24.1214C13.6004 24.778 13.3534 24.9941 13.4009 24.8691C13.7866 23.8538 14.333 22.2754 14.6797 21.1748C14.9133 20.433 15.1163 19.8046 15.1308 19.7783C15.1678 19.7113 15.3194 19.8566 15.9142 20.5285Z" fill="black"/>
</svg>
