<svg width="64" height="64" viewBox="0 0 64 64" fill="none" xmlns="http://www.w3.org/2000/svg">
<path fill-rule="evenodd" clip-rule="evenodd" d="M38.6496 5.09795C34.6633 6.80579 28.9102 6.80578 24.924 5.09794C21.6852 3.71035 18.0625 3.58167 14.7197 5.03568C7.66555 8.10409 4.50161 17.071 7.57188 25.1599C7.57256 25.1617 7.57253 25.1637 7.57178 25.1654V25.1654L8.5299 27.2488C11.7687 34.2913 14.2099 41.6738 15.8082 49.2588L17.3286 56.4741C17.8548 58.5484 19.7141 60 21.8447 60C24.1329 60 26.0827 58.331 26.446 56.0612L28.5894 42.669C28.8418 41.0917 30.1967 39.9319 31.7868 39.9319C33.377 39.9319 34.7319 41.0917 34.9843 42.669L37.1277 56.0612C37.4909 58.331 39.4407 60 41.729 60C43.8595 60 45.7189 58.5484 46.245 56.4741L47.7654 49.2588C49.3637 41.6738 51.805 34.2913 55.0437 27.2488L56.0018 25.1654V25.1654C56.0011 25.1637 56.0011 25.1617 56.0018 25.1599C59.072 17.071 55.9081 8.10409 48.8539 5.03568C45.5112 3.58165 41.8884 3.71034 38.6496 5.09795Z" fill="url(#paint0_linear_115_3998)"/>
<mask id="mask0_115_3998" style="mask-type:alpha" maskUnits="userSpaceOnUse" x="6" y="4" width="52" height="56">
<path fill-rule="evenodd" clip-rule="evenodd" d="M38.6496 5.09795C34.6633 6.80579 28.9102 6.80578 24.924 5.09794C21.6852 3.71035 18.0625 3.58167 14.7197 5.03568C7.66555 8.10409 4.50161 17.071 7.57188 25.1599C7.57256 25.1617 7.57253 25.1637 7.57178 25.1654V25.1654L8.5299 27.2488C11.7687 34.2913 14.2099 41.6738 15.8082 49.2588L17.3286 56.4741C17.8548 58.5484 19.7141 60 21.8447 60C24.1329 60 26.0827 58.331 26.446 56.0612L28.5894 42.669C28.8418 41.0917 30.1967 39.9319 31.7868 39.9319C33.377 39.9319 34.7319 41.0917 34.9843 42.669L37.1277 56.0612C37.4909 58.331 39.4407 60 41.729 60C43.8595 60 45.7189 58.5484 46.245 56.4741L47.7654 49.2588C49.3637 41.6738 51.805 34.2913 55.0437 27.2488L56.0018 25.1654V25.1654C56.0011 25.1637 56.0011 25.1617 56.0018 25.1599C59.072 17.071 55.9081 8.10409 48.8539 5.03568C45.5112 3.58165 41.8884 3.71034 38.6496 5.09795Z" fill="url(#paint1_linear_115_3998)"/>
</mask>
<g mask="url(#mask0_115_3998)">
<path d="M23.9999 10.6436C23.9999 10.102 23.5643 9.66888 23.0348 9.55455C20.6763 9.04524 18.9089 6.94709 18.9089 4.43617V3.56344C18.9089 1.15347 20.8626 1.5998 23.2726 1.5998C24.542 1.5998 25.6848 2.14184 26.4822 3.0071C27.9176 1.63943 29.8607 0.799805 31.9999 0.799805C34.139 0.799805 36.0821 2.43942 37.5175 3.80709C38.3149 2.94184 39.4577 2.3998 40.7271 2.3998C43.1371 2.3998 45.0908 4.35347 45.0908 6.76344V7.63617C45.0908 10.2314 43.2028 12.3856 40.7254 12.8004C40.325 12.8675 39.9999 13.1939 39.9999 13.5998V13.5998C39.9999 18.0181 36.4181 21.5998 31.9999 21.5998C27.5816 21.5998 23.9999 18.0181 23.9999 13.5998V10.6436Z" fill="url(#paint2_linear_115_3998)"/>
</g>
<defs>
<linearGradient id="paint0_linear_115_3998" x1="13.1201" y1="4" x2="43.7335" y2="57.76" gradientUnits="userSpaceOnUse">
<stop stop-color="#F0F6F9"/>
<stop offset="1" stop-color="#CDDFF2"/>
</linearGradient>
<linearGradient id="paint1_linear_115_3998" x1="13.1201" y1="4" x2="43.7335" y2="57.76" gradientUnits="userSpaceOnUse">
<stop stop-color="#F0F6F9"/>
<stop offset="1" stop-color="#CDDFF2"/>
</linearGradient>
<linearGradient id="paint2_linear_115_3998" x1="42.9089" y1="0.290715" x2="34.3406" y2="34.2685" gradientUnits="userSpaceOnUse">
<stop stop-color="#E6F0F8"/>
<stop offset="1" stop-color="#6F93BA"/>
</linearGradient>
</defs>
</svg>
