<svg width="34" height="34" viewBox="0 0 34 34" fill="none" xmlns="http://www.w3.org/2000/svg">
<path d="M15.8015 11C13.2319 11 11.1484 13.0841 11.1484 15.6537C11.1484 18.2239 13.2319 20.3075 15.8015 20.3075C18.3717 20.3075 20.4549 18.224 20.4549 15.6537C20.455 13.0841 18.3719 11 15.8015 11ZM18.0501 16.7549H16.6833V18.1217C16.6833 18.6088 16.2886 19.0035 15.8015 19.0035C15.3144 19.0035 14.9196 18.6088 14.9196 18.1217V16.7549H13.5528C13.0657 16.7549 12.671 16.3601 12.671 15.873C12.671 15.3859 13.0657 14.9912 13.5528 14.9912H14.9196V13.624C14.9196 13.1369 15.3144 12.7422 15.8015 12.7422C16.2886 12.7422 16.6833 13.1369 16.6833 13.624V14.9912H18.0501C18.5373 14.9912 18.932 15.3859 18.932 15.873C18.932 16.3601 18.5375 16.7549 18.0501 16.7549Z" fill="#3B9670"/>
<path d="M16.9997 0C7.61106 0 0 7.61129 0 16.9995C0 26.3878 7.61106 34 16.9995 34C26.388 34 33.9997 26.3881 33.9997 16.9995C33.9997 7.61095 26.3881 0 16.9997 0ZM25.5497 25.0756C25.281 25.3449 24.9286 25.4792 24.5762 25.4792C24.2237 25.4792 23.8716 25.3449 23.6023 25.0756L19.7325 21.2056C18.6176 21.9834 17.2625 22.4405 15.8001 22.4405C11.998 22.4405 8.91599 19.3583 8.91599 15.5561C8.91599 11.754 11.998 8.67198 15.8001 8.67198C19.6023 8.67198 22.6845 11.754 22.6845 15.5558C22.6845 16.8994 22.2983 18.1522 21.6328 19.2115L25.5496 23.1285C26.0877 23.6661 26.0877 24.5382 25.5497 25.0756Z" fill="#3B9670"/>
</svg>
