<svg width="30" height="30" viewBox="0 0 30 30" fill="none" xmlns="http://www.w3.org/2000/svg">
<g clip-path="url(#clip0)">
<path d="M15 30C23.2706 30 30 23.2712 30 15C30 13.5724 29.8007 12.1655 29.4061 10.8182C29.2117 10.1556 28.5199 9.77509 27.8555 9.96948C27.1924 10.1633 26.813 10.8575 27.0068 11.5201C27.3337 12.6395 27.5 13.8107 27.5 15C27.5 21.8924 21.8924 27.5 15 27.5C8.1076 27.5 2.5 21.8924 2.5 15C2.5 8.1076 8.1076 2.5 15 2.5C17.5049 2.5 19.9149 3.23242 21.9693 4.61761C22.5412 5.00366 23.3188 4.85199 23.7042 4.28009C24.09 3.70758 23.9395 2.9306 23.367 2.54486C20.8981 0.880127 18.0051 0 15 0C6.72943 0 0 6.72882 0 15C0 23.2712 6.72943 30 15 30Z" fill="#3B9670"/>
<path d="M27.8662 2.86623L15 15.7318L10.8838 11.6162C10.3955 11.1283 9.60451 11.1283 9.11623 11.6162C8.62825 12.1045 8.62825 12.8955 9.11623 13.3838L14.1162 18.3838C14.3607 18.6283 14.6799 18.75 15 18.75C15.3201 18.75 15.6394 18.6283 15.8838 18.3838L29.6338 4.6338C30.1218 4.14552 30.1218 3.35451 29.6338 2.86623C29.1455 2.37825 28.3545 2.37825 27.8662 2.86623Z" fill="#3B9670"/>
</g>
<defs>
<clipPath id="clip0">
<rect width="30" height="30" fill="white"/>
</clipPath>
</defs>
</svg>
