<svg width="51" height="50" viewBox="0 0 51 50" fill="none" xmlns="http://www.w3.org/2000/svg">
<path fill-rule="evenodd" clip-rule="evenodd" d="M29.1031 0.0545024C28.7316 0.103728 28.0898 0.300973 27.6769 0.492635C26.9723 0.819781 26.1515 1.61537 14.3042 13.456C2.99588 24.7579 1.65003 26.1405 1.37244 26.7414C0.928268 27.7029 0.783369 28.7119 0.95006 29.6829C1.23655 31.3514 1.08446 31.1736 9.04868 39.144L16.3048 46.4058L8.70263 46.4367C1.22697 46.467 1.0953 46.4715 0.785537 46.7026C0.186772 47.149 0 47.5132 0 48.2338C0 48.9544 0.186886 49.3186 0.785537 49.765L1.10066 50H25.5H49.8993L50.2145 49.765C50.8131 49.3186 51 48.9544 51 48.2338C51 47.5132 50.8132 47.149 50.2145 46.7026C49.9016 46.4692 49.8179 46.4674 37.9022 46.4375L25.905 46.4075L37.611 34.7008C50.4603 21.8506 49.7536 22.6343 50.0504 20.9058C50.1579 20.2798 50.1571 19.9437 50.0463 19.3437C49.7399 17.683 49.9549 17.9305 41.2616 9.22816C36.517 4.47856 33.0453 1.09223 32.6448 0.823428C31.6158 0.132671 30.4387 -0.122916 29.1031 0.0545024ZM31.5947 4.81151L32.7442 5.95955L19.8245 18.8627L6.90474 31.7661L5.763 30.63C4.58954 29.4625 4.38611 29.1014 4.56421 28.5021C4.64853 28.2184 28.3223 4.46146 29.094 3.88614C29.4729 3.60366 29.6262 3.55592 29.9978 3.60469C30.3807 3.65494 30.6112 3.82916 31.5947 4.81151ZM40.8777 14.0812C46.9428 20.1397 46.8029 19.966 46.284 20.7935C45.8909 21.4205 21.9439 45.246 21.5649 45.3871C20.8132 45.6671 20.8462 45.695 15.0034 39.8586L9.47048 34.3318L22.3625 21.4558C29.4532 14.374 35.2806 8.57968 35.3123 8.57968C35.344 8.57968 37.8485 11.0554 40.8777 14.0812ZM27.6678 29.1733C27.302 29.2397 20.4048 36.0628 20.1819 36.5789C19.9442 37.129 19.9839 37.7721 20.2829 38.2152C20.8383 39.0384 21.7192 39.3253 22.5657 38.9591C22.769 38.8711 24.4668 37.257 26.371 35.3412C29.9909 31.6992 30.1721 31.466 30.0177 30.6498C29.8102 29.554 28.86 28.9568 27.6678 29.1733Z" fill="#389DAC"/>
</svg>
