<svg width="62" height="43" viewBox="0 0 62 43" fill="none" xmlns="http://www.w3.org/2000/svg">
<path fill-rule="evenodd" clip-rule="evenodd" d="M6.37491 0.296177C5.781 0.700673 5.49895 1.33067 5.57189 2.09048C5.64276 2.82989 5.94141 3.25746 6.63479 3.61265L7.16836 3.88588H22.6507H38.1329V11.0325V18.1791L38.4055 18.5806C38.5554 18.8013 38.832 19.0963 39.0202 19.2361C39.3577 19.4868 39.464 19.4906 47.3194 19.5265L55.2765 19.5631L56.6994 21.4088L58.1224 23.2546L58.123 28.2637L58.1237 33.2728H56.2557H54.3876L54.1351 32.5124C53.4596 30.4776 51.4604 28.5156 49.3429 27.8093C45.31 26.4642 40.8136 28.6335 39.4792 32.568L39.2608 33.2121H33.4782H27.6956L27.3564 32.3383C26.6853 30.6094 25.3912 29.1752 23.7154 28.3024C22.5392 27.69 21.4884 27.425 20.2051 27.4169C18.8341 27.4084 17.9205 27.6091 16.7489 28.1759C14.8442 29.0975 13.3009 30.8051 12.7288 32.6241L12.5298 33.2571L9.73251 33.2953C6.6572 33.3373 6.43379 33.3874 5.85757 34.1621C5.48308 34.6657 5.4975 35.8574 5.88471 36.4016C6.43173 37.1704 6.63273 37.2151 9.74099 37.2594L12.5467 37.2995L12.8091 38.0028C13.3881 39.5548 14.9376 41.322 16.4083 42.1076C17.9698 42.9418 20.2806 43.2315 21.9635 42.8042C24.4143 42.1818 26.4739 40.3651 27.3633 38.0409L27.6529 37.2837L33.4765 37.282L39.3003 37.2802L39.5098 37.9463C39.7916 38.8425 40.7763 40.2892 41.6219 41.0493C42.4054 41.7536 44.16 42.6558 45.1356 42.8559C46.1595 43.0659 47.7924 43.0172 48.8539 42.745C51.1376 42.1596 53.147 40.3711 54.0386 38.1302L54.3527 37.3409L57.48 37.2802C60.4735 37.222 60.6264 37.2075 61.0531 36.9416C61.3148 36.7785 61.6024 36.4493 61.7498 36.1444C61.9941 35.6384 62.0007 35.4528 62 29.0146C61.9996 25.0496 61.9516 22.2344 61.8801 21.9795C61.8123 21.738 60.9444 20.5057 59.8704 19.1258L57.9799 16.6971L55.071 10.8683C53.4712 7.66247 52.0242 4.85613 51.8557 4.63197C51.3062 3.90106 51.195 3.88588 46.3862 3.88588H42.0314L41.9903 2.55861C41.9451 1.0923 41.8276 0.809113 41.0419 0.273226L40.6414 0H23.7255H6.80974L6.37491 0.296177ZM51.0963 11.6569C52.1627 13.7938 53.0351 15.5697 53.0351 15.6035C53.0351 15.6373 50.5545 15.6649 47.5225 15.6649H42.0099V11.7184V7.77176H45.5837H49.1574L51.0963 11.6569ZM4.25952 8.18718C3.51405 8.5125 3.03791 9.5 3.22667 10.329C3.37399 10.9752 3.68585 11.3743 4.26231 11.654C4.77323 11.9018 4.89632 11.9048 13.6331 11.8725C22.4006 11.8402 22.4895 11.8374 22.8281 11.5857C23.0163 11.446 23.2928 11.151 23.4428 10.9302C24.0068 10.0998 23.6629 8.78852 22.7456 8.27182C22.292 8.01633 22.2328 8.01463 13.4612 8.01936C6.3468 8.02325 4.56072 8.05579 4.25952 8.18718ZM1.05507 15.9382C0.320497 16.3098 -0.0588427 16.9727 0.00742972 17.7687C0.0617076 18.422 0.33649 18.8681 0.936818 19.2776L1.33736 19.5508H10.267H19.1967L19.5973 19.2776C20.1771 18.8821 20.4632 18.4374 20.5259 17.8342C20.6065 17.058 20.1855 16.2949 19.4795 15.9382L18.9389 15.6649H10.267H1.59518L1.05507 15.9382ZM4.12492 23.6742C3.08903 24.3073 2.87253 25.7565 3.6844 26.6223C4.33718 27.3186 4.37183 27.3226 9.63837 27.3226C14.4566 27.3226 14.4708 27.3219 15.0004 27.0411C16.0701 26.4741 16.3843 25.0521 15.6367 24.1615C15.0184 23.425 15.1156 23.4367 9.57646 23.4372C4.77044 23.4376 4.49239 23.4497 4.12492 23.6742ZM21.4936 31.5905C22.422 31.9388 23.2309 32.7122 23.6535 33.6558C23.9507 34.3197 23.9805 34.5048 23.9321 35.3843C23.8656 36.5927 23.5014 37.3851 22.6788 38.1108C20.9019 39.6785 18.1816 39.332 16.9043 37.3755C15.8161 35.7084 16.0226 33.7876 17.4388 32.4013C18.4996 31.3629 20.0566 31.0517 21.4936 31.5905ZM48.4825 31.6868C50.8883 32.8659 51.4419 36.1268 49.5491 37.968C47.6647 39.801 44.5526 39.3108 43.3828 36.9967C42.2718 34.7993 43.3798 32.2142 45.7658 31.4375C46.372 31.2402 47.8474 31.3754 48.4825 31.6868Z" fill="#389DAC"/>
</svg>
