<svg width="59" height="62" viewBox="0 0 59 62" fill="none" xmlns="http://www.w3.org/2000/svg">
<path fill-rule="evenodd" clip-rule="evenodd" d="M28.4299 0.106934C27.1748 0.355185 26.5348 0.803806 24.1062 3.13783C22.5752 4.60903 21.628 5.42857 21.3271 5.54203C20.9124 5.6984 20.6175 5.67876 18.1161 5.32772C16.6011 5.11511 15.0029 4.93631 14.5646 4.93037C12.7672 4.90613 11.1205 5.77949 10.121 7.2873C9.51211 8.20588 9.38697 8.65402 8.80484 12.0002C8.53904 13.5281 8.23907 14.939 8.13812 15.1355C7.91576 15.5687 7.60086 15.7712 5.13396 17.0672C1.77544 18.8313 1.19438 19.2956 0.505884 20.7644C0.11976 21.5882 0.00316457 22.1654 3.61139e-05 23.2699C-0.00297202 24.2971 0.17896 24.8 1.66847 27.8819C2.64719 29.9072 2.94079 30.6282 2.94079 31.0071C2.94079 31.3861 2.64719 32.1071 1.66847 34.1323C0.17896 37.2143 -0.00297202 37.7172 3.61139e-05 38.7444C0.00316457 39.8489 0.11976 40.4261 0.505884 41.2499C1.19438 42.7187 1.77544 43.183 5.13396 44.9471C7.60086 46.2431 7.91576 46.4456 8.13812 46.8788C8.23907 47.0753 8.53952 48.4891 8.80592 50.0204C9.07232 51.5519 9.36495 53.0545 9.45604 53.3597C10.1078 55.5413 12.1251 57.0623 14.399 57.0867C14.8623 57.0916 16.5078 56.9166 18.0559 56.6979C20.6154 56.3361 20.9118 56.3157 21.3271 56.4723C21.628 56.5857 22.5752 57.4053 24.1062 58.8765C25.954 60.6523 26.5809 61.1803 27.1729 61.4593C28.7018 62.1802 30.2978 62.1802 31.8268 61.4593C32.4188 61.1803 33.0457 60.6523 34.8934 58.8765C36.4244 57.4053 37.3716 56.5857 37.6726 56.4723C38.0872 56.3159 38.3821 56.3355 40.8836 56.6866C42.3986 56.8992 43.9967 57.078 44.4351 57.0839C46.2325 57.1082 47.8791 56.2348 48.8787 54.727C49.4875 53.8084 49.6127 53.3603 50.1948 50.0141C50.4606 48.4862 50.7606 47.0753 50.8615 46.8788C51.0861 46.4413 51.3561 46.2701 54.1828 44.7732C56.8466 43.3625 57.4369 42.9383 58.0825 41.9712C58.7194 41.0168 58.9897 40.1209 58.9995 38.9329C59.0095 37.7039 58.8869 37.3512 57.3312 34.1323C56.3525 32.1071 56.0589 31.3861 56.0589 31.0071C56.0589 30.6282 56.3525 29.9072 57.3312 27.8819C58.8869 24.6631 59.0095 24.3104 58.9995 23.0814C58.9897 21.8934 58.7194 20.9975 58.0825 20.0431C57.4369 19.0759 56.8466 18.6518 54.1828 17.2411C51.3561 15.7442 51.0861 15.573 50.8615 15.1355C50.7606 14.939 50.4606 13.5281 50.1948 12.0002C49.6127 8.65402 49.4875 8.20588 48.8787 7.2873C47.8791 5.77949 46.2325 4.90613 44.4351 4.93037C43.9967 4.93631 42.3986 5.11511 40.8836 5.32772C38.3821 5.67876 38.0872 5.6984 37.6726 5.54203C37.3716 5.42857 36.4244 4.60903 34.8934 3.13783C33.0737 1.38904 32.4141 0.831807 31.847 0.564404C30.6904 0.0192944 29.6066 -0.125923 28.4299 0.106934ZM30.4023 3.84415C30.6008 3.97119 31.7516 5.03135 32.9595 6.19999C35.3722 8.53413 36.0074 8.95815 37.4242 9.18021C38.2454 9.30895 38.5287 9.28361 42.224 8.75062C43.4979 8.56674 44.595 8.46698 44.8374 8.5128C45.3427 8.60832 45.9052 9.06179 46.0857 9.51914C46.1586 9.70375 46.4408 11.1343 46.7128 12.698C47.25 15.7864 47.4395 16.4265 48.1043 17.3989C48.6964 18.265 49.2479 18.6465 52.188 20.2235C53.574 20.9669 54.8102 21.6655 54.9351 21.7758C55.2362 22.0417 55.4901 22.6653 55.4901 23.1385C55.4901 23.378 54.9761 24.5886 54.1115 26.385C52.6744 29.3715 52.4879 29.9025 52.4879 31.0071C52.4879 32.1118 52.6744 32.6428 54.1115 35.6292C54.9761 37.4257 55.4901 38.6363 55.4901 38.8758C55.4901 39.349 55.2362 39.9725 54.9351 40.2385C54.8102 40.3488 53.574 41.0474 52.188 41.7908C49.2479 43.3678 48.6964 43.7493 48.1043 44.6154C47.4395 45.5878 47.25 46.2279 46.7128 49.3163C46.4408 50.88 46.1586 52.3105 46.0857 52.4952C45.9052 52.9525 45.3427 53.406 44.8374 53.5015C44.595 53.5473 43.4979 53.4476 42.224 53.2637C38.5287 52.7307 38.2454 52.7053 37.4242 52.8341C36.0074 53.0561 35.3722 53.4802 32.9595 55.8143C31.7516 56.983 30.6008 58.0431 30.4023 58.1701C29.9893 58.4344 29.1014 58.4735 28.6941 58.2454C28.5488 58.1641 27.4497 57.1559 26.2518 56.0051C23.9199 53.7649 23.4336 53.3902 22.4006 53.0371C21.4384 52.7083 20.3018 52.7416 17.2568 53.1879C15.651 53.4233 14.4125 53.5488 14.162 53.5015C13.657 53.406 13.0944 52.9525 12.9139 52.4952C12.841 52.3105 12.5589 50.88 12.2868 49.3163C11.7497 46.2279 11.5602 45.5878 10.8954 44.6154C10.3032 43.7493 9.7518 43.3678 6.81165 41.7908C5.42562 41.0474 4.1894 40.3488 4.0645 40.2385C3.76345 39.9725 3.50956 39.349 3.50956 38.8758C3.50956 38.6363 4.02359 37.4257 4.88813 35.6292C6.3253 32.6428 6.5118 32.1118 6.5118 31.0071C6.5118 29.9025 6.3253 29.3715 4.88813 26.385C4.02359 24.5886 3.50956 23.378 3.50956 23.1385C3.50956 22.6653 3.76345 22.0417 4.0645 21.7758C4.1894 21.6655 5.42562 20.9669 6.81165 20.2235C9.7518 18.6465 10.3032 18.265 10.8954 17.3989C11.5602 16.4265 11.7497 15.7864 12.2868 12.698C12.5589 11.1343 12.841 9.70375 12.9139 9.51914C13.0944 9.06179 13.657 8.60832 14.1622 8.5128C14.4047 8.46698 15.5018 8.56674 16.7757 8.75062C20.471 9.28361 20.7542 9.30895 21.5754 9.18021C22.9923 8.95815 23.6275 8.53413 26.0401 6.19999C27.2481 5.03135 28.3988 3.97119 28.5974 3.84415C29.0711 3.54099 29.9285 3.54099 30.4023 3.84415ZM21.0169 15.0664C18.031 15.7353 15.8977 18.4067 15.9049 21.4673C15.9117 24.3685 17.8599 26.9296 20.7079 27.7813C21.5284 28.0267 23.0953 28.0338 24.0006 27.7962C26.3816 27.1715 28.3203 25.0934 28.7855 22.6672C29.652 18.1483 25.4801 14.0664 21.0169 15.0664ZM40.5096 17.5698C40.135 17.7744 16.3907 41.6933 16.1962 42.0621C15.7963 42.8196 16.1162 43.8635 16.8947 44.3415C17.3268 44.607 18.0598 44.6573 18.4679 44.4495C18.841 44.2597 42.5943 20.3485 42.8035 19.9522C43.2033 19.1947 42.8835 18.1508 42.105 17.6727C41.6765 17.4096 40.8951 17.3592 40.5096 17.5698ZM23.915 18.9519C25.5062 19.9429 25.8043 22.1331 24.5303 23.4721C23.3563 24.706 21.5097 24.7331 20.3058 23.5343C19.5439 22.7756 19.2517 21.3239 19.6623 20.337C20.3503 18.6824 22.4069 18.0126 23.915 18.9519ZM34.9476 34.2241C32.6035 34.8601 30.6742 36.9483 30.2142 39.3471C29.9249 40.8557 30.2943 42.7804 31.1151 44.0407C32.1431 45.6194 33.8738 46.7559 35.6665 47.0299C39.537 47.6213 43.1042 44.5081 43.0948 40.547C43.0879 37.6458 41.1397 35.0847 38.2918 34.233C37.4885 33.9927 35.8165 33.9883 34.9476 34.2241ZM37.9115 37.9108C38.92 38.4291 39.5293 39.4433 39.5187 40.5864C39.5026 42.3311 38.1541 43.5819 36.4096 43.4699C33.9468 43.3119 32.771 40.3261 34.4694 38.5426C35.3876 37.5782 36.7705 37.3243 37.9115 37.9108Z" fill="#389DAC"/>
</svg>
