<svg width="39" height="48" viewBox="0 0 39 48" fill="none" xmlns="http://www.w3.org/2000/svg">
<path fill-rule="evenodd" clip-rule="evenodd" d="M9.54629 0.102085C5.18121 0.611216 1.51329 3.84936 0.312468 8.25391L0.0417341 9.247L0.00819784 19.1718C-0.0148715 26.005 0.0103318 29.4631 0.0890926 30.2732C0.710744 36.6664 4.36708 42.3251 9.92546 45.4961C12.8947 47.1901 15.9917 48 19.4998 48C22.1574 48 24.2818 47.6054 26.6137 46.6787C33.4964 43.9435 38.1626 37.6999 38.9127 30.2221C38.9897 29.454 39.0148 25.9449 38.9918 19.1718L38.9579 9.247L38.6872 8.25391C37.4663 3.77599 33.8227 0.601701 29.3237 0.0966623C28.1469 -0.0354294 10.6842 -0.0307229 9.54629 0.102085ZM29.5101 4.5403C31.8827 5.04012 33.9342 7.04473 34.484 9.40048C34.6137 9.95617 34.6395 11.0374 34.6407 15.9744L34.6422 21.8832H19.4998H4.35742L4.35895 15.9744C4.36057 9.3926 4.36281 9.36651 5.04544 7.96804C5.59351 6.84521 6.76039 5.68483 7.91436 5.11522C9.40381 4.38007 9.02037 4.40391 19.449 4.39686C27.2858 4.39153 28.9138 4.41476 29.5101 4.5403ZM17.3657 8.73542V10.9352H15.1807H12.9957V13.1351V15.3349H15.1807H17.3657V17.4835V19.6322H19.4998H21.634V17.4835V15.3349H23.819H26.0039V13.1351V10.9352H23.819H21.634V8.73542V6.53559H19.4998H17.3657V8.73542ZM34.6416 27.9455C34.6407 30.5356 34.329 32.2412 33.4781 34.3108C31.872 38.2168 28.4204 41.47 24.4287 42.8399C22.6702 43.4434 21.5874 43.6134 19.4998 43.6134C17.4107 43.6134 16.328 43.4428 14.5709 42.837C10.0721 41.2858 6.45551 37.5477 5.037 32.9827C4.53232 31.3585 4.44309 30.7306 4.38679 28.4059L4.33283 26.1805H19.4875H34.6422L34.6416 27.9455Z" fill="#389DAC"/>
</svg>
