<svg width="64" height="67" viewBox="0 0 64 67" fill="none" xmlns="http://www.w3.org/2000/svg">
<circle cx="32" cy="24" r="21" fill="#3B9670"/>
<g clip-path="url(#clip0_0_213)" filter="url(#filter0_d_0_213)">
<path d="M25.8238 10.4117C24.9179 10.4117 24.1767 11.1529 24.1767 12.0588V35.1176C24.1767 36.0235 24.9179 36.7647 25.8238 36.7647H42.2944C43.2003 36.7647 43.9414 36.0235 43.9414 35.1176V17L37.3532 10.4117H25.8238Z" fill="white"/>
<path d="M39.0003 17H43.9414L37.3532 10.4117V15.3529C37.3532 16.2588 38.0944 17 39.0003 17Z" fill="#C5C5C5"/>
<path d="M43.9415 21.9412L39.0003 17H43.9415V21.9412Z" fill="white"/>
<path d="M40.6473 31.8235C40.6473 32.2764 40.2767 32.647 39.8238 32.647H21.7061C21.2532 32.647 20.8826 32.2764 20.8826 31.8235V23.5882C20.8826 23.1352 21.2532 22.7646 21.7061 22.7646H39.8238C40.2767 22.7646 40.6473 23.1352 40.6473 23.5882V31.8235Z" fill="#81DE9B"/>
<path d="M24.4724 26.0151C24.4724 25.7977 24.6436 25.5605 24.9195 25.5605H26.4406C27.2971 25.5605 28.0679 26.1337 28.0679 27.2323C28.0679 28.2733 27.2971 28.853 26.4406 28.853H25.3412V29.7227C25.3412 30.0125 25.1567 30.1764 24.9195 30.1764C24.7021 30.1764 24.4724 30.0125 24.4724 29.7227V26.0151ZM25.3412 26.3898V28.0303H26.4406C26.882 28.0303 27.2312 27.6408 27.2312 27.2323C27.2312 26.772 26.882 26.3898 26.4406 26.3898H25.3412Z" fill="white"/>
<path d="M29.3572 30.1765C29.1398 30.1765 28.9026 30.0579 28.9026 29.7688V26.0283C28.9026 25.792 29.1398 25.6199 29.3572 25.6199H30.8651C33.8743 25.6199 33.8084 30.1765 30.9244 30.1765H29.3572ZM29.7723 26.4236V29.3735H30.8651C32.6431 29.3735 32.7221 26.4236 30.8651 26.4236H29.7723Z" fill="white"/>
<path d="M34.8761 26.4763V27.523H36.5552C36.7924 27.523 37.0296 27.7602 37.0296 27.99C37.0296 28.2074 36.7924 28.3853 36.5552 28.3853H34.8761V29.768C34.8761 29.9985 34.7122 30.1756 34.4816 30.1756C34.1917 30.1756 34.0146 29.9985 34.0146 29.768V26.0275C34.0146 25.7911 34.1925 25.619 34.4816 25.619H36.7932C37.0831 25.619 37.2544 25.7911 37.2544 26.0275C37.2544 26.2383 37.0831 26.4755 36.7932 26.4755H34.8761V26.4763Z" fill="white"/>
<path d="M39.8238 32.647H24.1767V33.4705H39.8238C40.2767 33.4705 40.6473 33.1 40.6473 32.647V31.8235C40.6473 32.2764 40.2767 32.647 39.8238 32.647Z" fill="white"/>
</g>
<defs>
<filter id="filter0_d_0_213" x="-0.764404" y="0.411743" width="66.3529" height="66.3529" filterUnits="userSpaceOnUse" color-interpolation-filters="sRGB">
<feFlood flood-opacity="0" result="BackgroundImageFix"/>
<feColorMatrix in="SourceAlpha" type="matrix" values="0 0 0 0 0 0 0 0 0 0 0 0 0 0 0 0 0 0 127 0" result="hardAlpha"/>
<feOffset dy="10"/>
<feGaussianBlur stdDeviation="10"/>
<feColorMatrix type="matrix" values="0 0 0 0 0.0850347 0 0 0 0 0.329167 0 0 0 0 0.271607 0 0 0 0.25 0"/>
<feBlend mode="normal" in2="BackgroundImageFix" result="effect1_dropShadow_0_213"/>
<feBlend mode="normal" in="SourceGraphic" in2="effect1_dropShadow_0_213" result="shape"/>
</filter>
<clipPath id="clip0_0_213">
<rect width="26.3529" height="26.3529" fill="white" transform="translate(19.2356 10.4117)"/>
</clipPath>
</defs>
</svg>
