<svg width="42" height="42" viewBox="0 0 42 42" fill="none" xmlns="http://www.w3.org/2000/svg">
<circle cx="21" cy="21" r="21" fill="#AE3D8D"/>
<g clip-path="url(#clip0_694_2525)">
<path d="M14.8228 7.41211C13.917 7.41211 13.1758 8.15329 13.1758 9.05917V32.118C13.1758 33.0239 13.917 33.7651 14.8228 33.7651H31.2934C32.1993 33.7651 32.9405 33.0239 32.9405 32.118V14.0003L26.3523 7.41211H14.8228Z" fill="white"/>
<path d="M27.9986 14.0003H32.9398L26.3516 7.41211V12.3533C26.3516 13.2592 27.0927 14.0003 27.9986 14.0003Z" fill="#C5C5C5"/>
<path d="M32.9412 18.9412L28 14H32.9412V18.9412Z" fill="white"/>
<path d="M29.6475 28.8244C29.6475 29.2774 29.2769 29.648 28.824 29.648H10.7063C10.2534 29.648 9.88281 29.2774 9.88281 28.8244V20.5892C9.88281 20.1362 10.2534 19.7656 10.7063 19.7656H28.824C29.2769 19.7656 29.6475 20.1362 29.6475 20.5892V28.8244Z" fill="#AE3D8D"/>
<path d="M13.4727 23.0151C13.4727 22.7977 13.644 22.5605 13.9198 22.5605H15.4409C16.2974 22.5605 17.0682 23.1337 17.0682 24.2323C17.0682 25.2733 16.2974 25.853 15.4409 25.853H14.3415V26.7227C14.3415 27.0125 14.157 27.1764 13.9198 27.1764C13.7024 27.1764 13.4727 27.0125 13.4727 26.7227V23.0151ZM14.3415 23.3898V25.0303H15.4409C15.8823 25.0303 16.2315 24.6408 16.2315 24.2323C16.2315 23.772 15.8823 23.3898 15.4409 23.3898H14.3415Z" fill="white"/>
<path d="M18.3569 27.1757C18.1395 27.1757 17.9023 27.0571 17.9023 26.7681V23.0276C17.9023 22.7913 18.1395 22.6191 18.3569 22.6191H19.8648C22.874 22.6191 22.8081 27.1757 19.9241 27.1757H18.3569ZM18.772 23.4229V26.3728H19.8648C21.6428 26.3728 21.7219 23.4229 19.8648 23.4229H18.772Z" fill="white"/>
<path d="M23.877 23.4764V24.5231H25.5562C25.7934 24.5231 26.0306 24.7603 26.0306 24.9901C26.0306 25.2075 25.7934 25.3854 25.5562 25.3854H23.877V26.7681C23.877 26.9987 23.7132 27.1757 23.4826 27.1757C23.1927 27.1757 23.0156 26.9987 23.0156 26.7681V23.0276C23.0156 22.7913 23.1935 22.6191 23.4826 22.6191H25.7942C26.0841 22.6191 26.2554 22.7913 26.2554 23.0276C26.2554 23.2384 26.0841 23.4756 25.7942 23.4756H23.877V23.4764Z" fill="white"/>
<path d="M28.8228 29.6477H13.1758V30.4713H28.8228C29.2758 30.4713 29.6464 30.1007 29.6464 29.6477V28.8242C29.6464 29.2772 29.2758 29.6477 28.8228 29.6477Z" fill="white"/>
</g>
<defs>
<clipPath id="clip0_694_2525">
<rect width="26.3529" height="26.3529" fill="white" transform="translate(8.23438 7.41211)"/>
</clipPath>
</defs>
</svg>
