<svg width="21" height="21" fill="none" xmlns="http://www.w3.org/2000/svg"><path d="M10.184.375c-5.45 0-9.868 4.477-9.868 10 0 5.522 4.418 10 9.868 10s9.868-4.478 9.868-10c0-5.523-4.418-10-9.867-10zm0 18.75c-4.768 0-8.634-3.918-8.634-8.75 0-4.833 3.866-8.75 8.634-8.75 4.77 0 8.635 3.917 8.635 8.75 0 4.832-3.866 8.75-8.634 8.75z" fill="#000"/><path d="M10.185 11.624c.681 0 1.234-.56 1.234-1.25s-.553-1.25-1.234-1.25c-.681 0-1.233.56-1.233 1.25s.552 1.25 1.233 1.25zM14.502 11.624c.682 0 1.234-.56 1.234-1.25s-.552-1.25-1.234-1.25c-.68 0-1.233.56-1.233 1.25s.552 1.25 1.233 1.25zM5.867 11.624c.681 0 1.234-.56 1.234-1.25s-.553-1.25-1.234-1.25c-.681 0-1.233.56-1.233 1.25s.552 1.25 1.233 1.25z" fill="#000"/></svg>