<svg width="32" height="32" viewBox="0 0 32 32" fill="none" xmlns="http://www.w3.org/2000/svg">
<g clip-path="url(#clip0)">
<path d="M29.5347 20.1022C29.0945 20.1022 28.7378 20.459 28.7378 20.8992V27.9754C28.7362 29.2953 27.6669 30.365 26.3469 30.3663H3.98483C2.66485 30.365 1.59549 29.2953 1.59393 27.9754V7.20724C1.59549 5.88758 2.66485 4.8179 3.98483 4.81634H11.061C11.5012 4.81634 11.858 4.45958 11.858 4.01938C11.858 3.57949 11.5012 3.22241 11.061 3.22241H3.98483C1.78508 3.2249 0.00249052 5.00749 0 7.20724V27.9757C0.00249052 30.1754 1.78508 31.958 3.98483 31.9605H26.3469C28.5466 31.958 30.3292 30.1754 30.3317 27.9757V20.8992C30.3317 20.459 29.9749 20.1022 29.5347 20.1022Z" fill="#3B9670"/>
<path d="M30.016 1.17179C28.6154 -0.228813 26.3447 -0.228813 24.9441 1.17179L10.7257 15.3902C10.6282 15.4876 10.5579 15.6084 10.5212 15.741L8.6514 22.4913C8.5745 22.768 8.65264 23.0644 8.85562 23.2677C9.05891 23.4706 9.35528 23.5488 9.63204 23.4722L16.3823 21.6021C16.5149 21.5654 16.6357 21.495 16.7331 21.3976L30.9512 7.17892C32.3496 5.77738 32.3496 3.50852 30.9512 2.10698L30.016 1.17179ZM12.4622 15.9082L24.0988 4.27124L27.8517 8.02414L16.2148 19.6611L12.4622 15.9082ZM11.7126 17.4125L14.7108 20.411L10.5635 21.5601L11.7126 17.4125ZM29.8242 6.05196L28.979 6.89718L25.2258 3.14397L26.0713 2.29875C26.8493 1.52078 28.1108 1.52078 28.8887 2.29875L29.8242 3.23394C30.601 4.01285 30.601 5.27336 29.8242 6.05196Z" fill="#3B9670"/>
</g>
<defs>
<clipPath id="clip0">
<rect width="32" height="32" fill="white"/>
</clipPath>
</defs>
</svg>
