<svg width="46" height="46" viewBox="0 0 46 46" fill="none" xmlns="http://www.w3.org/2000/svg">
<circle cx="23" cy="23" r="23" fill="#953478"/>
<g clip-path="url(#clip0_115_5686)">
<path d="M37.7132 16.3322L28.2265 12.7154C27.9965 12.6277 27.739 12.7431 27.6513 12.9729C27.5637 13.2029 27.679 13.4604 27.9091 13.5481L36.3038 16.7485L30.4924 18.9643L23.1838 15.6552C22.9595 15.5535 22.6956 15.6531 22.5942 15.8772C22.4926 16.1015 22.5921 16.3654 22.8162 16.467L29.3194 19.4116L23 21.8208L9.69624 16.7485L23 11.6763L26.2785 12.9264C26.5081 13.0139 26.7658 12.8987 26.8537 12.6687C26.9413 12.4389 26.826 12.1814 26.596 12.0938L23.1588 10.7832C23.0565 10.7443 22.9435 10.744 22.8412 10.7832L8.28679 16.3322C8.11421 16.3981 8 16.5638 8 16.7485V18.7833C8 18.968 8.11421 19.1337 8.28679 19.1996L12.8317 20.9323V22.4763C12.8317 22.7223 13.0311 22.9219 13.2771 22.9219C13.5234 22.9219 13.7227 22.7223 13.7227 22.4763V21.2721L22.8412 24.7486C22.8924 24.7681 22.9462 24.7779 23 24.7779C23.0538 24.7779 23.1076 24.7681 23.1588 24.7486L30.0322 22.1282V29.1796C27.8743 30.3123 25.4545 30.9193 23 30.9193C19.6501 30.9193 16.3643 29.79 13.7227 27.7349V24.2586C13.7227 24.0125 13.5234 23.813 13.2771 23.813C13.0311 23.813 12.8317 24.0125 12.8317 24.2586V27.9507C12.8317 28.086 12.893 28.2139 12.9986 28.2984C15.8255 30.5631 19.3775 31.8103 23 31.8103C25.4431 31.8103 27.8537 31.2422 30.0322 30.1782V31.9815C29.3142 32.1777 28.7848 32.8353 28.7848 33.6146C28.7848 34.548 29.5442 35.3076 30.4776 35.3076C31.4112 35.3076 32.1706 34.548 32.1706 33.6146C32.1706 32.8353 31.6412 32.1777 30.9232 31.9815V29.7076C31.6494 29.2945 32.3452 28.8243 33.0017 28.2984C33.1072 28.2139 33.1688 28.086 33.1688 27.9507V20.932L37.7132 19.1994C37.8858 19.1337 38 18.968 38 18.7831V16.7485C38 16.5638 37.8858 16.3981 37.7132 16.3322ZM31.2796 33.6146C31.2796 34.0566 30.9198 34.4164 30.4776 34.4164C30.0356 34.4164 29.6758 34.0566 29.6758 33.6146C29.6758 33.1724 30.0356 32.8126 30.4776 32.8126C30.9198 32.8126 31.2796 33.1724 31.2796 33.6146ZM8.89104 17.3953L22.5544 22.6047V23.6855L8.89104 18.4761V17.3953ZM23.4456 23.6855V22.6047L30.0322 20.0934V21.1744L23.4456 23.6855ZM32.2775 27.7346C31.8428 28.0729 31.3904 28.3856 30.9232 28.6726V21.7883L32.2775 21.2719V27.7346ZM30.9232 20.8345V19.7537L37.109 17.3953V18.4761L30.9232 20.8345Z" fill="white"/>
</g>
<defs>
<clipPath id="clip0_115_5686">
<rect width="30" height="30" fill="white" transform="translate(8 8)"/>
</clipPath>
</defs>
</svg>
