<svg width="27" height="27" viewBox="0 0 27 27" fill="none" xmlns="http://www.w3.org/2000/svg">
<path d="M13.6508 0.837891C6.59788 0.837891 0.880371 6.63185 0.880371 13.7791C0.880371 20.9263 6.59788 26.7202 13.6508 26.7202C20.7037 26.7202 26.4212 20.9263 26.4212 13.7791C26.4212 6.63185 20.7037 0.837891 13.6508 0.837891ZM13.6508 25.1026C7.47949 25.1026 2.47667 20.0329 2.47667 13.7791C2.47667 7.52524 7.47949 2.45554 13.6508 2.45554C19.8221 2.45554 24.8249 7.52524 24.8249 13.7791C24.8249 20.0329 19.8221 25.1026 13.6508 25.1026Z" fill="white"/>
<path d="M13.6515 15.3964C14.5331 15.3964 15.2478 14.6721 15.2478 13.7788C15.2478 12.8854 14.5331 12.1611 13.6515 12.1611C12.7699 12.1611 12.0552 12.8854 12.0552 13.7788C12.0552 14.6721 12.7699 15.3964 13.6515 15.3964Z" fill="white"/>
<path d="M19.2385 15.3964C20.1201 15.3964 20.8348 14.6721 20.8348 13.7788C20.8348 12.8854 20.1201 12.1611 19.2385 12.1611C18.3569 12.1611 17.6422 12.8854 17.6422 13.7788C17.6422 14.6721 18.3569 15.3964 19.2385 15.3964Z" fill="white"/>
<path d="M8.06359 15.3964C8.9452 15.3964 9.65989 14.6721 9.65989 13.7788C9.65989 12.8854 8.9452 12.1611 8.06359 12.1611C7.18197 12.1611 6.46729 12.8854 6.46729 13.7788C6.46729 14.6721 7.18197 15.3964 8.06359 15.3964Z" fill="white"/>
</svg>
