<svg width="31" height="30" viewBox="0 0 31 30" fill="none" xmlns="http://www.w3.org/2000/svg">
<path d="M15.5374 30C7.27187 30 0.547913 23.2713 0.547913 15C0.547913 6.72867 7.27187 0 15.5374 0C23.803 0 30.5269 6.72867 30.5269 15C30.5269 23.2713 23.803 30 15.5374 30ZM15.5374 1.875C8.30501 1.875 2.4216 7.76253 2.4216 15C2.4216 22.2375 8.30501 28.125 15.5374 28.125C22.7698 28.125 28.6532 22.2375 28.6532 15C28.6532 7.76253 22.7698 1.875 15.5374 1.875Z" fill="#3C9670"/>
<path d="M22.0953 23.1251C21.8554 23.1251 21.6157 23.0337 21.4332 22.8499L14.8753 16.2874C14.6992 16.1112 14.6006 15.8725 14.6006 15.6251V6.8749C14.6006 6.3574 15.0203 5.9374 15.5374 5.9374C16.0546 5.9374 16.4743 6.3574 16.4743 6.8749V15.2362L22.7575 21.5238C23.1234 21.89 23.1234 22.4837 22.7575 22.8499C22.575 23.0337 22.3353 23.1251 22.0953 23.1251Z" fill="#3C9670"/>
</svg>
