<svg width="31" height="28" viewBox="0 0 31 28" fill="none" xmlns="http://www.w3.org/2000/svg">
<path d="M27.6513 2.90733H25.7693V1.41475C25.7693 0.984955 25.4179 0.633301 24.9884 0.633301C24.5589 0.633301 24.2075 0.984955 24.2075 1.41475V2.90733H16.5546V1.41475C16.5546 0.984955 16.2032 0.633301 15.7737 0.633301C15.3442 0.633301 14.9928 0.984955 14.9928 1.41475V2.90733H7.26181V1.41475C7.26181 0.984955 6.9104 0.633301 6.4809 0.633301C6.0514 0.633301 5.69999 0.984955 5.69999 1.41475V2.90733H3.89609C2.1781 2.90733 0.780273 4.35302 0.780273 6.07222V24.241C0.780273 25.968 2.17029 27.3668 3.89609 27.3668H27.6435C29.3693 27.3668 30.7593 25.968 30.7593 24.2488V6.07222C30.7671 4.35302 29.3693 2.90733 27.6513 2.90733ZM29.2053 24.241C29.2053 25.1006 28.5181 25.7961 27.6591 25.8039H3.89609C3.0371 25.8039 2.34209 25.1084 2.34209 24.2488V6.07222C2.34209 5.2048 3.0371 4.47024 3.89609 4.47024H5.69999V5.60334C5.69999 6.03314 6.0514 6.3848 6.4809 6.3848C6.9104 6.3848 7.26181 6.03314 7.26181 5.60334V4.47024H14.9928V5.60334C14.9928 6.03314 15.3442 6.3848 15.7737 6.3848C16.2032 6.3848 16.5546 6.03314 16.5546 5.60334V4.47024H24.2075V5.60334C24.2075 6.03314 24.5589 6.3848 24.9884 6.3848C25.4179 6.3848 25.7693 6.03314 25.7693 5.60334V4.47024H27.6513C28.5181 4.47024 29.2053 5.21262 29.2053 6.07222V24.241Z" fill="#3C9670"/>
<path d="M13.7199 9.5496H12.3534C11.9239 9.5496 11.5724 9.90125 11.5724 10.331C11.5724 10.7608 11.9239 11.1125 12.3534 11.1125H13.7199C14.1494 11.1125 14.5008 10.7608 14.5008 10.331C14.5008 9.90125 14.1494 9.5496 13.7199 9.5496Z" fill="#3C9670"/>
<path d="M19.155 9.5496H17.7884C17.3589 9.5496 17.0075 9.90125 17.0075 10.331C17.0075 10.7608 17.3589 11.1125 17.7884 11.1125H19.155C19.5845 11.1125 19.9359 10.7608 19.9359 10.331C19.9359 9.90125 19.5923 9.5496 19.155 9.5496Z" fill="#3C9670"/>
<path d="M24.637 9.5496H23.2704C22.8409 9.5496 22.4895 9.90125 22.4895 10.331C22.4895 10.7608 22.8409 11.1125 23.2704 11.1125H24.637C25.0665 11.1125 25.4179 10.7608 25.4179 10.331C25.4179 9.90125 25.0665 9.5496 24.637 9.5496Z" fill="#3C9670"/>
<path d="M13.7199 14.9416H12.3534C11.9239 14.9416 11.5724 15.2933 11.5724 15.7231C11.5724 16.1529 11.9239 16.5045 12.3534 16.5045H13.7199C14.1494 16.5045 14.5008 16.1529 14.5008 15.7231C14.5008 15.2933 14.1494 14.9416 13.7199 14.9416Z" fill="#3C9670"/>
<path d="M8.24574 14.9416H6.87135C6.44185 14.9416 6.09044 15.2933 6.09044 15.7231C6.09044 16.1529 6.44185 16.5045 6.87135 16.5045H8.23793C8.66743 16.5045 9.01884 16.1529 9.01884 15.7231C9.01884 15.2933 8.67524 14.9416 8.24574 14.9416Z" fill="#3C9670"/>
<path d="M19.155 14.9416H17.7884C17.3589 14.9416 17.0075 15.2933 17.0075 15.7231C17.0075 16.1529 17.3589 16.5045 17.7884 16.5045H19.155C19.5845 16.5045 19.9359 16.1529 19.9359 15.7231C19.9359 15.2933 19.5923 14.9416 19.155 14.9416Z" fill="#3C9670"/>
<path d="M24.637 14.9416H23.2704C22.8409 14.9416 22.4895 15.2933 22.4895 15.7231C22.4895 16.1529 22.8409 16.5045 23.2704 16.5045H24.637C25.0665 16.5045 25.4179 16.1529 25.4179 15.7231C25.4179 15.2933 25.0665 14.9416 24.637 14.9416Z" fill="#3C9670"/>
<path d="M13.7199 20.2555H12.3534C11.9239 20.2555 11.5724 20.6072 11.5724 21.037C11.5724 21.4668 11.9239 21.8184 12.3534 21.8184H13.7199C14.1494 21.8184 14.5008 21.4668 14.5008 21.037C14.5008 20.6072 14.1494 20.2555 13.7199 20.2555Z" fill="#3C9670"/>
<path d="M8.24574 20.2555H6.87135C6.44185 20.2555 6.09044 20.6072 6.09044 21.037C6.09044 21.4668 6.44185 21.8184 6.87135 21.8184H8.23793C8.66743 21.8184 9.01884 21.4668 9.01884 21.037C9.01884 20.6072 8.67524 20.2555 8.24574 20.2555Z" fill="#3C9670"/>
<path d="M19.155 20.2555H17.7884C17.3589 20.2555 17.0075 20.6072 17.0075 21.037C17.0075 21.4668 17.3589 21.8184 17.7884 21.8184H19.155C19.5845 21.8184 19.9359 21.4668 19.9359 21.037C19.9359 20.6072 19.5923 20.2555 19.155 20.2555Z" fill="#3C9670"/>
</svg>
