<svg width="24" height="24" fill="none" xmlns="http://www.w3.org/2000/svg"><g clip-path="url(#clip0)" fill="#fff"><path d="M22.151 15.076a.598.598 0 00-.598.598v5.307a1.795 1.795 0 01-1.793 1.793H2.99c-.99 0-1.792-.803-1.794-1.793V5.405A1.795 1.795 0 012.99 3.612h5.307a.598.598 0 100-1.196H2.989A2.992 2.992 0 000 5.407V20.98a2.992 2.992 0 002.989 2.99H19.76a2.992 2.992 0 002.989-2.99v-5.307a.598.598 0 00-.598-.598z"/><path d="M22.512.879a2.69 2.69 0 00-3.804 0L8.044 11.543a.598.598 0 00-.153.263l-1.402 5.063a.598.598 0 00.735.735l5.063-1.402a.6.6 0 00.263-.154L23.213 5.384a2.693 2.693 0 000-3.804l-.7-.701zM9.347 11.93l8.727-8.728 2.815 2.815-8.728 8.728-2.814-2.815zm-.563 1.128l2.25 2.25-3.111.861.861-3.11zm13.584-8.52l-.634.634-2.815-2.815.635-.634a1.494 1.494 0 012.113 0l.701.702c.583.584.583 1.53 0 2.113z"/></g><defs><clipPath id="clip0"><path fill="#fff" d="M0 0h24v24H0z"/></clipPath></defs></svg>