<svg width="50" height="50" viewBox="0 0 50 50" fill="none" xmlns="http://www.w3.org/2000/svg">
<rect width="50" height="50" rx="25" fill="#389DAC"/>
<path d="M19.647 35C19.4603 35 19.2923 34.9347 19.143 34.804C19.0123 34.6547 18.947 34.4867 18.947 34.3V16.128C18.947 15.9227 19.0123 15.7547 19.143 15.624C19.2736 15.4747 19.4416 15.4 19.647 15.4H31.855C32.0603 15.4 32.2283 15.4747 32.359 15.624C32.4896 15.7547 32.555 15.9227 32.555 16.128V19.068C32.555 19.2733 32.4896 19.4507 32.359 19.6C32.2283 19.7307 32.0603 19.796 31.855 19.796H24.211V34.3C24.211 34.5053 24.1363 34.6733 23.987 34.804C23.8563 34.9347 23.6883 35 23.483 35H19.647Z" fill="white"/>
</svg>
