<svg xmlns="http://www.w3.org/2000/svg" fill="none" viewBox="0 0 15 18"><path fill="#fff" d="M7.356 0A7.106 7.106 0 00.26 7.098c0 1.442.43 2.83 1.244 4.015a7.092 7.092 0 002.987 2.479l2.31 4.084a.638.638 0 001.112 0l2.31-4.084a7.091 7.091 0 002.987-2.48 7.056 7.056 0 001.245-4.014A7.106 7.106 0 007.356 0zm2.179 12.497a.639.639 0 00-.317.277l-1.862 3.292-1.862-3.292a.64.64 0 00-.316-.277 5.798 5.798 0 01-3.643-5.4 5.828 5.828 0 015.821-5.82 5.828 5.828 0 015.821 5.82 5.798 5.798 0 01-3.642 5.4z"/><path fill="#fff" d="M7.356 4.379a2.684 2.684 0 00-2.68 2.68 2.684 2.684 0 002.68 2.681 2.684 2.684 0 002.681-2.68 2.684 2.684 0 00-2.68-2.681zm0 4.085c-.774 0-1.404-.63-1.404-1.404 0-.775.63-1.405 1.404-1.405a1.406 1.406 0 010 2.808z"/></svg>