<svg width="49" height="62" viewBox="0 0 49 62" fill="none" xmlns="http://www.w3.org/2000/svg"><g clip-path="url(#clip0)"><g filter="url(#filter0_d)"><path d="M8 21.7113C8 12.484 15.6133 5 25 5C34.3868 5 42.0001 12.484 42 21.7113C42 24.875 40.9391 28.2574 39.4869 31.4439C38.0226 34.6572 36.0884 37.8247 34.1841 40.5992C32.2757 43.3797 30.3715 45.8026 28.9459 47.5293C28.2323 48.3938 27.6362 49.0865 27.2165 49.5653C27.0067 49.8047 26.8408 49.991 26.726 50.1186L26.5373 50.3269L25 52L23.4627 50.3269L23.2745 50.1193L23.2736 50.1183C23.1592 49.9909 22.9933 49.8047 22.7834 49.5652C22.3637 49.0864 21.7677 48.3937 21.054 47.5293C19.6285 45.8027 17.7243 43.3797 15.8159 40.5992C13.9116 37.8247 11.9774 34.6572 10.5131 31.4439C9.06087 28.2575 8 24.875 8 21.7113Z" fill="white"/></g><path d="M25 7C33.2821 7 40 13.5836 40 21.7C40 32.725 25 49 25 49C25 49 10 32.725 10 21.7C9.99989 13.5836 16.7178 7 25 7Z" fill="#4e6958"/><path d="M10 21.7C10 32.725 25 49 25 49V7C16.7178 7 9.9999 13.5836 10 21.7Z" fill=""/><path fill-rule="evenodd" clip-rule="evenodd" d="M28.6052 22.0171C29.3315 20.3777 30.1674 18.4911 31.0404 18.5829C35.8662 19.114 35.4293 30.0796 24.9565 30.0747C19.7828 30.0722 15.6258 26.6835 15.4519 22.8488C15.3243 20.0106 16.7158 16.7241 20.038 15.1405C21.2825 14.5412 23.3988 14.0443 25.459 14.0198C25.8453 14.0072 26.1883 13.9309 26.5511 13.8502C26.8872 13.7754 27.2402 13.6969 27.6603 13.6617C27.9521 13.6349 28.2768 13.613 28.6033 13.613C29.1039 13.613 29.6064 13.6617 29.9891 13.8079C30.5809 14.0853 31.0082 14.5453 31.4177 14.9863C31.5657 15.1457 31.7114 15.3026 31.8618 15.4475L31.2936 15.8787L32.2772 16.4488L31.1235 16.2344L31.0172 16.7144C30.5747 16.6661 30.1114 16.6001 29.6488 16.5341C29.176 16.4667 28.7039 16.3994 28.2555 16.3513C27.208 16.0931 26.3364 15.9201 25.2464 15.8958C20.5888 15.8251 17.4328 19.2066 17.541 22.4712C17.6492 26.642 22.5484 28.1915 25.5479 28.1915C33.9045 28.2427 34.0572 20.3054 31.166 20.1421C30.8396 20.1249 30.4498 20.9951 29.9743 22.0567C29.8447 22.3461 29.7087 22.6498 29.5658 22.9536C28.901 24.3642 28.0912 25.7747 27.0901 25.7649C26.0829 25.7535 25.3205 23.8959 24.6925 22.3655C24.2516 21.2914 23.8769 20.3784 23.5302 20.3784C23.0807 20.3891 22.5939 21.9015 22.127 23.352C21.8493 24.2149 21.5786 25.0559 21.327 25.5457C20.9599 26.2839 19.0214 24.1863 19.1509 23.855C19.2046 23.7194 19.3545 23.885 19.5472 24.098C19.5832 24.1377 19.6206 24.179 19.6592 24.2203C19.924 24.503 20.2409 24.788 20.4998 24.5445C20.5871 24.4616 20.7004 24.0072 20.8565 23.3813C21.2881 21.6507 22.0466 18.6089 23.4858 18.4855C24.3516 18.4148 25.0956 19.9155 25.7141 21.4163C25.8363 21.7127 25.9538 22.0091 26.0664 22.2933C26.5164 23.4292 26.8896 24.371 27.1848 24.3495C27.576 24.3401 28.0597 23.2483 28.6052 22.0171ZM29.4192 14.6796C29.3989 14.7673 29.2523 14.7904 28.8943 14.772C28.6257 14.7627 28.467 14.6289 28.4914 14.5365C28.5076 14.4488 28.7356 14.3427 28.9919 14.4119C29.2482 14.4858 29.4396 14.5873 29.4192 14.6796Z" fill="white"/></g><defs><filter id="filter0_d" x="0" y="-1" width="50" height="63" filterUnits="userSpaceOnUse" color-interpolation-filters="sRGB"><feFlood flood-opacity="0" result="BackgroundImageFix"/><feColorMatrix in="SourceAlpha" type="matrix" values="0 0 0 0 0 0 0 0 0 0 0 0 0 0 0 0 0 0 127 0"/><feOffset dy="2"/><feGaussianBlur stdDeviation="4"/><feColorMatrix type="matrix" values="0 0 0 0 0 0 0 0 0 0 0 0 0 0 0 0 0 0 0.33 0"/><feBlend mode="normal" in2="BackgroundImageFix" result="effect1_dropShadow"/><feBlend mode="normal" in="SourceGraphic" in2="effect1_dropShadow" result="shape"/></filter><clipPath id="clip0"><rect width="49" height="62" fill="white"/></clipPath></defs></svg>