<svg width="64" height="64" viewBox="0 0 64 64" fill="none" xmlns="http://www.w3.org/2000/svg">
<path d="M17.6 20H46.4L45.3151 29.7638C45.0012 32.5888 46.3626 35.3376 48.7999 36.8H15.2C17.6373 35.3376 18.9987 32.5888 18.6848 29.7638L17.6 20Z" fill="url(#paint0_linear_115_4011)"/>
<path d="M17.6 20H46.4L45.3151 29.7638C45.0012 32.5888 46.3626 35.3376 48.7999 36.8H15.2C17.6373 35.3376 18.9987 32.5888 18.6848 29.7638L17.6 20Z" fill="url(#paint1_linear_115_4011)" fill-opacity="0.4"/>
<path d="M17.6 20H46.4L45.3151 29.7638C45.0012 32.5888 46.3626 35.3376 48.7999 36.8H15.2C17.6373 35.3376 18.9987 32.5888 18.6848 29.7638L17.6 20Z" fill="url(#paint2_linear_115_4011)" fill-opacity="0.05"/>
<path d="M17.6 20H46.4L45.3151 29.7638C45.0012 32.5888 46.3626 35.3376 48.7999 36.8H15.2C17.6373 35.3376 18.9987 32.5888 18.6848 29.7638L17.6 20Z" fill="url(#paint3_linear_115_4011)" fill-opacity="0.2"/>
<path d="M17.6 20H46.4L45.3151 29.7638C45.0012 32.5888 46.3626 35.3376 48.7999 36.8H15.2C17.6373 35.3376 18.9987 32.5888 18.6848 29.7638L17.6 20Z" fill="url(#paint4_linear_115_4011)" fill-opacity="0.3"/>
<path d="M50.2311 39.6784C50.6147 38.4916 50.0557 37.1982 48.9152 36.693L37.8324 31.7837C34.1184 30.1385 29.8823 30.1385 26.1683 31.7836L15.0854 36.6929C13.9449 37.198 13.3859 38.4914 13.7695 39.6783C14.9217 43.2434 15.4669 45.6956 16.3649 49.9144L17.4206 54.8745C17.9507 56.947 19.823 58.3979 21.9692 58.4003C21.971 58.4003 21.9728 58.4003 21.9746 58.4003C21.9764 58.4003 21.9782 58.4003 21.98 58.4003C24.2852 58.3977 26.2485 56.7295 26.6146 54.4615L28.776 41.2003C29.0306 39.623 30.3968 38.4003 32.0003 38.4003C33.6038 38.4003 34.9701 39.623 35.2247 41.2003L37.386 54.4615C37.7521 56.7295 39.7154 58.3977 42.0206 58.4003C42.0224 58.4003 42.0242 58.4003 42.026 58.4003C42.0278 58.4003 42.0296 58.4003 42.0314 58.4003C44.1776 58.3979 46.0499 56.947 46.58 54.8745L47.6357 49.9144C48.5337 45.6956 49.0789 43.2435 50.2311 39.6784Z" fill="url(#paint5_linear_115_4011)"/>
<path d="M50.2311 39.6784C50.6147 38.4916 50.0557 37.1982 48.9152 36.693L37.8324 31.7837C34.1184 30.1385 29.8823 30.1385 26.1683 31.7836L15.0854 36.6929C13.9449 37.198 13.3859 38.4914 13.7695 39.6783C14.9217 43.2434 15.4669 45.6956 16.3649 49.9144L17.4206 54.8745C17.9507 56.947 19.823 58.3979 21.9692 58.4003C21.971 58.4003 21.9728 58.4003 21.9746 58.4003C21.9764 58.4003 21.9782 58.4003 21.98 58.4003C24.2852 58.3977 26.2485 56.7295 26.6146 54.4615L28.776 41.2003C29.0306 39.623 30.3968 38.4003 32.0003 38.4003C33.6038 38.4003 34.9701 39.623 35.2247 41.2003L37.386 54.4615C37.7521 56.7295 39.7154 58.3977 42.0206 58.4003C42.0224 58.4003 42.0242 58.4003 42.026 58.4003C42.0278 58.4003 42.0296 58.4003 42.0314 58.4003C44.1776 58.3979 46.0499 56.947 46.58 54.8745L47.6357 49.9144C48.5337 45.6956 49.0789 43.2435 50.2311 39.6784Z" fill="url(#paint6_radial_115_4011)" fill-opacity="0.2"/>
<path d="M25.0796 6.69755C29.0993 8.40538 34.9008 8.4054 38.9206 6.69756C40.6081 5.98059 42.399 5.59971 44.201 5.59961H44.2024C45.8874 5.59971 47.582 5.93276 49.2106 6.63529C56.3255 9.7043 59.5159 18.6741 56.4168 26.7642L56.4187 26.765C56.0674 27.5233 55.7055 28.2849 55.3521 29.0498C54.8041 30.2356 53.4273 30.8175 52.2114 30.3398L37.8504 24.698C34.09 23.2207 29.9099 23.2207 26.1495 24.698L11.7885 30.3398C10.5726 30.8175 9.19583 30.2356 8.64796 29.0497C8.29463 28.2849 7.93288 27.5233 7.58163 26.765L7.58354 26.7642C4.48441 18.6741 7.67479 9.7043 14.7896 6.63529C18.1605 5.18128 21.8136 5.30996 25.0796 6.69755Z" fill="url(#paint7_linear_115_4011)"/>
<g filter="url(#filter0_f_115_4011)">
<path d="M13.9918 5.66846L13.8118 4.8094C13.7129 4.33777 13.297 4 12.8152 4C12.3198 4 11.8963 4.35653 11.8118 4.84467L11.7079 5.44521C11.2776 7.93211 9.35972 9.89693 6.88396 10.3873L5.56901 10.6477C5.12208 10.7362 4.80005 11.1283 4.80005 11.5839C4.80005 12.0538 5.14207 12.4537 5.60626 12.5267L6.62507 12.6868C9.23295 13.0966 11.2846 15.1317 11.7157 17.7361L11.8181 18.3549C11.8988 18.8424 12.3204 19.2 12.8145 19.2C13.2958 19.2 13.7102 18.8604 13.8048 18.3885L14.0287 17.2721C14.4988 14.9269 16.3742 13.1192 18.735 12.7356L19.994 12.531C20.4587 12.4555 20.8 12.0541 20.8 11.5834C20.8 11.1274 20.4793 10.7343 20.0326 10.6428L18.7188 10.3738C16.3461 9.88786 14.4887 8.03895 13.9918 5.66846Z" fill="url(#paint8_linear_115_4011)"/>
</g>
<path d="M13.6301 7.38301L13.2497 4.3905C13.2213 4.1673 13.0314 4 12.8064 4C12.576 4 12.3834 4.17517 12.3616 4.40453L12.0788 7.37626C11.9124 9.12498 10.5483 10.5205 8.80381 10.7267L5.19013 11.1539C4.96766 11.1802 4.80005 11.3688 4.80005 11.5928C4.80005 11.8229 4.97658 12.0145 5.2059 12.0333L8.61432 12.3127C10.4524 12.4634 11.9162 13.9134 12.0843 15.75L12.363 18.7956C12.384 19.0247 12.5761 19.2 12.8062 19.2C13.031 19.2 13.2206 19.0322 13.2479 18.809L13.6224 15.7453C13.8484 13.8973 15.3393 12.4611 17.1944 12.3045L20.3941 12.0343C20.6236 12.0149 20.8 11.8229 20.8 11.5926C20.8 11.3685 20.6328 11.1796 20.4103 11.1526L17.0025 10.7376C15.2429 10.5234 13.8536 9.14145 13.6301 7.38301Z" fill="url(#paint9_linear_115_4011)"/>
<defs>
<filter id="filter0_f_115_4011" x="0.800049" y="0" width="24" height="23.2002" filterUnits="userSpaceOnUse" color-interpolation-filters="sRGB">
<feFlood flood-opacity="0" result="BackgroundImageFix"/>
<feBlend mode="normal" in="SourceGraphic" in2="BackgroundImageFix" result="shape"/>
<feGaussianBlur stdDeviation="2" result="effect1_foregroundBlur_115_4011"/>
</filter>
<linearGradient id="paint0_linear_115_4011" x1="32" y1="23.6" x2="32" y2="36" gradientUnits="userSpaceOnUse">
<stop stop-color="#AAC8E3"/>
<stop offset="1" stop-color="#C8DBED"/>
</linearGradient>
<linearGradient id="paint1_linear_115_4011" x1="17.2" y1="28.6486" x2="21.6" y2="28.6486" gradientUnits="userSpaceOnUse">
<stop stop-color="#F1F7FA"/>
<stop offset="1" stop-color="#F0F7FA" stop-opacity="0"/>
</linearGradient>
<linearGradient id="paint2_linear_115_4011" x1="32" y1="23.6" x2="32" y2="27.2" gradientUnits="userSpaceOnUse">
<stop stop-color="#065099"/>
<stop offset="1" stop-color="#065099" stop-opacity="0"/>
</linearGradient>
<linearGradient id="paint3_linear_115_4011" x1="32" y1="20" x2="32" y2="28.8" gradientUnits="userSpaceOnUse">
<stop stop-color="#23578B"/>
<stop offset="1" stop-color="#23578B" stop-opacity="0"/>
</linearGradient>
<linearGradient id="paint4_linear_115_4011" x1="32" y1="22.8" x2="32" y2="32" gradientUnits="userSpaceOnUse">
<stop stop-color="#E8C200"/>
<stop offset="1" stop-color="#FFE457" stop-opacity="0"/>
</linearGradient>
<linearGradient id="paint5_linear_115_4011" x1="17.2001" y1="22.4003" x2="32.0003" y2="58.4003" gradientUnits="userSpaceOnUse">
<stop stop-color="#E8F2F8"/>
<stop offset="1" stop-color="#CDDFF2"/>
</linearGradient>
<radialGradient id="paint6_radial_115_4011" cx="0" cy="0" r="1" gradientUnits="userSpaceOnUse" gradientTransform="translate(27.6001 28.8003) rotate(71.0296) scale(13.5351 16.9036)">
<stop stop-color="white"/>
<stop offset="1" stop-color="#EDF5F8" stop-opacity="0"/>
</radialGradient>
<linearGradient id="paint7_linear_115_4011" x1="15.2" y1="9.59961" x2="63.372" y2="39.2125" gradientUnits="userSpaceOnUse">
<stop stop-color="#F9EE93"/>
<stop offset="1" stop-color="#E4BB29"/>
</linearGradient>
<linearGradient id="paint8_linear_115_4011" x1="12.8" y1="4" x2="12.8" y2="19.2" gradientUnits="userSpaceOnUse">
<stop stop-color="white"/>
<stop offset="1" stop-color="white"/>
</linearGradient>
<linearGradient id="paint9_linear_115_4011" x1="12.8" y1="4" x2="12.8" y2="19.2" gradientUnits="userSpaceOnUse">
<stop stop-color="white"/>
<stop offset="1" stop-color="white"/>
</linearGradient>
</defs>
</svg>
