<svg width="20" height="20" viewBox="0 0 20 20" fill="none" xmlns="http://www.w3.org/2000/svg">
<path fill-rule="evenodd" clip-rule="evenodd" d="M7.35499 0.0138747C7.29033 0.0286404 7.19985 0.0608743 7.15396 0.0855491C7.10804 0.110185 6.70532 0.580298 6.25907 1.13023C5.81282 1.68017 5.44329 2.13011 5.43788 2.13011C5.3719 2.13011 2.97986 2.52604 2.92449 2.54613C2.77605 2.59999 2.64184 2.71796 2.57945 2.84936C2.53517 2.94261 2.12364 5.28523 2.12364 5.44401C2.12364 5.45012 1.67347 5.81918 1.12326 6.26423C0.533899 6.74088 0.0973267 7.12272 0.0607269 7.19349C-0.0643944 7.43534 -0.0244245 7.60356 0.451608 8.83765L0.901151 10.0032L0.452118 11.168C-0.0239935 12.4031 -0.0638066 12.5709 0.0618633 12.8138C0.10007 12.8877 0.521556 13.256 1.12443 13.7426C1.67398 14.186 2.12364 14.5541 2.12364 14.5605C2.12364 14.6623 2.52498 17.0331 2.55602 17.1147C2.61543 17.2709 2.70744 17.3666 2.86034 17.4313C2.95235 17.4702 5.29995 17.875 5.43361 17.875C5.44094 17.875 5.81211 18.325 6.25844 18.875C6.73365 19.4606 7.11964 19.9007 7.1899 19.937C7.43011 20.0612 7.60084 20.0205 8.83383 19.5457L9.99919 19.0969L11.1654 19.5474C12.4038 20.0259 12.5676 20.0648 12.81 19.938C12.8867 19.8978 13.2509 19.4832 13.7451 18.8736C14.1903 18.3244 14.5603 17.875 14.5672 17.875C14.7003 17.875 17.0481 17.4701 17.1398 17.4313C17.2934 17.3663 17.3847 17.2709 17.4452 17.1119C17.4773 17.0273 17.8765 14.6715 17.8765 14.5661C17.8765 14.5585 18.3262 14.1885 18.8758 13.744C19.4754 13.259 19.9005 12.8868 19.9384 12.8135C20.0639 12.5709 20.024 12.4028 19.548 11.168L19.0989 10.0032L19.5485 8.83765C20.0251 7.60211 20.0646 7.43546 19.9387 7.19208C19.9012 7.1197 19.4713 6.74284 18.8761 6.26059C18.3263 5.81511 17.8765 5.44491 17.8765 5.4379C17.8765 5.30466 17.4714 2.95816 17.4326 2.86644C17.3675 2.71283 17.2721 2.62165 17.113 2.56117C17.0289 2.52925 14.6717 2.13011 14.5672 2.13011C14.5603 2.13011 14.1903 1.68071 13.7451 1.13149C13.2582 0.530831 12.8867 0.1076 12.8129 0.0694909C12.5694 -0.0563897 12.4022 -0.0167533 11.1658 0.460253L10 0.909961L8.84911 0.468439C7.62318 -0.00183095 7.53783 -0.0277983 7.35499 0.0138747ZM8.6312 5.05164C9.2503 5.23318 9.74025 5.71739 9.92787 6.33316C10.0343 6.68233 10.0154 7.20916 9.88453 7.54775C9.68421 8.06576 9.20128 8.51159 8.66369 8.6748C8.30815 8.78274 7.78212 8.76586 7.44543 8.63567C6.97535 8.45394 6.5338 8.01312 6.35253 7.54458C6.22282 7.20931 6.2044 6.68084 6.31036 6.33316C6.49485 5.72769 6.96113 5.25738 7.57008 5.06257C7.84642 4.97413 8.34926 4.96896 8.6312 5.05164ZM13.5147 5.09817C13.6899 5.22288 13.7743 5.42697 13.7536 5.67623C13.7369 5.87821 13.6707 5.9746 10.519 10.3846C7.04581 15.2447 7.2261 15.0166 6.85924 15.0152C6.47784 15.0138 6.22243 14.7339 6.24774 14.3451L6.26209 14.1248L9.47981 9.62219C11.9897 6.11011 12.7263 5.10495 12.8281 5.05309C13.0082 4.96136 13.3544 4.98408 13.5147 5.09817ZM7.73204 6.41913C7.26333 6.8424 7.64818 7.59381 8.26273 7.45528C8.44726 7.41368 8.66384 7.19721 8.70546 7.01278C8.75601 6.78875 8.69268 6.59499 8.51454 6.42861C8.36877 6.29247 8.33997 6.28174 8.12076 6.28174C7.90536 6.28174 7.87064 6.29404 7.73204 6.41913ZM12.5567 11.3697C13.0243 11.5513 13.4613 11.9877 13.6512 12.4625C13.7258 12.6491 13.7403 12.7588 13.7403 13.1358C13.7403 13.5156 13.7261 13.622 13.6493 13.8143C13.4422 14.3331 12.9568 14.7801 12.4256 14.9414C12.07 15.0494 11.544 15.0325 11.2073 14.9023C10.7372 14.7206 10.2957 14.2797 10.1144 13.8112C9.98469 13.4759 9.96627 12.9475 10.0722 12.5998C10.2567 11.9944 10.7143 11.5302 11.3245 11.3293C11.6361 11.2268 12.2394 11.2465 12.5567 11.3697ZM11.7287 12.5494C11.6558 12.5661 11.5356 12.6403 11.4616 12.7143C11.2181 12.9576 11.2176 13.3136 11.4604 13.5562C11.886 13.9816 12.6006 13.5827 12.4677 12.994C12.4352 12.8497 12.2297 12.6014 12.1185 12.5718C11.9519 12.5277 11.8498 12.5218 11.7287 12.5494Z" fill="white"/>
</svg>
