<svg width="18" height="18" viewBox="0 0 18 18" fill="none" xmlns="http://www.w3.org/2000/svg">
<path d="M15.3837 2.76954C13.7399 0.996254 11.4655 -0.00450337 9.08939 1.52356e-05C4.28749 -0.0062355 0.389844 4.01189 0.383796 8.97479C0.380808 11.4288 1.349 13.7772 3.0635 15.4749C3.06849 15.48 3.07035 15.4877 3.0753 15.4923C3.12566 15.5424 3.18038 15.5848 3.23139 15.633C3.37129 15.7615 3.5112 15.8946 3.65857 16.0186C3.73752 16.0829 3.81961 16.1471 3.90046 16.2062C4.03974 16.3136 4.17903 16.4209 4.32451 16.5199C4.42339 16.5842 4.52537 16.6484 4.62669 16.7127C4.76099 16.7962 4.8947 16.8804 5.03336 16.9569C5.1509 17.0211 5.27088 17.0764 5.39027 17.1349C5.52085 17.1991 5.64957 17.2634 5.78324 17.3212C5.91692 17.379 6.05125 17.424 6.18678 17.4742C6.32232 17.5243 6.43923 17.5706 6.56919 17.6117C6.71595 17.6573 6.86642 17.6926 7.01565 17.7306C7.14 17.762 7.26063 17.798 7.38873 17.8238C7.56034 17.8591 7.73446 17.8816 7.90857 17.906C8.01616 17.9215 8.12124 17.9433 8.23003 17.9542C8.51483 17.9831 8.80207 17.9992 9.09183 17.9992C9.38159 17.9992 9.66887 17.9831 9.95364 17.9542C10.0625 17.9433 10.1675 17.9215 10.2751 17.906C10.4492 17.8816 10.6233 17.8591 10.7949 17.8238C10.9193 17.798 11.0437 17.7595 11.168 17.7306C11.3172 17.6926 11.4677 17.6573 11.6145 17.6117C11.7444 17.5706 11.87 17.5204 11.9969 17.4742C12.1237 17.4279 12.268 17.3778 12.4004 17.3212C12.5329 17.2647 12.6628 17.1985 12.7934 17.1349C12.9128 17.0764 13.0328 17.0211 13.1503 16.9569C13.289 16.8804 13.4226 16.7962 13.557 16.7127C13.6583 16.6484 13.7603 16.5899 13.8592 16.5199C14.0047 16.4209 14.144 16.3136 14.2832 16.2062C14.3641 16.142 14.4461 16.0841 14.5251 16.0186C14.6725 15.8965 14.8124 15.7667 14.9523 15.633C15.0032 15.5848 15.058 15.5424 15.1084 15.4923C15.1133 15.4878 15.1152 15.4801 15.1202 15.4749C18.5877 12.0416 18.7056 6.35321 15.3837 2.76954ZM13.9861 14.8021C13.873 14.9049 13.756 15.0026 13.6379 15.097C13.5683 15.1523 13.4986 15.2069 13.4271 15.2596C13.3146 15.3438 13.2002 15.4235 13.0839 15.5C12.9993 15.5559 12.9129 15.6099 12.8258 15.6626C12.7164 15.7269 12.6051 15.7911 12.4925 15.8554C12.393 15.9081 12.2917 15.9576 12.1897 16.0064C12.0878 16.0552 11.9752 16.1073 11.8651 16.1529C11.7551 16.1986 11.6382 16.2416 11.5231 16.2814C11.4181 16.3187 11.313 16.3573 11.2066 16.39C11.0823 16.4286 10.9523 16.4601 10.8236 16.4922C10.7229 16.5166 10.6234 16.5443 10.5214 16.5649C10.374 16.5944 10.2236 16.615 10.0725 16.6362C9.98668 16.6477 9.9015 16.6638 9.81504 16.6728C9.57625 16.6966 9.33437 16.7107 9.09001 16.7107C8.84565 16.7107 8.60376 16.6966 8.36498 16.6728C8.27856 16.6638 8.19337 16.6477 8.10754 16.6362C7.95645 16.615 7.80597 16.5944 7.6586 16.5649C7.55662 16.5443 7.45712 16.5167 7.35642 16.4922C7.2277 16.4601 7.0996 16.428 6.97339 16.39C6.86708 16.3573 6.76196 16.3187 6.65689 16.2814C6.54187 16.2403 6.42681 16.1985 6.31489 16.1529C6.20296 16.1073 6.09727 16.0572 5.9903 16.0064C5.88333 15.9557 5.78696 15.9081 5.6875 15.8554C5.57495 15.795 5.46365 15.7313 5.3542 15.6626C5.26716 15.6099 5.1807 15.5559 5.09614 15.5C4.97988 15.4235 4.86544 15.3438 4.7529 15.2596C4.68138 15.207 4.61175 15.1523 4.54209 15.097C4.42394 15.0026 4.30706 14.9042 4.19389 14.8021C4.16653 14.7809 4.14165 14.7539 4.11494 14.7294C4.14274 12.5433 5.50161 10.6129 7.50565 9.91277C8.50769 10.4054 9.67109 10.4054 10.6731 9.91277C12.6771 10.6129 14.036 12.5432 14.0638 14.7294C14.0377 14.7539 14.0128 14.7783 13.9861 14.8021ZM6.92111 5.15265C7.59437 3.91516 9.11078 3.47606 10.3081 4.17189C11.5055 4.86772 11.9304 6.43496 11.2571 7.67245C11.0337 8.08304 10.7054 8.42231 10.3081 8.65321C10.305 8.65321 10.3013 8.65321 10.2976 8.65705C10.1327 8.75191 9.95841 8.8282 9.77773 8.88457C9.74542 8.89421 9.71554 8.90705 9.68137 8.91541C9.61917 8.93212 9.55388 8.94368 9.48983 8.95524C9.36924 8.97705 9.24722 8.9897 9.12484 8.99316H9.05394C8.93156 8.9897 8.80954 8.97705 8.68895 8.95524C8.62675 8.94368 8.56085 8.93212 8.49745 8.91541C8.46448 8.90705 8.43526 8.89421 8.40108 8.88457C8.22041 8.8282 8.04615 8.75194 7.88125 8.65705L7.87006 8.65321C6.6727 7.95739 6.24785 6.39015 6.92111 5.15265ZM15.1669 13.4551C14.7679 11.5316 13.5423 9.90084 11.8378 9.02536C13.2312 7.45661 13.1303 5.01743 11.6124 3.57732C10.0945 2.1372 7.73446 2.24151 6.34105 3.81025C5.03111 5.28505 5.03111 7.5506 6.34105 9.02536C4.63649 9.90087 3.41093 11.5316 3.01191 13.4551C0.627538 9.98394 1.41728 5.17231 4.77585 2.70801C8.13443 0.243718 12.79 1.05993 15.1744 4.53108C16.0707 5.83594 16.5518 7.39678 16.5511 8.99704C16.5511 10.5959 16.0671 12.1547 15.1669 13.4551Z" fill="black"/>
</svg>
