<svg xmlns="http://www.w3.org/2000/svg" xmlns:xlink="http://www.w3.org/1999/xlink" preserveAspectRatio="xMidYMid" width="35" height="35" viewBox="0 0 35 35">
  <defs>
    <style>
      .cls-1 {
        fill: #fff;
        fill-rule: evenodd;
      }
    </style>
  </defs>
  <path d="M17.500,35.000 C7.850,35.000 0.000,27.149 0.000,17.500 C0.000,7.850 7.850,0.000 17.500,0.000 C27.149,0.000 35.000,7.850 35.000,17.500 C35.000,27.149 27.149,35.000 17.500,35.000 ZM17.500,1.358 C8.599,1.358 1.358,8.600 1.358,17.500 C1.358,26.400 8.599,33.642 17.500,33.642 C26.400,33.642 33.642,26.400 33.642,17.500 C33.642,8.600 26.400,1.358 17.500,1.358 ZM26.470,18.708 C26.093,18.735 25.753,18.665 25.653,18.241 C25.534,17.736 25.452,17.222 25.357,16.712 C24.849,14.010 23.265,12.164 20.818,11.002 C20.489,10.846 20.166,10.677 19.851,10.495 C19.466,10.271 19.381,9.914 19.469,9.503 C19.558,9.090 19.852,8.921 20.298,9.045 C22.722,9.715 24.577,11.148 25.874,13.288 C26.586,14.462 27.010,15.741 27.008,17.136 C27.008,17.449 27.011,17.761 27.008,18.074 C27.005,18.433 26.862,18.679 26.470,18.708 ZM19.836,12.356 C21.759,13.038 22.973,14.404 23.614,16.312 C23.686,16.525 23.743,16.746 23.786,16.967 C23.815,17.119 23.808,17.279 23.817,17.430 C23.790,17.818 23.921,18.279 23.298,18.328 C22.459,18.393 22.259,18.255 22.144,17.513 C21.910,16.002 21.119,14.883 19.775,14.149 C19.518,14.009 19.259,13.853 19.046,13.656 C18.713,13.347 18.766,12.975 18.972,12.608 C19.179,12.240 19.505,12.239 19.836,12.356 ZM19.067,15.751 C19.660,16.093 20.091,16.573 20.339,17.211 C20.522,17.680 20.226,18.093 19.725,18.082 C19.056,18.058 17.808,16.822 18.307,15.994 C18.505,15.666 18.711,15.546 19.067,15.751 ZM18.831,23.894 C20.068,24.632 21.280,25.413 22.477,26.213 C22.988,26.554 22.969,26.757 22.477,27.118 C21.461,27.861 20.355,28.368 18.893,28.376 C17.728,28.347 16.540,27.864 15.497,27.080 C13.750,25.767 12.228,24.208 10.874,22.498 C9.845,21.199 9.252,19.662 8.810,18.088 C8.417,16.688 8.098,15.260 7.859,13.826 C7.455,11.403 8.642,9.919 10.858,9.136 C11.407,8.942 11.622,9.038 11.723,9.601 C11.986,11.069 12.217,12.544 12.393,14.025 C12.434,14.370 12.277,14.793 12.083,15.099 C11.612,15.843 11.550,16.597 12.015,17.310 C13.284,19.259 14.589,21.184 15.907,23.100 C16.367,23.768 17.019,23.973 17.837,23.768 C18.143,23.690 18.564,23.735 18.831,23.894 ZM13.557,14.426 C13.215,14.651 13.033,14.396 12.958,14.108 C12.818,13.574 12.690,13.032 12.610,12.486 C12.490,11.663 12.415,10.834 12.335,10.128 C12.335,9.901 12.310,9.789 12.340,9.694 C12.419,9.450 12.523,9.011 12.616,9.011 C12.929,9.012 13.310,9.093 13.533,9.291 C13.757,9.489 13.891,9.854 13.943,10.166 C14.105,11.140 14.228,12.120 14.327,13.102 C14.389,13.705 14.024,14.119 13.557,14.426 ZM19.148,22.905 C19.386,22.623 19.742,22.441 20.022,22.246 C20.361,22.381 20.602,22.440 20.804,22.564 C21.705,23.117 22.611,23.665 23.478,24.268 C23.720,24.436 23.946,24.774 23.975,25.055 C24.006,25.343 23.840,25.703 23.646,25.934 C23.575,26.018 23.138,25.873 22.924,25.741 C21.803,25.050 20.688,24.347 19.599,23.607 C19.376,23.455 19.092,22.972 19.148,22.905 Z" class="cls-1"/>
</svg>
