<svg width="22" height="26" viewBox="0 0 22 26" fill="none" xmlns="http://www.w3.org/2000/svg">
<path d="M9.77168 24.7588L10.9704 26L18.3315 18.3779C20.2094 16.4288 21.3739 13.7386 21.3739 10.7677C21.3739 4.82102 16.718 0 10.975 0C5.23197 0 0.576019 4.82102 0.576019 10.7677C0.576019 13.7362 1.74058 16.4335 3.61161 18.3708C3.77114 18.536 3.98081 18.6328 4.21782 18.6328C4.68501 18.6328 5.06332 18.2411 5.06332 17.7573C5.06332 17.5119 4.96077 17.2877 4.80352 17.1249C3.24014 15.5061 2.26474 13.2478 2.26474 10.7677C2.26474 5.79561 6.1709 1.75095 10.9727 1.75095C15.7745 1.75095 19.6829 5.79561 19.6829 10.7677C19.6829 13.2549 18.7053 15.5084 17.1282 17.1414L9.77168 24.7588Z" fill="white"/>
<path d="M12.636 12.8914V13.9392H16.6539V12.8914H15.8722L13.2126 5.92773L10.9701 9.99363L8.72986 5.92773L6.06801 12.8914H5.2886V13.9392H9.30644V12.8914H8.70479L9.29048 11.1546L10.9701 14.0194L12.652 11.1546L13.2377 12.8914H12.636Z" fill="white"/>
</svg>
