<svg width="64" height="64" viewBox="0 0 64 64" fill="none" xmlns="http://www.w3.org/2000/svg">
<path d="M25.0794 5.8833C29.0991 7.56866 34.9006 7.56867 38.9203 5.88331C42.1863 4.51395 45.8396 4.38696 49.2104 5.82186C56.3252 8.85049 59.5156 17.7023 56.4165 25.6859L56.4184 25.6867L54.3442 30.8022C53.8546 32.0097 52.6817 32.7998 51.3787 32.7998H12.6211C11.3181 32.7998 10.1452 32.0097 9.65556 30.8022L7.58138 25.6867L7.58329 25.6859C4.48417 17.7023 7.67455 8.85049 14.7894 5.82186C18.1602 4.38698 21.8134 4.51396 25.0794 5.8833Z" fill="url(#paint0_linear_115_4007)"/>
<path d="M25.0794 5.8833C29.0991 7.56866 34.9006 7.56867 38.9203 5.88331C42.1863 4.51395 45.8396 4.38696 49.2104 5.82186C56.3252 8.85049 59.5156 17.7023 56.4165 25.6859L56.4184 25.6867L54.3442 30.8022C53.8546 32.0097 52.6817 32.7998 51.3787 32.7998H12.6211C11.3181 32.7998 10.1452 32.0097 9.65556 30.8022L7.58138 25.6867L7.58329 25.6859C4.48417 17.7023 7.67455 8.85049 14.7894 5.82186C18.1602 4.38698 21.8134 4.51396 25.0794 5.8833Z" fill="url(#paint1_linear_115_4007)" fill-opacity="0.1"/>
<path d="M25.0794 5.8833C29.0991 7.56866 34.9006 7.56867 38.9203 5.88331C42.1863 4.51395 45.8396 4.38696 49.2104 5.82186C56.3252 8.85049 59.5156 17.7023 56.4165 25.6859L56.4184 25.6867L54.3442 30.8022C53.8546 32.0097 52.6817 32.7998 51.3787 32.7998H12.6211C11.3181 32.7998 10.1452 32.0097 9.65556 30.8022L7.58138 25.6867L7.58329 25.6859C4.48417 17.7023 7.67455 8.85049 14.7894 5.82186C18.1602 4.38698 21.8134 4.51396 25.0794 5.8833Z" fill="url(#paint2_linear_115_4007)" fill-opacity="0.05"/>
<path d="M17.5999 35.2002H46.3999L40.3832 53.1667C39.1762 56.7709 35.8007 59.2002 31.9999 59.2002C28.199 59.2002 24.8235 56.7709 23.6166 53.1667L17.5999 35.2002Z" fill="url(#paint3_linear_115_4007)"/>
<path d="M9.59985 34.7998C9.59985 33.6952 10.4953 32.7998 11.5999 32.7998H52.3999C53.5044 32.7998 54.3999 33.6952 54.3999 34.7998C54.3999 35.9044 53.5044 36.7998 52.3999 36.7998H11.5999C10.4953 36.7998 9.59985 35.9044 9.59985 34.7998Z" fill="url(#paint4_linear_115_4007)"/>
<path d="M21.5999 52.8002C21.5999 51.9165 22.3162 51.2002 23.1999 51.2002H40.7999C41.6835 51.2002 42.3999 51.9165 42.3999 52.8002C42.3999 53.6839 41.6835 54.4002 40.7999 54.4002H23.1999C22.3162 54.4002 21.5999 53.6839 21.5999 52.8002Z" fill="url(#paint5_linear_115_4007)"/>
<path d="M19.5999 47.1996C19.5999 46.316 20.3162 45.5996 21.1999 45.5996H42.7999C43.6835 45.5996 44.3999 46.316 44.3999 47.1996C44.3999 48.0833 43.6835 48.7996 42.7999 48.7996H21.1999C20.3162 48.7996 19.5999 48.0833 19.5999 47.1996Z" fill="url(#paint6_linear_115_4007)"/>
<path d="M17.5999 41.6C17.5999 40.7163 18.3162 40 19.1999 40H44.7999C45.6835 40 46.3999 40.7163 46.3999 41.6C46.3999 42.4837 45.6835 43.2 44.7999 43.2H19.1999C18.3162 43.2 17.5999 42.4837 17.5999 41.6Z" fill="url(#paint7_linear_115_4007)"/>
<defs>
<linearGradient id="paint0_linear_115_4007" x1="13.1764" y1="4.7998" x2="43.0504" y2="58.4078" gradientUnits="userSpaceOnUse">
<stop stop-color="#F0F6F9"/>
<stop offset="1" stop-color="#CDDFF2"/>
</linearGradient>
<linearGradient id="paint1_linear_115_4007" x1="31.5999" y1="33.9998" x2="31.5999" y2="31.5998" gradientUnits="userSpaceOnUse">
<stop offset="0.241809" stop-color="#065099"/>
<stop offset="1" stop-color="#DFEBF6" stop-opacity="0.47"/>
</linearGradient>
<linearGradient id="paint2_linear_115_4007" x1="31.9999" y1="32.7998" x2="31.9999" y2="29.5998" gradientUnits="userSpaceOnUse">
<stop stop-color="#065099"/>
<stop offset="1" stop-color="#065099" stop-opacity="0"/>
</linearGradient>
<linearGradient id="paint3_linear_115_4007" x1="46.3999" y1="53.0184" x2="13.6358" y2="42.1782" gradientUnits="userSpaceOnUse">
<stop stop-color="#BCC1D6"/>
<stop offset="1" stop-color="#E9ECFA"/>
</linearGradient>
<linearGradient id="paint4_linear_115_4007" x1="24.027" y1="32.7998" x2="36.1719" y2="34.8043" gradientUnits="userSpaceOnUse">
<stop stop-color="#F0F3FF"/>
<stop offset="1" stop-color="#E1E5F5"/>
</linearGradient>
<linearGradient id="paint5_linear_115_4007" x1="28.2982" y1="51.2002" x2="32.5469" y2="52.3147" gradientUnits="userSpaceOnUse">
<stop stop-color="#F1F4FF"/>
<stop offset="1" stop-color="#D5DAF0"/>
</linearGradient>
<linearGradient id="paint6_linear_115_4007" x1="29.2874" y1="45.5996" x2="34.432" y2="47.0758" gradientUnits="userSpaceOnUse">
<stop stop-color="#F1F4FF"/>
<stop offset="1" stop-color="#D5DAF0"/>
</linearGradient>
<linearGradient id="paint7_linear_115_4007" x1="29.1999" y1="40" x2="35.2088" y2="41.9209" gradientUnits="userSpaceOnUse">
<stop stop-color="#F1F4FF"/>
<stop offset="1" stop-color="#D5DAF0"/>
</linearGradient>
</defs>
</svg>
