<svg width="22" height="22" fill="none" xmlns="http://www.w3.org/2000/svg"><path d="M11 3.667A1.835 1.835 0 009.168 5.5c0 1.011.823 1.833 1.834 1.833A1.835 1.835 0 0012.834 5.5a1.835 1.835 0 00-1.833-1.833zm0 2.75a.918.918 0 010-1.834.918.918 0 010 1.833zM12.375 8.25H8.708a.458.458 0 00-.458.458v1.834c0 .253.205.458.458.458h.459v6.875c0 .253.205.458.458.458h2.75a.458.458 0 00.458-.458V8.708a.458.458 0 00-.458-.458zm-.458 9.167h-1.834v-6.875a.458.458 0 00-.458-.459h-.458v-.916h2.75v8.25z" fill="#3B9670"/><path d="M11 0C4.935 0 0 4.935 0 11s4.935 11 11 11 11-4.935 11-11S17.065 0 11 0zm0 21.083C5.44 21.083.917 16.56.917 11 .917 5.44 5.44.917 11 .917 16.56.917 21.083 5.44 21.083 11c0 5.56-4.523 10.083-10.083 10.083z" fill="#3B9670"/></svg>