<svg width="38" height="38" viewBox="0 0 38 38" fill="none" xmlns="http://www.w3.org/2000/svg">
<path fill-rule="evenodd" clip-rule="evenodd" d="M17.2553 0.0712748C16.2287 0.169218 14.978 0.402306 13.9143 0.694056C11.5858 1.33273 9.30632 2.48666 7.26953 4.05783C6.4576 4.68418 4.68956 6.4525 4.06332 7.26455C2.9193 8.74811 1.97054 10.4071 1.30317 12.0912C0.270293 14.6975 -0.185266 17.8362 0.0691669 20.5934C0.416404 24.3573 1.74039 27.717 4.06332 30.7293C4.68956 31.5414 6.4576 33.3097 7.26953 33.936C8.75284 35.0802 10.4116 36.0291 12.0954 36.6966C14.7012 37.7297 17.8395 38.1853 20.5962 37.9308C24.3595 37.5835 27.7186 36.2593 30.7305 33.936C31.5424 33.3097 33.3104 31.5414 33.9367 30.7293C35.0807 29.2457 36.0295 27.5867 36.6968 25.9027C37.7297 23.2964 38.1853 20.1576 37.9308 17.4004C37.5836 13.6366 36.2596 10.2769 33.9367 7.26455C33.3104 6.4525 31.5424 4.68418 30.7305 4.05783C29.2472 2.91363 27.5884 1.96472 25.9046 1.29723C24.3332 0.674304 22.4333 0.232558 20.5962 0.0630324C19.653 -0.0240693 18.2178 -0.020505 17.2553 0.0712748ZM21.0949 3.59292C22.7233 3.81724 24.1287 4.23426 25.5705 4.92105C28.9229 6.51777 31.4771 9.07245 33.0736 12.4253C33.7603 13.8674 34.1772 15.273 34.4015 16.9017C34.5514 17.9905 34.5514 20.0034 34.4015 21.0921C34.1772 22.7208 33.7603 24.1265 33.0736 25.5685C31.4771 28.9214 28.9229 31.4761 25.5705 33.0728C24.1287 33.7596 22.7233 34.1766 21.0949 34.4009C20.0063 34.5509 17.9937 34.5509 16.9051 34.4009C15.2767 34.1766 13.8713 33.7596 12.4294 33.0728C9.07713 31.4761 6.52286 28.9214 4.9264 25.5685C4.23972 24.1265 3.82277 22.7208 3.59848 21.0921C3.44858 20.0034 3.44858 17.9905 3.59848 16.9017C3.82277 15.273 4.23972 13.8674 4.9264 12.4253C6.52301 9.07216 9.08196 6.51309 12.4294 4.92179C13.8475 4.2477 15.0788 3.87123 16.6613 3.62774C17.8203 3.44946 19.9327 3.43282 21.0949 3.59292ZM18.166 8.22572C17.9728 8.30124 17.7055 8.45391 17.5721 8.56484C17.1818 8.88956 16.8686 9.41559 16.7639 9.92224C16.6888 10.2863 16.6869 10.4747 16.7555 10.8016C16.8561 11.281 17.2078 11.8706 17.5482 12.1302C17.9848 12.4633 18.4574 12.624 19 12.624C19.5426 12.624 20.0152 12.4633 20.4518 12.1302C20.798 11.8662 21.1413 11.2833 21.2399 10.7923C21.4538 9.72709 20.8397 8.60873 19.8324 8.22928C19.3352 8.04194 18.6398 8.04045 18.166 8.22572ZM18.5412 16.2045C18.0607 16.334 17.7135 16.6216 17.4857 17.0788L17.2924 17.4667L17.294 23.0398C17.2956 28.3106 17.3032 28.6291 17.4335 28.91C17.6037 29.2771 17.983 29.6451 18.348 29.7973C18.4998 29.8607 18.7932 29.9125 19 29.9125C19.2068 29.9125 19.5002 29.8607 19.652 29.7973C20.017 29.6451 20.3963 29.2771 20.5665 28.91C20.6968 28.6291 20.7044 28.3106 20.706 23.0398L20.7076 17.4667L20.5143 17.0788C20.289 16.6267 19.9632 16.3533 19.4741 16.2061C19.0618 16.082 18.9967 16.0819 18.5412 16.2045Z" fill="white"/>
</svg>
