<svg width="47" height="47" viewBox="0 0 47 47" fill="none" xmlns="http://www.w3.org/2000/svg">
<path d="M0 24.9589C0 23.9777 0 22.9965 0 22.0152C0.0245239 21.8681 0.0613097 21.7209 0.0858335 21.5737C0.257501 20.4453 0.355596 19.2924 0.613097 18.1763C3.59275 5.57996 15.8302 -2.15934 28.5213 0.526725C38.9071 2.72218 46.6812 11.9946 46.9877 22.604C47.1717 28.7611 45.2833 34.2313 41.2369 38.8921C37.6074 43.0867 33.0214 45.6624 27.5526 46.6314C26.6942 46.7785 25.8359 46.8767 24.9776 46.9871C23.9966 46.9871 23.0157 46.9871 22.0347 46.9871C21.9366 46.9625 21.8262 46.9257 21.7281 46.9135C17.6817 46.6068 13.9418 45.3681 10.5821 43.099C5.01513 39.3704 1.59405 34.1945 0.367858 27.5959C0.208453 26.7251 0.122619 25.842 0 24.9589ZM3.2862 23.4625C3.24941 34.6115 12.311 43.6877 23.4816 43.7123C34.6154 43.7368 43.6525 34.7219 43.7138 23.5484C43.7751 12.4116 34.7381 3.32318 23.5429 3.27411C12.4091 3.23732 3.32298 12.2767 3.2862 23.4625Z" fill="#389DAC"/>
<path d="M25.9097 26.9341C25.9097 28.7984 25.8974 30.6627 25.9219 32.527C25.9342 33.1648 25.6644 33.5818 25.1494 33.8762C24.0949 34.4527 23.0158 34.4772 21.949 33.9375C21.3973 33.6554 21.1152 33.2016 21.1152 32.527C21.1398 28.7862 21.1398 25.033 21.1152 21.2922C21.1152 20.5808 21.4218 20.1147 22.0471 19.8694C23.0526 19.4647 24.0826 19.4769 25.0758 19.9185C25.6399 20.176 25.9342 20.5931 25.9219 21.2554C25.8974 23.1442 25.9097 25.0453 25.9097 26.9341Z" fill="#389DAC"/>
<path d="M23.5427 16.7296C22.7089 16.7296 22.0345 16.4475 21.5072 15.8588C20.7837 15.0493 20.796 13.9577 21.5195 13.1604C22.5127 12.0688 24.4133 12.0443 25.4188 13.1114C25.9583 13.6878 26.1667 14.3747 25.8847 15.1351C25.5536 16.055 24.8424 16.5333 23.8983 16.6928C23.7757 16.7296 23.6285 16.7173 23.5427 16.7296Z" fill="#389DAC"/>
</svg>
