<svg width="34" height="34" viewBox="0 0 34 34" fill="none" xmlns="http://www.w3.org/2000/svg">
<path fill-rule="evenodd" clip-rule="evenodd" d="M15.1198 0.0619117C9.16496 0.813497 4.17811 4.37356 1.66327 9.66825C-0.921499 15.1104 -0.47097 21.4315 2.85644 26.4077C7.60393 33.5077 16.7665 36.0051 24.4146 32.2839C32.0847 28.5518 35.8228 19.6934 33.1297 11.6311C31.1451 5.68998 26.0769 1.31898 19.9102 0.230104C18.7182 0.0195906 16.1648 -0.0700572 15.1198 0.0619117ZM19.6374 1.46442C22.0471 1.90456 24.2325 2.82243 26.2297 4.23331C27.1865 4.90917 29.0122 6.73371 29.7033 7.70455C32.3203 11.3812 33.2803 15.8139 32.4037 20.1733C32.2087 21.1436 31.6221 22.8625 31.152 23.8417C28.459 29.4507 22.5333 32.9901 16.318 32.7018C9.29855 32.3763 3.43566 27.575 1.7363 20.7606C1.39254 19.3819 1.3156 18.6926 1.3156 16.9879C1.3156 15.1834 1.39381 14.5486 1.81451 12.9378C3.26041 7.40166 7.61284 3.12141 13.2302 1.71143C13.8582 1.55389 14.329 1.47079 15.5904 1.29523C16.1647 1.21532 18.8994 1.32963 19.6374 1.46442ZM16.2725 6.51009C15.492 6.76712 14.9074 7.25995 14.5317 7.97759L14.3172 8.38715V13.4839V18.5806L14.5224 18.9649C14.8442 19.5675 15.2411 19.9626 15.8012 20.238C16.2273 20.4473 16.4376 20.4919 17 20.4919C18.1114 20.4919 18.9326 19.9858 19.4777 18.9649L19.6828 18.5806V13.4839V8.38715L19.4684 7.97759C18.971 7.02759 18.1755 6.51119 17.1365 6.46404C16.7863 6.4482 16.3975 6.46887 16.2725 6.51009ZM17.8698 8.02137C18.4737 8.48226 18.4626 8.37313 18.4347 13.6166C18.4103 18.225 18.4051 18.346 18.2221 18.5912C17.8657 19.0687 17.5752 19.2177 17 19.2177C16.4249 19.2177 16.1344 19.0687 15.7779 18.5912C15.5952 18.3462 15.5897 18.2223 15.5628 13.6821C15.5448 10.6521 15.5681 8.91102 15.6294 8.70023C15.8955 7.78628 17.0883 7.42478 17.8698 8.02137ZM16.2147 22.1784C15.4126 22.4262 14.5753 23.299 14.3538 24.1181C14.1162 24.9965 14.4449 26.1632 15.1049 26.7847C15.6775 27.324 16.1394 27.4977 17 27.4977C17.6341 27.4977 17.8466 27.4593 18.1823 27.2842C18.7401 26.9932 19.1527 26.5861 19.4396 26.0437C19.6453 25.6548 19.6803 25.4761 19.6805 24.815C19.6807 24.1879 19.642 23.9686 19.4766 23.6571C18.9591 22.6828 18.1707 22.1629 17.1425 22.1182C16.789 22.1028 16.3715 22.1298 16.2147 22.1784ZM17.797 23.602C18.2604 23.9483 18.4096 24.2438 18.4096 24.815C18.4096 25.213 18.3615 25.4128 18.2194 25.6047C17.5924 26.4515 16.534 26.5062 15.8777 25.7257C15.2842 25.0198 15.5546 23.8676 16.4044 23.4818C16.7725 23.3146 17.4959 23.3771 17.797 23.602Z" fill="white"/>
</svg>
