<svg width="17" height="16" fill="none" xmlns="http://www.w3.org/2000/svg"><path d="M8.578 2.015c2.036 0 2.27.012 3.077.046.737.035 1.146.15 1.415.254.351.139.609.3.878.566.269.266.433.508.573.866.105.266.234.658.257 1.397.035.797.047 1.027.047 3.036 0 2.009-.012 2.24-.047 3.037-.035.727-.152 1.13-.257 1.396-.14.347-.304.6-.573.866-.27.266-.515.428-.878.566-.269.104-.666.23-1.415.254-.807.035-1.041.046-3.077.046-2.035 0-2.27-.011-3.076-.046-.737-.035-1.147-.15-1.416-.254-.35-.139-.608-.3-.877-.566a2.3 2.3 0 01-.573-.865c-.106-.266-.234-.659-.258-1.398-.035-.796-.046-1.027-.046-3.036 0-2.009.011-2.24.046-3.036.035-.727.152-1.131.258-1.397.14-.346.304-.6.573-.866.269-.265.515-.427.877-.566.27-.103.667-.23 1.416-.254.795-.034 1.04-.046 3.076-.046zm0-1.35c-2.07 0-2.328.011-3.135.046-.807.034-1.368.161-1.848.346a3.77 3.77 0 00-1.345.866 3.711 3.711 0 00-.878 1.328c-.187.473-.316 1.027-.35 1.824-.047.808-.06 1.062-.06 3.105 0 2.044.013 2.298.048 3.094.035.797.163 1.351.35 1.824.2.497.457.912.878 1.328.421.416.842.67 1.345.866.48.185 1.041.312 1.849.346.807.035 1.076.046 3.135.046 2.059 0 2.328-.011 3.135-.046.807-.034 1.368-.161 1.848-.346a3.77 3.77 0 001.345-.866c.421-.416.679-.831.878-1.328.187-.473.316-1.027.35-1.824.036-.796.047-1.062.047-3.094s-.011-2.297-.046-3.094c-.035-.796-.164-1.35-.351-1.824a3.712 3.712 0 00-.878-1.328 3.77 3.77 0 00-1.345-.865c-.48-.185-1.041-.312-1.848-.347-.807-.046-1.065-.057-3.124-.057z" fill="#fff"/><path d="M8.579 4.325c-2.164 0-3.907 1.731-3.907 3.856 0 2.124 1.755 3.856 3.907 3.856s3.907-1.732 3.907-3.856c0-2.125-1.755-3.856-3.907-3.856zm0 6.36c-1.404 0-2.538-1.119-2.538-2.504 0-1.386 1.134-2.506 2.538-2.506s2.538 1.12 2.538 2.506c0 1.385-1.146 2.505-2.538 2.505zM12.638 5.076a.907.907 0 00.913-.901.907.907 0 00-.913-.902.907.907 0 00-.912.902c0 .497.408.9.912.9z" fill="#fff"/></svg>