<svg width="50" height="50" viewBox="0 0 50 50" fill="none" xmlns="http://www.w3.org/2000/svg">
<rect width="50" height="50" rx="25" fill="#389DAC"/>
<path d="M34.1976 34.048C34.2536 34.1227 34.2816 34.2253 34.2816 34.356C34.2816 34.5427 34.2162 34.7013 34.0856 34.832C33.9736 34.944 33.8336 35 33.6656 35H29.2416C28.7936 35 28.4669 34.8133 28.2616 34.44L24.0896 27.44H22.2696V34.3C22.2696 34.5053 22.1949 34.6733 22.0456 34.804C21.9149 34.9347 21.7469 35 21.5416 35H17.7056C17.5002 35 17.3322 34.9347 17.2016 34.804C17.0709 34.6733 17.0056 34.5053 17.0056 34.3V16.128C17.0056 15.9227 17.0709 15.7547 17.2016 15.624C17.3322 15.4747 17.5002 15.4 17.7056 15.4H21.5416C21.7469 15.4 21.9149 15.4747 22.0456 15.624C22.1949 15.7547 22.2696 15.9227 22.2696 16.128V22.764H23.8376L27.8696 15.96C28.1122 15.5867 28.4669 15.4 28.9336 15.4H33.2176C33.3856 15.4 33.5256 15.456 33.6376 15.568C33.7496 15.68 33.8056 15.82 33.8056 15.988C33.8056 16.1187 33.7682 16.2307 33.6936 16.324L28.5136 24.836L34.1976 34.048Z" fill="white"/>
</svg>
