<svg xmlns="http://www.w3.org/2000/svg" fill="none" viewBox="0 0 10 18"><path fill="#fff" d="M3.164 9.222V18h3.164v-1.055h2.11v-1.054H7.383v-1.055h1.054V13.78H7.383v-1.054h1.054v-1.055H6.329v-2.45a4.744 4.744 0 003.164-4.476A4.751 4.751 0 004.746 0 4.751 4.751 0 000 4.746a4.744 4.744 0 003.164 4.476zm1.582-8.167a3.696 3.696 0 013.691 3.691c0 3.14-3.158 3.674-3.164 3.677v4.304h1.055v1.054H5.273v1.055h1.055v1.055H5.273v1.054H4.22V8.423c-.01-.006-3.164-.533-3.164-3.677a3.696 3.696 0 013.691-3.691z"/><path fill="#fff" d="M4.746 7.383a2.64 2.64 0 002.637-2.637A2.64 2.64 0 004.746 2.11 2.64 2.64 0 002.11 4.746a2.64 2.64 0 002.637 2.637zm0-4.219c.872 0 1.582.71 1.582 1.582 0 .872-.71 1.582-1.582 1.582-.872 0-1.582-.71-1.582-1.582 0-.872.71-1.582 1.582-1.582z"/></svg>