<svg width="29" height="29" viewBox="0 0 29 29" fill="none" xmlns="http://www.w3.org/2000/svg">
<path fill-rule="evenodd" clip-rule="evenodd" d="M19.852 22C19.5032 20.8456 18.7922 19.8342 17.824 19.1153C16.8558 18.3964 15.6819 18.0082 14.476 18.0082C13.2701 18.0082 12.0962 18.3964 11.128 19.1153C10.1598 19.8342 9.44876 20.8456 9.1 22H7C7.37858 20.2993 8.32567 18.7784 9.68499 17.6884C11.0443 16.5984 12.7346 16.0044 14.477 16.0044C16.2194 16.0044 17.9097 16.5984 19.269 17.6884C20.6283 18.7784 21.5754 20.2993 21.954 22H19.852ZM14.472 6C15.0629 6 15.6481 6.1164 16.1941 6.34254C16.74 6.56869 17.2361 6.90016 17.654 7.31802C18.0718 7.73588 18.4033 8.23196 18.6295 8.77792C18.8556 9.32389 18.972 9.90905 18.972 10.5C18.972 11.0909 18.8556 11.6761 18.6295 12.2221C18.4033 12.768 18.0718 13.2641 17.654 13.682C17.2361 14.0998 16.74 14.4313 16.1941 14.6575C15.6481 14.8836 15.0629 15 14.472 15C13.2785 15 12.1339 14.5259 11.29 13.682C10.4461 12.8381 9.972 11.6935 9.972 10.5C9.972 9.30653 10.4461 8.16193 11.29 7.31802C12.1339 6.47411 13.2785 6 14.472 6ZM14.472 8C15.135 8 15.7709 8.26339 16.2398 8.73223C16.7086 9.20107 16.972 9.83696 16.972 10.5C16.972 11.163 16.7086 11.7989 16.2398 12.2678C15.7709 12.7366 15.135 13 14.472 13C13.809 13 13.1731 12.7366 12.7042 12.2678C12.2354 11.7989 11.972 11.163 11.972 10.5C11.972 9.83696 12.2354 9.20107 12.7042 8.73223C13.1731 8.26339 13.809 8 14.472 8Z" fill="black"/>
<path fill-rule="evenodd" clip-rule="evenodd" d="M14.5 27C21.404 27 27 21.404 27 14.5C27 7.596 21.404 2 14.5 2C7.596 2 2 7.596 2 14.5C2 21.404 7.596 27 14.5 27ZM14.5 29C22.508 29 29 22.508 29 14.5C29 6.492 22.508 0 14.5 0C6.492 0 0 6.492 0 14.5C0 22.508 6.492 29 14.5 29Z" fill="black"/>
</svg>
