<svg width="512" height="512" viewBox="0 0 512 512" fill="none" xmlns="http://www.w3.org/2000/svg">
<path d="M256.001 94.9677C241.962 94.9677 231.227 84.2323 231.227 70.1935V24.7742C231.227 10.7355 241.962 0 256.001 0C270.039 0 280.775 10.7355 280.775 24.7742V70.1935C280.775 83.4064 270.039 94.9677 256.001 94.9677Z" fill="#E3FEF3"/>
<path d="M256.001 512C241.962 512 231.227 501.264 231.227 487.226V441.806C231.227 427.768 241.962 417.032 256.001 417.032C270.039 417.032 280.775 427.768 280.775 441.806V487.226C280.775 501.264 270.039 512 256.001 512Z" fill="#3B9670"/>
<path d="M162.682 119.742C154.424 119.742 146.166 115.613 141.211 107.355L118.915 68.542C112.308 56.9807 116.437 41.2904 127.999 34.6839C139.56 28.0775 155.25 32.2065 161.857 43.7678L184.153 82.5807C190.76 94.142 186.631 109.832 175.069 116.439C171.766 118.09 166.811 119.742 162.682 119.742Z" fill="#2C7053"/>
<path d="M371.612 480.619C363.354 480.619 355.096 476.49 350.141 468.232L327.844 429.419C321.238 417.858 325.367 402.168 336.928 395.561C348.489 388.955 364.18 393.084 370.786 404.645L393.083 443.458C399.689 455.019 395.56 470.71 383.999 477.316C379.87 479.794 375.741 480.619 371.612 480.619Z" fill="#45AD81"/>
<path d="M94.968 187.458C90.839 187.458 86.71 186.632 82.5809 184.155L43.768 161.858C32.2068 155.252 28.0777 139.561 34.6842 128C41.2906 116.439 56.9809 112.31 68.5422 118.916L107.355 141.213C118.916 147.819 123.045 163.51 116.439 175.071C111.484 183.329 103.226 187.458 94.968 187.458Z" fill="#2E7557"/>
<path d="M456.673 396.387C452.544 396.387 448.415 395.561 444.286 393.084L404.647 370.787C393.086 364.181 388.957 348.49 395.563 336.929C402.17 325.368 417.86 321.239 429.421 327.845L468.234 350.142C479.795 356.749 483.924 372.439 477.318 384C473.189 392.258 464.931 396.387 456.673 396.387Z" fill="#50C694"/>
<path d="M70.1935 280.774H24.7742C10.7355 280.774 0 270.039 0 256C0 241.961 10.7355 231.226 24.7742 231.226H70.1935C84.2323 231.226 94.9677 241.961 94.9677 256C94.9677 270.039 83.4064 280.774 70.1935 280.774Z" fill="#2F7859"/>
<path d="M487.225 280.774H441.805C427.767 280.774 417.031 270.039 417.031 256C417.031 241.961 427.767 231.226 441.805 231.226H487.225C501.264 231.226 511.999 241.961 511.999 256C511.999 270.039 501.264 280.774 487.225 280.774Z" fill="#5ADDA6"/>
<path d="M55.3309 396.387C47.0728 396.387 38.8148 392.258 33.8599 384C27.2535 372.439 31.3825 356.749 42.9438 350.142L81.7567 327.845C93.318 321.239 109.008 325.368 115.615 336.929C122.221 348.49 118.092 364.181 106.531 370.787L67.718 393.084C64.4148 395.561 60.2858 396.387 55.3309 396.387Z" fill="#338261"/>
<path d="M417.034 187.458C408.776 187.458 400.518 183.329 395.563 175.071C388.957 163.51 393.086 147.819 404.647 141.213L443.46 118.916C455.021 112.31 470.711 116.439 477.318 128C483.924 139.561 479.795 155.252 468.234 161.858L429.421 184.155C425.292 186.632 421.163 187.458 417.034 187.458Z" fill="#A3F1D0"/>
<path d="M140.386 480.619C136.257 480.619 132.128 479.794 127.999 477.316C116.437 470.71 112.308 455.019 118.915 443.458L141.211 404.645C147.818 393.084 163.508 388.955 175.069 395.561C186.631 402.168 190.76 417.858 184.153 429.419L161.857 468.232C156.902 476.49 148.644 480.619 140.386 480.619Z" fill="#378C69"/>
<path d="M349.315 119.742C345.186 119.742 341.057 118.916 336.928 116.439C325.367 109.832 321.238 94.142 327.844 82.5807L350.141 43.7678C356.748 32.2065 372.438 28.0775 383.999 34.6839C395.56 41.2904 399.689 56.9807 393.083 68.542L370.786 107.355C365.831 114.787 357.573 119.742 349.315 119.742Z" fill="#C6F8E3"/>
</svg>
