<svg width="60" height="60" viewBox="0 0 60 60" fill="none" xmlns="http://www.w3.org/2000/svg">
<path d="M29.9583 11.635C24.7366 11.635 20.4881 15.8835 20.4881 21.1052C20.4881 26.3274 24.7366 30.5759 29.9583 30.5759C35.1805 30.5759 39.429 26.3274 39.429 21.1052C39.429 15.8835 35.1805 11.635 29.9583 11.635Z" fill="url(#paint0_linear_0_1652)"/>
<path d="M29.9583 0C17.8331 0 7.96875 9.86435 7.96875 21.9896C7.96875 27.5597 11.4784 35.4295 18.4007 45.3809C23.4604 52.6552 28.4367 58.2843 28.6464 58.5205L29.9583 60L31.2708 58.5205C31.4799 58.2843 36.4563 52.6552 41.5164 45.3809C48.4383 35.4295 51.9484 27.5597 51.9484 21.9896C51.9484 9.86435 42.0836 0 29.9583 0V0ZM29.9583 34.0837C22.8021 34.0837 16.9803 28.2614 16.9803 21.1052C16.9803 13.949 22.8021 8.12714 29.9583 8.12714C37.115 8.12714 42.9369 13.949 42.9369 21.1052C42.9369 28.2614 37.115 34.0837 29.9583 34.0837V34.0837Z" fill="url(#paint1_linear_0_1652)"/>
<defs>
<linearGradient id="paint0_linear_0_1652" x1="29.9585" y1="11.635" x2="29.9585" y2="30.5759" gradientUnits="userSpaceOnUse">
<stop stop-color="#55B78E"/>
<stop offset="1" stop-color="#1E7852"/>
</linearGradient>
<linearGradient id="paint1_linear_0_1652" x1="29.9586" y1="0" x2="29.9586" y2="60" gradientUnits="userSpaceOnUse">
<stop stop-color="#46AE83"/>
<stop offset="1" stop-color="#1E7852"/>
</linearGradient>
</defs>
</svg>
