<svg width="429" height="52" viewBox="0 0 429 52" fill="none" xmlns="http://www.w3.org/2000/svg">
<path d="M89.478 30.088C87.504 32.566 85.74 33.658 82.506 33.658C78.012 33.658 75.114 30.34 75.114 25.846C75.114 21.478 77.844 18.118 82.548 18.118C85.362 18.118 87.546 19.504 89.1 21.646L94.014 16.69C91.158 12.658 86.874 11.23 82.002 11.23C73.35 11.23 67.428 17.53 67.428 26.056C67.428 34.624 73.392 40.714 82.002 40.714C87.168 40.714 91.326 38.74 94.476 34.792L89.478 30.088ZM96.6019 40H103.742L104.288 23.578L109.748 33.154H113.822L118.736 23.578L119.408 40H126.926L125.624 11.986H118.484L111.806 24.208L105.002 11.986H97.9039L96.6019 40ZM131.397 31.642H145.257V24.838H131.397V31.642ZM171.263 30.088C169.289 32.566 167.525 33.658 164.291 33.658C159.797 33.658 156.899 30.34 156.899 25.846C156.899 21.478 159.629 18.118 164.333 18.118C167.147 18.118 169.331 19.504 170.885 21.646L175.799 16.69C172.943 12.658 168.659 11.23 163.787 11.23C155.135 11.23 149.213 17.53 149.213 26.056C149.213 34.624 155.177 40.714 163.787 40.714C168.953 40.714 173.111 38.74 176.261 34.792L171.263 30.088ZM176.68 20.008V25.972H182.854V40H189.952V25.972H196.126V20.008H176.68ZM208.108 34.456C205.756 34.456 204.244 32.692 204.244 30.004C204.244 27.316 205.756 25.552 208.108 25.552C210.46 25.552 211.972 27.316 211.972 30.004C211.972 32.692 210.46 34.456 208.108 34.456ZM197.566 30.004C197.566 35.968 201.892 40.672 208.108 40.672C214.324 40.672 218.65 35.968 218.65 30.004C218.65 24.04 214.324 19.336 208.108 19.336C201.892 19.336 197.566 24.04 197.566 30.004ZM235.18 35.8L238.288 29.584L238.75 40H245.47L244.504 20.008H237.952L233.542 28.828L229.132 20.008H222.706L221.74 40H228.166L228.628 29.626L231.736 35.8H235.18ZM267.825 40V27.904C267.825 22.318 264.087 19.378 258.627 19.378C253.923 19.378 250.983 20.722 249.303 22.066L251.991 26.14C253.167 25.3 255.099 24.544 257.619 24.544C259.047 24.544 260.895 25.006 260.895 27.064V27.442C259.929 27.316 259.383 27.274 258.081 27.274C252.999 27.274 248.631 29.752 248.631 34.624C248.631 39.412 252.201 40.672 254.805 40.672C257.493 40.672 259.089 40.042 260.895 38.152L261.147 40H267.825ZM260.895 32.608C260.895 35.128 259.341 35.842 257.871 35.842C256.317 35.842 255.519 35.086 255.519 33.574C255.519 32.188 256.611 31.096 258.963 31.096C259.887 31.096 260.517 31.138 260.895 31.264V32.608ZM270.031 20.008V25.972H276.205V40H283.303V25.972H289.477V20.008H270.031ZM301.459 34.456C299.107 34.456 297.595 32.692 297.595 30.004C297.595 27.316 299.107 25.552 301.459 25.552C303.811 25.552 305.323 27.316 305.323 30.004C305.323 32.692 303.811 34.456 301.459 34.456ZM290.917 30.004C290.917 35.968 295.243 40.672 301.459 40.672C307.675 40.672 312.001 35.968 312.001 30.004C312.001 24.04 307.675 19.336 301.459 19.336C295.243 19.336 290.917 24.04 290.917 30.004ZM318.844 20.008C318.634 31.096 316.87 33.91 313.72 33.91H313.426V40.042C313.888 40.084 314.266 40.126 314.728 40.126C320.818 40.126 324.136 36.178 325.018 25.972H328.336V40H335.434V20.008H318.844ZM349.242 34.456C346.89 34.456 345.378 32.692 345.378 30.004C345.378 27.316 346.89 25.552 349.242 25.552C351.594 25.552 353.106 27.316 353.106 30.004C353.106 32.692 351.594 34.456 349.242 34.456ZM338.7 30.004C338.7 35.968 343.026 40.672 349.242 40.672C355.458 40.672 359.784 35.968 359.784 30.004C359.784 24.04 355.458 19.336 349.242 19.336C343.026 19.336 338.7 24.04 338.7 30.004ZM377.532 20.008H363.042V40H370.14V25.972H377.532V20.008ZM400.845 40V20.008H394.713L387.195 30.382V20.008H380.433V40H386.145L394.083 29.122V40H400.845ZM416.09 29.206H413.822C412.436 29.206 411.596 28.408 411.596 27.106C411.596 25.804 412.436 25.006 413.822 25.006H416.09V29.206ZM423.02 40V20.008H412.058C408.32 20.008 404.624 22.15 404.624 26.518C404.624 29.668 406.934 31.558 409.118 32.314C407.774 32.776 406.934 33.532 405.926 35.254L403.112 40H410.588L412.688 35.842C413.318 34.54 413.78 34.036 414.914 34.036H416.09V40H423.02Z" fill="white"/>
<path d="M2.10651e-05 17.6631C2.10651e-05 10.7611 2.10464e-05 7.29526 2.13284 5.13282C4.29528 3 7.76111 3 14.6631 3H31.8738C38.7758 3 42.2416 3 44.4041 5.13282C46.5369 7.29526 46.5369 10.7315 46.5369 17.6631V34.8738C46.5369 41.7758 46.5369 45.2416 44.4041 47.4041C42.2416 49.5369 38.8054 49.5369 31.8738 49.5369H14.6631C7.76111 49.5369 4.29528 49.5369 2.13284 47.4041C-0.0296015 45.2712 2.10651e-05 41.8054 2.10651e-05 34.8738V17.6631Z" fill="white"/>
<path fill-rule="evenodd" clip-rule="evenodd" d="M23.6093 40.0159C14.1893 40.0159 5.92466 33.8248 6.1024 27.219C5.89504 22.4201 8.59068 17.3251 14.6633 14.6294C16.9146 13.6223 20.7951 12.7632 24.5572 12.7336C25.3866 12.704 25.9198 12.6151 26.6604 12.467C27.1343 12.3781 27.6675 12.2596 28.4377 12.1708C29.6819 11.993 31.3704 11.8153 32.8515 12.4077C34.5696 13.2668 36.2581 14.5702 36.2581 15.1923C36.2581 15.8143 35.1324 16.94 34.3918 17.0288C33.1181 17.177 31.5185 16.94 29.5041 16.6141C27.9638 16.3772 26.1864 16.0809 24.1721 15.9328C15.6704 15.8143 9.44973 21.5315 9.62747 27.1005C9.8052 34.1506 18.6623 37.2314 24.1425 37.2314C39.3684 37.3202 38.8945 23.7531 35.3101 23.1014C34.1549 22.8941 33.2069 24.9084 32.1998 27.1301C31.0149 29.7073 29.7115 32.5806 27.7268 32.551C25.8902 32.5214 24.4387 29.4703 23.2242 26.8931C22.3651 25.1158 21.6542 23.5754 21.0025 23.4865C19.8176 23.368 18.9289 26.1229 18.1291 28.552C17.5959 30.1812 17.1219 31.6623 16.648 31.9882C15.552 33.0842 12.6786 30.7144 13.0637 29.7961C13.4488 28.9075 13.8339 29.2333 14.2486 29.6184C14.5744 29.9146 14.9595 30.2701 15.3742 29.885C15.5223 29.7369 15.7593 29.0852 16.0555 28.1669C16.9442 25.5897 18.4846 20.9686 21.1506 20.7613C23.0464 20.6132 24.5572 24.0494 25.7717 26.7746C26.5419 28.552 27.1936 30.0331 27.7564 30.0331C28.3785 30.0331 29.0006 28.6705 29.7411 26.982C31.0149 24.1975 32.6441 20.5835 35.3101 21.0279C42.1529 22.2128 42.7158 40.0455 23.6093 40.0159ZM32.4071 13.8296C32.4071 14.1258 31.9332 14.1555 30.9556 14.1258C30.2151 14.0962 29.7411 13.8889 29.8596 13.5038C29.9781 13.1187 30.6298 13.0891 31.3407 13.2372C31.6666 13.2964 32.4071 13.5038 32.4071 13.8296Z" fill="#C459A7"/>
</svg>
