<svg width="64" height="63" viewBox="0 0 64 63" fill="none" xmlns="http://www.w3.org/2000/svg">
<path d="M4.79553 62.0499C2.67705 62.0499 0.947998 60.3264 0.947998 58.2117V4.7884C0.947998 2.67147 2.67594 0.949036 4.79553 0.949036H58.2827C60.4045 0.949036 62.128 2.67147 62.128 4.7884V58.2117C62.128 60.3264 60.4057 62.0499 58.2827 62.0499H4.79553Z" fill="white"/>
<path d="M58.2827 1.90023C59.8816 1.90023 61.1745 3.19595 61.1745 4.78837V58.2116C61.1745 59.8074 59.8816 61.0975 58.2827 61.0975H4.79551C3.19775 61.0975 1.90596 59.8074 1.90596 58.2116V4.78837C1.90596 3.19595 3.19775 1.90023 4.79551 1.90023H58.2827ZM58.2827 0H4.79551C2.14963 0 0 2.14582 0 4.78837V58.2116C0 60.8542 2.14963 63 4.79551 63H58.2827C60.9275 63 63.0793 60.8542 63.0793 58.2116V4.78837C63.0793 2.14582 60.9275 0 58.2827 0Z" fill="#F0F4F2"/>
<path d="M56.8763 3.45703H6.19854C4.68868 3.45703 3.46143 4.68385 3.46143 6.1907V56.8081C3.46143 58.316 4.68868 59.5406 6.19854 59.5406H56.8763C58.3884 59.5406 59.6156 58.316 59.6156 56.8081V6.19181C59.6167 4.68496 58.3895 3.45703 56.8763 3.45703ZM32.1299 50.7129C19.1186 50.7129 8.66417 42.7708 8.2269 33.7886C7.90645 27.1388 11.4024 19.439 19.7695 15.713C22.8983 14.3084 28.2201 13.1427 33.3972 13.0871C35.2698 13.0271 36.7385 12.4237 38.9371 12.2526C40.7941 12.087 43.1985 12.0292 44.7907 12.5959C46.818 13.4805 48.0719 15.1574 49.4961 16.4364L48.0686 17.4465L50.5409 18.7823L47.6391 18.28L47.3687 19.4068C45.1145 19.1801 42.6489 18.7823 40.4213 18.5567C37.7844 17.9533 35.5947 17.5543 32.8553 17.4932C21.1403 17.3276 13.2049 25.2475 13.4786 32.8962C13.7479 42.6608 26.0693 46.2945 33.6119 46.2945C54.6299 46.4134 55.0093 27.82 47.7403 27.4389C45.6575 27.3411 42.5376 40.6627 37.4951 40.6127C33.1825 40.5683 30.6545 27.9945 28.5405 27.9945C26.7358 28.0401 24.6963 37.0278 22.9973 40.1049C22.0727 41.8307 17.2015 36.9245 17.5309 36.1444C17.8613 35.3676 19.6593 38.8614 20.9189 37.7657C21.7489 37.0278 23.4969 23.9673 28.4214 23.5673C32.7452 23.2361 35.8606 37.4423 37.7276 37.3079C40.0208 37.2601 43.5813 23.4173 47.421 23.8007C59.5611 25.0386 58.4596 50.7273 32.1299 50.7129Z" fill="#F0F4F2"/>
<path d="M42.2216 14.8384C43.2041 14.8795 43.6024 14.8284 43.658 14.6128C43.7103 14.3961 43.193 14.1405 42.4853 13.9672C41.7799 13.7994 41.1657 14.0572 41.119 14.2683C41.0578 14.4894 41.4928 14.8095 42.2216 14.8384Z" fill="#F0F4F2"/>
</svg>
