<svg width="67" height="45" viewBox="0 0 67 45" fill="none" xmlns="http://www.w3.org/2000/svg">
<path d="M0.617188 5.5287C0.617188 2.47528 3.09247 0 6.14589 0H61.4329C64.4863 0 66.9616 2.47528 66.9616 5.5287V38.7009C66.9616 41.7543 64.4863 44.2296 61.4329 44.2296H6.14589C3.09247 44.2296 0.617188 41.7543 0.617188 38.7009V5.5287Z" fill="white"/>
<path d="M34.7924 34.4079C38.2586 31.3731 40.425 26.9872 40.425 22.1126C40.425 17.2384 38.2586 12.856 34.7924 9.82077C31.7596 7.15283 27.7072 5.5293 23.298 5.5293C13.8169 5.5293 6.14551 12.9535 6.14551 22.1126C6.14551 31.2751 13.8169 38.6993 23.298 38.6993C27.7067 38.6998 31.7591 37.0727 34.7924 34.4079Z" fill="#0066CB"/>
<path d="M34.792 34.4094C38.2582 31.3746 40.4246 26.9886 40.4246 22.114C40.4246 17.2399 38.2582 12.8575 34.792 9.82227" fill="#0066CB"/>
<path d="M34.792 34.4094C38.2582 31.3746 40.4246 26.9886 40.4246 22.114C40.4246 17.2399 38.2582 12.8575 34.792 9.82227" stroke="#0066CB" stroke-width="0.3097"/>
<path d="M46.3112 5.53125C41.8766 5.53125 37.8242 7.15479 34.7914 9.82273C34.1796 10.3683 33.5934 10.9545 33.0583 11.5809H36.5245C37.009 12.1367 37.4423 12.7228 37.8246 13.336H31.7586C31.4018 13.8983 31.0706 14.4846 30.7645 15.0911H38.8182C39.0983 15.6605 39.3278 16.2463 39.5317 16.8493H30.0506C29.8467 17.4187 29.6683 18.0049 29.541 18.6043H40.0417C40.2968 19.7361 40.424 20.9116 40.424 22.1145C40.424 23.9566 40.1179 25.7289 39.5317 27.3829H30.051C30.255 27.9854 30.4844 28.5716 30.7645 29.1406H38.8182C38.5121 29.7475 38.2065 30.3333 37.8242 30.8961H31.7581C32.1404 31.5092 32.5994 32.0954 33.0583 32.6516H36.5245C35.9894 33.2776 35.4031 33.8638 34.7914 34.4094C37.8242 37.0742 41.8766 38.7013 46.3112 38.7013C55.7668 38.7013 63.4383 31.2771 63.4383 22.1145C63.4383 12.9555 55.7664 5.53125 46.3112 5.53125Z" fill="#CC0001"/>
<path d="M61.6295 31.3281H61.7062C61.7322 31.3281 61.7568 31.3316 61.7568 31.321C61.7828 31.3077 61.8079 31.2875 61.8079 31.2676C61.8079 31.2468 61.7824 31.227 61.7568 31.2168C61.7568 31.2067 61.7062 31.2098 61.7062 31.2098H61.6295V31.3281ZM61.6295 31.5973H61.5278V31.1259H61.7317C61.7824 31.1259 61.8079 31.1259 61.859 31.1497C61.8846 31.1766 61.9096 31.2203 61.9096 31.268C61.9096 31.3214 61.8841 31.3691 61.833 31.3885L61.9096 31.5978H61.7824L61.7317 31.4093H61.6291V31.5973H61.6295ZM61.7062 31.7695C61.9356 31.7695 62.1396 31.5876 62.1396 31.3616C62.1396 31.1356 61.9356 30.9537 61.7062 30.9537C61.4772 30.9537 61.2983 31.1356 61.2983 31.3616C61.2983 31.5876 61.4772 31.7695 61.7062 31.7695ZM61.1455 31.3616C61.1455 31.065 61.4005 30.8262 61.7062 30.8262C62.0123 30.8262 62.2668 31.065 62.2668 31.3616C62.2668 31.6583 62.0118 31.897 61.7062 31.897C61.4005 31.897 61.1455 31.6583 61.1455 31.3616Z" fill="#231F20"/>
<path d="M20.6205 26.73H18.454L19.7281 20.2654L16.7971 26.73H15.0129L14.6561 20.3025L13.2292 26.73H11.2666L12.9231 18.3223H16.3131L16.3637 23.5266L18.7085 18.3223H22.302L20.6205 26.73Z" fill="#231F20"/>
<path d="M44.4499 26.6442C43.8637 26.7995 43.4048 26.8667 42.9207 26.8667C41.8249 26.8667 41.2383 26.3378 41.2383 25.3645C41.2383 25.1725 41.2383 24.9672 41.2889 24.7509L41.4162 24.0808L41.5184 23.5419L42.5124 18.3203H44.6278L44.3222 19.89H45.418L45.1123 21.5506H44.0165L43.4558 24.404C43.4303 24.5315 43.4303 24.6229 43.4303 24.6869C43.4303 25.0405 43.6342 25.1954 44.1438 25.1954C44.3988 25.1954 44.5767 25.1756 44.73 25.1314L44.4499 26.6442Z" fill="#231F20"/>
<path d="M35.9895 22.0511C35.9895 22.9167 36.474 23.51 37.6204 23.9576C38.4872 24.3014 38.6396 24.4025 38.6396 24.7124C38.6396 25.1406 38.2572 25.3317 37.3914 25.3317C36.7541 25.3317 36.1423 25.2483 35.4544 25.0593L35.1738 26.6388L35.2505 26.6524L35.6583 26.7231C35.7856 26.7434 35.9644 26.7637 36.219 26.7835C36.7285 26.8206 37.1364 26.8414 37.4165 26.8414C39.6851 26.8414 40.7303 26.117 40.7303 24.5575C40.7303 23.6208 40.2969 23.0686 39.2262 22.6536C38.3088 22.3067 38.2071 22.2325 38.2071 21.9129C38.2071 21.5421 38.5638 21.3536 39.2522 21.3536C39.6851 21.3536 40.2714 21.3942 40.8065 21.4583L41.1126 19.8749C40.5519 19.8007 39.7107 19.7402 39.2262 19.7402C36.8052 19.7402 35.9639 20.7913 35.9895 22.0511Z" fill="#231F20"/>
<path d="M26.0751 23.6844C25.8461 23.6606 25.7439 23.6544 25.5906 23.6544C24.3931 23.6544 23.7813 24.0044 23.7813 24.6948C23.7813 25.119 24.087 25.3922 24.5459 25.3922C25.4122 25.3927 26.0496 24.6953 26.0751 23.6844ZM27.5276 26.7298H25.7434L25.7945 26.0191C25.2339 26.5814 24.5204 26.8476 23.5514 26.8476C22.379 26.8476 21.5889 26.0862 21.5889 24.9813C21.5889 23.314 22.9652 22.3438 25.3352 22.3438C25.5902 22.3438 25.8958 22.3601 26.2019 22.3972C26.2781 22.1716 26.3037 22.0741 26.3037 21.9527C26.3037 21.498 25.9214 21.3294 24.9273 21.3294C24.3156 21.3294 23.6276 21.4036 23.1431 21.5214L22.8626 21.592L22.6586 21.6357L22.9643 20.1C24.0345 19.837 24.7225 19.7363 25.5126 19.7363C27.3474 19.7363 28.3164 20.4302 28.3164 21.7439C28.3164 22.0807 28.2908 22.3367 28.138 23.0982L27.7046 25.5233L27.6284 25.9577L27.5774 26.3047L27.5263 26.5439V26.7298" fill="#231F20"/>
<path d="M33.4929 22.5112C33.4929 22.3699 33.5185 22.2521 33.5185 22.1642C33.5185 21.6085 33.1362 21.2814 32.4989 21.2814C31.8109 21.2814 31.3264 21.7193 31.1481 22.5072L33.4929 22.5112ZM34.5376 26.5806C33.7986 26.7696 33.0846 26.8601 32.3456 26.8565C29.9501 26.8565 28.7266 25.8055 28.7266 23.7948C28.7266 21.4469 30.3068 19.7188 32.4478 19.7188C34.2059 19.7188 35.3277 20.6855 35.3277 22.2044C35.3277 22.7103 35.2511 23.198 35.0472 23.892H30.8164C30.7909 23.9961 30.7909 24.0438 30.7909 24.1074C30.7909 24.8988 31.4282 25.3032 32.6768 25.3032C33.4414 25.3032 34.1297 25.1721 34.8943 24.8719L34.5376 26.5806Z" fill="#231F20"/>
<path d="M55.1294 22.8113C55.1294 22.0971 54.8238 21.4199 53.9575 21.4199C52.8617 21.4199 52.1993 22.6665 52.1993 23.7643C52.1993 24.6909 52.6578 25.3142 53.4228 25.3C53.8813 25.3 54.8753 24.6904 55.0537 23.6257C55.1039 23.3803 55.1294 23.1079 55.1294 22.8113ZM57.2959 23.6292C56.9898 25.903 55.3334 26.9108 53.1418 26.9108C50.7458 26.9108 49.7773 25.496 49.7773 23.7612C49.7773 21.3356 51.4087 19.6953 53.9575 19.6953C56.1746 19.6953 57.3475 21.0461 57.3475 22.7813C57.347 23.202 57.347 23.232 57.2959 23.6292Z" fill="#231F20"/>
<path d="M58.0094 25.6777H58.0856C58.0856 25.6777 58.1116 25.6777 58.1367 25.6675C58.1618 25.6574 58.1622 25.634 58.1622 25.6137C58.1622 25.5969 58.1623 25.5766 58.1367 25.5669C58.1367 25.5567 58.0856 25.5567 58.0605 25.5567H58.0094V25.6777ZM58.0094 25.9438H57.9072V25.4724H58.1111C58.1367 25.4724 58.1878 25.4759 58.2384 25.4998C58.264 25.5232 58.2891 25.5704 58.2891 25.6176C58.2891 25.6679 58.2635 25.7187 58.2129 25.7386L58.2891 25.9443H58.1618L58.0851 25.7589H58.0094V25.9438ZM58.0856 26.1155C58.3155 26.1155 58.4939 25.9337 58.4939 25.7077C58.4939 25.4852 58.3155 25.3034 58.0856 25.3034C57.8566 25.3034 57.6527 25.4852 57.6527 25.7077C57.6527 25.9337 57.8566 26.1155 58.0856 26.1155ZM57.5254 25.7077C57.5254 25.4146 57.7804 25.1758 58.0861 25.1758C58.3922 25.1758 58.6467 25.4146 58.6467 25.7077C58.6467 26.0043 58.3917 26.2431 58.0861 26.2431C57.78 26.2431 57.5254 26.0043 57.5254 25.7077Z" fill="white"/>
<path d="M21.1553 26.2437H19.0144L20.2885 19.7795L17.3575 26.2437H15.4204L15.0637 19.8201L13.7896 26.2437H11.8525L13.509 17.8359H16.8474L17.0003 23.0438L19.3707 17.8359H22.8368L21.1553 26.2437Z" fill="white"/>
<path d="M44.9865 26.1633C44.4003 26.3183 43.9413 26.3854 43.4569 26.3854C42.3611 26.3854 41.7744 25.8534 41.7744 24.8836C41.7744 24.6912 41.8 24.4864 41.8255 24.2705L41.9528 23.5996L42.0545 23.0571L43.049 17.8359H45.1644L44.8588 19.4056H45.9546L45.6484 21.0698H44.5527L43.992 23.9227C43.9664 24.0476 43.9664 24.1416 43.9664 24.2061C43.9664 24.5601 44.1959 24.7115 44.7055 24.7115C44.9349 24.7115 45.1138 24.6912 45.2661 24.647L44.9865 26.1633Z" fill="white"/>
<path d="M50.4662 21.3705L50.4156 21.1551L50.8489 20.0838C50.7463 20.0736 50.6956 20.0705 50.6956 20.0639C50.5684 20.0401 50.5173 20.0268 50.4917 20.0268C50.4411 20.0131 50.3644 20.0101 50.2883 20.0101C49.5748 20.0101 49.0903 20.3098 48.4274 21.1185L48.6574 19.9023H46.4398L45.1396 26.7302H47.2555C47.5356 25.1636 47.6633 24.2715 47.8417 23.5299C48.1218 22.3006 49.0652 21.7413 49.7532 21.8658C49.8293 21.8795 49.8804 21.8795 49.9822 21.9165L50.1094 21.9633L50.4662 21.3705Z" fill="#231F20"/>
<path d="M51.2047 19.4636C51.0264 19.3961 51.0008 19.396 50.9757 19.3894C50.8731 19.3656 50.7969 19.3523 50.7969 19.3488C50.7207 19.3387 50.6441 19.332 50.5674 19.332C49.8795 19.332 49.3699 19.6353 48.7071 20.444L48.911 19.4062H46.974L45.6738 26.2442H47.8148C48.5793 22.064 48.9105 21.3299 49.9301 21.3299C50.0068 21.3299 50.083 21.3365 50.1851 21.3467L50.4402 21.397L51.2047 19.4636Z" fill="white"/>
<path d="M36.5232 21.5687C36.5232 22.4308 37.0328 23.0272 38.1801 23.4752C39.0465 23.8155 39.1742 23.9166 39.1742 24.23C39.1742 24.6542 38.7919 24.8463 37.9507 24.8463C37.2878 24.8463 36.7016 24.7619 36.0137 24.5765L35.708 26.1533L35.8097 26.1696L36.192 26.2367C36.3193 26.261 36.5237 26.2809 36.7782 26.2981C37.2878 26.3352 37.6701 26.355 37.9507 26.355C40.244 26.355 41.2891 25.6342 41.2891 24.0746C41.2891 23.1349 40.8562 22.5857 39.76 22.1713C38.8681 21.8243 38.7654 21.747 38.7654 21.4266C38.7654 21.0593 39.1226 20.8708 39.8106 20.8708C40.2435 20.8708 40.8046 20.9079 41.3653 20.9719L41.6709 19.389C41.1103 19.3148 40.2695 19.2539 39.76 19.2539C37.3645 19.2543 36.5232 20.3053 36.5232 21.5687Z" fill="white"/>
<path d="M26.5347 23.1984C26.3053 23.1751 26.2031 23.1715 26.0503 23.1715C24.8523 23.1715 24.2405 23.5216 24.2405 24.2119C24.2405 24.6366 24.5211 24.9094 25.0051 24.9094C25.8719 24.9098 26.4836 24.2089 26.5347 23.1984ZM28.089 26.2433H26.3048L26.3559 25.5362C25.8208 26.0981 25.0818 26.3612 24.1128 26.3612C22.9659 26.3612 22.1758 25.5998 22.1758 24.4949C22.1758 22.8303 23.5521 21.8574 25.9221 21.8574C26.1515 21.8574 26.4572 21.8773 26.7884 21.9113C26.8395 21.6853 26.8646 21.5912 26.8646 21.4667C26.8646 21.0152 26.4823 20.847 25.4882 20.847C24.8765 20.847 24.1881 20.9176 23.7296 21.0355L23.4239 21.1096L23.2456 21.1538L23.5261 19.6141C24.5964 19.3515 25.2843 19.2539 26.0744 19.2539C27.9093 19.2539 28.8782 19.9478 28.8782 21.2584C28.8782 21.5952 28.8527 21.8512 28.7254 22.6122L28.2665 25.0414L28.1903 25.4757L28.1392 25.8227L28.1136 26.058L28.089 26.2433Z" fill="white"/>
<path d="M33.9505 22.0307C33.9505 21.8859 33.9505 21.7711 33.9505 21.6802C33.9505 21.1245 33.5937 20.8009 32.9564 20.8009C32.2685 20.8009 31.784 21.2353 31.58 22.0272L33.9505 22.0307ZM35.0722 26.0997C34.3583 26.2851 33.6448 26.376 32.9053 26.376C30.5098 26.376 29.2607 25.325 29.2607 23.3108C29.2607 20.9664 30.8406 19.2383 32.9815 19.2383C34.7401 19.2383 35.8614 20.205 35.8614 21.7208C35.8614 22.2262 35.7848 22.718 35.606 23.4115H31.3757C31.3501 23.5161 31.3501 23.5633 31.3501 23.6269C31.3501 24.4188 31.987 24.8231 33.2105 24.8231C33.9751 24.8231 34.6635 24.688 35.4276 24.3883L35.0722 26.0997Z" fill="white"/>
<path d="M55.64 22.2695C55.64 21.5553 55.3344 20.8786 54.4681 20.8786C53.3723 20.8786 52.7099 22.1247 52.7099 23.223C52.7099 24.1526 53.1688 24.7764 53.9334 24.7622C54.3923 24.7622 55.3859 24.1526 55.5643 23.0879C55.6149 22.8385 55.64 22.5662 55.64 22.2695ZM57.8576 23.1458C57.5259 25.4191 55.8946 26.4295 53.7035 26.4295C51.282 26.4295 50.3135 25.0112 50.3135 23.2764C50.3135 20.8544 51.9699 19.2109 54.5191 19.2109C56.7358 19.2109 57.9087 20.5617 57.9087 22.2965C57.9087 22.7207 57.9087 22.748 57.8576 23.1458Z" fill="white"/>
</svg>
