<svg width="32" height="32" viewBox="0 0 32 32" fill="none" xmlns="http://www.w3.org/2000/svg">
<path d="M15.9778 0C9.51099 0 4.25 5.26099 4.25 11.7278C4.25 14.6985 6.12183 18.8958 9.81372 24.2031C12.5122 28.0828 15.1663 31.085 15.2781 31.2109L15.9778 32L16.6777 31.2109C16.7893 31.085 19.4434 28.0828 22.1421 24.2031C25.8337 18.8958 27.7058 14.6985 27.7058 11.7278C27.7058 5.26099 22.4446 0 15.9778 0ZM20.6165 23.1196C18.7925 25.7437 16.949 28.002 15.9778 29.1541C15.009 28.0051 13.1724 25.7554 11.3496 23.1348C7.92896 18.2173 6.12085 14.2727 6.12085 11.7278C6.12085 6.29272 10.5427 1.87085 15.9778 1.87085C21.4131 1.87085 25.8347 6.29272 25.8347 11.7278C25.8347 14.27 24.0303 18.2092 20.6165 23.1196Z" fill="#953478"/>
<path d="M15.9778 4.33496C12.1611 4.33496 9.05615 7.43994 9.05615 11.2566C9.05615 15.0732 12.1611 18.1785 15.9778 18.1785C19.7947 18.1785 22.8997 15.0732 22.8997 11.2566C22.8997 7.43994 19.7947 4.33496 15.9778 4.33496ZM15.9778 16.3076C13.1929 16.3076 10.927 14.0417 10.927 11.2566C10.927 8.47168 13.1929 6.20581 15.9778 6.20581C18.7629 6.20581 21.0288 8.47168 21.0288 11.2566C21.0288 14.0417 18.7629 16.3076 15.9778 16.3076Z" fill="#953478"/>
</svg>
