<svg width="60" height="60" viewBox="0 0 60 60" fill="none" xmlns="http://www.w3.org/2000/svg">
<path d="M29.9585 11.6348C24.7368 11.6348 20.4883 15.8833 20.4883 21.105C20.4883 26.3271 24.7368 30.5757 29.9585 30.5757C35.1807 30.5757 39.4292 26.3271 39.4292 21.105C39.4292 15.8833 35.1807 11.6348 29.9585 11.6348Z" fill="#AE3D8D"/>
<path d="M29.9583 0C17.8331 0 7.96875 9.86435 7.96875 21.9896C7.96875 27.5597 11.4784 35.4295 18.4007 45.3809C23.4604 52.6552 28.4367 58.2843 28.6464 58.5205L29.9583 60L31.2708 58.5205C31.4799 58.2843 36.4563 52.6552 41.5164 45.3809C48.4383 35.4295 51.9484 27.5597 51.9484 21.9896C51.9484 9.86435 42.0836 0 29.9583 0ZM29.9583 34.0837C22.8021 34.0837 16.9803 28.2614 16.9803 21.1052C16.9803 13.949 22.8021 8.12714 29.9583 8.12714C37.115 8.12714 42.9369 13.949 42.9369 21.1052C42.9369 28.2614 37.115 34.0837 29.9583 34.0837Z" fill="#AE3D8D"/>
</svg>
