<svg width="67" height="45" viewBox="0 0 67 45" fill="none" xmlns="http://www.w3.org/2000/svg">
<path d="M0.65625 5.5287C0.65625 2.47528 3.13153 0 6.18495 0H61.472C64.5254 0 67.0007 2.47528 67.0007 5.5287V38.7009C67.0007 41.7543 64.5254 44.2296 61.472 44.2296H6.18495C3.13153 44.2296 0.65625 41.7543 0.65625 38.7009V5.5287Z" fill="#0066CB"/>
<path d="M61.5913 22.1155C61.5939 31.2736 54.1718 38.6991 45.0137 38.7015C35.8555 38.7038 28.4302 31.282 28.4277 22.1239C28.4277 22.1209 28.4277 22.1185 28.4277 22.1155C28.4253 12.9576 35.8474 5.53173 45.0051 5.5293C54.1634 5.52686 61.5889 12.949 61.5913 22.1071C61.5913 22.1099 61.5913 22.1125 61.5913 22.1155Z" fill="#FF9900"/>
<path d="M22.6596 5.53524C13.5558 5.59307 6.18457 12.9997 6.18457 22.1171C6.18457 31.2702 13.6133 38.6988 22.7665 38.6988C27.0624 38.6988 30.9782 37.0617 33.9247 34.3784C33.9246 34.3784 33.9242 34.3781 33.9234 34.3777H33.927C34.5303 33.8279 35.0931 33.2346 35.6103 32.6021H32.2131C31.7595 32.0541 31.3472 31.4831 30.9768 30.894H36.836C37.1923 30.3238 37.5149 29.7316 37.8012 29.1184H30.0095C29.7439 28.5491 29.5134 27.9669 29.3165 27.3763H38.495C39.0482 25.7234 39.3484 23.9551 39.3484 22.1169C39.3484 20.8983 39.2162 19.7101 38.9662 18.5661H28.8297C28.9553 17.9773 29.1138 17.3957 29.3028 16.8241H38.4847C38.2794 16.2159 38.041 15.6232 37.7698 15.0487H30.0086C30.2885 14.4506 30.6057 13.8688 30.96 13.307H36.8148C36.4252 12.6862 35.994 12.0931 35.5278 11.5313H32.2635C32.7682 10.9373 33.3238 10.378 33.927 9.85639C30.9802 7.17275 27.0633 5.53524 22.7665 5.53524C22.7307 5.53524 22.6953 5.53505 22.6596 5.53524Z" fill="#CC0000"/>
<path d="M28.2689 26.8711L28.4898 25.3702C28.3691 25.3702 28.1916 25.4225 28.0348 25.4225C27.4202 25.4225 27.3435 25.094 27.3918 24.8541L27.9974 21.8355H28.9316L29.1242 20.1319H28.2437L28.423 19.0996H26.5811C26.5422 19.1385 25.5391 24.9052 25.5391 25.6077C25.5391 26.6473 26.1226 27.1099 26.9456 27.1026C27.5898 27.0972 28.0919 26.9189 28.2689 26.8711Z" fill="#000066"/>
<path d="M28.8271 24.0102C28.8271 26.5052 30.4738 27.0979 31.877 27.0979C33.1723 27.0979 33.8514 26.7977 33.8514 26.7977L34.1624 25.0947C34.1624 25.0947 33.068 25.5398 32.1785 25.5398C30.2826 25.5398 30.6149 24.1261 30.6149 24.1261L34.2573 24.1371C34.2573 24.1371 34.4892 22.9935 34.4892 22.5273C34.4892 21.3638 33.8553 19.9355 31.9169 19.9355C30.1416 19.9359 28.8271 21.8487 28.8271 24.0102ZM31.9236 21.5165C32.92 21.5165 32.7362 22.6364 32.7362 22.7272H30.7761C30.7761 22.6111 30.9612 21.5165 31.9236 21.5165Z" fill="#000066"/>
<path d="M43.1032 26.871L43.4193 24.9464C43.4193 24.9464 42.5525 25.3807 41.9583 25.3807C40.7057 25.3807 40.2033 24.4244 40.2033 23.3968C40.2033 21.3126 41.2808 20.1658 42.4804 20.1658C43.3802 20.1658 44.102 20.6709 44.102 20.6709L44.3902 18.8008C44.3902 18.8008 43.538 18.1852 42.6206 18.1817C39.8612 18.1708 38.2822 20.0921 38.2822 23.4133C38.2822 25.6147 39.4515 27.1128 41.5584 27.1128C42.154 27.1128 43.1032 26.871 43.1032 26.871Z" fill="#000066"/>
<path d="M18.5574 19.9629C17.3467 19.9629 16.4189 20.352 16.4189 20.352L16.1625 21.8729C16.1625 21.8729 16.9285 21.5617 18.0865 21.5617C18.744 21.5617 19.2249 21.6356 19.2249 22.1699C19.2249 22.4944 19.1662 22.6142 19.1662 22.6142C19.1662 22.6142 18.6474 22.5709 18.4071 22.5709C16.6835 22.5709 15.2764 23.2226 15.2764 25.1872C15.2764 26.7354 16.3287 27.0905 16.9809 27.0905C18.2267 27.0905 18.7198 26.3039 18.7483 26.3016L18.7339 26.9544C18.7339 26.9544 20.2883 26.9544 20.2885 26.9544L20.982 22.0924C20.982 20.0291 19.1824 19.9629 18.5574 19.9629ZM18.8265 23.9109C18.8604 24.2077 18.7498 25.6113 17.6864 25.6113C17.1381 25.6113 16.9957 25.1921 16.9957 24.9447C16.9957 24.4611 17.2582 23.8811 18.5518 23.8811C18.8531 23.8811 18.7758 23.9028 18.8265 23.9109Z" fill="#000066"/>
<path d="M22.6336 27.0554C23.0313 27.0554 25.3046 27.1566 25.3046 24.8108C25.3046 22.6173 23.2003 23.0509 23.2003 22.1694C23.2003 21.7311 23.5433 21.593 24.1705 21.593C24.4192 21.593 25.377 21.6722 25.377 21.6722L25.5995 20.1133C25.5995 20.1135 24.9797 19.9746 23.9706 19.9746C22.6645 19.9746 21.3388 20.496 21.3388 22.2799C21.3388 24.3014 23.5493 24.0983 23.5493 24.9498C23.5493 25.5182 22.9318 25.565 22.4557 25.565C21.632 25.565 20.8906 25.2822 20.888 25.2959L20.6523 26.8389C20.6952 26.852 21.1528 27.0554 22.6336 27.0554Z" fill="#000066"/>
<path d="M57.6662 18.5488L57.3471 20.9272C57.3471 20.9272 56.6822 20.0093 55.6418 20.0093C53.6845 20.0093 52.6758 21.9599 52.6758 24.2006C52.6758 25.6472 53.3952 27.0652 54.8652 27.0652C55.9227 27.0652 56.5091 26.3277 56.5091 26.3277L56.4314 26.9574H58.149L59.4977 18.5617L57.6662 18.5488ZM56.9079 23.1715C56.9079 24.104 56.446 25.3498 55.4891 25.3498C54.8536 25.3498 54.5556 24.8163 54.5556 23.9792C54.5556 22.6102 55.1704 21.7073 55.9465 21.7073C56.5817 21.7073 56.9079 22.1433 56.9079 23.1715Z" fill="#000066"/>
<path d="M8.99793 26.9639L10.0727 20.6254L10.2306 26.9639H11.4469L13.716 20.6254L12.7109 26.9639H14.5183L15.9101 18.5571L13.0389 18.5352L11.3311 23.6824L11.2843 18.5571H8.65302L7.24121 26.9639H8.99793Z" fill="#000066"/>
<path d="M36.2 26.9753C36.7139 24.0531 36.8969 21.7452 38.3955 22.2232C38.6107 21.0921 39.1237 20.1085 39.358 19.6298C39.358 19.6298 39.2839 19.5195 38.8207 19.5195C38.03 19.5195 36.9744 21.1241 36.9744 21.1241L37.1321 20.1321H35.4879L34.3867 26.9752H36.2V26.9753Z" fill="#000066"/>
<path d="M46.8017 19.9629C45.5905 19.9629 44.6627 20.352 44.6627 20.352L44.4064 21.8729C44.4064 21.8729 45.1728 21.5617 46.3303 21.5617C46.9879 21.5617 47.4687 21.6356 47.4687 22.1699C47.4687 22.4944 47.4101 22.6142 47.4101 22.6142C47.4101 22.6142 46.8915 22.5709 46.6512 22.5709C44.9275 22.5709 43.5205 23.2226 43.5205 25.1872C43.5205 26.7354 44.5726 27.0905 45.2248 27.0905C46.4703 27.0905 46.9638 26.3039 46.992 26.3016L46.9774 26.9544H48.5324L49.2258 22.0924C49.226 20.0291 47.4264 19.9629 46.8017 19.9629ZM47.0704 23.9109C47.1041 24.2077 46.9935 25.6113 45.9304 25.6113C45.3817 25.6113 45.2394 25.1921 45.2394 24.9447C45.2394 24.4611 45.5018 23.8811 46.7955 23.8811C47.097 23.8811 47.0199 23.9028 47.0704 23.9109Z" fill="#000066"/>
<path d="M51.0158 26.9763C51.298 24.8264 51.8203 21.8081 53.2112 22.2241C53.4262 21.093 53.2188 21.096 52.7558 21.096C51.9646 21.096 51.7894 21.1249 51.7894 21.1249L51.9474 20.1328H50.3033L49.2021 26.9761H51.0158V26.9763Z" fill="#000066"/>
<path d="M28.7293 26.3362L28.9503 24.8355C28.8296 24.8355 28.652 24.8871 28.4953 24.8871C27.8808 24.8871 27.813 24.5604 27.8521 24.3188L28.3486 21.2567H29.2827L29.5082 19.5967H28.6275L28.8067 18.5645H27.0412C27.0023 18.6034 25.999 24.3702 25.999 25.0724C25.999 26.112 26.5827 26.575 27.4058 26.5675C28.0503 26.562 28.5522 26.3837 28.7293 26.3362Z" fill="white"/>
<path d="M29.2881 23.4753C29.2881 25.9703 30.935 26.5631 32.338 26.5631C33.633 26.5631 34.2029 26.2736 34.2029 26.2736L34.5139 24.5708C34.5139 24.5708 33.5288 25.0048 32.6391 25.0048C30.7433 25.0048 31.0753 23.5913 31.0753 23.5913H34.6632C34.6632 23.5913 34.8949 22.4473 34.8949 21.9811C34.8949 20.8178 34.3159 19.4004 32.3775 19.4004C30.6022 19.4008 29.2881 21.3136 29.2881 23.4753ZM32.3842 20.9816C33.3806 20.9816 33.1968 22.1013 33.1968 22.1918H31.2366C31.2366 22.0762 31.4219 20.9816 32.3842 20.9816Z" fill="white"/>
<path d="M43.5638 26.3353L43.8797 24.4105C43.8797 24.4105 43.0134 24.8449 42.4189 24.8449C41.1665 24.8449 40.6642 23.8886 40.6642 22.8612C40.6642 20.7769 41.7418 19.6303 42.9414 19.6303C43.841 19.6303 44.563 20.1354 44.563 20.1354L44.8512 18.2653C44.8512 18.2653 43.7805 17.832 42.8628 17.832C40.8246 17.832 38.8418 19.6002 38.8418 22.9209C38.8418 25.1228 39.9124 26.5771 42.0193 26.5771C42.615 26.5773 43.5638 26.3353 43.5638 26.3353Z" fill="white"/>
<path d="M19.0175 19.4277C17.8069 19.4277 16.8788 19.8168 16.8788 19.8168L16.6226 21.3377C16.6226 21.3377 17.3886 21.0265 18.5465 21.0265C19.2039 21.0265 19.6849 21.1004 19.6849 21.6347C19.6849 21.9592 19.6259 22.079 19.6259 22.079C19.6259 22.079 19.1074 22.0356 18.8672 22.0356C17.3403 22.0356 15.7363 22.6872 15.7363 24.6519C15.7363 26.1999 16.7886 26.5551 17.4408 26.5551C18.6865 26.5551 19.2234 25.7468 19.252 25.7444L19.1938 26.4191H20.7484L21.442 21.5569C21.442 19.4942 19.6426 19.4277 19.0175 19.4277ZM19.3957 23.3866C19.4294 23.6836 19.2095 25.0757 18.1466 25.0757C17.5982 25.0757 17.4556 24.6569 17.4556 24.4091C17.4556 23.9259 17.7182 23.3458 19.0119 23.3458C19.3128 23.3462 19.345 23.3783 19.3957 23.3866Z" fill="white"/>
<path d="M23.0954 26.5185C23.493 26.5185 25.7665 26.6195 25.7665 24.2737C25.7665 22.0805 23.662 22.5138 23.662 21.6327C23.662 21.194 24.0051 21.0559 24.632 21.0559C24.8809 21.0559 25.8385 21.1351 25.8385 21.1351L26.0612 19.5762C26.0612 19.5764 25.4414 19.4375 24.4323 19.4375C23.1262 19.4375 21.8005 19.9589 21.8005 21.7427C21.8005 23.7641 24.0111 23.5612 24.0111 24.4127C24.0111 24.9811 23.3935 25.0273 22.9176 25.0273C22.094 25.0273 21.3523 24.7447 21.3497 24.7582L21.1143 26.3014C21.1569 26.3145 21.6143 26.5185 23.0954 26.5185Z" fill="white"/>
<path d="M58.1885 18.0282L57.8076 20.3913C57.8076 20.3913 57.1431 19.4733 56.1028 19.4733C54.4851 19.4733 53.1367 21.4237 53.1367 23.6648C53.1367 25.1114 53.8559 26.5288 55.3261 26.5288C56.3837 26.5288 56.97 25.7915 56.97 25.7915L56.8923 26.4212H58.6096L59.9583 18.0254L58.1885 18.0282ZM57.3686 22.6357C57.3686 23.5682 56.9069 24.8139 55.9497 24.8139C55.3143 24.8139 55.0166 24.2805 55.0166 23.4434C55.0166 22.0746 55.6314 21.1715 56.4071 21.1715C57.0426 21.1713 57.3686 21.6079 57.3686 22.6357Z" fill="white"/>
<path d="M9.4591 26.4286L10.5339 20.09L10.6916 26.4286H11.9081L14.1772 20.09L13.172 26.4286H14.9795L16.3714 18.0215H13.5765L11.8358 23.1797L11.7452 18.0215H9.16884L7.75684 26.4286H9.4591Z" fill="white"/>
<path d="M36.6607 26.4412C37.1746 23.5188 37.2699 21.1458 38.4962 21.5801C38.7109 20.449 38.918 20.0115 39.1523 19.5328C39.1523 19.5328 39.0425 19.5098 38.8119 19.5098C38.0212 19.5098 37.4355 20.59 37.4355 20.59L37.5929 19.5979H35.949L34.8477 26.4412H36.6607Z" fill="white"/>
<path d="M47.6384 19.4277C46.4278 19.4277 45.4997 19.8168 45.4997 19.8168L45.2437 21.3377C45.2437 21.3377 46.0097 21.0265 47.1676 21.0265C47.825 21.0265 48.3056 21.1004 48.3056 21.6347C48.3056 21.9592 48.247 22.079 48.247 22.079C48.247 22.079 47.7284 22.0356 47.4882 22.0356C45.9614 22.0356 44.3574 22.6872 44.3574 24.6519C44.3574 26.1999 45.4095 26.5551 46.0617 26.5551C47.3074 26.5551 47.8443 25.7468 47.8727 25.7444L47.8149 26.4191C47.8149 26.4191 49.3689 26.4191 49.3695 26.4191L50.0629 21.5569C50.0631 19.4942 48.2635 19.4277 47.6384 19.4277ZM48.0172 23.3866C48.0509 23.6836 47.8308 25.0757 46.7675 25.0757C46.2191 25.0757 46.0769 24.6569 46.0769 24.4091C46.0769 23.9259 46.3395 23.3458 47.633 23.3458C47.9339 23.3462 47.9659 23.3783 48.0172 23.3866Z" fill="white"/>
<path d="M51.4828 26.4412C51.9969 23.5188 52.0921 21.1458 53.3181 21.5801C53.5331 20.449 53.7405 20.0115 53.9746 19.5328C53.9746 19.5328 53.8648 19.5098 53.6342 19.5098C52.8435 19.5098 52.2578 20.59 52.2578 20.59L52.4151 19.5979H50.7713L49.6699 26.4412H51.4828Z" fill="white"/>
<path d="M59.9197 25.3848C60.0094 25.3848 60.0977 25.4078 60.1829 25.4546C60.2688 25.4999 60.3356 25.5665 60.3835 25.6528C60.4316 25.7385 60.4552 25.8277 60.4552 25.9211C60.4552 26.0134 60.4316 26.1025 60.3842 26.1876C60.3373 26.2728 60.2712 26.3396 60.186 26.3865C60.1011 26.4333 60.012 26.4569 59.9195 26.4569C59.8263 26.4569 59.7373 26.4333 59.6521 26.3865C59.5671 26.3392 59.5013 26.2728 59.4541 26.1876C59.4062 26.1025 59.3828 26.0134 59.3828 25.9211C59.3828 25.8277 59.4066 25.7385 59.4547 25.6528C59.503 25.5665 59.57 25.5002 59.6555 25.4546C59.7418 25.4078 59.8301 25.3848 59.9197 25.3848ZM59.9197 25.4731C59.8447 25.4731 59.7713 25.4926 59.6996 25.5317C59.6282 25.5699 59.5726 25.6251 59.5323 25.6973C59.4923 25.7686 59.4721 25.8433 59.4721 25.9207C59.4721 25.9982 59.4915 26.0723 59.5307 26.1431C59.5705 26.2136 59.6259 26.269 59.6974 26.3089C59.7681 26.3478 59.8421 26.3675 59.9197 26.3675C59.9968 26.3675 60.0713 26.3478 60.1421 26.3089C60.2128 26.269 60.2682 26.2136 60.3075 26.1431C60.347 26.0718 60.3663 25.9982 60.3663 25.9207C60.3663 25.8433 60.3462 25.7686 60.3062 25.6973C60.2663 25.6251 60.2107 25.5699 60.1389 25.5317C60.0678 25.4927 59.995 25.4731 59.9197 25.4731ZM59.6849 26.2172V25.6402H59.8834C59.951 25.6402 60.0004 25.6456 60.0303 25.6567C60.0607 25.667 60.0844 25.6855 60.1029 25.7123C60.1211 25.7388 60.1303 25.7667 60.1303 25.7967C60.1303 25.8388 60.1149 25.8756 60.0846 25.9067C60.055 25.9378 60.0152 25.9557 59.9654 25.9591C59.9852 25.9677 60.0017 25.978 60.0144 25.9896C60.0374 26.0124 60.0659 26.0506 60.0996 26.104L60.1701 26.217H60.0562L60.0054 26.1262C59.965 26.0546 59.9326 26.01 59.9079 25.9919C59.8909 25.9786 59.866 25.972 59.8333 25.972H59.7788V26.2174L59.6849 26.2172ZM59.7781 25.8925H59.8911C59.9452 25.8925 59.9817 25.8844 60.0011 25.8683C60.0208 25.8526 60.0311 25.8311 60.0311 25.8043C60.0311 25.7873 60.0264 25.772 60.017 25.7591C60.0075 25.7452 59.9942 25.7353 59.9772 25.7284C59.9602 25.7218 59.9297 25.7184 59.884 25.7184H59.7783V25.8925" fill="white"/>
<path d="M61.9557 30.9101H62.0323C62.0584 30.9101 62.083 30.9136 62.083 30.903C62.109 30.8898 62.1341 30.8695 62.1341 30.8496C62.1341 30.8289 62.1085 30.809 62.083 30.7989C62.083 30.7887 62.0323 30.7918 62.0323 30.7918H61.9557V30.9101ZM61.9557 31.1794H61.854V30.7079H62.0579C62.1085 30.7079 62.1341 30.7079 62.1852 30.7318C62.2107 30.7587 62.2358 30.8024 62.2358 30.8501C62.2358 30.9035 62.2103 30.9511 62.1592 30.9706L62.2358 31.1798H62.1085L62.0579 30.9913H61.9552V31.1794H61.9557ZM62.0323 31.3515C62.2618 31.3515 62.4657 31.1697 62.4657 30.9437C62.4657 30.7176 62.2618 30.5358 62.0323 30.5358C61.8033 30.5358 61.6245 30.7176 61.6245 30.9437C61.6245 31.1697 61.8033 31.3515 62.0323 31.3515ZM61.4717 30.9437C61.4717 30.647 61.7267 30.4082 62.0323 30.4082C62.3385 30.4082 62.593 30.647 62.593 30.9437C62.593 31.2403 62.338 31.4791 62.0323 31.4791C61.7267 31.4791 61.4717 31.2403 61.4717 30.9437Z" fill="#231F20"/>
</svg>
