<svg width="24" height="30" viewBox="0 0 24 30" fill="none" xmlns="http://www.w3.org/2000/svg">
<path fill-rule="evenodd" clip-rule="evenodd" d="M10.5533 0.108795C9.47487 0.260291 9.01091 0.367049 8.11762 0.669331C6.77386 1.12406 5.4008 1.89296 4.30565 2.80383C3.78388 3.23784 2.90538 4.14292 2.52214 4.64143C2.08742 5.20676 1.62299 5.95122 1.27164 6.64574C0.56192 8.04862 0.176196 9.45227 0.0407371 11.1246C-0.0128784 11.7871 -0.01347 12.2028 0.0383701 12.8737C0.190754 14.8467 0.729394 16.561 1.71442 18.208C2.25069 19.1047 3.18801 20.2751 3.62356 20.5919C3.80246 20.722 3.91957 20.7597 4.14433 20.7597C4.30376 20.7597 4.50964 20.7207 4.60184 20.6731C5.02289 20.4553 5.23469 19.9209 5.06284 19.5096C5.01555 19.3965 4.81186 19.1188 4.61024 18.8926C3.42313 17.5612 2.69961 16.2636 2.27004 14.6957C2.05144 13.8978 1.88372 12.7387 1.88372 12.026C1.88372 11.4348 2.02729 10.2921 2.18234 9.64904C2.44846 8.54566 2.96793 7.37789 3.65002 6.34985C4.19611 5.52686 5.47969 4.2447 6.32209 3.68079C6.96855 3.24808 7.65851 2.87212 8.21579 2.64884C8.78479 2.42089 9.70294 2.17228 10.4054 2.05594C11.2635 1.91385 12.6565 1.90343 13.4685 2.03309C15.0963 2.293 16.4858 2.84703 17.7894 3.75583C18.8392 4.48781 20.0176 5.74884 20.6559 6.82328C21.1914 7.72462 21.5971 8.71082 21.822 9.65762C21.9733 10.2948 22.1227 11.4736 22.1227 12.031C22.1227 12.633 21.9653 13.8161 21.8012 14.4478C21.5845 15.2815 21.432 15.7008 21.0872 16.4101C20.7442 17.116 20.4363 17.6147 19.9731 18.2151C19.8099 18.4266 17.6436 20.6374 15.1592 23.1278L10.642 27.6558L11.324 28.3355L12.0059 29.0151L16.5522 24.4584C19.9283 21.0745 21.2121 19.7493 21.5402 19.3099C23.0077 17.3445 23.7745 15.3202 23.9662 12.9058C24.0735 11.5545 23.923 10.0439 23.5489 8.71615C23.155 7.31824 22.3694 5.77777 21.4518 4.60409C21.0427 4.08078 20.234 3.25039 19.6964 2.80158C18.613 1.89704 17.2328 1.12418 15.8888 0.669331C14.9745 0.359948 14.5235 0.258457 13.3726 0.102996C12.3434 -0.0360731 11.5732 -0.0344753 10.5533 0.108795ZM9.18235 7.22438C9.07926 7.49199 8.79018 8.23024 8.53985 8.86492C8.28953 9.49961 7.72787 10.9243 7.29167 12.031C6.85546 13.1376 6.45932 14.1296 6.41133 14.2353C6.32404 14.4277 6.32399 14.4277 5.87701 14.4277H5.42998L5.44696 14.9751L5.46401 15.5225H7.74237H10.0207L10.0378 14.9751L10.0548 14.4277H9.72034C9.38794 14.4277 9.3861 14.4267 9.41498 14.2649C9.46078 14.0081 10.0118 12.4748 10.0583 12.4748C10.0813 12.4748 10.4183 13.0007 10.8073 13.6436C11.7623 15.222 11.9684 15.5507 12.0032 15.551C12.0195 15.5512 12.4466 14.8676 12.9522 14.032C13.4579 13.1965 13.8973 12.5043 13.9287 12.494C13.96 12.4837 14.1255 12.8825 14.2964 13.3803C14.4672 13.8781 14.607 14.3174 14.607 14.3565C14.607 14.4033 14.4957 14.4277 14.2816 14.4277H13.9561V14.9906V15.5534L16.2492 15.538L18.5424 15.5225L18.5594 14.9776L18.5764 14.4327L18.1155 14.4154L17.6547 14.3981L17.0873 12.9778C16.7751 12.1967 16.2311 10.8252 15.8782 9.93013C14.791 7.17237 14.6309 6.78481 14.5776 6.78303C14.5493 6.78203 13.9727 7.74941 13.2962 8.93268C12.6197 10.116 12.0365 11.0841 12.0001 11.0841C11.9638 11.0841 11.3789 10.1128 10.7004 8.92552C10.022 7.73829 9.44504 6.76037 9.41835 6.75232C9.39161 6.74433 9.28544 6.95678 9.18235 7.22438Z" fill="#65C916"/>
</svg>
