<svg width="31" height="39" viewBox="0 0 31 39" fill="none" xmlns="http://www.w3.org/2000/svg">
<path d="M13.7064 36.733L15.4932 38.5635L26.4652 27.3232C29.2642 24.4487 31 20.4816 31 16.1003C31 7.33077 24.0602 0.221191 15.5 0.221191C6.93984 0.221191 0 7.33077 0 16.1003C0 20.4781 1.73581 24.4557 4.52465 27.3127C4.76244 27.5563 5.07495 27.699 5.42823 27.699C6.12459 27.699 6.68847 27.1213 6.68847 26.4079C6.68847 26.046 6.53561 25.7154 6.30123 25.4753C3.97096 23.0881 2.51709 19.7577 2.51709 16.1003C2.51709 8.76799 8.33936 2.80333 15.4966 2.80333C22.6538 2.80333 28.4795 8.76799 28.4795 16.1003C28.4795 19.7682 27.0222 23.0915 24.6716 25.4997L13.7064 36.733Z" fill="#3B9670"/>
<path d="M17.9828 19.2325V20.7776H23.9715V19.2325H22.8064L18.8422 8.96313L15.4997 14.9591L12.1605 8.96313L8.19298 19.2325H7.03125V20.7776H13.02V19.2325H12.1232L12.9962 16.6712L15.4997 20.8959L18.0066 16.6712L18.8796 19.2325H17.9828Z" fill="#3B9670"/>
</svg>
