<svg width="31" height="38" viewBox="0 0 31 38" fill="none" xmlns="http://www.w3.org/2000/svg">
<path d="M13.7064 35.7817L15.4932 37.5756L26.4652 26.5601C29.2642 23.7431 31 19.8553 31 15.5616C31 6.96741 24.0602 0 15.5 0C6.93984 0 0 6.96741 0 15.5616C0 19.8518 1.73581 23.7499 4.52465 26.5498C4.76244 26.7886 5.07495 26.9284 5.42823 26.9284C6.12459 26.9284 6.68847 26.3623 6.68847 25.6631C6.68847 25.3085 6.53561 24.9845 6.30123 24.7492C3.97096 22.4096 2.51709 19.1459 2.51709 15.5616C2.51709 8.3759 8.33936 2.5305 15.4966 2.5305C22.6538 2.5305 28.4795 8.3759 28.4795 15.5616C28.4795 19.1561 27.0222 22.413 24.6716 24.773L13.7064 35.7817Z" fill="#ffa8af"/>
<path d="M17.9818 18.6312V20.1454H23.9705V18.6312H22.8054L18.8412 8.56714L15.4987 14.4432L12.1596 8.56714L8.19201 18.6312H7.03027V20.1454H13.019V18.6312H12.1222L12.9952 16.1211L15.4987 20.2613L18.0056 16.1211L18.8786 18.6312H17.9818Z" fill="#ffa8af"/>
</svg>
