<svg width="44" height="44" viewBox="0 0 44 44" fill="none" xmlns="http://www.w3.org/2000/svg">
<rect width="43.2926" height="43.2926" rx="8.97481" fill="#953478"/>
<path d="M21.6197 35.156C12.4503 35.156 5.07711 29.5476 4.7712 23.2097C4.54373 18.5191 7.00669 13.0832 12.9052 10.4477C15.1093 9.45933 18.8665 8.63572 22.5139 8.5965C23.8316 8.55728 24.867 8.12587 26.4201 8.00821C27.73 7.89055 29.4243 7.85133 30.5459 8.25137C31.9735 8.87888 32.8599 10.0633 33.8639 10.9654L32.852 11.6713L34.5933 12.6126L32.5461 12.2596L32.3579 13.0518C30.7656 12.895 29.0321 12.6126 27.4633 12.4557C25.6044 12.0321 24.0591 11.7498 22.1295 11.7027C13.87 11.585 8.27738 17.1777 8.46564 22.5744C8.65389 29.4692 17.3448 32.0341 22.6629 32.0341C37.4799 32.1204 37.7466 18.9975 32.6246 18.723C31.1578 18.6524 28.9537 28.0573 25.4004 28.018C22.357 27.9867 20.5765 19.1073 19.0861 19.1073C17.8154 19.1387 16.3722 25.4845 15.1799 27.6572C14.5289 28.873 11.0933 25.4139 11.3286 24.8648C11.5639 24.3157 12.8268 26.7865 13.721 26.01C14.3093 25.4923 15.5407 16.2678 19.0077 15.9855C22.0589 15.7502 24.2552 25.7825 25.5651 25.6805C27.181 25.6492 29.691 15.8757 32.3971 16.1502C40.9547 17.0287 40.1781 35.1638 21.6197 35.156Z" fill="white"/>
<path d="M28.7364 9.82745C29.4266 9.85883 29.709 9.81961 29.7482 9.67058C29.7874 9.5137 29.4188 9.34114 28.9246 9.21564C28.4305 9.09798 27.9912 9.27839 27.9598 9.42742C27.9128 9.5843 28.2187 9.81177 28.7364 9.82745Z" fill="#953478"/>
</svg>
