<svg width="30" height="25" viewBox="0 0 30 25" fill="none" xmlns="http://www.w3.org/2000/svg">
<path d="M4 1C4 0.447715 4.44772 0 5 0H25C25.5523 0 26 0.447715 26 1C26 1.55228 25.5523 2 25 2H5C4.44772 2 4 1.55228 4 1Z" fill="#318964"/>
<path d="M4 23C4 21.8954 4.89543 21 6 21H24C25.1046 21 26 21.8954 26 23C26 24.1046 25.1046 25 24 25H6C4.89543 25 4 24.1046 4 23Z" fill="#318964"/>
<g filter="url(#filter0_d)">
<path d="M4 6C4 4.89543 4.89543 4 6 4H24C25.1046 4 26 4.89543 26 6V16C26 17.1046 25.1046 18 24 18H6C4.89543 18 4 17.1046 4 16V6Z" fill="white"/>
</g>
<path fill-rule="evenodd" clip-rule="evenodd" d="M24 7H12V6H24V7Z" fill="#3B9670"/>
<path fill-rule="evenodd" clip-rule="evenodd" d="M18 9H12V8H18V9Z" fill="#3B9670"/>
<path fill-rule="evenodd" clip-rule="evenodd" d="M18 13H12V12H18V13Z" fill="#3B9670"/>
<path fill-rule="evenodd" clip-rule="evenodd" d="M22 11H12V10H22V11Z" fill="#3B9670"/>
<path d="M6 7C6 6.44772 6.44772 6 7 6H8C8.55228 6 9 6.44772 9 7V8C9 8.55228 8.55228 9 8 9H7C6.44772 9 6 8.55228 6 8V7Z" fill="#3B9670"/>
<defs>
<filter id="filter0_d" x="0" y="2" width="30" height="22" filterUnits="userSpaceOnUse" color-interpolation-filters="sRGB">
<feFlood flood-opacity="0" result="BackgroundImageFix"/>
<feColorMatrix in="SourceAlpha" type="matrix" values="0 0 0 0 0 0 0 0 0 0 0 0 0 0 0 0 0 0 127 0"/>
<feOffset dy="2"/>
<feGaussianBlur stdDeviation="2"/>
<feColorMatrix type="matrix" values="0 0 0 0 0 0 0 0 0 0 0 0 0 0 0 0 0 0 0.15 0"/>
<feBlend mode="normal" in2="BackgroundImageFix" result="effect1_dropShadow"/>
<feBlend mode="normal" in="SourceGraphic" in2="effect1_dropShadow" result="shape"/>
</filter>
</defs>
</svg>
