<svg width="67" height="53" viewBox="0 0 67 53" fill="none" xmlns="http://www.w3.org/2000/svg">
<path fill-rule="evenodd" clip-rule="evenodd" d="M2.30792 0.738316C1.59175 1.09697 1.02664 1.73431 0.760011 2.48402C0.628061 2.85508 0.592051 6.09248 0.587501 17.9786L0.581781 33.004H33.6017H66.6217V18.0277C66.6217 1.74241 66.6554 2.51394 65.9011 1.52016C65.7138 1.27335 65.2613 0.921497 64.8956 0.738316L64.2306 0.405273H33.6017H2.97287L2.30792 0.738316ZM30.3831 4.38546C30.865 4.48815 31.6311 4.78109 32.0856 5.03652C33.2405 5.68562 33.9075 5.6766 35.1968 4.99406C36.287 4.41695 37.6731 4.12153 38.7608 4.23442C40.7719 4.44308 42.5 6.0866 43.31 8.5611C43.6117 9.48262 43.6549 9.8239 43.6497 11.2498C43.6429 13.1106 43.3952 14.2667 42.6367 15.974C42.3865 16.5375 41.9801 17.4544 41.7338 18.0112C41.0661 19.5206 40.6663 21.064 40.4362 23.0205C40.0193 26.5662 39.9513 26.9792 39.7041 27.4662C39.188 28.4831 38.2244 28.9895 37.0573 28.8573C35.4705 28.6775 34.466 27.1378 33.902 24.0214C33.7753 23.3207 33.6401 22.7475 33.6017 22.7475C33.5634 22.7475 33.4282 23.3207 33.3014 24.0214C32.7375 27.1378 31.733 28.6775 30.1462 28.8573C28.9834 28.989 28.0102 28.4801 27.5093 27.4784C27.2124 26.8847 27.1583 26.5867 26.9055 24.1446C26.5702 20.9071 26.2488 19.6919 25.0162 16.9986C24.1466 15.0985 23.8096 14.0637 23.5902 12.6188C23.185 9.95037 24.0869 6.99754 25.772 5.47565C27.0709 4.30236 28.4557 3.97494 30.3831 4.38546ZM27.9468 6.51999C26.4117 7.24801 25.369 9.62935 25.5965 11.8871C25.7326 13.2387 26.0234 14.1856 26.8605 16.0041C28.2044 18.9236 28.629 20.5358 28.9969 24.1176C29.2477 26.5585 29.3154 26.7979 29.7541 26.7979C30.4485 26.7979 30.8907 25.6949 31.4571 22.5515C31.8662 20.2805 32.0908 19.5826 32.566 19.1049C33.4807 18.1856 34.7395 18.659 35.2154 20.1011C35.3281 20.4427 35.5688 21.5598 35.7501 22.5835C36.2961 25.6662 36.7524 26.7979 37.4493 26.7979C37.8903 26.7979 37.9574 26.556 38.2113 24.0507C38.556 20.6477 39.0335 18.8076 40.2369 16.2434C41.4492 13.6604 41.8433 11.789 41.5363 10.0738C41.2303 8.36434 40.2501 6.90504 39.1154 6.46956C38.1489 6.09849 37.3429 6.26691 35.3713 7.2518C32.4208 8.72586 30.7085 8.90904 30.4268 7.78096C30.3763 7.57883 30.42 7.28485 30.5349 7.05333C30.7215 6.67743 30.7165 6.66071 30.3814 6.53267C29.6759 6.26299 28.5015 6.25698 27.9468 6.51999ZM0.893911 35.3569L0.567871 35.6846L0.607391 39.7012C0.646651 43.7091 0.647431 43.7192 0.971781 44.2997C1.39753 45.0619 2.22537 45.6833 3.05256 45.8617C3.98817 46.0633 63.2153 46.0633 64.1509 45.8617C64.9781 45.6833 65.806 45.0619 66.2317 44.2997C66.5561 43.7192 66.5568 43.7091 66.5961 39.7012L66.6356 35.6846L66.3096 35.3569L65.9835 35.0292H33.6017H1.21995L0.893911 35.3569ZM35.2326 39.7923C35.62 40.1815 35.6492 40.7589 35.3032 41.1882C35.0689 41.4791 34.9719 41.4967 33.6017 41.4967C32.2315 41.4967 32.1346 41.4791 31.9003 41.1882C31.5542 40.7589 31.5835 40.1815 31.9709 39.7923C32.2674 39.4941 32.3823 39.4715 33.6017 39.4715C34.8211 39.4715 34.9361 39.4941 35.2326 39.7923ZM26.5818 49.3361V50.5773H25.4667C24.4078 50.5773 24.3326 50.5965 23.9717 50.9592C23.5028 51.4305 23.4815 51.9156 23.9109 52.3471L24.2299 52.6678H33.5815C42.2965 52.6678 42.9516 52.6523 43.2069 52.4392C43.3576 52.3135 43.5172 52.0219 43.5616 51.7911C43.629 51.4402 43.5777 51.3069 43.247 50.9745C42.8681 50.5938 42.8056 50.5773 41.7367 50.5773H40.6217V49.3361V48.0948H33.6017H26.5818V49.3361Z" fill="#389DAC"/>
</svg>
