<svg width="63" height="53" viewBox="0 0 63 53" fill="none" xmlns="http://www.w3.org/2000/svg">
<path fill-rule="evenodd" clip-rule="evenodd" d="M30.0239 0.539013C28.9426 0.718867 27.5269 1.22809 26.4656 1.81893C25.1029 2.57747 23.2393 4.4061 22.5034 5.70697C20.0704 10.0068 20.7635 15.1896 24.2327 18.6394C26.2928 20.6881 28.861 21.7421 31.7922 21.7421C34.7235 21.7421 37.2916 20.6881 39.3517 18.6394C42.8209 15.1896 43.514 10.0068 41.0811 5.70697C40.3451 4.4061 38.4815 2.57747 37.1189 1.81893C34.9639 0.619309 32.3625 0.150053 30.0239 0.539013ZM10.8749 10.6429C8.48244 11.2662 6.42574 13.0568 5.48486 15.3356C5.03645 16.4212 4.8999 17.1437 4.90135 18.4209C4.90293 19.7112 5.1373 20.7234 5.70652 21.8965C6.70103 23.9465 8.70228 25.5543 10.9699 26.125C11.9966 26.3834 13.8172 26.3773 14.8438 26.1121C16.6348 25.6494 18.5267 24.3244 19.5523 22.8146C21.1871 20.4081 21.3471 17.2135 19.965 14.5772C19.3487 13.4017 17.8782 11.9394 16.696 11.3265C14.933 10.4125 12.7453 10.1556 10.8749 10.6429ZM48.6457 10.6429C46.5947 11.1772 44.5717 12.7607 43.6194 14.5772C42.5134 16.6868 42.378 19.1515 43.2484 21.3281C44.1603 23.6084 46.3153 25.4855 48.7407 26.1121C49.7673 26.3773 51.5879 26.3834 52.6146 26.125C55.4731 25.4056 57.7491 23.1419 58.4843 20.2869C58.7114 19.405 58.7463 17.6073 58.5536 16.72C57.9188 13.7987 55.574 11.3779 52.6619 10.6373C51.4528 10.3298 49.8388 10.332 48.6457 10.6429ZM24.4681 24.1809C22.6303 24.5963 21.4169 25.27 20.0384 26.6407C18.8911 27.7817 18.2719 28.7623 17.7634 30.2431L17.4466 31.1661L17.4145 41.2783C17.383 51.2183 17.3865 51.3973 17.6253 51.7829C17.7588 51.9987 18.0456 52.2828 18.2627 52.4144C18.6499 52.6493 18.8986 52.6537 31.7922 52.6537C44.6859 52.6537 44.9345 52.6493 45.3218 52.4144C45.5389 52.2828 45.8256 51.9987 45.9592 51.7829C46.1979 51.3973 46.2014 51.2183 46.1699 41.2783L46.1379 31.1661L45.821 30.2431C45.3126 28.7623 44.6934 27.7817 43.5461 26.6407C42.3981 25.4993 41.4112 24.8831 39.9235 24.3792L38.9953 24.0649L32.0949 24.0408C26.6349 24.0219 25.0428 24.0512 24.4681 24.1809ZM8.56754 28.7074C5.10437 29.1541 2.23573 31.6166 1.14558 35.0786C0.862539 35.9776 0.861328 36.0084 0.861328 42.2414V48.5013L1.14195 49.1923C1.7102 50.5916 2.87783 51.7522 4.28249 52.3143C4.95873 52.5849 5.09941 52.5934 9.54086 52.6301L14.1044 52.6678L13.9634 52.27C13.774 51.7348 13.6872 33.3495 13.8663 31.7078C13.935 31.0788 14.0806 30.2391 14.1899 29.8419C14.2993 29.4446 14.4157 28.9977 14.4488 28.8487L14.5088 28.5778L11.9222 28.5931C10.4995 28.6015 8.98992 28.6529 8.56754 28.7074ZM49.1357 28.8487C49.1687 28.9977 49.2852 29.4446 49.3945 29.8419C49.5038 30.2391 49.6495 31.0788 49.7181 31.7078C49.8973 33.3495 49.8105 51.7348 49.621 52.27L49.4801 52.6678L54.0436 52.6301C58.485 52.5934 58.6257 52.5849 59.302 52.3143C60.7066 51.7522 61.8742 50.5916 62.4425 49.1923L62.7231 48.5013V42.2414C62.7231 35.9946 62.7225 35.9795 62.4369 35.0786C61.5192 32.184 59.4734 30.0472 56.7321 29.12C55.5048 28.705 54.2744 28.5778 51.4839 28.5778H49.0756L49.1357 28.8487Z" fill="#389DAC"/>
</svg>
