<svg width="40" height="54" viewBox="0 0 40 54" fill="none" xmlns="http://www.w3.org/2000/svg">
<path fill-rule="evenodd" clip-rule="evenodd" d="M18.6035 0.997447C10.3255 1.6773 3.3724 7.48056 1.24712 15.4836C0.808658 17.1343 0.639486 18.5156 0.63305 20.4966C0.627022 22.3689 0.734595 23.4743 1.10022 25.298C2.67763 33.1658 8.35226 42.3706 16.8194 50.796C20.0878 54.0483 20.0819 54.0483 23.3503 50.796C31.8174 42.3706 37.492 33.1658 39.0695 25.298C39.4351 23.4743 39.5426 22.3689 39.5366 20.4966C39.5302 18.5156 39.361 17.1343 38.9225 15.4836C36.9425 8.0274 30.7118 2.39261 23.1195 1.19206C22.1045 1.03157 19.536 0.920931 18.6035 0.997447ZM21.464 15.153C22.6482 15.447 24.1416 16.6057 24.7652 17.7144C25.2925 18.6522 25.4451 19.2649 25.4451 20.4456C25.4451 22.1037 24.9898 23.195 23.8115 24.3618C22.7586 25.4045 21.5863 25.8829 20.0848 25.8829C18.5833 25.8829 17.4111 25.4045 16.3581 24.3618C15.1798 23.195 14.7245 22.1037 14.7245 20.4456C14.7245 18.8059 15.1747 17.7102 16.318 16.5669C17.6661 15.2189 19.5944 14.689 21.464 15.153Z" fill="#389DAC"/>
</svg>
