<svg width="53" height="54" viewBox="0 0 53 54" fill="none" xmlns="http://www.w3.org/2000/svg">
<path fill-rule="evenodd" clip-rule="evenodd" d="M29.6141 1.10261C28.4941 1.41384 27.4208 2.26495 26.7874 3.34428C26.5918 3.67767 25.7254 5.79589 24.8623 8.05135C23.999 10.3068 23.1753 12.4309 23.0317 12.7716C21.9863 15.252 19.2779 18.31 15.377 21.4144L14.0741 22.4511L14.0733 36.4489L14.0725 50.4467L15.4553 50.879C18.624 51.8696 22.1781 52.6055 25.6776 52.9959C27.9976 53.2546 43.2417 53.3305 44.2866 53.0885C46.0351 52.6835 47.5365 51.3311 48.2018 49.5619C48.5989 48.5056 48.5147 46.809 48.0099 45.6972C47.7204 45.0595 47.7134 45.0148 47.8864 44.9001C48.9804 44.1751 49.6994 43.4304 50.1409 42.5651C50.8985 41.0803 50.8493 38.9763 50.0233 37.5455L49.777 37.1187L50.3233 36.6833C51.8224 35.4887 52.6012 33.5402 52.3223 31.6818C52.1159 30.3051 51.0852 28.6573 50.0455 28.0411L49.7717 27.8789L50.0595 27.3093C50.6852 26.0711 50.8514 24.6463 50.5191 23.366C50.0845 21.6912 48.5774 20.161 46.7917 19.5818C46.2831 19.4169 45.6414 19.3957 40.084 19.361L33.9387 19.3226L34.1833 18.1298C34.5045 16.564 35.0839 13.043 35.2535 11.6272C35.3293 10.9933 35.3875 9.45866 35.3868 8.10435C35.3858 5.95263 35.3617 5.60974 35.1542 4.7859C34.8514 3.58394 34.5371 2.91714 33.9981 2.33316C33.0004 1.2522 31.0479 0.704164 29.6141 1.10261ZM0.881556 24.1615C0.69567 24.2879 0.447311 24.521 0.329624 24.6795L0.115723 24.9679V36.849V48.73L0.330953 49.0184C0.449254 49.177 0.702316 49.3986 0.893314 49.5109C1.22725 49.7073 1.42429 49.7151 6.0972 49.7151H10.9539L10.9799 36.8234L11.0059 23.9318H6.11274H1.21959L0.881556 24.1615Z" fill="#389DAC"/>
</svg>
