<svg width="59" height="54" viewBox="0 0 59 54" fill="none" xmlns="http://www.w3.org/2000/svg">
<path fill-rule="evenodd" clip-rule="evenodd" d="M6.97187 1.11533C4.23224 1.71315 1.81496 3.72988 0.71535 6.33531C0.180631 7.60202 0.039765 8.64095 0.039765 11.3156V13.7655L1.02475 13.7042C1.8083 13.6554 2.25382 13.5448 3.20294 13.1631C4.84 12.5049 5.60205 12.3176 6.99016 12.2326C10.8593 11.9955 13.7123 13.9979 14.5859 17.5637C15.0351 19.3972 14.939 21.5585 14.2955 24.0964C13.7866 26.1034 13.2194 27.5127 11.6255 30.7297C10.005 34.0005 9.75866 34.6784 9.12654 37.6074C8.12445 42.2499 7.76219 43.3714 7.0113 44.1556C6.8025 44.3737 6.49808 44.6043 6.33477 44.6682C5.88699 44.8434 5.05225 44.809 4.73619 44.6024C4.00229 44.1228 3.55083 42.3418 3.06647 38.0144C2.89508 36.4834 2.67713 34.7777 2.582 34.2239C2.20869 32.0509 1.59748 30.9073 0.809181 30.9073C-0.0254416 30.9073 0.039765 30.2889 0.039765 38.2097C0.039765 44.2948 0.0681519 45.5051 0.228853 46.281C0.605959 48.1019 1.50436 49.6828 2.88095 50.948C3.90122 51.8859 4.74118 52.3911 6.06622 52.8639L7.1068 53.2352H29.1393H51.1718L52.2124 52.8639C53.5617 52.3825 54.4098 51.8722 55.4109 50.9395C56.7909 49.6539 57.6742 48.0946 58.0498 46.281C58.2105 45.5051 58.2389 44.2948 58.2389 38.2097C58.2389 30.2889 58.3041 30.9073 57.4694 30.9073C56.683 30.9073 56.0864 32.0218 55.6938 34.2239C55.5951 34.7777 55.3753 36.4834 55.2055 38.0144C54.7607 42.0244 54.4185 43.5754 53.8118 44.3312C53.2941 44.9763 52.0851 44.9389 51.3691 44.256C50.5648 43.4888 50.2082 42.4823 49.3963 38.6876C48.5625 34.7911 48.3162 34.076 46.6556 30.7297C45.0546 27.5037 44.4943 26.1106 43.9733 24.0609C42.868 19.7126 43.4074 16.3014 45.536 14.1762C46.9582 12.7564 48.9354 12.0883 51.2885 12.2326C52.6766 12.3176 53.4386 12.5049 55.0757 13.1631C56.0248 13.5448 56.4703 13.6554 57.2539 13.7042L58.2389 13.7655V11.3156C58.2389 8.64059 58.0985 7.60628 57.5622 6.32915C57.1145 5.2631 56.3181 4.13948 55.4109 3.29434C54.4098 2.36166 53.5617 1.85138 52.2124 1.37L51.1718 0.998655L29.4362 0.977571C11.6305 0.960159 7.56895 0.985152 6.97187 1.11533ZM15.4142 5.70385C15.6793 6.08124 15.6435 6.33614 15.2861 6.61639C14.983 6.85424 14.842 6.86194 10.7992 6.86194C6.19022 6.86194 6.09722 6.84796 6.09722 6.15302C6.09722 5.43189 6.03914 5.44054 10.8499 5.44054H15.2294L15.4142 5.70385ZM15.4142 8.54666C15.6793 8.92404 15.6435 9.17895 15.2861 9.4592C14.983 9.69705 14.842 9.70475 10.7992 9.70475C6.19022 9.70475 6.09722 9.69077 6.09722 8.99582C6.09722 8.2747 6.03914 8.28334 10.8499 8.28334H15.2294L15.4142 8.54666ZM24.1674 12.3789C24.7136 12.4815 25.775 12.8138 26.5263 13.1173C27.8512 13.6526 27.9296 13.6692 29.1393 13.6692C30.349 13.6692 30.4274 13.6526 31.7523 13.1173C34.7022 11.9256 37.2584 11.8928 39.5464 13.0173C42.4082 14.424 43.7394 17.8322 43.1042 22.1252C42.6887 24.9332 41.5469 27.972 39.3593 32.0918C38.4468 33.8106 37.9986 35.276 37.1502 39.3173C36.2746 43.4881 35.543 44.7723 34.0361 44.7839C33.2564 44.7899 32.9966 44.6075 32.5767 43.7592C32.1439 42.8843 31.8456 41.3803 31.5197 38.4289C31.0718 34.3725 30.7838 32.7522 30.3633 31.9194C29.6774 30.5615 28.6013 30.5615 27.9153 31.9194C27.4924 32.7568 27.1925 34.4374 26.7643 38.3697C26.4391 41.3559 26.1398 42.8741 25.7019 43.7592C25.2817 44.6084 25.0224 44.7899 24.2394 44.7839C23.3171 44.7768 22.8371 44.3915 22.2627 43.1974C21.7945 42.2239 21.595 41.4905 20.7567 37.659C20.1295 34.7923 19.744 33.7186 18.3876 31.0619C15.8907 26.1712 14.9006 22.7793 15.0408 19.5953C15.1446 17.2376 15.738 15.6554 17.0387 14.2686C18.6478 12.5532 21.3226 11.8442 24.1674 12.3789ZM4.375 18.4838C3.98305 18.5407 3.34167 18.6988 2.94972 18.8352C2.5276 18.9822 1.78918 19.1098 1.13842 19.1482L0.039765 19.2131V23.7489V28.2848L0.393829 28.1837C1.57527 27.8458 3.19451 29.3676 3.88221 31.4623C4.33533 32.8425 4.52739 34.0647 4.72954 36.8564C4.82991 38.2425 4.94464 39.5897 4.98443 39.8503C5.15178 40.9472 5.62141 41.5572 6.03486 41.215C6.32206 40.9773 6.56887 40.0259 6.81806 38.1957C7.61741 32.3271 7.59199 32.4403 8.77426 29.4729C10.1292 26.072 10.5364 24.158 10.2624 22.4757C9.87529 20.0982 8.67283 18.8361 6.45354 18.478C5.58329 18.3375 5.38007 18.3381 4.375 18.4838ZM23.41 18.4684C22.2035 18.6829 21.6222 18.9591 20.9348 19.6447C20.1764 20.401 19.8313 21.1665 19.6107 22.5811C19.3448 24.2872 19.7698 26.2033 21.1773 29.6437C22.0529 31.7839 22.2881 32.6539 22.6002 34.9068C23.3749 40.4971 23.4021 40.6402 23.7751 41.0996C23.9232 41.282 24.0604 41.3379 24.2292 41.2845C24.7062 41.1335 24.9035 40.2553 25.0967 37.4221C25.4787 31.8218 26.2463 29.5736 28.1579 28.4564C29.1183 27.8951 30.0931 28.1512 31.0425 29.2144C32.323 30.6482 32.8604 32.6893 33.172 37.3036C33.2402 38.3134 33.3292 39.4061 33.3697 39.7319C33.5313 41.0313 34.0505 41.6575 34.5035 41.0996C34.8775 40.639 34.8958 40.5423 35.6614 34.9939C35.9883 32.6247 36.1436 32.0563 37.166 29.4859C37.6454 28.2807 38.1741 26.7882 38.3409 26.1693C39.3384 22.4674 38.3089 19.4386 35.8067 18.7142C35.3733 18.5888 34.7673 18.4529 34.46 18.4124C33.7433 18.318 32.1908 18.53 31.3105 18.8426C30.889 18.9923 30.1883 19.1102 29.4955 19.148C28.3653 19.2097 28.3023 19.2 26.3391 18.6599C25.5337 18.4384 24.1044 18.345 23.41 18.4684ZM52.0032 18.4343C49.6849 18.7408 48.4147 20.0285 48.0162 22.4757C47.7456 24.1379 48.1554 26.0983 49.4431 29.3002C50.651 32.3041 50.7527 32.7272 51.2946 37.0075C51.6118 39.5118 51.8405 40.623 52.1295 41.0628C52.4257 41.5136 52.7852 41.386 53.0543 40.7346C53.2861 40.1732 53.3389 39.7599 53.5491 36.8564C53.8248 33.0496 54.2553 31.1965 55.1838 29.8201C56.0046 28.6034 57.187 27.8967 57.9304 28.1786L58.2389 28.2955V23.7381V19.1808H57.4207C56.8994 19.1808 56.2291 19.0729 55.573 18.8832C54.0397 18.4401 52.9731 18.306 52.0032 18.4343ZM48.9948 44.2513C49.2983 44.5252 49.2741 45.0646 48.948 45.2923C48.7211 45.4509 48.0885 45.4767 44.4346 45.4767C40.3436 45.4767 40.1764 45.4678 39.9477 45.2398C39.6623 44.9552 39.6463 44.6729 39.8951 44.3186L40.0799 44.0553H44.4288C48.3088 44.0553 48.8011 44.0764 48.9948 44.2513ZM48.9948 47.0942C49.2983 47.368 49.2741 47.9074 48.948 48.1351C48.7211 48.2937 48.0885 48.3195 44.4346 48.3195C40.3436 48.3195 40.1764 48.3106 39.9477 48.0826C39.6623 47.798 39.6463 47.5157 39.8951 47.1614L40.0799 46.8981H44.4288C48.3088 46.8981 48.8011 46.9192 48.9948 47.0942Z" fill="#389DAC"/>
</svg>
