<svg width="53" height="53" viewBox="0 0 53 53" fill="none" xmlns="http://www.w3.org/2000/svg">
<path fill-rule="evenodd" clip-rule="evenodd" d="M24.7202 3.25905C23.4557 5.85664 23.305 6.11836 23.0416 6.1744C22.7066 6.24569 17.0981 7.05315 16.9381 7.05315C16.8793 7.05315 17.8858 8.0801 19.1747 9.33521L21.5181 11.6174L20.9801 14.7685C20.6843 16.5016 20.4572 17.9345 20.4755 17.9528C20.4937 17.9711 21.7857 17.3169 23.3466 16.499L26.1845 15.0119L29.019 16.4962C30.5781 17.3126 31.8674 17.9668 31.8842 17.95C31.9009 17.9333 31.6726 16.5015 31.3767 14.7683L30.8388 11.617L33.1847 9.33511C34.475 8.07999 35.474 7.05315 35.4048 7.05315C35.2764 7.05315 29.9842 6.28783 29.3684 6.18023C29.0383 6.12255 28.9957 6.05075 27.6387 3.26314C26.8735 1.69138 26.2164 0.405273 26.1785 0.405273C26.1405 0.405273 25.4843 1.68944 24.7202 3.25905ZM8.17048 13.6618C7.21758 15.6247 6.73679 16.509 6.59381 16.561C6.48079 16.6023 4.94299 16.8347 3.17649 17.0776C0.197118 17.4875 -0.0208304 17.5311 0.163776 17.6813C1.11504 18.4553 4.90525 22.0409 4.90525 22.1668C4.90525 22.2557 4.67278 23.6833 4.38876 25.3393C4.10464 26.9953 3.88689 28.3649 3.9049 28.3829C3.9229 28.4009 5.21524 27.747 6.77688 26.9298L9.61604 25.4439L12.4506 26.9283C14.0096 27.7446 15.2988 28.3989 15.3156 28.3821C15.3324 28.3653 15.104 26.9337 14.8082 25.2005L14.2703 22.0494L16.6137 19.7673C17.9026 18.5121 18.8905 17.4841 18.8091 17.4828C18.5232 17.478 12.5824 16.5809 12.5 16.5299C12.4541 16.5015 11.8004 15.2091 11.0475 13.6579C10.2944 12.1066 9.64754 10.8373 9.6099 10.8373C9.57226 10.8373 8.92445 12.1083 8.17048 13.6618ZM41.2907 13.6908C40.0242 16.294 39.877 16.5497 39.6117 16.6062C39.2791 16.6769 33.6679 17.4852 33.5093 17.4852C33.452 17.4852 34.4584 18.5123 35.7458 19.7676L38.0865 22.0499L37.5487 25.2008C37.2528 26.9338 37.0252 28.366 37.0428 28.3836C37.0604 28.4012 38.3524 27.747 39.914 26.9298L42.7532 25.4439L45.5877 26.9283C47.1467 27.7446 48.4364 28.3986 48.4535 28.3814C48.4706 28.3642 48.2523 26.9953 47.9682 25.3393C47.6841 23.6833 47.4517 22.2555 47.4517 22.1664C47.4517 22.0775 48.553 20.9998 49.899 19.7718C51.245 18.5436 52.3374 17.53 52.3265 17.519C52.3156 17.508 50.9266 17.3108 49.2398 17.0806C47.5532 16.8505 46.0418 16.6356 45.8811 16.603C45.6134 16.5487 45.4732 16.3056 44.2014 13.6905C43.4382 12.1213 42.7834 10.8373 42.7463 10.8373C42.7093 10.8373 42.0542 12.1214 41.2907 13.6908ZM24.5941 22.0529C22.1842 22.5692 19.9954 24.3936 19.0785 26.6503C18.3366 28.476 18.3408 30.6841 19.0896 32.463C20.0564 34.76 22.2637 36.6006 24.5779 37.0397C25.2676 37.1705 25.3929 37.3266 24.8081 37.3266C24.6235 37.3266 24.1301 37.4141 23.7115 37.5212C19.7313 38.5391 16.8174 41.4238 15.7435 45.409C15.5299 46.2019 15.5062 46.5477 15.465 49.4717L15.42 52.6678H26.1785H36.9369L36.8923 49.4717C36.8529 46.6481 36.8231 46.1858 36.6367 45.5054C35.6931 42.0601 33.507 39.4461 30.474 38.1366C29.5294 37.7287 28.0755 37.3266 27.5458 37.3266C27.0227 37.3266 27.0515 37.1548 27.5867 37.0815C28.899 36.9017 30.4996 36.0455 31.591 34.9394C32.9995 33.5119 33.6813 31.9846 33.8135 29.9607C34.0973 25.6174 30.4945 21.8455 26.106 21.8914C25.6677 21.8959 24.9874 21.9686 24.5941 22.0529ZM9.32373 31.2946C8.20423 31.5879 7.4116 32.0519 6.53817 32.9253C5.65226 33.8112 5.19827 34.5958 4.90269 35.7511C4.64629 36.7538 4.64629 37.6948 4.90269 38.6975C5.19827 39.8528 5.65226 40.6374 6.53817 41.5233C7.41416 42.3992 8.20955 42.8638 9.32373 43.1504C10.1159 43.3541 10.1086 43.3713 9.14966 43.5653C7.74522 43.8494 6.41923 44.6138 5.31077 45.7781C3.78012 47.386 3.16657 49.0196 3.16657 51.4874V52.6678H7.76895H12.3713L12.3719 49.932C12.3726 47.0695 12.477 45.9424 12.8716 44.5404C12.9818 44.1486 13.0532 43.7976 13.0303 43.7604C12.973 43.6678 12.1359 43.4631 11.8146 43.4631C11.6708 43.4631 11.5531 43.417 11.5531 43.3608C11.5531 43.3045 11.6673 43.2585 11.8067 43.2585C11.9461 43.2585 12.3535 43.1623 12.7119 43.0446L13.3636 42.8306L13.7112 42.1024C14.2444 40.9857 15.1462 39.6689 16.1049 38.6074C16.969 37.6506 16.9737 37.6424 16.9737 37.0933C16.9737 36.347 16.6415 35.0984 16.2381 34.3285C15.8035 33.4988 14.5627 32.258 13.733 31.8233C12.3798 31.1144 10.7553 30.9195 9.32373 31.2946ZM40.0062 31.2946C39.5957 31.4022 38.9744 31.6397 38.6255 31.8224C37.7941 32.258 36.5539 33.498 36.1188 34.3285C35.7154 35.0984 35.3832 36.347 35.3832 37.0933C35.3832 37.6424 35.3879 37.6506 36.252 38.6074C37.2108 39.6689 38.1125 40.9857 38.6457 42.1024L38.9933 42.8306L39.645 43.0446C40.0034 43.1623 40.4108 43.2585 40.5502 43.2585C40.6897 43.2585 40.8038 43.3045 40.8038 43.3608C40.8038 43.417 40.6861 43.4631 40.5423 43.4631C40.221 43.4631 39.3839 43.6678 39.3266 43.7604C39.3037 43.7976 39.3751 44.1486 39.4854 44.5404C39.8799 45.9424 39.9844 47.0695 39.985 49.932L39.9856 52.6678H44.588H49.1903V51.4874C49.1903 49.5677 48.8213 48.2246 47.9128 46.8381C46.8316 45.1879 45.0317 43.9363 43.2073 43.5658C42.2482 43.371 42.2412 43.3541 43.0332 43.1504C44.1474 42.8638 44.9428 42.3992 45.8187 41.5233C46.7047 40.6374 47.1586 39.8528 47.4542 38.6975C47.8232 37.2545 47.6317 35.6855 46.9207 34.3285C46.486 33.4988 45.2452 32.258 44.4155 31.8233C43.0623 31.1144 41.4378 30.9195 40.0062 31.2946Z" fill="#389DAC"/>
</svg>
