<svg width="50" height="50" viewBox="0 0 50 50" fill="none" xmlns="http://www.w3.org/2000/svg">
<rect width="50" height="50" rx="25" fill="#389DAC"/>
<path d="M17.2284 35C17.023 35 16.855 34.9347 16.7244 34.804C16.5937 34.6733 16.5284 34.5053 16.5284 34.3V16.1C16.5284 15.8947 16.5937 15.7267 16.7244 15.596C16.8737 15.4653 17.0417 15.4 17.2284 15.4H32.7684C32.9737 15.4 33.1417 15.4653 33.2724 15.596C33.403 15.7267 33.4684 15.8947 33.4684 16.1V34.3C33.4684 34.5053 33.403 34.6733 33.2724 34.804C33.1417 34.9347 32.9737 35 32.7684 35H29.1564C28.951 35 28.783 34.9347 28.6524 34.804C28.5217 34.6733 28.4564 34.5053 28.4564 34.3V19.88H21.5684V34.3C21.5684 34.5053 21.4937 34.6733 21.3444 34.804C21.2137 34.9347 21.0457 35 20.8404 35H17.2284Z" fill="white"/>
</svg>
