<svg width="56" height="49" viewBox="0 0 56 49" fill="none" xmlns="http://www.w3.org/2000/svg">
<path fill-rule="evenodd" clip-rule="evenodd" d="M39.5536 0.109137C39.403 0.168481 38.0471 1.44433 36.5406 2.94417C34.276 5.19881 33.7255 5.69199 33.3631 5.79039C32.755 5.9557 23.0049 5.95383 22.4064 5.78831C22.0462 5.6887 21.4807 5.18302 19.229 2.94658C16.2969 0.0343261 16.2002 -0.0346712 15.3205 0.154002C14.8797 0.248448 14.2935 0.819403 6.01621 9.21733L0 15.321V16.0597V16.7984L2.43797 19.28C5.28781 22.1807 5.42805 22.3933 5.60347 24.0788C5.77144 25.6911 5.98871 26.6107 6.40276 27.4617L6.77452 28.2257L6.56119 28.5257C5.45062 30.0871 5.4103 32.5291 6.46861 34.1288C7.2003 35.2346 8.46963 36.087 9.71069 36.3058L10.3734 36.4228L10.4991 37.0997C10.8301 38.8816 12.1124 40.3446 13.8679 40.9435C14.1563 41.0419 14.5286 41.1224 14.695 41.1224C15.0617 41.1224 15.0931 41.1681 15.2333 41.9087C15.5928 43.8066 17.124 45.3834 19.0486 45.8378C19.6085 45.97 20.8165 45.941 21.4848 45.7793C21.7422 45.717 21.7971 45.7679 22.084 46.3356C23.377 48.8942 26.7838 49.7982 29.1664 48.2148C29.8928 47.7322 31.2404 46.3449 31.5279 45.7839L31.7302 45.3889L31.9989 45.599C33.5013 46.774 35.8133 46.9342 37.465 45.9777C38.6743 45.2775 39.5447 44.0971 39.8427 42.7532C39.9413 42.3087 40.0388 41.9256 40.0594 41.9016C40.0801 41.8777 40.3559 41.8172 40.6723 41.7672C42.5627 41.4679 44.4169 39.561 44.6525 37.6738L44.7242 37.0986L45.3985 36.973C46.9245 36.6889 48.2701 35.6584 48.9326 34.2665C49.6396 32.7808 49.6179 31.2396 48.8691 29.7611L48.4143 28.8631L48.7499 28.3172C49.5156 27.0713 50.0016 25.4848 50.1367 23.7902C50.1776 23.2777 50.2661 22.7266 50.3333 22.5656C50.4006 22.4045 51.6724 21.0167 53.1596 19.4816C56.1247 16.421 56.1942 16.317 55.868 15.4326C55.7534 15.1218 53.8763 13.1577 48.43 7.65014C43.9935 3.16367 41.0068 0.225522 40.7912 0.135354C40.3824 -0.0356587 39.9445 -0.0448728 39.5536 0.109137ZM46.1458 10.0247L52.0259 15.9485L49.92 18.0872C47.2214 20.8276 47.0761 21.0932 46.8008 23.7908C46.7032 24.7479 46.214 26.4234 46.0322 26.4234C45.9937 26.4234 44.1731 24.6318 41.9865 22.442L38.0108 18.4607L38.7824 17.9328C40.1694 16.984 41.8308 14.9425 42.0308 13.9411C42.1287 13.4511 41.8119 12.6647 41.3978 12.3695C40.9398 12.0429 40.2341 11.9803 39.7271 12.2212C39.4325 12.3611 39.1578 12.6629 38.7224 13.3248C37.9827 14.4494 37.2417 15.1154 36.1023 15.6803C35.0298 16.2118 34.2138 16.3719 32.9249 16.3034C32.101 16.2597 31.7314 16.172 30.6787 15.7703C29.4947 15.3186 29.3525 15.2895 28.323 15.2895C26.5054 15.2895 25.6766 15.666 24.0843 17.2148C22.9485 18.3197 22.0097 18.761 20.663 18.8234C20.0225 18.8531 19.4964 18.8177 19.1884 18.7243L18.7096 18.5789L22.4455 14.0822C24.5003 11.609 26.3182 9.51175 26.4853 9.4218C26.7276 9.29115 27.4986 9.24354 30.2952 9.1865C35.1275 9.08789 34.939 9.16314 37.9728 6.12112C39.1134 4.97734 40.096 4.05493 40.1563 4.07116C40.2165 4.08751 42.9119 6.76655 46.1458 10.0247ZM17.9083 6.2239C19.6622 7.96156 20.1098 8.34581 20.7081 8.62816C21.0998 8.81311 21.6053 8.99849 21.8312 9.04028C22.0572 9.08208 22.2421 9.13604 22.2421 9.16018C22.2421 9.18431 20.5654 11.215 18.5161 13.6728C16.0654 16.6122 14.7481 18.2787 14.6672 18.5424C14.3774 19.4859 14.911 20.2848 16.3806 21.1076C17.5088 21.7392 18.6047 22.0485 19.9554 22.1165C22.4872 22.2441 24.4009 21.4996 26.3508 19.6287C26.8329 19.1661 27.3653 18.7286 27.5338 18.6566C28.0295 18.4445 28.6468 18.504 29.5087 18.8468C30.8612 19.3846 31.5332 19.5228 33.1231 19.5898L34.6361 19.6536L40.2403 25.3391C43.3226 28.4661 45.9163 31.1618 46.0042 31.3293C46.2287 31.7577 46.2035 32.4708 45.9483 32.9084C45.5128 33.6549 44.6646 33.9591 43.8613 33.6568C43.6917 33.5931 42.7147 32.71 41.6902 31.6944C39.7276 29.7491 39.5207 29.6138 38.7344 29.7614C38.2887 29.8451 37.8501 30.1778 37.634 30.5961C37.4417 30.9683 37.4219 31.7159 37.5954 32.0525C37.6633 32.1842 38.4698 33.0572 39.3875 33.9923C40.3053 34.9274 41.1372 35.8505 41.2362 36.0436C41.9173 37.3715 40.6526 38.9348 39.2595 38.4868C38.9541 38.3885 38.3543 37.8717 37.0336 36.5691C36.0393 35.5883 35.1181 34.7306 34.9865 34.6633C34.8548 34.5959 34.5343 34.5411 34.2743 34.5415C33.2385 34.5431 32.4996 35.5381 32.7722 36.5641C32.8675 36.9232 33.224 37.3471 34.6213 38.764C35.5733 39.7293 36.4371 40.6877 36.5408 40.8938C36.7826 41.3743 36.7152 42.1814 36.3958 42.6306C35.9099 43.3137 34.8932 43.5136 34.1651 43.0689C33.9434 42.9334 33.0998 42.1316 32.2904 41.2869C31.481 40.4423 30.5425 39.5613 30.2049 39.3292C29.4721 38.8255 28.4496 38.3869 27.9943 38.3809C27.5199 38.3748 27.434 38.2796 27.3525 37.6696C27.1864 36.4269 26.1077 34.8781 24.9592 34.2335C24.5821 34.0218 24.4524 33.8905 24.5042 33.7729C24.7885 33.1267 25.0063 32.3096 25.0575 31.6962C25.22 29.753 24.0253 27.7407 22.1873 26.8619C21.5114 26.5387 21.2903 26.4899 20.3247 26.4507C19.4087 26.4137 19.1212 26.4447 18.5716 26.6404C18.21 26.7691 17.8314 26.9011 17.7301 26.9339C17.5962 26.9773 17.4812 26.866 17.3073 26.5248C16.9991 25.9199 16.0886 25.0152 15.4059 24.6353C13.5963 23.6288 11.3763 23.8632 9.7325 25.2347C9.45091 25.4696 9.19058 25.6135 9.15398 25.5542C9.11739 25.495 9.03861 25.0122 8.9789 24.4815C8.60834 21.1863 8.2162 20.4254 5.48941 17.7086L3.84361 16.0689L9.72844 10.1232C12.9652 6.85299 15.66 4.17252 15.7169 4.16648C15.7739 4.16056 16.76 5.08638 17.9083 6.2239ZM13.8072 27.5044C14.515 27.8815 14.8659 28.8865 14.5657 29.6771C14.408 30.0924 11.7566 32.7735 11.3163 32.963C10.1929 33.4465 8.98448 32.6612 8.98448 31.4476C8.98448 31.1519 9.05505 30.7767 9.14128 30.6137C9.31658 30.2827 11.984 27.6138 12.3263 27.4271C12.6656 27.2421 13.3852 27.2796 13.8072 27.5044ZM20.9999 29.9447C21.6926 30.3733 21.973 31.2904 21.6487 32.0674C21.4718 32.4912 16.8296 37.2663 16.2395 37.6315C14.8257 38.5063 13.1172 36.8848 13.8727 35.3854C14.0749 34.9843 18.7302 30.2356 19.229 29.9219C19.6835 29.6359 20.5184 29.6467 20.9999 29.9447ZM23.428 37.1421C24.0618 37.6149 24.3247 38.6251 23.9857 39.2847C23.8008 39.6448 21.3774 42.1217 20.9273 42.4107C20.145 42.9131 19.0417 42.5846 18.6264 41.7257C18.3508 41.1557 18.3484 40.6786 18.6185 40.1582C18.8698 39.6742 21.4109 37.1225 21.8038 36.9598C22.2111 36.791 23.0898 36.8896 23.428 37.1421ZM27.8952 41.77C28.6387 42.1081 29.027 42.964 28.81 43.7865C28.6445 44.4134 27.4824 45.5722 26.9118 45.6794C25.9964 45.8514 25.1274 45.3444 24.8954 44.5031C24.6901 43.7589 24.8813 43.2538 25.6656 42.4686C26.3231 41.8104 26.6918 41.6065 27.2822 41.5748C27.3725 41.5699 27.6484 41.6578 27.8952 41.77Z" fill="#389DAC"/>
</svg>
