<svg width="23" height="23" viewBox="0 0 23 23" fill="none" xmlns="http://www.w3.org/2000/svg">
<path d="M2.17573 18.4H2.30006L8.29868 17.0946C8.41552 17.0751 8.5238 17.021 8.60946 16.9392L18.7728 6.77573C19.5153 6.03489 19.9295 5.02723 19.9229 3.97847C19.9242 2.92156 19.5114 1.90623 18.7728 1.15011C18.0321 0.407661 17.0244 -0.00657253 15.9756 0.000149918C14.9201 -0.00919012 13.9077 0.418251 13.1783 1.18122L3.04596 11.3446C2.9566 11.4165 2.89146 11.5142 2.85945 11.6243L1.55411 17.623C1.51847 17.8383 1.58772 18.0577 1.74061 18.2135C1.85537 18.3306 2.01177 18.3977 2.17573 18.4ZM15.9756 1.24339C17.469 1.24327 18.6797 2.45384 18.6798 3.94724C18.6798 3.95765 18.6797 3.96806 18.6796 3.97847C18.6898 4.68992 18.4091 5.37472 17.9026 5.87438L14.0797 2.02034C14.5833 1.51984 15.2655 1.24023 15.9756 1.24339ZM13.2094 2.92174L17.0323 6.74467L8.17429 15.5716L4.35136 11.7797L13.2094 2.92174ZM3.85408 13.023L6.93105 16.1L2.98379 16.9703L3.85408 13.023Z" fill="white"/>
<path d="M21.9121 21.7568H1.08793C0.744606 21.7568 0.466309 22.0351 0.466309 22.3784C0.466309 22.7218 0.744606 23 1.08793 23H21.9121C22.2554 23 22.5337 22.7218 22.5337 22.3784C22.5337 22.0351 22.2554 21.7568 21.9121 21.7568Z" fill="white"/>
</svg>
