<svg width="61" height="60" viewBox="0 0 61 60" fill="none" xmlns="http://www.w3.org/2000/svg">
<path d="M40.0952 29.0575L27.7579 20.1235C27.3052 19.7966 26.7041 19.7473 26.2079 20.0014C25.7077 20.2535 25.3953 20.7656 25.3953 21.319V39.1812C25.3953 39.7406 25.7077 40.2507 26.2079 40.5028C26.4194 40.6092 26.6507 40.6623 26.884 40.6623C27.1885 40.6623 27.4969 40.5658 27.7579 40.3748L40.0952 31.4486C40.4847 31.163 40.7121 30.7218 40.7121 30.2531C40.714 29.7764 40.4807 29.3372 40.0952 29.0575Z" fill="white"/>
<path d="M30.2964 0.624268C13.8863 0.624268 0.588135 13.8717 0.588135 30.2192C0.588135 46.5609 13.8863 59.8043 30.2964 59.8043C46.7026 59.8043 60.0027 46.5589 60.0027 30.2192C60.0047 13.8717 46.7026 0.624268 30.2964 0.624268ZM30.2964 54.8666C16.6305 54.8666 5.55072 43.835 5.55072 30.2192C5.55072 16.6094 16.6305 5.56398 30.2964 5.56398C43.9603 5.56398 55.0382 16.6074 55.0382 30.2192C55.0402 43.835 43.9603 54.8666 30.2964 54.8666Z" fill="white"/>
</svg>
