<svg width="46" height="46" viewBox="0 0 46 46" fill="none" xmlns="http://www.w3.org/2000/svg">
<circle cx="23" cy="23" r="23" fill="#953478"/>
<g clip-path="url(#clip0_115_5657)">
<path d="M13.7193 15.1808C14.1218 14.7782 14.3892 14.2765 14.4989 13.7308H17.8016C18.0539 14.6718 18.9336 15.3448 19.9077 15.3448C20.8815 15.3448 21.7614 14.6719 22.0137 13.7308H22.5769C22.8292 14.6718 23.7089 15.3448 24.683 15.3448C25.6568 15.3448 26.5367 14.6719 26.789 13.7308H29.3848C31.0522 13.7308 32.5484 14.6597 33.2894 16.1549C33.6052 16.7923 34.6114 16.3009 34.2926 15.6577C33.3614 13.7785 31.4808 12.6111 29.3848 12.6111H26.7937C26.5479 11.6631 25.6627 10.9798 24.683 10.9798C23.7027 10.9798 22.8186 11.6616 22.5723 12.6111H22.0185C21.7727 11.6631 20.8875 10.9798 19.9078 10.9798C18.9274 10.9798 18.0433 11.6616 17.7971 12.6111H14.5024C14.2449 11.2879 13.0471 10.3076 11.701 10.3076C10.1464 10.3076 8.84619 11.6075 8.84619 13.1622C8.84619 14.7167 10.1461 16.0168 11.7008 16.0168C12.4633 16.0168 13.1801 15.7199 13.7193 15.1808ZM23.9314 12.4107C24.1386 12.2035 24.4108 12.0999 24.6829 12.0999C24.9551 12.0999 25.2273 12.2035 25.4344 12.4107C25.8488 12.8251 25.8488 13.4994 25.4344 13.9138C25.2337 14.1145 24.9668 14.225 24.6829 14.225C24.3991 14.225 24.1321 14.1145 23.9314 13.9137C23.5171 13.4993 23.5171 12.8251 23.9314 12.4107ZM19.1562 12.4107C19.3633 12.2035 19.6355 12.0999 19.9077 12.0999C20.1798 12.0999 20.452 12.2035 20.6592 12.4107C21.0735 12.8251 21.0735 13.4994 20.6592 13.9138C20.4585 14.1145 20.1915 14.225 19.9077 14.225C19.6238 14.225 19.3569 14.1145 19.1562 13.9137C18.7418 13.4993 18.7418 12.8251 19.1562 12.4107ZM9.9659 13.1622C9.9659 12.6988 10.1463 12.2631 10.474 11.9355C10.8017 11.6078 11.2374 11.4273 11.7008 11.4273C12.1641 11.4273 12.5999 11.6078 12.9275 11.9355C13.2552 12.2631 13.4356 12.6988 13.4356 13.1622C13.4356 13.6257 13.2552 14.0613 12.9275 14.389C12.5998 14.7167 12.1641 14.8971 11.7008 14.8971C11.2374 14.8971 10.8017 14.7167 10.474 14.389C10.1463 14.0613 9.9659 13.6257 9.9659 13.1622Z" fill="white"/>
<path d="M36.3179 30.8193C35.7787 30.2801 35.0619 29.9832 34.2994 29.9832C32.9597 29.9832 31.7654 30.9543 31.5012 32.2696H26.7914C26.542 31.324 25.6618 30.647 24.683 30.647C23.7059 30.647 22.824 31.3243 22.5747 32.2696H22.0161C21.7667 31.324 20.8865 30.647 19.9077 30.647C18.9306 30.647 18.0487 31.3243 17.7994 32.2696H16.6154C14.2142 32.2696 12.2607 30.3161 12.2607 27.9148C12.2607 25.5136 14.2142 23.5602 16.6154 23.5602H17.7994C18.0486 24.5054 18.9304 25.1828 19.9077 25.1828C20.8848 25.1828 21.7668 24.5054 22.0161 23.5601H22.5746C22.8239 24.5053 23.7056 25.1828 24.683 25.1828C25.6601 25.1828 26.542 24.5054 26.7913 23.5602H29.3848C31.4046 23.5602 33.2536 22.4539 34.2103 20.6731C34.5504 20.0398 33.5645 19.509 33.2239 20.1432C32.4627 21.5602 30.9917 22.4405 29.3848 22.4405H26.7914C26.5421 21.4952 25.6603 20.8178 24.683 20.8178C23.7059 20.8178 22.824 21.4951 22.5747 22.4405H22.0161C21.7668 21.4952 20.885 20.8178 19.9077 20.8178C18.9306 20.8178 18.0487 21.4951 17.7994 22.4405H16.6154C13.5968 22.4405 11.141 24.8963 11.141 27.915C11.141 30.9336 13.5968 33.3894 16.6154 33.3894H17.7994C18.0486 34.3345 18.9306 35.011 19.9077 35.011C20.8846 35.011 21.7668 34.3345 22.0161 33.3894H22.5747C22.8239 34.3345 23.7059 35.011 24.683 35.011C25.6599 35.011 26.5421 34.3345 26.7914 33.3894H31.498C31.7556 34.7125 32.9535 35.6924 34.2995 35.6924C35.8538 35.6924 37.154 34.3925 37.154 32.8379C37.154 32.0753 36.8571 31.3585 36.3179 30.8193ZM23.9315 22.2488C24.1322 22.048 24.3992 21.9375 24.683 21.9375C24.9669 21.9375 25.2338 22.048 25.4345 22.2488C25.8489 22.6632 25.8489 23.3374 25.4345 23.7518C25.0202 24.1662 24.3459 24.1661 23.9315 23.7519C23.5172 23.3375 23.5172 22.6632 23.9315 22.2488ZM19.1563 22.2488C19.357 22.048 19.6239 21.9375 19.9078 21.9375C20.1916 21.9375 20.4586 22.048 20.6593 22.2488C21.0736 22.6632 21.0736 23.3374 20.6593 23.7518C20.2449 24.1662 19.5707 24.1661 19.1563 23.7519C18.7419 23.3375 18.7419 22.6632 19.1563 22.2488ZM20.6593 33.581C20.4586 33.7817 20.1916 33.8923 19.9078 33.8923C19.6239 33.8923 19.357 33.7817 19.1563 33.581C18.7419 33.1666 18.7419 32.4923 19.1563 32.0779C19.357 31.8772 19.6239 31.7667 19.9078 31.7667C20.1916 31.7667 20.4586 31.8772 20.6593 32.0779C21.0736 32.4923 21.0736 33.1666 20.6593 33.581ZM25.4345 33.581C25.2338 33.7817 24.9669 33.8923 24.683 33.8923C24.3992 33.8923 24.1322 33.7817 23.9315 33.581C23.5172 33.1666 23.5172 32.4923 23.9315 32.0779C24.1322 31.8772 24.3992 31.7667 24.683 31.7667C24.9669 31.7667 25.2338 31.8772 25.4345 32.0779C25.8489 32.4923 25.8489 33.1666 25.4345 33.581ZM35.5262 34.0645C35.1985 34.3923 34.7628 34.5727 34.2995 34.5727C33.8361 34.5727 33.4003 34.3922 33.0727 34.0645C32.745 33.7368 32.5646 33.3012 32.5646 32.8378C32.5646 32.3744 32.745 31.9387 33.0727 31.6111C33.4004 31.2833 33.8361 31.1029 34.2995 31.1029C34.7628 31.1029 35.1985 31.2834 35.5262 31.6111C35.8539 31.9388 36.0343 32.3744 36.0343 32.8378C36.0343 33.3012 35.8538 33.7369 35.5262 34.0645Z" fill="white"/>
<path d="M34.1776 17.5839C33.8787 17.5237 33.5795 17.7251 33.5198 18.0234C33.4597 18.3234 33.6602 18.6213 33.9593 18.6818C34.2588 18.7424 34.5568 18.5404 34.6171 18.2423C34.6778 17.9426 34.4757 17.6446 34.1776 17.5839Z" fill="white"/>
</g>
<defs>
<clipPath id="clip0_115_5657">
<rect width="28.3077" height="28.3077" fill="white" transform="translate(8.84619 8.8457)"/>
</clipPath>
</defs>
</svg>
