<svg width="32" height="32" fill="none" xmlns="http://www.w3.org/2000/svg"><path d="M16 0C7.178 0 0 7.178 0 16c0 8.823 7.178 16 16 16s16-7.177 16-16c0-8.822-7.178-16-16-16Zm0 29.09C8.782 29.09 2.91 23.219 2.91 16S8.781 2.91 16 2.91 29.09 8.781 29.09 16 23.219 29.09 16 29.09Z" fill="#000"/><path d="M16 6.788c-1.07 0-1.94.87-1.94 1.94 0 1.07.87 1.939 1.94 1.939 1.069 0 1.939-.87 1.939-1.939 0-1.07-.87-1.94-1.94-1.94ZM16 13.576c-.804 0-1.455.652-1.455 1.455v8.727a1.455 1.455 0 0 0 2.91 0v-8.727c0-.803-.652-1.455-1.455-1.455Z" fill="#000"/></svg>