<svg width="50" height="50" viewBox="0 0 50 50" fill="none" xmlns="http://www.w3.org/2000/svg">
<rect width="50" height="50" rx="25" fill="#389DAC"/>
<path d="M18.1991 35C18.0124 35 17.8444 34.9347 17.6951 34.804C17.5644 34.6547 17.4991 34.4867 17.4991 34.3V16.1C17.4991 15.8947 17.5644 15.7267 17.6951 15.596C17.8444 15.4653 18.0124 15.4 18.1991 15.4H26.0391C28.4284 15.4 30.3044 15.9507 31.6671 17.052C33.0484 18.1533 33.7391 19.7587 33.7391 21.868C33.7391 23.9587 33.0577 25.536 31.6951 26.6C30.3324 27.6453 28.4471 28.168 26.0391 28.168H22.7071V34.3C22.7071 34.5053 22.6324 34.6733 22.4831 34.804C22.3524 34.9347 22.1844 35 21.9791 35H18.1991ZM25.8991 24.304C26.7204 24.304 27.3644 24.0987 27.8311 23.688C28.2977 23.2587 28.5311 22.6333 28.5311 21.812C28.5311 21.0467 28.3071 20.44 27.8591 19.992C27.4297 19.5253 26.7764 19.292 25.8991 19.292H22.6231V24.304H25.8991Z" fill="white"/>
</svg>
