<svg width="46" height="46" viewBox="0 0 46 46" fill="none" xmlns="http://www.w3.org/2000/svg">
<circle cx="23" cy="23" r="23" fill="#953478"/>
<g clip-path="url(#clip0_115_5644)">
<path d="M8.30164 34.2706L8.69152 35.1482L22.6822 29.347L25.1196 29.6396L25.9969 32.3207L24.827 33.442C24.3884 33.8319 24.2422 34.4656 24.486 35.0506L24.9734 36.2693L33.0654 33.1007L32.6267 31.9308C32.4317 31.3458 31.8955 31.0047 31.2618 31.0047H29.653L28.7757 28.9084L30.9205 27.8361C31.6029 27.4947 31.8955 26.7147 31.6517 26.0323L28.8732 18.574C28.5807 17.794 27.7519 17.4527 26.9719 17.6964C26.9719 17.6964 26.9233 17.6964 26.9233 17.7452L24.8758 18.6226L24.5833 17.8913L25.7046 16.5753C26.4844 15.6977 26.9719 14.6254 27.1183 13.4555L28.5319 11.7493C29.4581 10.6768 29.2631 9.06821 28.1906 8.14182C27.9956 7.99567 27.8007 7.84952 27.6058 7.75193C27.0695 7.50819 26.5332 7.4594 25.9484 7.60578L25.802 7.16686C25.5583 6.38709 24.6809 5.99697 23.9497 6.2895L13.6639 9.99437C12.8839 10.2869 12.494 11.1155 12.7865 11.8467V11.8955L13.0303 12.5291C11.7628 13.1142 11.1777 14.5766 11.6164 15.8441C11.9577 16.819 12.8351 17.5015 13.8588 17.6476L16.1501 17.8913C17.0762 18.574 18.1973 19.0127 19.3187 19.11L20.9272 19.2564L21.2198 19.9876C20.8784 20.1826 20.6347 20.5239 20.5373 20.9626L20.196 22.62L8.30164 27.4459L8.64296 28.3721L15.4676 25.6424L17.125 30.6145L8.30164 34.2706ZM31.6517 32.2234L31.7493 32.5156L25.5095 35.0018L25.3633 34.7093C25.3145 34.5143 25.3633 34.3194 25.4609 34.1733L27.1183 32.6132L29.2143 31.9308H31.1642C31.408 31.9308 31.5544 32.0282 31.6517 32.2234ZM28.5807 31.0532L26.8257 31.6383L26.1921 29.786C26.4844 29.8345 26.7282 29.786 26.9719 29.6396L27.8007 29.2497L28.5807 31.0532ZM27.2644 18.4764C27.5082 18.3788 27.8007 18.4764 27.8983 18.7202L28.2882 19.7439L25.8996 20.5239L26.1921 21.4501L28.5807 20.6701L29.1655 22.2301L26.8745 23.0099L27.1671 23.9363L29.5069 23.1562L30.0919 24.716L27.8495 25.4472L28.142 26.3736L30.433 25.5936L30.6768 26.2272C30.7744 26.471 30.6768 26.7147 30.433 26.8123L26.582 28.7134C26.4844 28.7622 26.3871 28.7622 26.2895 28.7622L22.9747 28.3721L21.171 22.9613L21.5123 21.1575C21.5611 21.0114 21.6584 20.865 21.8048 20.8162L27.2644 18.4764ZM27.2156 8.62929C27.9956 8.97062 28.3858 9.89678 28.0444 10.7256C27.9956 10.8717 27.8983 10.9693 27.8007 11.1155L27.2156 11.8467C27.1671 11.3592 27.0695 10.9205 26.9233 10.4331L26.2895 8.53194C26.6308 8.48315 26.9233 8.53194 27.2156 8.62929ZM12.5913 15.6004C12.299 14.7715 12.6401 13.8942 13.4201 13.5041L14.1026 15.1617C14.3463 15.7465 14.6876 16.3316 15.0775 16.819L14.0538 16.7215C13.3713 16.6727 12.7865 16.234 12.5913 15.6004ZM19.5136 18.1839C17.5149 17.9889 15.7599 16.7215 15.0287 14.8203L13.7615 11.6029C13.6639 11.3592 13.7615 11.0667 14.0052 10.9693L24.2908 7.26446C24.4372 7.21566 24.5345 7.21566 24.6809 7.26446C24.7782 7.31325 24.8758 7.4106 24.9246 7.55699L25.9969 10.7744C26.582 12.5779 26.1921 14.5278 24.9734 15.9414L23.4622 17.6964L23.9009 18.8663L22.1459 19.5975L21.6584 18.3788L19.5136 18.1839ZM16.3938 25.2523L17.5149 24.8136L18.7336 28.5185L19.6597 28.2259L18.3925 24.4237L20.3424 23.6437L21.9998 28.5673L18.0512 30.2247L16.3938 25.2523Z" fill="white"/>
<path d="M32.3834 14.7229V15.2104H33.3584V14.7229C33.3584 13.3581 34.4309 12.2856 35.7958 12.2856V11.3106C34.4309 11.3106 33.3584 10.2383 33.3584 8.87322V8.38574H32.3834V8.87322C32.3834 10.2383 31.3111 11.3106 29.946 11.3106V12.2856C31.3111 12.2856 32.3834 13.3581 32.3834 14.7229ZM32.8709 10.6282C33.1634 11.1157 33.5533 11.5058 34.0408 11.7981C33.5533 12.0906 33.1634 12.4807 32.8709 12.9682C32.5784 12.4807 32.1885 12.0906 31.701 11.7981C32.1885 11.5058 32.5784 11.1157 32.8709 10.6282Z" fill="white"/>
<path d="M10.934 24.472V24.9594H11.9089V24.472C11.9089 23.1071 12.9815 22.0346 14.3463 22.0346V21.0596C12.9815 21.0596 11.9089 19.9873 11.9089 18.6222V18.1348H10.934V18.6222C10.934 19.9873 9.86166 21.0596 8.49658 21.0596V22.0346C9.86166 22.0346 10.934 23.1071 10.934 24.472ZM11.4214 20.3772C11.714 20.8647 12.1039 21.2548 12.5913 21.5471C12.1039 21.8396 11.714 22.2298 11.4214 22.7172C11.1289 22.2298 10.739 21.8396 10.2515 21.5471C10.739 21.2548 11.1289 20.8647 11.4214 20.3772Z" fill="white"/>
<path d="M35.3088 18.6222V18.1348H34.3338V18.6222C34.3338 19.9873 33.2615 21.0596 31.8964 21.0596V22.0346C33.2615 22.0346 34.3338 23.1071 34.3338 24.472V24.9594H35.3088V24.472C35.3088 23.1071 36.3813 22.0346 37.7461 22.0346V21.0596C36.3813 21.0596 35.3088 19.9873 35.3088 18.6222ZM34.8213 22.7172C34.5287 22.2298 34.1389 21.8396 33.6514 21.5471C34.1389 21.2548 34.5287 20.8647 34.8213 20.3772C35.1138 20.8647 35.5037 21.2548 35.9912 21.5471C35.5037 21.8396 35.1138 22.2298 34.8213 22.7172Z" fill="white"/>
<path d="M22.7808 14.8697L23.4632 15.5522C26.1443 12.871 23.6582 8.77627 23.512 8.62988L22.6832 9.16616C22.732 9.16616 24.9257 12.7249 22.7808 14.8697Z" fill="white"/>
</g>
<defs>
<clipPath id="clip0_115_5644">
<rect width="30.0769" height="30.0769" fill="white" transform="translate(7.96155 6.19238)"/>
</clipPath>
</defs>
</svg>
