<svg width="48" height="48" viewBox="0 0 48 48" fill="none" xmlns="http://www.w3.org/2000/svg">
<path d="M24 0C10.7358 0 0 10.734 0 24C0 28.2096 1.0979 32.321 3.18274 35.9473L0.0904541 45.55C-0.125244 46.2195 0.052002 46.9534 0.549316 47.4507C1.04187 47.9432 1.77393 48.1271 2.44995 47.9095L12.0527 44.8173C15.679 46.9021 19.7904 48 24 48C37.2642 48 48 37.266 48 24C48 10.7358 37.266 0 24 0ZM24 44.25C20.1976 44.25 16.4912 43.1891 13.2814 41.1819C12.8196 40.8933 12.2461 40.8153 11.7125 40.9871L4.78052 43.2195L7.01294 36.2875C7.18213 35.7616 7.11072 35.1874 6.81775 34.7186C4.81091 31.5088 3.75 27.8024 3.75 24C3.75 12.8342 12.8342 3.75 24 3.75C35.1658 3.75 44.25 12.8342 44.25 24C44.25 35.1658 35.1658 44.25 24 44.25ZM26.3438 24C26.3438 25.2942 25.2946 26.3438 24 26.3438C22.7054 26.3438 21.6562 25.2942 21.6562 24C21.6562 22.7054 22.7054 21.6562 24 21.6562C25.2946 21.6562 26.3438 22.7054 26.3438 24ZM35.7188 24C35.7188 25.2942 34.6696 26.3438 33.375 26.3438C32.0804 26.3438 31.0312 25.2942 31.0312 24C31.0312 22.7054 32.0804 21.6562 33.375 21.6562C34.6696 21.6562 35.7188 22.7054 35.7188 24ZM16.9688 24C16.9688 25.2942 15.9196 26.3438 14.625 26.3438C13.3308 26.3438 12.2812 25.2942 12.2812 24C12.2812 22.7054 13.3308 21.6562 14.625 21.6562C15.9196 21.6562 16.9688 22.7054 16.9688 24Z" fill="white"/>
</svg>
