<svg width="36" height="36" viewBox="0 0 36 36" fill="none" xmlns="http://www.w3.org/2000/svg">
<path d="M2.73623 35.4568C1.52719 35.4568 0.540405 34.4719 0.540405 33.2635V2.73591C0.540405 1.52624 1.52656 0.541992 2.73623 0.541992H33.2619C34.4729 0.541992 35.4565 1.52624 35.4565 2.73591V33.2635C35.4565 34.4719 34.4735 35.4568 33.2619 35.4568H2.73623Z" fill="white"/>
<path d="M33.2625 1.08585C34.175 1.08585 34.9129 1.82626 34.9129 2.73621V33.2638C34.9129 34.1756 34.175 34.9129 33.2625 34.9129H2.73685C1.82499 34.9129 1.08775 34.1756 1.08775 33.2638V2.73621C1.08775 1.82626 1.82499 1.08585 2.73685 1.08585H33.2625ZM33.2625 0H2.73685C1.22682 0 0 1.22618 0 2.73621V33.2638C0 34.7738 1.22682 36 2.73685 36H33.2625C34.7719 36 36 34.7738 36 33.2638V2.73621C36 1.22618 34.7719 0 33.2625 0Z" fill="#4E6A58"/>
<path d="M32.4593 1.97559H3.53695C2.67526 1.97559 1.97485 2.67662 1.97485 3.53768V32.4619C1.97485 33.3236 2.67526 34.0234 3.53695 34.0234H32.4593C33.3222 34.0234 34.0226 33.3236 34.0226 32.4619V3.53832C34.0233 2.67726 33.3229 1.97559 32.4593 1.97559ZM18.3362 28.9789C10.9106 28.9789 4.94411 24.4406 4.69456 19.3079C4.51168 15.508 6.50684 11.1081 11.282 8.97899C13.0677 8.17635 16.1049 7.51024 19.0595 7.47849C20.1282 7.4442 20.9664 7.09939 22.2212 7.0016C23.281 6.90699 24.6532 6.87397 25.5619 7.19782C26.7189 7.70328 27.4345 8.66149 28.2473 9.39237L27.4326 9.96959L28.8436 10.7329L27.1875 10.4458L27.0332 11.0897C25.7467 10.9602 24.3395 10.7329 23.0683 10.604C21.5633 10.2591 20.3136 10.0312 18.7503 9.99626C12.0644 9.90164 7.53554 14.4273 7.69175 18.798C7.84542 24.3777 14.8774 26.4542 19.1821 26.4542C31.1772 26.5221 31.3937 15.8973 27.2453 15.6795C26.0566 15.6236 24.276 23.236 21.3982 23.2074C18.937 23.182 17.4942 15.997 16.2877 15.997C15.2578 16.023 14.0938 21.1589 13.1242 22.9172C12.5965 23.9034 9.81646 21.0999 10.0044 20.6541C10.193 20.2102 11.2192 22.2067 11.938 21.5805C12.4117 21.1589 13.4093 13.6958 16.2198 13.4672C18.6874 13.2779 20.4654 21.3958 21.5309 21.3189C22.8397 21.2916 24.8717 13.3814 27.063 13.6005C33.9915 14.3079 33.3629 28.9872 18.3362 28.9789Z" fill="#4E6A58"/>
<path d="M24.0951 8.47889C24.6558 8.50239 24.8831 8.47318 24.9149 8.34999C24.9447 8.22616 24.6494 8.08012 24.2456 7.98106C23.843 7.88517 23.4925 8.03249 23.4658 8.15314C23.4309 8.27951 23.6791 8.46238 24.0951 8.47889Z" fill="#4E6A58"/>
</svg>
