<svg width="30" height="30" viewBox="0 0 30 30" fill="none" xmlns="http://www.w3.org/2000/svg">
<g clip-path="url(#clip0)">
<path d="M29.7132 8.33219L20.2265 4.7154C19.9965 4.62773 19.739 4.74309 19.6513 4.97289C19.5637 5.20291 19.679 5.46041 19.9091 5.54807L28.3038 8.74852L22.4924 10.9643L15.1838 7.65515C14.9595 7.55353 14.6956 7.65309 14.5942 7.87717C14.4926 8.10147 14.5921 8.36537 14.8162 8.467L21.3194 11.4116L15 13.8208L1.69624 8.74852L15 3.67627L18.2785 4.92642C18.5081 5.01386 18.7658 4.89873 18.8537 4.6687C18.9413 4.43891 18.826 4.18141 18.596 4.09375L15.1588 2.78317C15.0565 2.74426 14.9435 2.74404 14.8412 2.78317L0.286789 8.33219C0.114212 8.3981 0 8.56381 0 8.74852V10.7833C0 10.968 0.114212 11.1337 0.286789 11.1996L4.8317 12.9323V14.4763C4.8317 14.7223 5.03105 14.9219 5.2771 14.9219C5.52338 14.9219 5.72273 14.7223 5.72273 14.4763V13.2721L14.8412 16.7486C14.8924 16.7681 14.9462 16.7779 15 16.7779C15.0538 16.7779 15.1076 16.7681 15.1588 16.7486L22.0322 14.1282V21.1796C19.8743 22.3123 17.4545 22.9193 15 22.9193C11.6501 22.9193 8.36426 21.79 5.72273 19.7349V16.2586C5.72273 16.0125 5.52338 15.813 5.2771 15.813C5.03105 15.813 4.8317 16.0125 4.8317 16.2586V19.9507C4.8317 20.086 4.89304 20.2139 4.99855 20.2984C7.82547 22.5631 11.3775 23.8103 15 23.8103C17.4431 23.8103 19.8537 23.2422 22.0322 22.1782V23.9815C21.3142 24.1777 20.7848 24.8353 20.7848 25.6146C20.7848 26.548 21.5442 27.3076 22.4776 27.3076C23.4112 27.3076 24.1706 26.548 24.1706 25.6146C24.1706 24.8353 23.6412 24.1777 22.9232 23.9815V21.7076C23.6494 21.2945 24.3452 20.8243 25.0017 20.2984C25.1072 20.2139 25.1688 20.086 25.1688 19.9507V12.932L29.7132 11.1994C29.8858 11.1337 30 10.968 30 10.7831V8.74852C30 8.56381 29.8858 8.3981 29.7132 8.33219ZM23.2796 25.6146C23.2796 26.0566 22.9198 26.4164 22.4776 26.4164C22.0356 26.4164 21.6758 26.0566 21.6758 25.6146C21.6758 25.1724 22.0356 24.8126 22.4776 24.8126C22.9198 24.8126 23.2796 25.1724 23.2796 25.6146ZM0.891037 9.39534L14.5544 14.6047V15.6855L0.891037 10.4761V9.39534ZM15.4456 15.6855V14.6047L22.0322 12.0934V13.1744L15.4456 15.6855ZM24.2775 19.7346C23.8428 20.0729 23.3904 20.3856 22.9232 20.6726V13.7883L24.2775 13.2719V19.7346ZM22.9232 12.8345V11.7537L29.109 9.39534V10.4761L22.9232 12.8345Z" fill="white"/>
</g>
<defs>
<clipPath id="clip0">
<rect width="30" height="30" fill="white"/>
</clipPath>
</defs>
</svg>
