<svg width="31" height="31" fill="none" xmlns="http://www.w3.org/2000/svg"><path d="M15.479 0C9.213 0 4.117 5.097 4.117 11.361c0 2.878 1.814 6.944 5.39 12.086a81.082 81.082 0 005.294 6.789l.678.764.678-.764c.108-.122 2.679-3.03 5.293-6.79 3.576-5.14 5.39-9.207 5.39-12.085C26.84 5.097 21.743 0 15.479 0zm4.493 22.397a82.377 82.377 0 01-4.494 5.846 82.291 82.291 0 01-4.483-5.831C7.68 17.648 5.93 13.827 5.93 11.362c0-5.266 4.283-9.55 9.549-9.55 5.265 0 9.548 4.284 9.548 9.55 0 2.462-1.748 6.278-5.055 11.035z" fill="#3B9670"/><path d="M15.479 4.199a6.713 6.713 0 00-6.706 6.705 6.713 6.713 0 006.706 6.706 6.713 6.713 0 006.705-6.706A6.713 6.713 0 0015.478 4.2zm0 11.599a4.899 4.899 0 01-4.893-4.894 4.899 4.899 0 014.893-4.893 4.899 4.899 0 014.893 4.893 4.899 4.899 0 01-4.893 4.893z" fill="#3B9670"/></svg>