<svg width="32" height="31" viewBox="0 0 32 31" fill="none" xmlns="http://www.w3.org/2000/svg">
<g clip-path="url(#clip0)">
<path d="M30.0172 2.89941H1.99628C1.42946 2.89941 0.968262 3.36061 0.968262 3.92743V7.54577C0.968262 8.11541 1.84942 8.11541 1.84942 7.54577V3.92743C1.84942 3.84648 1.91527 3.78057 1.99628 3.78057H30.0172C30.0982 3.78057 30.164 3.84648 30.164 3.92743V25.4124C30.164 25.4934 30.0982 25.5593 30.0172 25.5593H24.3712V24.6425H28.8025C29.0458 24.6425 29.243 24.4452 29.243 24.2019V19.5882C29.243 19.0186 28.3619 19.0186 28.3619 19.5882V23.7613H24.3712V21.8065C24.3855 21.8078 24.4 21.809 24.4135 21.8102C24.7793 21.8424 25.2342 21.8824 25.5493 21.5666C25.8641 21.2512 25.8243 20.7958 25.7923 20.4299C25.7578 20.0372 25.7949 19.9297 26.0968 19.6788C26.8739 19.0326 26.8883 18.3407 26.0968 17.6827C25.7949 17.4316 25.758 17.3242 25.7923 16.9315C25.8785 15.9459 25.4182 15.4629 24.4135 15.5512C24.0214 15.5857 23.915 15.5484 23.665 15.2465C23.0198 14.4676 22.3275 14.4532 21.6703 15.2465C21.4203 15.5483 21.314 15.5858 20.9218 15.5512C19.9356 15.4646 19.455 15.9275 19.543 16.9315C19.5773 17.3243 19.5404 17.4316 19.2385 17.6827C18.4614 18.3288 18.447 19.0208 19.2385 19.6788C19.5404 19.9299 19.5773 20.0373 19.543 20.43C19.4505 21.4856 19.9546 21.8938 20.964 21.8066V23.7615H3.65163V5.57843H28.3619V17.2385C28.3619 17.8081 29.243 17.8081 29.243 17.2385V5.13785C29.243 4.89454 29.0458 4.69727 28.8025 4.69727H3.21105C2.96767 4.69727 2.77047 4.89454 2.77047 5.13785V24.2019C2.77047 24.4452 2.96767 24.6425 3.21105 24.6425H20.964V25.5593H1.99628C1.91527 25.5593 1.84942 25.4934 1.84942 25.4124V9.77798C1.84942 9.20834 0.968262 9.20834 0.968262 9.77798V25.4124C0.968262 25.9792 1.42946 26.4404 1.99628 26.4404H20.964V28.4348C21.0268 28.7969 21.2356 28.9301 21.5904 28.8342L22.6676 28.3332L23.7448 28.8342C24.0113 28.9582 24.3712 28.7623 24.3712 28.4348V26.4404H30.0172C30.584 26.4404 31.0452 25.9792 31.0452 25.4124V3.92743C31.0452 3.36055 30.584 2.89941 30.0172 2.89941ZM20.8446 20.9324C20.4035 20.9712 20.3822 20.9476 20.4207 20.5068C20.4799 19.8302 20.3243 19.4354 19.8018 19.0011C19.4442 18.7038 19.4443 18.6574 19.8018 18.3601C20.3243 17.9258 20.48 17.531 20.4207 16.8545C20.3822 16.4136 20.4035 16.3903 20.8446 16.4289C21.5212 16.4885 21.9154 16.3317 22.3488 15.8085C22.6449 15.4511 22.6902 15.4511 22.9863 15.8085C23.4198 16.3317 23.8139 16.4883 24.4905 16.4289C24.9316 16.39 24.953 16.4136 24.9144 16.8545C24.8552 17.531 25.0108 17.9257 25.5334 18.3601C25.8908 18.6574 25.891 18.7038 25.5333 19.0011C25.0108 19.4355 24.8551 19.8301 24.9144 20.5066C24.9531 20.9475 24.9316 20.9711 24.4906 20.9324C24.2138 20.908 23.8999 20.8804 23.6236 20.9952C23.3561 21.1063 23.1681 21.3332 22.9863 21.5527C22.9006 21.6561 22.7443 21.8449 22.6675 21.8787C22.5907 21.8449 22.4344 21.6561 22.3487 21.5527C22.1669 21.3333 21.9789 21.1063 21.7114 20.9952C21.4263 20.9083 21.1373 20.8873 20.8446 20.9324ZM22.8534 27.4479C22.7356 27.3931 22.5996 27.3931 22.4818 27.4479L21.8452 27.744V22.3191C22.0542 22.5489 22.3122 22.7623 22.6676 22.7623C23.023 22.7623 23.2809 22.549 23.49 22.3191V27.744L22.8534 27.4479Z" fill="white"/>
<path d="M6.68118 9.26641H21.8693C22.4389 9.26641 22.4389 8.38525 21.8693 8.38525H6.68118C6.11148 8.38525 6.11148 9.26641 6.68118 9.26641Z" fill="white"/>
<path d="M25.7726 11.5055C25.7726 11.2622 25.5754 11.0649 25.332 11.0649H6.68236C6.11272 11.0649 6.11272 11.9461 6.68236 11.9461H25.3321C25.5754 11.9461 25.7726 11.7488 25.7726 11.5055Z" fill="white"/>
<path d="M17.7188 14.1852C17.7188 13.9419 17.5216 13.7446 17.2782 13.7446H6.68236C6.11272 13.7446 6.11272 14.6258 6.68236 14.6258H17.2782C17.5216 14.6258 17.7188 14.4285 17.7188 14.1852Z" fill="white"/>
<path d="M11.9338 20.3263C11.6936 20.3267 11.4533 20.327 11.2131 20.3272C10.751 20.3276 10.4966 20.2044 10.4022 19.7143C10.316 19.267 9.67075 19.324 9.5525 19.7143C9.50016 19.8872 9.23581 20.3821 9.00489 20.3417C8.88252 20.3202 8.82907 20.1315 8.78383 20.0337C8.69578 19.8435 8.63163 19.6418 8.5767 19.4397C8.34478 18.5859 8.29849 17.6945 8.15339 16.8246C8.06927 16.3202 7.30037 16.4628 7.28798 16.9417C7.2485 18.4674 6.99907 19.9721 6.45593 21.4021C6.25438 21.9327 7.10587 22.1622 7.3056 21.6364C7.51502 21.085 7.68127 20.5204 7.81027 19.9474C7.87947 20.1562 7.96201 20.361 8.06275 20.5602C8.32005 21.0687 8.84481 21.3695 9.40629 21.1433C9.60666 21.0626 9.78947 20.9215 9.94509 20.7498C10.3619 21.2305 10.9821 21.2087 11.5607 21.208C12.4328 21.2069 13.305 21.2048 14.1772 21.2024C14.7442 21.2009 14.7452 20.3197 14.1772 20.3213C13.4294 20.3234 12.6816 20.3251 11.9338 20.3263Z" fill="white"/>
<path d="M22.6674 20.4014C23.6163 20.4014 24.3883 19.6295 24.3883 18.6806C24.3883 17.7317 23.6163 16.9597 22.6674 16.9597C21.7185 16.9597 20.9465 17.7317 20.9465 18.6806C20.9465 19.6294 21.7185 20.4014 22.6674 20.4014ZM22.6674 17.8409C23.1304 17.8409 23.5071 18.2176 23.5071 18.6806C23.5071 19.1435 23.1304 19.5203 22.6674 19.5203C22.2044 19.5203 21.8277 19.1436 21.8277 18.6806C21.8277 18.2175 22.2044 17.8409 22.6674 17.8409Z" fill="white"/>
</g>
<defs>
<clipPath id="clip0">
<rect width="30.0769" height="30.0769" fill="white" transform="translate(0.968262 0.846924)"/>
</clipPath>
</defs>
</svg>
