<svg width="30" height="30" viewBox="0 0 30 30" fill="none" xmlns="http://www.w3.org/2000/svg">
<g clip-path="url(#clip0)">
<path d="M5.7193 7.18102C6.12183 6.77843 6.38922 6.27674 6.4989 5.73105H9.8016C10.0539 6.672 10.9336 7.345 11.9077 7.345C12.8815 7.345 13.7614 6.67217 14.0137 5.73105H14.5769C14.8292 6.672 15.7089 7.345 16.683 7.345C17.6568 7.345 18.5367 6.67217 18.789 5.73105H21.3848C23.0522 5.73105 24.5484 6.65991 25.2894 8.15512C25.6052 8.79251 26.6114 8.30113 26.2926 7.65791C25.3614 5.77875 23.4808 4.61134 21.3848 4.61134H18.7937C18.5479 3.66339 17.6627 2.98003 16.683 2.98003C15.7027 2.98003 14.8186 3.66182 14.5723 4.61134H14.0185C13.7727 3.66339 12.8875 2.98003 11.9078 2.98003C10.9274 2.98003 10.0433 3.66182 9.79707 4.61134H6.50242C6.24495 3.28811 5.04708 2.30786 3.70096 2.30786C2.1464 2.30786 0.846191 3.60779 0.846191 5.16246C0.846191 6.7169 2.14612 8.01706 3.70079 8.01706C4.46326 8.01706 5.1801 7.72016 5.7193 7.18102ZM15.9314 4.41096C16.1386 4.20376 16.4108 4.10019 16.6829 4.10019C16.9551 4.10019 17.2273 4.20376 17.4344 4.41096C17.8488 4.82537 17.8488 5.4996 17.4344 5.91401C17.2337 6.11472 16.9668 6.22529 16.6829 6.22529C16.3991 6.22529 16.1321 6.11472 15.9314 5.91395C15.5171 5.49955 15.5171 4.82537 15.9314 4.41096ZM11.1562 4.41096C11.3633 4.20376 11.6355 4.10019 11.9077 4.10019C12.1798 4.10019 12.452 4.20376 12.6592 4.41096C13.0735 4.82537 13.0735 5.4996 12.6592 5.91401C12.4585 6.11472 12.1915 6.22529 11.9077 6.22529C11.6238 6.22529 11.3569 6.11472 11.1562 5.91395C10.7418 5.49955 10.7418 4.82537 11.1562 4.41096ZM1.9659 5.16246C1.9659 4.69906 2.14635 4.26338 2.47403 3.9357C2.80171 3.60802 3.2374 3.42752 3.70079 3.42752C4.16413 3.42752 4.59986 3.60802 4.92749 3.9357C5.25523 4.26338 5.43562 4.69901 5.43562 5.16246C5.43562 5.62591 5.25517 6.06159 4.92749 6.38922C4.59981 6.7169 4.16413 6.89734 3.70079 6.89734C3.2374 6.89734 2.80166 6.7169 2.47403 6.38922C2.14635 6.06159 1.9659 5.62591 1.9659 5.16246Z" fill="white"/>
<path d="M28.3179 22.8193C27.7787 22.2801 27.0619 21.9832 26.2994 21.9832C24.9597 21.9832 23.7654 22.9543 23.5012 24.2696H18.7914C18.542 23.324 17.6618 22.647 16.683 22.647C15.7059 22.647 14.824 23.3243 14.5747 24.2696H14.0161C13.7667 23.324 12.8865 22.647 11.9077 22.647C10.9306 22.647 10.0487 23.3243 9.79937 24.2696H8.61538C6.21416 24.2696 4.2607 22.3161 4.2607 19.9148C4.2607 17.5136 6.21421 15.5602 8.61538 15.5602H9.79937C10.0486 16.5054 10.9304 17.1828 11.9077 17.1828C12.8848 17.1828 13.7668 16.5054 14.0161 15.5601H14.5746C14.8239 16.5053 15.7056 17.1828 16.683 17.1828C17.6601 17.1828 18.542 16.5054 18.7913 15.5602H21.3848C23.4046 15.5602 25.2536 14.4539 26.2103 12.6731C26.5504 12.0398 25.5645 11.509 25.2239 12.1432C24.4627 13.5602 22.9917 14.4405 21.3848 14.4405H18.7914C18.5421 13.4952 17.6603 12.8178 16.683 12.8178C15.7059 12.8178 14.824 13.4951 14.5747 14.4405H14.0161C13.7668 13.4952 12.885 12.8178 11.9077 12.8178C10.9306 12.8178 10.0487 13.4951 9.79937 14.4405H8.61538C5.5968 14.4405 3.14099 16.8963 3.14099 19.915C3.14099 22.9336 5.5968 25.3894 8.61538 25.3894H9.79937C10.0486 26.3345 10.9306 27.011 11.9077 27.011C12.8846 27.011 13.7668 26.3345 14.0161 25.3894H14.5747C14.8239 26.3345 15.7059 27.011 16.683 27.011C17.6599 27.011 18.5421 26.3345 18.7914 25.3894H23.498C23.7556 26.7125 24.9535 27.6924 26.2995 27.6924C27.8538 27.6924 29.154 26.3925 29.154 24.8379C29.154 24.0753 28.8571 23.3585 28.3179 22.8193ZM15.9315 14.2488C16.1322 14.048 16.3992 13.9375 16.683 13.9375C16.9669 13.9375 17.2338 14.048 17.4345 14.2488C17.8489 14.6632 17.8489 15.3374 17.4345 15.7518C17.0202 16.1662 16.3459 16.1661 15.9315 15.7519C15.5172 15.3375 15.5172 14.6632 15.9315 14.2488ZM11.1563 14.2488C11.357 14.048 11.6239 13.9375 11.9078 13.9375C12.1916 13.9375 12.4586 14.048 12.6593 14.2488C13.0736 14.6632 13.0736 15.3374 12.6593 15.7518C12.2449 16.1662 11.5707 16.1661 11.1563 15.7519C10.7419 15.3375 10.7419 14.6632 11.1563 14.2488ZM12.6593 25.581C12.4586 25.7817 12.1916 25.8923 11.9078 25.8923C11.6239 25.8923 11.357 25.7817 11.1563 25.581C10.7419 25.1666 10.7419 24.4923 11.1563 24.0779C11.357 23.8772 11.6239 23.7667 11.9078 23.7667C12.1916 23.7667 12.4586 23.8772 12.6593 24.0779C13.0736 24.4923 13.0736 25.1666 12.6593 25.581ZM17.4345 25.581C17.2338 25.7817 16.9669 25.8923 16.683 25.8923C16.3992 25.8923 16.1322 25.7817 15.9315 25.581C15.5172 25.1666 15.5172 24.4923 15.9315 24.0779C16.1322 23.8772 16.3992 23.7667 16.683 23.7667C16.9669 23.7667 17.2338 23.8772 17.4345 24.0779C17.8489 24.4923 17.8489 25.1666 17.4345 25.581ZM27.5262 26.0645C27.1985 26.3923 26.7628 26.5727 26.2995 26.5727C25.8361 26.5727 25.4003 26.3922 25.0727 26.0645C24.745 25.7368 24.5646 25.3012 24.5646 24.8378C24.5646 24.3744 24.745 23.9387 25.0727 23.6111C25.4004 23.2833 25.8361 23.1029 26.2995 23.1029C26.7628 23.1029 27.1985 23.2834 27.5262 23.6111C27.8539 23.9388 28.0343 24.3744 28.0343 24.8378C28.0343 25.3012 27.8538 25.7369 27.5262 26.0645Z" fill="white"/>
<path d="M26.1776 9.58389C25.8787 9.52371 25.5795 9.72514 25.5198 10.0234C25.4597 10.3234 25.6602 10.6213 25.9593 10.6818C26.2588 10.7424 26.5568 10.5404 26.6171 10.2423C26.6778 9.94265 26.4757 9.64464 26.1776 9.58389Z" fill="white"/>
</g>
<defs>
<clipPath id="clip0">
<rect width="28.3077" height="28.3077" fill="white" transform="translate(0.846191 0.846191)"/>
</clipPath>
</defs>
</svg>
