<svg width="30" height="30" viewBox="0 0 30 30" fill="none" xmlns="http://www.w3.org/2000/svg">
<g clip-path="url(#clip0)">
<path d="M18.3174 26.7764C18.6228 26.7764 18.8703 26.5289 18.8703 26.2235C18.8703 25.9182 18.6228 25.6707 18.3174 25.6707C18.0121 25.6707 17.7645 25.9182 17.7645 26.2235C17.7645 26.5289 18.0121 26.7764 18.3174 26.7764Z" fill="white"/>
<path d="M16.1059 26.7764C16.4112 26.7764 16.6587 26.5289 16.6587 26.2235C16.6587 25.9182 16.4112 25.6707 16.1059 25.6707C15.8005 25.6707 15.553 25.9182 15.553 26.2235C15.553 26.5289 15.8005 26.7764 16.1059 26.7764Z" fill="white"/>
<path d="M13.8943 26.7764C14.1997 26.7764 14.4472 26.5289 14.4472 26.2235C14.4472 25.9182 14.1997 25.6707 13.8943 25.6707C13.589 25.6707 13.3414 25.9182 13.3414 26.2235C13.3414 26.5289 13.589 26.7764 13.8943 26.7764Z" fill="white"/>
<path d="M12.2446 16.1902C12.3741 18.2079 14.056 19.8102 16.1058 19.8102C18.1557 19.8102 19.8376 18.2079 19.9671 16.1902C20.2947 16.3822 20.6754 16.4929 21.0818 16.4929C22.3012 16.4929 23.2933 15.5008 23.2933 14.2813C23.2933 13.4712 22.85 12.7349 22.1593 12.3492C21.9617 10.4547 20.7652 8.98626 19.2418 8.77771C18.5198 8.06593 17.3676 7.64673 16.1058 7.64673C14.8436 7.64673 13.6913 8.06593 12.9697 8.77776C11.4463 8.98626 10.2499 10.4547 10.0524 12.3492C9.36169 12.7349 8.91833 13.4711 8.91833 14.2813C8.91833 15.5008 9.91043 16.4929 11.1299 16.4929C11.5362 16.4929 11.917 16.3822 12.2446 16.1902ZM18.8703 15.94C18.8703 17.4643 17.6301 18.7044 16.1058 18.7044C14.5815 18.7044 13.3414 17.4643 13.3414 15.94V13.1756C13.3414 12.5659 13.8375 12.0698 14.4472 12.0698C15.0569 12.0698 15.553 12.5659 15.553 13.1756C15.553 13.4809 15.8005 13.7285 16.1058 13.7285C16.4111 13.7285 16.6587 13.4809 16.6587 13.1756C16.6587 12.5659 17.1548 12.0698 17.7645 12.0698C18.3742 12.0698 18.8703 12.5659 18.8703 13.1756V15.94ZM10.0241 14.2813C10.0241 13.8121 10.3212 13.3925 10.7635 13.2372C10.9776 13.1621 11.124 12.9637 11.1328 12.737C11.1931 11.1821 12.1267 9.91853 13.2581 9.86026C13.4086 9.85252 13.5494 9.78374 13.6479 9.66979C14.1372 9.10397 15.0791 8.7525 16.1058 8.7525C17.1322 8.7525 18.074 9.10402 18.5639 9.67001C18.6624 9.78385 18.8031 9.85257 18.9535 9.86026C20.0849 9.91859 21.0185 11.1821 21.0789 12.737C21.0877 12.9638 21.2342 13.162 21.4482 13.2372C21.8904 13.3925 22.1876 13.8121 22.1876 14.2813C22.1876 14.8911 21.6915 15.3871 21.0818 15.3871C20.4721 15.3871 19.976 14.8911 19.976 14.2813V13.1756C19.976 11.9561 18.9839 10.964 17.7645 10.964C17.1047 10.964 16.5114 11.2545 16.1058 11.7142C15.7003 11.2545 15.107 10.964 14.4472 10.964C13.2277 10.964 12.2356 11.9561 12.2356 13.1756V14.2813C12.2356 14.8911 11.7396 15.3871 11.1299 15.3871C10.5202 15.3871 10.0241 14.8911 10.0241 14.2813Z" fill="white"/>
<path d="M17.2116 15.387C16.9063 15.387 16.6587 15.6345 16.6587 15.9398C16.6587 16.2447 16.4107 16.4927 16.1058 16.4927C15.8009 16.4927 15.5529 16.2447 15.5529 15.9398C15.5529 15.6345 15.3053 15.387 15 15.387C14.6947 15.387 14.4471 15.6345 14.4471 15.9398C14.4471 16.8544 15.1912 17.5985 16.1058 17.5985C17.0204 17.5985 17.7645 16.8544 17.7645 15.9398C17.7645 15.6345 17.5169 15.387 17.2116 15.387Z" fill="white"/>
<path d="M22.1875 23.8462V21.6347C22.1875 21.3294 21.9399 21.0818 21.6346 21.0818H10.5769C10.2716 21.0818 10.024 21.3294 10.024 21.6347V23.8462C10.024 24.1515 10.2716 24.3991 10.5769 24.3991H21.6346C21.9399 24.3991 22.1875 24.1515 22.1875 23.8462ZM21.0817 23.2933H11.1298V22.1876H21.0817V23.2933Z" fill="white"/>
<path d="M16.1059 29.1539C16.4112 29.1539 16.6587 28.9063 16.6587 28.601C16.6587 28.2956 16.4112 28.0481 16.1059 28.0481C15.8005 28.0481 15.553 28.2956 15.553 28.601C15.553 28.9063 15.8005 29.1539 16.1059 29.1539Z" fill="white"/>
<path d="M4.49524 3.61061V26.3895C4.49524 27.9138 5.73536 29.1539 7.25966 29.1539H13.6178C13.9232 29.1539 14.1707 28.9063 14.1707 28.601C14.1707 28.2957 13.9232 28.0481 13.6178 28.0481H7.81255V6.37504H24.3991V28.0481H18.5938C18.2885 28.0481 18.0409 28.2957 18.0409 28.601C18.0409 28.9063 18.2885 29.1539 18.5938 29.1539H24.952C25.2573 29.1539 25.5049 28.9063 25.5049 28.601V5.82215C25.5049 5.51685 25.2573 5.26927 24.952 5.26927C24.0374 5.26927 23.2933 4.5252 23.2933 3.61061C23.2933 2.69603 24.0374 1.95196 24.952 1.95196C25.2573 1.95196 25.5049 1.70438 25.5049 1.39908C25.5049 1.09377 25.2573 0.846191 24.952 0.846191H7.25966C5.73536 0.846191 4.49524 2.08631 4.49524 3.61061ZM6.70678 27.953C6.06328 27.7248 5.60101 27.1103 5.60101 26.3895V5.79069C5.92301 6.03009 6.29903 6.20591 6.70678 6.29891V27.953ZM8.36543 4.1635H22.2432C22.3264 4.57186 22.5 4.94766 22.7419 5.26927H7.37798C6.43774 5.26927 5.60101 4.58684 5.60101 3.61061C5.60101 2.69603 6.34508 1.95196 7.25966 1.95141H22.7419C22.4999 2.27357 22.3264 2.64937 22.2432 3.05773H8.36543C8.06007 3.05773 7.81255 3.30531 7.81255 3.61061C7.81255 3.91592 8.06007 4.1635 8.36543 4.1635Z" fill="white"/>
</g>
<defs>
<clipPath id="clip0">
<rect width="28.3077" height="28.3077" fill="white" transform="translate(0.846191 0.846191)"/>
</clipPath>
</defs>
</svg>
