<svg width="32" height="31" viewBox="0 0 32 31" fill="none" xmlns="http://www.w3.org/2000/svg">
<g clip-path="url(#clip0)">
<path d="M1.30164 28.2706L1.69152 29.1482L15.6822 23.347L18.1196 23.6396L18.9969 26.3207L17.827 27.442C17.3884 27.8319 17.2422 28.4656 17.486 29.0506L17.9734 30.2693L26.0654 27.1007L25.6267 25.9308C25.4317 25.3458 24.8955 25.0047 24.2618 25.0047H22.653L21.7757 22.9084L23.9205 21.8361C24.6029 21.4947 24.8955 20.7147 24.6517 20.0323L21.8732 12.574C21.5807 11.794 20.7519 11.4527 19.9719 11.6964C19.9719 11.6964 19.9233 11.6964 19.9233 11.7452L17.8758 12.6226L17.5833 11.8913L18.7046 10.5753C19.4844 9.69771 19.9719 8.6254 20.1183 7.4555L21.5319 5.74934C22.4581 4.67679 22.2631 3.06821 21.1906 2.14182C20.9956 1.99567 20.8007 1.84952 20.6058 1.75193C20.0695 1.50819 19.5332 1.4594 18.9484 1.60578L18.802 1.16686C18.5583 0.387092 17.6809 -0.00303161 16.9497 0.289502L6.66388 3.99437C5.88387 4.28691 5.49398 5.11547 5.78652 5.84669V5.89548L6.03025 6.52911C4.76277 7.11417 4.1777 8.5766 4.61638 9.84409C4.95771 10.819 5.83507 11.5015 6.85882 11.6476L9.15006 11.8913C10.0762 12.574 11.1973 13.0127 12.3187 13.11L13.9272 13.2564L14.2198 13.9876C13.8784 14.1826 13.6347 14.5239 13.5373 14.9626L13.196 16.62L1.30164 21.4459L1.64296 22.3721L8.46764 19.6424L10.125 24.6145L1.30164 28.2706ZM24.6517 26.2234L24.7493 26.5156L18.5095 29.0018L18.3633 28.7093C18.3145 28.5143 18.3633 28.3194 18.4609 28.1733L20.1183 26.6132L22.2143 25.9308H24.1642C24.408 25.9308 24.5544 26.0282 24.6517 26.2234ZM21.5807 25.0532L19.8257 25.6383L19.1921 23.786C19.4844 23.8345 19.7282 23.786 19.9719 23.6396L20.8007 23.2497L21.5807 25.0532ZM20.2644 12.4764C20.5082 12.3788 20.8007 12.4764 20.8983 12.7202L21.2882 13.7439L18.8996 14.5239L19.1921 15.4501L21.5807 14.6701L22.1655 16.2301L19.8745 17.0099L20.1671 17.9363L22.5069 17.1562L23.0919 18.716L20.8495 19.4472L21.142 20.3736L23.433 19.5936L23.6768 20.2272C23.7744 20.471 23.6768 20.7147 23.433 20.8123L19.582 22.7134C19.4844 22.7622 19.3871 22.7622 19.2895 22.7622L15.9747 22.3721L14.171 16.9613L14.5123 15.1575C14.5611 15.0114 14.6584 14.865 14.8048 14.8162L20.2644 12.4764ZM20.2156 2.62929C20.9956 2.97062 21.3858 3.89678 21.0444 4.72559C20.9956 4.87173 20.8983 4.96933 20.8007 5.11547L20.2156 5.84669C20.1671 5.35921 20.0695 4.92053 19.9233 4.43305L19.2895 2.53194C19.6308 2.48315 19.9233 2.53194 20.2156 2.62929ZM5.59133 9.60035C5.29904 8.77155 5.64013 7.89418 6.42014 7.50406L7.10256 9.16167C7.3463 9.7465 7.68763 10.3316 8.07751 10.819L7.05376 10.7215C6.37135 10.6727 5.78652 10.234 5.59133 9.60035ZM12.5136 12.1839C10.5149 11.9889 8.75993 10.7215 8.02872 8.82034L6.76147 5.60295C6.66388 5.35921 6.76147 5.06668 7.00521 4.96933L17.2908 1.26446C17.4372 1.21566 17.5345 1.21566 17.6809 1.26446C17.7782 1.31325 17.8758 1.4106 17.9246 1.55699L18.9969 4.77438C19.582 6.5779 19.1921 8.52781 17.9734 9.94144L16.4622 11.6964L16.9009 12.8663L15.1459 13.5975L14.6584 12.3788L12.5136 12.1839ZM9.3938 19.2523L10.5149 18.8136L11.7336 22.5185L12.6597 22.2259L11.3925 18.4237L13.3424 17.6437L14.9998 22.5673L11.0512 24.2247L9.3938 19.2523Z" fill="white"/>
<path d="M25.3834 8.72293V9.21041H26.3584V8.72293C26.3584 7.35809 27.4309 6.28555 28.7958 6.28555V5.3106C27.4309 5.3106 26.3584 4.23829 26.3584 2.87322V2.38574H25.3834V2.87322C25.3834 4.23829 24.3111 5.3106 22.946 5.3106V6.28555C24.3111 6.28555 25.3834 7.35809 25.3834 8.72293ZM25.8709 4.62818C26.1634 5.11566 26.5533 5.50578 27.0408 5.79808C26.5533 6.09061 26.1634 6.48073 25.8709 6.96821C25.5784 6.48073 25.1885 6.09061 24.701 5.79808C25.1885 5.50578 25.5784 5.11566 25.8709 4.62818Z" fill="white"/>
<path d="M3.93397 18.4724V18.9599H4.90892V18.4724C4.90892 17.1076 5.98146 16.0351 7.3463 16.0351V15.0601C5.98146 15.0601 4.90892 13.9878 4.90892 12.6227V12.1353H3.93397V12.6227C3.93397 13.9878 2.86166 15.0601 1.49658 15.0601V16.0351C2.86166 16.0351 3.93397 17.1076 3.93397 18.4724ZM4.42144 14.3777C4.71398 14.8652 5.10386 15.2553 5.59134 15.5476C5.10386 15.8401 4.71398 16.2302 4.42144 16.7177C4.12891 16.2302 3.73902 15.8401 3.25155 15.5476C3.73902 15.2553 4.12891 14.8652 4.42144 14.3777Z" fill="white"/>
<path d="M28.3087 12.6227V12.1353H27.3337V12.6227C27.3337 13.9878 26.2614 15.0601 24.8964 15.0601V16.0351C26.2614 16.0351 27.3337 17.1076 27.3337 18.4724V18.9599H28.3087V18.4724C28.3087 17.1076 29.3812 16.0351 30.7461 16.0351V15.0601C29.3812 15.0601 28.3087 13.9878 28.3087 12.6227ZM27.8212 16.7177C27.5287 16.2302 27.1388 15.8401 26.6513 15.5476C27.1388 15.2553 27.5287 14.8652 27.8212 14.3777C28.1137 14.8652 28.5036 15.2553 28.9911 15.5476C28.5036 15.8401 28.1137 16.2302 27.8212 16.7177Z" fill="white"/>
<path d="M15.7808 8.86924L16.4632 9.55166C19.1443 6.87054 16.6582 2.77578 16.512 2.62939L15.6832 3.16567C15.732 3.16567 17.9257 6.72439 15.7808 8.86924Z" fill="white"/>
</g>
<defs>
<clipPath id="clip0">
<rect width="30.0769" height="30.0769" fill="white" transform="translate(0.961548 0.192383)"/>
</clipPath>
</defs>
</svg>
