<svg width="50" height="50" viewBox="0 0 50 50" fill="none" xmlns="http://www.w3.org/2000/svg">
<rect width="50" height="50" rx="25" fill="#389DAC"/>
<path d="M25.1659 35.28C22.4966 35.28 20.4059 34.636 18.8939 33.348C17.4006 32.0413 16.6073 30.156 16.5139 27.692C16.4953 27.188 16.4859 26.3667 16.4859 25.228C16.4859 24.0707 16.4953 23.2307 16.5139 22.708C16.6073 20.2813 17.4193 18.4147 18.9499 17.108C20.4806 15.7827 22.5526 15.12 25.1659 15.12C26.8086 15.12 28.2833 15.4 29.5899 15.96C30.8966 16.5013 31.9233 17.2853 32.6699 18.312C33.4353 19.32 33.8273 20.5053 33.8459 21.868V21.924C33.8459 22.0733 33.7806 22.204 33.6499 22.316C33.5379 22.4093 33.4073 22.456 33.2579 22.456H29.4779C29.2353 22.456 29.0486 22.4093 28.9179 22.316C28.7873 22.204 28.6753 22.008 28.5819 21.728C28.3206 20.776 27.9099 20.1133 27.3499 19.74C26.7899 19.348 26.0526 19.152 25.1379 19.152C22.9353 19.152 21.7966 20.384 21.7219 22.848C21.7033 23.352 21.6939 24.1267 21.6939 25.172C21.6939 26.2173 21.7033 27.0107 21.7219 27.552C21.7966 30.016 22.9353 31.248 25.1379 31.248C26.0526 31.248 26.7993 31.052 27.3779 30.66C27.9566 30.2493 28.3579 29.5867 28.5819 28.672C28.6566 28.392 28.7593 28.2053 28.8899 28.112C29.0206 28 29.2166 27.944 29.4779 27.944H33.2579C33.4259 27.944 33.5659 28 33.6779 28.112C33.8086 28.224 33.8646 28.364 33.8459 28.532C33.8273 29.8947 33.4353 31.0893 32.6699 32.116C31.9233 33.124 30.8966 33.908 29.5899 34.468C28.2833 35.0093 26.8086 35.28 25.1659 35.28Z" fill="white"/>
</svg>
