<svg width="18" height="18" fill="none" xmlns="http://www.w3.org/2000/svg"><path d="M17.89 16.83l-3.955-3.956c-.724-.724-.753-1.869-.327-2.8a7.067 7.067 0 00.642-2.949C14.25 3.196 11.054 0 7.125 0A7.133 7.133 0 000 7.125a7.133 7.133 0 007.125 7.125c1.052 0 2.05-.23 2.95-.642.93-.426 2.075-.397 2.8.327l3.955 3.955a.375.375 0 00.53 0l.53-.53a.375.375 0 000-.53zM7.125 12.75A5.631 5.631 0 011.5 7.125 5.631 5.631 0 017.125 1.5a5.631 5.631 0 015.625 5.625 5.631 5.631 0 01-5.625 5.625z" fill="#3B9670"/></svg>