<svg width="16" height="16" viewBox="0 0 16 16" fill="none" xmlns="http://www.w3.org/2000/svg">
<path d="M11.8569 10.4411C11.7978 10.3813 11.7822 10.2875 11.8303 10.2186C12.7365 8.91947 13.1381 7.33228 12.9562 5.7553C12.7685 4.12796 11.9733 2.63149 10.7297 1.56528C9.48604 0.499068 7.88567 -0.0582491 6.24876 0.00482408C4.61184 0.0678972 3.05911 0.746709 1.90119 1.90545C0.743273 3.0642 0.0655718 4.61742 0.00366997 6.25438C-0.0582319 7.89134 0.500231 9.49131 1.56733 10.7342C2.63443 11.9771 4.13147 12.7712 5.75894 12.9577C7.38621 13.1442 9.0239 12.7095 10.3444 11.7405C10.3446 11.7404 10.3445 11.7401 10.3443 11.7401C10.3442 11.7401 10.3441 11.7403 10.3442 11.7405C10.3741 11.7803 10.406 11.8182 10.4419 11.8551L14.2919 15.7051C14.4794 15.8928 14.7338 15.9983 14.9991 15.9983C15.2643 15.9984 15.5188 15.8932 15.7064 15.7056C15.8941 15.5181 15.9995 15.2638 15.9996 14.9985C15.9997 14.7332 15.8944 14.4788 15.7069 14.2911L11.8569 10.4411ZM11.9999 6.49815C11.9999 7.22042 11.8577 7.93562 11.5813 8.60291C11.3049 9.2702 10.8997 9.87651 10.389 10.3872C9.87829 10.898 9.27197 11.3031 8.60468 11.5795C7.93739 11.8559 7.22219 11.9981 6.49992 11.9981C5.77765 11.9981 5.06245 11.8559 4.39516 11.5795C3.72787 11.3031 3.12156 10.898 2.61083 10.3872C2.10011 9.87651 1.69498 9.2702 1.41858 8.60291C1.14218 7.93562 0.999921 7.22042 0.999921 6.49815C0.999921 5.03946 1.57938 3.64051 2.61083 2.60906C3.64228 1.57761 5.04123 0.998147 6.49992 0.998147C7.95861 0.998147 9.35756 1.57761 10.389 2.60906C11.4205 3.64051 11.9999 5.03946 11.9999 6.49815Z" fill="white"/>
</svg>
