<svg width="46" height="46" viewBox="0 0 46 46" fill="none" xmlns="http://www.w3.org/2000/svg">
<circle cx="23" cy="23" r="23" fill="#953478"/>
<g clip-path="url(#clip0_115_5728)">
<path d="M34.5086 21.3179C35.1031 20.4071 34.9933 19.2222 34.2416 18.4362C33.9103 18.0898 33.7718 17.6031 33.8711 17.1343C34.0965 16.0703 33.566 15.005 32.5811 14.5437C32.1471 14.3404 31.8421 13.9365 31.7653 13.4634C31.5911 12.3899 30.7116 11.5881 29.6267 11.5137C29.1485 11.4809 28.7182 11.2146 28.4757 10.8011C27.9254 9.86309 26.816 9.43318 25.7771 9.75568C25.3194 9.89783 24.822 9.80479 24.4465 9.50695C23.5945 8.83102 22.4045 8.83102 21.5526 9.50695C21.1771 9.8049 20.6796 9.89783 20.2219 9.75568C19.1833 9.43312 18.0736 9.86303 17.5234 10.8011C17.2808 11.2146 16.8506 11.4809 16.3725 11.5137C15.2874 11.5881 14.408 12.3899 14.2337 13.4634C14.157 13.9365 13.852 14.3404 13.418 14.5437C12.4331 15.005 11.9027 16.0703 12.128 17.1343C12.2273 17.6031 12.0888 18.0899 11.7576 18.4363C11.0059 19.2223 10.896 20.4073 11.4905 21.318C11.7525 21.7193 11.7992 22.2232 11.6154 22.6659C11.1984 23.6703 11.5241 24.8149 12.4074 25.4494C12.7967 25.729 13.0222 26.182 13.0107 26.6611C12.9847 27.7484 13.7019 28.698 14.7547 28.9706C15.0655 29.0511 15.3355 29.2309 15.529 29.4762L13.1077 35.3217C12.7684 36.1409 13.5363 36.9844 14.3832 36.7245L17.0341 35.9109C17.1116 35.8873 17.1951 35.9219 17.233 35.9934L18.5322 38.4431C18.9478 39.2267 20.0872 39.1714 20.4261 38.3531L22.9498 32.2605C22.9829 32.2594 23.016 32.2594 23.0491 32.2605L25.5728 38.3531C25.9123 39.1727 27.0516 39.2256 27.4667 38.4431L28.7659 35.9934C28.8038 35.9219 28.8874 35.8873 28.9648 35.911L31.6157 36.7245C32.463 36.9846 33.2304 36.1404 32.8913 35.3217L30.4699 29.4762C30.6634 29.231 30.9334 29.0511 31.2441 28.9707C32.2969 28.6982 33.0141 27.7485 32.9882 26.6612C32.9767 26.1821 33.2023 25.7291 33.5916 25.4495C34.4749 24.815 34.8005 23.6704 34.3835 22.6659C34.2 22.2231 34.2467 21.7192 34.5086 21.3179ZM19.6143 38.0167C19.5591 38.1498 19.376 38.1579 19.3088 38.0312L18.0096 35.5815C17.7745 35.1384 17.2559 34.9237 16.7765 35.0708L14.1256 35.8843C13.988 35.9263 13.8647 35.7909 13.9198 35.6579L16.0679 30.4716C16.5526 31.1355 17.3629 31.5056 18.2158 31.406C18.6918 31.3505 19.1637 31.5332 19.478 31.8949C19.9341 32.4199 20.5767 32.6986 21.2323 32.6985C21.4396 32.6985 21.6482 32.6695 21.8527 32.6128L19.6143 38.0167ZM31.8737 35.8842L29.2228 35.0707C28.7434 34.9236 28.2246 35.1384 27.9897 35.5815L26.6905 38.0312C26.6234 38.1578 26.44 38.1496 26.3849 38.0166L24.1469 32.6137C24.9976 32.8499 25.921 32.5856 26.5212 31.8948C26.8355 31.533 27.3072 31.3502 27.7834 31.4058C28.6372 31.5056 29.4469 31.1355 29.9313 30.4716L32.0796 35.6577C32.1348 35.7912 32.0107 35.9261 31.8737 35.8842ZM33.7727 20.8375C33.3519 21.4822 33.2769 22.2916 33.5721 23.0027C33.8316 23.628 33.629 24.3405 33.0791 24.7355C32.4537 25.1847 32.0914 25.9124 32.1098 26.682C32.126 27.3589 31.6795 27.9501 31.0241 28.1197C30.411 28.2785 29.8962 28.6775 29.5875 29.2171C29.5866 29.2187 29.5858 29.2202 29.5849 29.2217C29.5195 29.3367 29.4628 29.4578 29.4171 29.5846C29.1877 30.2216 28.5583 30.612 27.8854 30.5331C27.1208 30.4437 26.3627 30.7374 25.8578 31.3186C25.4138 31.8296 24.6856 31.9658 24.0868 31.6496C23.8832 31.5421 23.6676 31.4674 23.4474 31.4242C23.4456 31.4238 23.4438 31.4234 23.442 31.4231C23.1495 31.3664 22.8489 31.3665 22.5564 31.4233C22.5553 31.4235 22.5543 31.4238 22.5533 31.4239C22.3326 31.4671 22.1165 31.5419 21.9124 31.6496C21.3137 31.9658 20.5855 31.8296 20.1416 31.3186C19.6964 30.8062 19.0546 30.5173 18.3848 30.5173C18.2949 30.5173 18.2044 30.5225 18.1139 30.5331C17.4417 30.6118 16.8115 30.2217 16.5821 29.5847C16.5365 29.4579 16.4799 29.3371 16.4145 29.2221C16.4135 29.2202 16.4125 29.2185 16.4115 29.2166C16.1027 28.6772 15.5881 28.2784 14.9752 28.1197C14.3197 27.95 13.8733 27.3589 13.8895 26.6821C13.9079 25.9124 13.5455 25.1848 12.9202 24.7355C12.3704 24.3405 12.1676 23.628 12.4272 23.0027C12.7224 22.2916 12.6474 21.4822 12.2266 20.8375C11.8566 20.2706 11.9249 19.5329 12.3929 19.0436C12.925 18.4872 13.1475 17.7053 12.988 16.9522C12.8477 16.2898 13.1779 15.6267 13.791 15.3394C14.4882 15.0128 14.978 14.3641 15.1014 13.6042C15.2099 12.9359 15.7574 12.4368 16.4328 12.3905C17.2009 12.3378 17.8921 11.9099 18.2816 11.2457C18.6242 10.6618 19.3151 10.3942 19.9615 10.595C20.6968 10.8233 21.4958 10.674 22.099 10.1954C22.6293 9.77461 23.3701 9.77461 23.9006 10.1954C24.5037 10.6739 25.3026 10.8234 26.038 10.595C26.6846 10.3942 27.3754 10.6618 27.7179 11.2457C28.1074 11.9098 28.7986 12.3377 29.5667 12.3905C30.2421 12.4368 30.7896 12.9359 30.8981 13.6042C31.0215 14.3641 31.5114 15.0128 32.2085 15.3395C32.8217 15.6267 33.1518 16.2898 33.0116 16.9522C32.8521 17.7053 33.0745 18.4872 33.6066 19.0436C34.0744 19.5329 34.1427 20.2706 33.7727 20.8375Z" fill="white"/>
<path d="M14.6768 20.2579C14.9175 20.2875 15.137 20.1163 15.1666 19.8755C15.6519 15.9313 19.0196 12.957 23 12.957C26.9824 12.957 30.3502 15.9328 30.8339 19.8792C30.8612 20.1019 31.0507 20.2652 31.2695 20.2652C31.2873 20.2652 31.3053 20.2641 31.3235 20.2619C31.5644 20.2323 31.7357 20.0131 31.7062 19.7722C31.1686 15.3859 27.4257 12.0781 23 12.0781C18.5764 12.0781 14.8338 15.3841 14.2943 19.7681C14.2648 20.009 14.436 20.2283 14.6768 20.2579Z" fill="white"/>
<path d="M31.3234 21.4369C31.0832 21.4076 30.8633 21.5787 30.8338 21.8196C30.3503 25.7661 26.9824 28.7422 22.9998 28.7422C19.0191 28.7422 15.6514 25.7676 15.1663 21.823C15.1367 21.5822 14.9176 21.4111 14.6765 21.4405C14.4357 21.4701 14.2644 21.6895 14.294 21.9303C14.8332 26.3147 18.5758 29.6209 22.9998 29.6209C27.4257 29.6209 31.1686 26.313 31.706 21.9264C31.7356 21.6856 31.5643 21.4664 31.3234 21.4369Z" fill="white"/>
<path d="M29.2042 19.0355C29.0925 18.6918 28.787 18.4613 28.4258 18.4484L24.9804 18.3248L23.7982 15.0862C23.6742 14.7467 23.3607 14.5273 22.9993 14.5273C22.6378 14.5273 22.3243 14.7467 22.2003 15.0862L21.0181 18.3248L17.5727 18.4484C17.2115 18.4613 16.906 18.6918 16.7943 19.0355C16.6826 19.3793 16.7943 19.7454 17.0789 19.9681L19.7936 22.0933L18.8465 25.4083C18.7472 25.7558 18.872 26.1176 19.1644 26.3301C19.4565 26.5423 19.8392 26.5496 20.1392 26.3475L22.9992 24.4223L25.8592 26.3474C26.1589 26.5492 26.5416 26.5424 26.834 26.3299C27.1265 26.1175 27.2512 25.7557 27.1519 25.4081L26.2048 22.0932L28.9195 19.9681C29.2042 19.7453 29.3159 19.3793 29.2042 19.0355ZM25.6482 21.4129C25.3742 21.6274 25.259 21.9821 25.3546 22.3164L26.2857 25.5751L23.4742 23.6827C23.3299 23.5855 23.1645 23.537 22.9992 23.537C22.8338 23.537 22.6685 23.5855 22.5242 23.6826L19.7127 25.575L20.6438 22.3164C20.7393 21.9819 20.6242 21.6274 20.3503 21.4129L17.6816 19.3238L21.0686 19.2023C21.4162 19.1898 21.7178 18.9706 21.837 18.644L22.9993 15.4603L24.1615 18.644C24.2808 18.9706 24.5823 19.1898 24.9299 19.2022L28.3168 19.3238L25.6482 21.4129Z" fill="white"/>
</g>
<defs>
<clipPath id="clip0_115_5728">
<rect width="30" height="30" fill="white" transform="translate(8 9)"/>
</clipPath>
</defs>
</svg>
