<svg width="46" height="46" viewBox="0 0 46 46" fill="none" xmlns="http://www.w3.org/2000/svg">
<circle cx="23" cy="23" r="23" fill="#953478"/>
<g clip-path="url(#clip0_115_5597)">
<path d="M37.017 10.8994H8.99616C8.42934 10.8994 7.96814 11.3606 7.96814 11.9274V15.5458C7.96814 16.1154 8.8493 16.1154 8.8493 15.5458V11.9274C8.8493 11.8465 8.91515 11.7806 8.99616 11.7806H37.017C37.0981 11.7806 37.1639 11.8465 37.1639 11.9274V33.4124C37.1639 33.4934 37.0981 33.5593 37.017 33.5593H31.371V32.6425H35.8023C36.0457 32.6425 36.2429 32.4452 36.2429 32.2019V27.5882C36.2429 27.0186 35.3618 27.0186 35.3618 27.5882V31.7613H31.371V29.8065C31.3854 29.8078 31.3998 29.809 31.4134 29.8102C31.7791 29.8424 32.2341 29.8824 32.5492 29.5666C32.864 29.2512 32.8242 28.7958 32.7922 28.4299C32.7577 28.0372 32.7948 27.9297 33.0966 27.6788C33.8738 27.0326 33.8882 26.3407 33.0966 25.6827C32.7948 25.4316 32.7579 25.3242 32.7922 24.9315C32.8784 23.9459 32.4181 23.4629 31.4134 23.5512C31.0213 23.5857 30.9149 23.5484 30.6649 23.2465C30.0197 22.4676 29.3273 22.4532 28.6702 23.2465C28.4202 23.5483 28.3138 23.5858 27.9217 23.5512C26.9355 23.4646 26.4549 23.9275 26.5429 24.9315C26.5772 25.3243 26.5402 25.4316 26.2384 25.6827C25.4613 26.3288 25.4469 27.0208 26.2384 27.6788C26.5402 27.9299 26.5772 28.0373 26.5429 28.43C26.4504 29.4856 26.9545 29.8938 27.9639 29.8066V31.7615H10.6515V13.5784H35.3618V25.2385C35.3618 25.8081 36.2429 25.8081 36.2429 25.2385V13.1379C36.2429 12.8945 36.0457 12.6973 35.8023 12.6973H10.2109C9.96755 12.6973 9.77035 12.8945 9.77035 13.1379V32.2019C9.77035 32.4452 9.96755 32.6425 10.2109 32.6425H27.9639V33.5593H8.99616C8.91515 33.5593 8.8493 33.4934 8.8493 33.4124V17.778C8.8493 17.2083 7.96814 17.2083 7.96814 17.778V33.4124C7.96814 33.9792 8.42934 34.4404 8.99616 34.4404H27.9639V36.4348C28.0266 36.7969 28.2355 36.9301 28.5903 36.8342L29.6675 36.3332L30.7447 36.8342C31.0112 36.9582 31.371 36.7623 31.371 36.4348V34.4404H37.017C37.5839 34.4404 38.0451 33.9792 38.0451 33.4124V11.9274C38.0451 11.3606 37.5839 10.8994 37.017 10.8994ZM27.8445 28.9324C27.4034 28.9712 27.382 28.9476 27.4206 28.5068C27.4798 27.8302 27.3242 27.4354 26.8016 27.0011C26.4441 26.7038 26.4442 26.6574 26.8016 26.3601C27.3242 25.9258 27.4798 25.531 27.4206 24.8545C27.382 24.4136 27.4034 24.3903 27.8445 24.4289C28.5211 24.4885 28.9153 24.3317 29.3487 23.8085C29.6448 23.4511 29.6901 23.4511 29.9862 23.8085C30.4197 24.3317 30.8138 24.4883 31.4904 24.4289C31.9315 24.39 31.9528 24.4136 31.9143 24.8545C31.8551 25.531 32.0107 25.9257 32.5332 26.3601C32.8907 26.6574 32.8909 26.7038 32.5332 27.0011C32.0106 27.4355 31.855 27.8301 31.9142 28.5066C31.953 28.9475 31.9315 28.9711 31.4905 28.9324C31.2137 28.908 30.8998 28.8804 30.6235 28.9952C30.356 29.1063 30.168 29.3332 29.9862 29.5527C29.9005 29.6561 29.7442 29.8449 29.6673 29.8787C29.5906 29.8449 29.4343 29.6561 29.3486 29.5527C29.1668 29.3333 28.9788 29.1063 28.7113 28.9952C28.4261 28.9083 28.1372 28.8873 27.8445 28.9324ZM29.8533 35.4479C29.7354 35.3931 29.5995 35.3931 29.4817 35.4479L28.8451 35.744V30.3191C29.0541 30.5489 29.3121 30.7623 29.6675 30.7623C30.0229 30.7623 30.2808 30.549 30.4899 30.3191V35.744L29.8533 35.4479Z" fill="white"/>
<path d="M13.6811 17.2659H28.8691C29.4388 17.2659 29.4388 16.3848 28.8691 16.3848H13.6811C13.1114 16.3848 13.1114 17.2659 13.6811 17.2659Z" fill="white"/>
<path d="M32.7725 19.506C32.7725 19.2627 32.5753 19.0654 32.3319 19.0654H13.6822C13.1126 19.0654 13.1126 19.9466 13.6822 19.9466H32.332C32.5753 19.9466 32.7725 19.7493 32.7725 19.506Z" fill="white"/>
<path d="M24.7187 22.1857C24.7187 21.9424 24.5215 21.7451 24.2781 21.7451H13.6822C13.1126 21.7451 13.1126 22.6263 13.6822 22.6263H24.2781C24.5214 22.6263 24.7187 22.429 24.7187 22.1857Z" fill="white"/>
<path d="M18.9336 28.3261C18.6934 28.3265 18.4531 28.3268 18.2129 28.327C17.7508 28.3273 17.4963 28.2041 17.4019 27.7141C17.3158 27.2668 16.6705 27.3237 16.5523 27.7141C16.4999 27.887 16.2356 28.3819 16.0046 28.3414C15.8823 28.32 15.8288 28.1312 15.7836 28.0335C15.6955 27.8432 15.6314 27.6415 15.5765 27.4395C15.3445 26.5857 15.2982 25.6942 15.1531 24.8244C15.069 24.3199 14.3001 24.4626 14.2877 24.9415C14.2483 26.4671 13.9988 27.9719 13.4557 29.4019C13.2541 29.9325 14.1056 30.162 14.3054 29.6361C14.5148 29.0848 14.681 28.5202 14.81 27.9472C14.8792 28.156 14.9618 28.3607 15.0625 28.5599C15.3198 29.0684 15.8446 29.3693 16.406 29.1431C16.6064 29.0624 16.7892 28.9213 16.9448 28.7496C17.3617 29.2303 17.9818 29.2085 18.5604 29.2078C19.4326 29.2067 20.3048 29.2046 21.177 29.2022C21.7439 29.2006 21.745 28.3194 21.177 28.321C20.4292 28.3231 19.6814 28.3249 18.9336 28.3261Z" fill="white"/>
<path d="M29.6673 28.4017C30.6161 28.4017 31.3882 27.6297 31.3882 26.6808C31.3882 25.7319 30.6161 24.96 29.6673 24.96C28.7184 24.96 27.9464 25.732 27.9464 26.6808C27.9464 27.6296 28.7184 28.4017 29.6673 28.4017ZM29.6673 25.8411C30.1303 25.8411 30.507 26.2178 30.507 26.6808C30.507 27.1438 30.1303 27.5205 29.6673 27.5205C29.2042 27.5205 28.8276 27.1438 28.8276 26.6808C28.8276 26.2178 29.2042 25.8411 29.6673 25.8411Z" fill="white"/>
</g>
<defs>
<clipPath id="clip0_115_5597">
<rect width="30.0769" height="30.0769" fill="white" transform="translate(7.96814 8.84668)"/>
</clipPath>
</defs>
</svg>
