<svg width="32" height="32" viewBox="0 0 32 32" fill="none" xmlns="http://www.w3.org/2000/svg">
<path d="M31.9351 18.9697C31.5726 16.7422 29.4984 15.0625 27.1104 15.0625H25.7794C24.8463 14.1055 21.8939 11.3792 18.8109 11.6853V10.375H23.4984V4.75H18.8109V0H13.1859V4.75H8.49836V10.375H13.1859V11.6853C10.1031 11.3794 7.1507 14.1055 6.2176 15.0625H4.88654C2.49836 15.0625 0.424382 16.7422 0.0620769 18.9697C-0.362728 21.5813 1.45636 23.9673 3.99079 24.3765C4.47126 25.5115 5.86823 26.3125 7.56086 26.3125C9.66389 26.3125 11.3109 25.0771 11.3109 23.5C11.3109 21.9229 9.66389 20.6875 7.56086 20.6875C5.94172 20.6875 4.59357 21.4204 4.0589 22.4773C2.69318 22.1392 1.66193 20.8127 1.91266 19.2708C2.12897 17.9407 3.40754 16.9375 4.88654 16.9375H5.80793C6.27204 18.5642 7.87751 18.7983 8.97638 18.98C10.2227 19.186 11.0086 19.3689 11.4105 20.1702C11.9847 21.3154 12.0062 22.1562 12.0313 23.1296C12.0474 23.7629 12.0643 24.4177 12.2235 25.189C12.7032 27.5129 13.1859 27.8047 13.1859 29.9341V32H18.8109L18.7984 31.0625C18.7984 27.1594 19.1339 28.2876 19.7735 25.189C19.9327 24.4177 19.9495 23.7629 19.9656 23.1299C19.9905 22.1562 20.012 21.3157 20.5865 20.1702C20.9896 19.3665 21.7752 19.1843 23.0216 18.9797C24.0787 18.8062 25.7213 18.5825 26.1893 16.9375H27.1102C28.5894 16.9375 29.8677 17.9407 30.0843 19.2708C30.3341 20.8066 29.3096 22.1377 27.9381 22.4773C27.4034 21.4204 26.0552 20.6875 24.4359 20.6875C22.3331 20.6875 20.6859 21.9229 20.6859 23.5C20.6859 25.0771 22.3331 26.3125 24.4359 26.3125C26.1287 26.3125 27.5257 25.5115 28.0062 24.3765C30.5421 23.967 32.3594 21.5796 31.9351 18.9697ZM7.56086 22.5625C8.70563 22.5625 9.43586 23.1177 9.43586 23.5C9.43586 23.8823 8.70563 24.4375 7.56086 24.4375C6.41633 24.4375 5.68586 23.8823 5.68586 23.5C5.68586 23.1177 6.41633 22.5625 7.56086 22.5625ZM10.3734 8.5V6.625H15.0609V1.875H16.9359V6.625H21.6234V8.5H16.9359V13.1875H15.0609V8.5H10.3734ZM22.7178 17.1294C21.4742 17.3337 19.7713 17.6133 18.9105 19.3298C18.1485 20.8491 18.118 22.0354 18.0914 23.0818C18.0767 23.6582 18.0626 24.2026 17.9373 24.8101C17.3975 27.425 17.0018 27.0005 16.9437 30.125H15.0609C15.0609 27.3916 14.5286 27.0815 14.0596 24.8101C13.9344 24.2024 13.9202 23.6582 13.9056 23.0818C13.8787 22.0352 13.8485 20.8491 13.0865 19.3296C12.2274 17.6167 10.5252 17.3354 9.28205 17.1301C8.03693 16.9243 7.67536 16.7949 7.58649 16.3406C8.67878 15.2168 11.1126 13.249 13.1859 13.5784V15.0625H18.8109V13.5786C20.8848 13.249 23.3192 15.2178 24.4107 16.3408C24.3221 16.7961 23.9612 16.9253 22.7178 17.1294ZM24.4359 24.4375C23.2913 24.4375 22.5609 23.8823 22.5609 23.5C22.5609 23.1177 23.2913 22.5625 24.4359 22.5625C25.5806 22.5625 26.3109 23.1177 26.3109 23.5C26.3109 23.8823 25.5806 24.4375 24.4359 24.4375Z" fill="white"/>
</svg>
