<svg width="28" height="21" viewBox="0 0 28 21" fill="none" xmlns="http://www.w3.org/2000/svg">
<path fill-rule="evenodd" clip-rule="evenodd" d="M3.15508 1.62532C5.11767 0.298867 7.46748 -0.182705 9.78009 0.0607603C12.9624 0.392592 15.6302 2.78971 15.8203 5.64013C15.8293 5.6723 15.8371 5.70104 15.8435 5.72479C15.8441 5.72707 15.8447 5.7293 15.8453 5.73148C16.3254 6.21615 16.8558 6.95676 16.8743 7.89845C16.8944 8.9207 16.3127 9.83869 15.2532 10.6152C15.288 10.6409 15.3228 10.6662 15.3581 10.6919C15.4382 10.7501 15.521 10.8104 15.6133 10.8816C15.6656 10.8913 15.779 10.9017 15.975 10.8691C16.2423 10.8247 16.555 10.7169 16.8503 10.5692C17.1494 10.408 17.3258 10.3084 17.4198 10.2325C17.4968 10.1703 17.5686 10.1201 17.6238 10.0827C17.6464 10.0675 17.6689 10.0525 17.6868 10.0406L17.6964 10.0342C17.7094 10.0256 17.7197 10.0187 17.7285 10.0128C17.7573 9.97682 17.7887 9.94288 17.8223 9.9112C18.4607 9.30981 19.1658 8.86091 19.9988 8.67054C20.8292 8.48076 21.6833 8.57142 22.5827 8.86865C23.3799 9.1112 24.0729 9.43102 24.7009 9.72084L24.8501 9.78105C24.8606 9.77814 24.8718 9.77504 24.8837 9.77175C24.9058 9.76563 24.9298 9.75894 24.9556 9.75176C25.0355 9.72947 25.1322 9.70252 25.2402 9.67344C25.2608 9.66791 25.2814 9.66304 25.3023 9.65884C25.4158 9.63593 25.5279 9.60378 25.6919 9.55672C25.7226 9.54794 25.755 9.53863 25.7896 9.52878C25.993 9.4708 26.2463 9.40159 26.5367 9.35469C27.082 9.26663 27.5953 9.63724 27.6834 10.1825C27.7714 10.7277 27.4008 11.241 26.8556 11.3291C26.686 11.3565 26.5254 11.3987 26.3378 11.4522C26.3131 11.4592 26.2872 11.4667 26.26 11.4745C26.1081 11.5183 25.9206 11.5724 25.7322 11.6122C25.6685 11.6295 25.6032 11.6477 25.5389 11.6656C25.3833 11.7088 25.2339 11.7504 25.1287 11.7735C25.045 11.792 24.8984 11.8212 24.7328 11.8162C24.5904 11.812 24.4101 11.7816 24.2291 11.6872L23.9297 11.5663C23.9147 11.5603 23.8999 11.5538 23.8852 11.5471C23.2344 11.2468 22.6504 10.9788 21.9903 10.7789C21.9817 10.7763 21.9731 10.7736 21.9646 10.7708C21.3047 10.5514 20.829 10.5324 20.4444 10.6203C20.0757 10.7045 19.6953 10.9087 19.2563 11.309C19.1158 11.4828 18.962 11.5915 18.8817 11.647C18.8171 11.6918 18.7802 11.7159 18.7543 11.7328C18.7221 11.7539 18.7068 11.7639 18.6763 11.7885C18.4178 11.9972 18.0701 12.1841 17.8255 12.3156C17.812 12.3228 17.7989 12.3299 17.786 12.3368C17.7783 12.341 17.7705 12.3451 17.7626 12.349C17.3251 12.5698 16.8143 12.7571 16.303 12.8421C15.8154 12.9231 15.1874 12.934 14.63 12.634C14.5755 12.6046 14.5239 12.5703 14.4757 12.5315C14.4395 12.5022 14.3822 12.4601 14.3094 12.4067C14.0827 12.2402 13.7051 11.9628 13.34 11.6146C13.2368 11.5319 12.9569 11.2998 12.7818 11.0169C12.5164 10.5883 12.6115 10.0292 13.0037 9.71247C13.0094 9.70785 13.0154 9.70305 13.0215 9.69811C13.1983 9.55521 13.5347 9.28332 13.894 9.08992L14.1078 8.97479C14.8256 8.43827 14.8774 8.07552 14.8747 7.93775C14.8708 7.73995 14.7462 7.46413 14.4267 7.14124C14.206 6.94876 14.0762 6.73215 13.9941 6.51119C13.9595 6.41801 13.9347 6.32702 13.9196 6.27176L13.9192 6.27024C13.917 6.26222 13.9149 6.25449 13.9129 6.24701C13.8985 6.19396 13.8874 6.15316 13.8727 6.10579C13.847 6.02278 13.8322 5.93678 13.8288 5.84996C13.7609 4.15122 12.0455 2.30763 9.57227 2.04993L9.57115 2.04982C7.66036 1.84856 5.78708 2.25409 4.25812 3.2938C4.24361 3.30367 4.22885 3.31315 4.21384 3.32224C3.45086 3.78432 2.98703 4.33451 2.73412 4.9472C2.48338 5.55461 2.40824 6.30129 2.55499 7.21284C2.81822 8.05335 3.14045 8.88405 3.71774 9.60587C4.29259 10.3246 5.16509 10.9895 6.62377 11.3822C6.66266 11.3926 6.70089 11.4054 6.73824 11.4205C7.0116 11.5309 7.18781 11.7159 7.29396 11.8693C7.3931 12.0125 7.44767 12.1522 7.47375 12.2224C7.47935 12.2375 7.4848 12.2527 7.48966 12.2665C7.5443 12.3546 7.58527 12.4512 7.61052 12.5531C7.61481 12.5705 7.61923 12.5882 7.62377 12.6065C7.69601 12.8969 7.79674 13.3019 7.81927 13.6838C7.86327 13.864 7.88699 14.0374 7.90323 14.1562C7.90436 14.1645 7.90546 14.1725 7.90652 14.1802C7.93209 14.3661 7.94587 14.448 7.96312 14.5037C7.97181 14.5318 7.97926 14.5602 7.98544 14.5889C8.30106 16.0544 8.98124 17.0041 10.0225 17.6664C11.3911 18.5097 13.4025 18.9999 15.38 18.9999C17.2707 18.9999 19.0281 18.5814 20.3227 17.8627L20.3258 17.861C21.2007 17.3793 21.698 16.8238 21.9208 16.29C22.1351 15.777 22.1433 15.1737 21.8268 14.4637C21.6019 13.9593 21.8285 13.3681 22.3329 13.1432C22.8374 12.9183 23.4286 13.1449 23.6535 13.6493C24.165 14.7967 24.2192 15.9764 23.7664 17.0607C23.3224 18.1239 22.4401 18.9797 21.2916 19.6123C19.6424 20.5274 17.5365 20.9999 15.38 20.9999C13.1279 20.9999 10.7258 20.4513 8.96649 19.3649L8.95612 19.3585C7.43419 18.3929 6.46285 16.9781 6.03854 15.048C5.97732 14.834 5.94768 14.6173 5.92848 14.4769C5.92735 14.4686 5.92625 14.4606 5.92519 14.4529C5.89962 14.267 5.88585 14.1851 5.86859 14.1294C5.83893 14.0336 5.82385 13.9339 5.82385 13.8337C5.82385 13.7063 5.78531 13.5128 5.70946 13.1985C4.07189 12.6835 2.94516 11.842 2.15584 10.855C1.32178 9.81218 0.909545 8.66094 0.624501 7.74023C0.611576 7.69848 0.601402 7.65593 0.594044 7.61285C0.386657 6.39871 0.451926 5.23426 0.885428 4.18408C1.31945 3.13264 2.08978 2.27595 3.15508 1.62532Z" fill="white"/>
</svg>
