<svg width="21" height="22" viewBox="0 0 21 22" fill="none" xmlns="http://www.w3.org/2000/svg">
<path fill-rule="evenodd" clip-rule="evenodd" d="M4.01849 2.68871C4.18277 1.29906 5.42313 0 7 0C8.23124 0 9.25732 0.791991 9.72617 1.8007C10.1101 1.61019 10.5408 1.5 11 1.5C12.6942 1.5 14 2.99963 14 4.5V9.11129L15.4906 8.09827C16.568 7.10494 18.487 7.00174 19.6569 8.17157C20.8549 9.36958 20.7178 11.3533 19.6569 12.4142L17.6461 14.4249C17.6231 14.4689 17.5952 14.5214 17.5628 14.5813C17.4629 14.7657 17.3193 15.0216 17.1423 15.3111C16.7961 15.8769 16.2905 16.6237 15.7071 17.2071C15.1647 17.7495 14.3768 18.4042 13.7497 18.9059C13.4619 19.1361 13.2003 19.3402 13 19.4947V21C13 21.5523 12.5523 22 12 22H5C4.44772 22 4 21.5523 4 21V19.3001C3.95287 19.2283 3.89689 19.1426 3.83343 19.045C3.62787 18.7287 3.34333 18.2861 3.027 17.78C2.39935 16.7758 1.62804 15.4922 1.10557 14.4472C0.522465 13.281 0.258596 11.7577 0.131116 10.6104C0.0655861 10.0207 0.0329205 9.49765 0.0165688 9.12156C0.00837666 8.93314 0.00423789 8.78062 0.00214529 8.6739C0.00109851 8.62052 0.00056237 8.57852 0.000287831 8.54914L4.09484e-05 8.51467L6.3777e-06 8.5048L2.38419e-07 8.50072C1.78814e-07 8.50055 0 8.5 1 8.5L2.38419e-07 8.50072L0 5.5C0 3.99963 1.30577 2.5 3 2.5C3.35997 2.5 3.7024 2.5677 4.01849 2.68871ZM4 5.5V8.87868C4 9.43096 4.44772 9.87868 5 9.87868C5.55228 9.87868 6 9.43096 6 8.87868V3C6 2.52793 6.48509 2 7 2C7.51491 2 8 2.52793 8 3V8.87868C8 9.43096 8.44772 9.87868 9 9.87868C9.55229 9.87868 10 9.43096 10 8.87868V4.5C10 4.02793 10.4851 3.5 11 3.5C11.5149 3.5 12 4.02793 12 4.5V11C12 11.3704 12.2047 11.7105 12.5321 11.8838C12.8594 12.0571 13.2558 12.0353 13.5621 11.8271L16.6834 9.70575C16.7354 9.67041 16.784 9.63024 16.8284 9.58579C17.1622 9.25198 17.8785 9.22169 18.2426 9.58579C18.6067 9.94988 18.5764 10.6662 18.2426 11L16.1213 13.1213C16.0445 13.1981 15.9808 13.2869 15.9325 13.3842L15.9317 13.3857L15.9264 13.3963L15.9023 13.4435C15.8804 13.4859 15.8472 13.5493 15.8039 13.6292C15.7172 13.7894 15.5912 14.0139 15.4362 14.2674C15.1181 14.7874 14.7095 15.3763 14.2929 15.7929C13.8353 16.2505 13.1232 16.8458 12.5003 17.3441C12.1939 17.5892 11.9178 17.804 11.7184 17.9574C11.6188 18.034 11.5386 18.0951 11.4835 18.1369L11.4206 18.1845L11.4009 18.1993L11.4001 18.1999C11.4001 18.1999 11.4001 18.1999 11.4001 18.1999C11.1483 18.3888 11 18.6853 11 19V20H6V19C6 18.8026 5.94156 18.6096 5.83204 18.4453L5.81074 18.4132L5.74707 18.3169C5.69148 18.2325 5.61061 18.1093 5.51032 17.955C5.30963 17.6463 5.03167 17.2139 4.723 16.72C4.10065 15.7242 3.37196 14.5078 2.89443 13.5528C2.47754 12.719 2.2414 11.4923 2.11888 10.3896C2.05941 9.85434 2.02958 9.37735 2.01468 9.03469C2.00725 8.86373 2.00357 8.72719 2.00176 8.63469C2.00085 8.58847 2.00041 8.55332 2.0002 8.53045L2.00002 8.50554L2 8.50029L2 5.5C2 5.02793 2.48509 4.5 3 4.5C3.51491 4.5 4 5.02793 4 5.5Z" fill="white"/>
</svg>
