<svg width="28" height="25" viewBox="0 0 28 25" fill="none" xmlns="http://www.w3.org/2000/svg">
<path fill-rule="evenodd" clip-rule="evenodd" d="M7.94044 13.8036L14.3044 7.43968C15.476 6.26811 15.476 4.36861 14.3044 3.19704C13.1328 2.02547 11.2333 2.02547 10.0618 3.19704L3.6978 9.561C2.52623 10.7326 2.52623 12.6321 3.6978 13.8036C4.86937 14.9752 6.76887 14.9752 7.94044 13.8036ZM15.7186 1.78283C13.766 -0.169796 10.6002 -0.169796 8.64755 1.78283L2.28359 8.14679C0.330967 10.0994 0.330967 13.2652 2.28359 15.2179C4.23621 17.1705 7.40204 17.1705 9.35466 15.2179L15.7186 8.85389C17.6712 6.90127 17.6712 3.73545 15.7186 1.78283Z" fill="white"/>
<path fill-rule="evenodd" clip-rule="evenodd" d="M11.476 11.6823L5.81912 6.02547L7.23333 4.61125L12.8902 10.2681L11.476 11.6823Z" fill="white"/>
<path fill-rule="evenodd" clip-rule="evenodd" d="M11.8797 22.1215C13.0512 23.293 14.9507 23.293 16.1223 22.1215C17.2939 20.9499 17.2939 19.0504 16.1223 17.8788C14.9507 16.7072 13.0512 16.7072 11.8797 17.8788C10.7081 19.0504 10.7081 20.9499 11.8797 22.1215ZM10.4654 16.4646C8.51282 18.4172 8.51282 21.5831 10.4654 23.5357C12.4181 25.4883 15.5839 25.4883 17.5365 23.5357C19.4891 21.5831 19.4891 18.4172 17.5365 16.4646C15.5839 14.512 12.4181 14.512 10.4654 16.4646Z" fill="white"/>
<path fill-rule="evenodd" clip-rule="evenodd" d="M16.8294 18.5859L11.8797 23.5357L10.4654 22.1215L15.4152 17.1717L16.8294 18.5859Z" fill="white"/>
<path fill-rule="evenodd" clip-rule="evenodd" d="M19.9507 13.1925C21.1223 14.3641 23.0218 14.3641 24.1934 13.1925C25.3649 12.0209 25.3649 10.1214 24.1934 8.94987C23.0218 7.77829 21.1223 7.77829 19.9507 8.94987C18.7791 10.1214 18.7791 12.0209 19.9507 13.1925ZM18.5365 7.53565C16.5839 9.48827 16.5839 12.6541 18.5365 14.6067C20.4891 16.5593 23.655 16.5593 25.6076 14.6067C27.5602 12.6541 27.5602 9.48827 25.6076 7.53565C23.655 5.58303 20.4891 5.58303 18.5365 7.53565Z" fill="white"/>
<path fill-rule="evenodd" clip-rule="evenodd" d="M24.9009 9.65696L19.9512 14.6067L18.537 13.1925L23.4867 8.24275L24.9009 9.65696Z" fill="white"/>
</svg>
