<svg width="27" height="30" viewBox="0 0 27 30" fill="none" xmlns="http://www.w3.org/2000/svg">
<path d="M7.66406 0C10.3639 0 12.635 0.916231 13.8164 2.27807C14.9978 0.916231 17.2689 0 19.9688 0C23.9118 0 27 1.93031 27 4.39453H25.2422C25.2422 3.14742 23.0767 1.75781 19.9688 1.75781C16.8608 1.75781 14.6953 3.14742 14.6953 4.39453V5.43533C15.7161 5.79938 16.4531 6.76582 16.4531 7.91016V8.78906H11.1797V7.91016C11.1797 6.76582 11.9167 5.79938 12.9375 5.43533V4.39453C12.9375 3.14742 10.772 1.75781 7.66406 1.75781C4.55613 1.75781 2.39062 3.14742 2.39062 4.39453H0.632812C0.632812 1.93031 3.721 0 7.66406 0Z" fill="white"/>
<path d="M12.8358 26.2908C11.8671 25.9005 11.1797 24.9546 11.1797 23.8477C11.1797 22.8123 12.3092 20.9953 12.9375 20.0623V17.4162C11.9167 17.0522 11.1797 16.0857 11.1797 14.9414V14.0625H16.4531V14.9414C16.4531 16.0857 15.7161 17.0522 14.6953 17.4162V20.0623C15.3236 20.9953 16.4531 22.8123 16.4531 23.8477C16.4531 24.9546 15.7657 25.9005 14.797 26.2908C15.101 27.4114 16.1166 28.2422 17.332 28.2422H19.9687V30H17.332C15.8894 30 14.6181 29.2919 13.8164 28.2151C13.0147 29.2919 11.7434 30 10.3008 30H7.66406V28.2422H10.3008C11.5162 28.2422 12.5319 27.4114 12.8358 26.2908Z" fill="white"/>
<path d="M16.4531 10.5469H11.1797V12.3047H16.4531V10.5469Z" fill="white"/>
</svg>
