<svg width="27" height="24" viewBox="0 0 27 24" fill="none" xmlns="http://www.w3.org/2000/svg">
<path d="M25.2152 13.3759L22.0227 11.9722C21.7972 11.873 21.6515 11.6512 21.6515 11.4071V10.5398C22.724 9.69442 23.4133 8.39263 23.4133 6.93381V5.7129C23.7666 5.51977 24.0005 5.14655 24.0005 4.72854V4.61005C24.0005 2.06808 21.91 0 19.3406 0H18.1662C15.5968 0 13.5064 2.06808 13.5064 4.61005V5.68514C13.5064 6.05257 13.6662 6.38542 13.9448 6.59841C13.992 6.6345 14.0418 6.66625 14.0936 6.69371V6.93373C14.0936 8.39256 14.7828 9.69434 15.8552 10.5396V11.407C15.8552 11.6511 15.7095 11.8729 15.484 11.9721L12.2915 13.3758C11.2459 13.8355 10.5703 14.864 10.5703 15.9959V23.1997C10.5703 23.4999 10.8163 23.7433 11.1197 23.7433C11.4231 23.7433 11.6691 23.4999 11.6691 23.1997V15.996C11.6691 15.933 11.6737 15.8708 11.6802 15.809L13.1513 17.2644C13.3802 17.4909 13.5064 17.792 13.5064 18.1124V23.1998C13.5064 23.5 13.7524 23.7433 14.0558 23.7433C14.3592 23.7433 14.6052 23.5 14.6052 23.1998V18.1124C14.6052 17.5017 14.3648 16.9276 13.9283 16.4957L12.1746 14.7607C12.3326 14.5985 12.5221 14.464 12.7378 14.3692L15.8765 12.9891L18.2041 15.2919V23.1997C18.2041 23.4999 18.4501 23.7433 18.7535 23.7433C19.0569 23.7433 19.3029 23.4999 19.3029 23.1997V15.2919L21.6305 12.9892L24.7691 14.3692C24.9848 14.464 25.1743 14.5985 25.3324 14.7607L23.5786 16.4957C23.1421 16.9276 22.9017 17.5017 22.9017 18.1124V23.1998C22.9017 23.5 23.1477 23.7433 23.4511 23.7433C23.7546 23.7433 24.0005 23.5 24.0005 23.1998V18.1124C24.0005 17.7921 24.1266 17.4909 24.3556 17.2644L25.8266 15.8091C25.8332 15.8708 25.8377 15.9329 25.8377 15.9959V23.1997C25.8377 23.4999 26.0837 23.7433 26.3871 23.7433C26.6905 23.7433 26.9365 23.4999 26.9365 23.1997V15.996C26.9363 14.8641 26.2608 13.8356 25.2152 13.3759ZM18.7533 14.2982L16.7109 12.2775C16.8662 12.019 16.9539 11.72 16.9539 11.4071V11.1859C17.5079 11.4162 18.1158 11.5439 18.7533 11.5439C19.3909 11.5439 19.9987 11.4163 20.5527 11.186V11.4071C20.5527 11.72 20.6403 12.019 20.7957 12.2776L18.7533 14.2982ZM18.7533 10.4567C16.7898 10.4568 15.1923 8.87637 15.1923 6.93381V6.68936C15.5351 6.55493 15.8697 6.341 16.1901 6.04858C16.413 5.84501 16.427 5.50114 16.2211 5.28054C16.0154 5.06002 15.6679 5.04617 15.4448 5.24974C15.17 5.50071 14.8955 5.66282 14.629 5.73167C14.6225 5.73334 14.6178 5.73406 14.6144 5.73435C14.6104 5.72674 14.6051 5.7108 14.6051 5.68522V4.61012C14.6051 2.66756 16.2026 1.08713 18.1661 1.08713H19.3405C21.3042 1.08713 22.9016 2.66756 22.9016 4.61012V4.72861C22.9016 4.74622 22.8909 4.76151 22.8768 4.76427C19.587 5.40708 17.9369 4.19559 17.3801 3.64482C17.1656 3.43255 16.8177 3.43255 16.6032 3.64482C16.3887 3.85708 16.3887 4.20124 16.6032 4.41344C18.3093 6.10127 20.7988 6.13171 22.3144 5.95154V6.93373C22.3144 8.8763 20.7169 10.4567 18.7533 10.4567Z" fill="black"/>
<path d="M9.90686 10.4197V9.2576C9.90686 7.83964 9.16202 6.59142 8.03972 5.87309C8.10902 5.65315 8.1452 5.42276 8.1452 5.19108C8.1452 3.93038 7.10853 2.90479 5.83422 2.90479C4.55992 2.90479 3.52324 3.93046 3.52324 5.19108C3.52324 5.42566 3.55914 5.6538 3.62858 5.87324C2.50635 6.59149 1.76158 7.83972 1.76158 9.2576V10.4194C1.76158 11.7925 2.4599 13.0067 3.52317 13.7344V14.9297C3.52317 15.1654 3.3908 15.3773 3.17771 15.4828L1.27746 16.4227C0.489475 16.8126 0 17.5962 0 18.4678V23.2C0 23.5002 0.245983 23.7435 0.549396 23.7435C0.852809 23.7435 1.09879 23.5002 1.09879 23.2V18.7029L1.9938 19.5883C2.22271 19.8148 2.34885 20.1159 2.34885 20.4363V23.2C2.34885 23.5002 2.59484 23.7435 2.89825 23.7435C3.20166 23.7435 3.44764 23.5002 3.44764 23.2V20.4363C3.44764 19.8256 3.20723 19.2515 2.77079 18.8197L1.52512 17.5873C1.51912 17.5814 1.51267 17.5762 1.50652 17.5707C1.58468 17.5024 1.67236 17.443 1.76891 17.3951L3.66916 16.4552C3.76651 16.407 3.85713 16.3501 3.94159 16.2869L5.28483 17.6159V23.2001C5.28483 23.5002 5.53081 23.7436 5.83422 23.7436C6.13764 23.7436 6.38362 23.5002 6.38362 23.2001V17.6158L7.72693 16.2868C7.81146 16.3501 7.902 16.407 7.99936 16.4551L8.52333 16.7143C8.60223 16.7534 8.68603 16.7719 8.76866 16.7719C8.97018 16.7719 9.16422 16.6617 9.26048 16.4714C9.39621 16.2029 9.28619 15.8764 9.01479 15.7422L8.49081 15.4829C8.27764 15.3775 8.14528 15.1656 8.14528 14.9299V13.7347C9.20854 13.0069 9.90686 11.7927 9.90686 10.4197ZM5.83422 3.99184C6.50265 3.99184 7.04641 4.52986 7.04641 5.19108C7.04641 5.26391 7.03982 5.33529 7.02722 5.40523C6.64967 5.29058 6.2492 5.22847 5.83422 5.22847C5.41983 5.22847 5.01987 5.29036 4.64291 5.40472C4.63024 5.33478 4.62203 5.26376 4.62203 5.19108C4.62203 4.52978 5.16579 3.99184 5.83422 3.99184ZM5.83422 6.3156C7.47399 6.3156 8.80807 7.63542 8.80807 9.25767V9.45464C6.52075 10.1475 5.15759 8.42607 5.09935 8.35063C5.00375 8.22461 4.85761 8.14576 4.6988 8.1346C4.53999 8.12358 4.38396 8.18105 4.27137 8.29244C3.74696 8.81125 3.23331 9.06149 2.86235 9.1823C2.90301 7.59477 4.22002 6.3156 5.83422 6.3156ZM5.83422 16.6219L4.56468 15.366C4.60174 15.2258 4.62203 15.0797 4.62203 14.9298V14.2663C5.00507 14.3847 5.41229 14.4486 5.83422 14.4486C6.25616 14.4486 6.66337 14.3847 7.04641 14.2663V14.9298C7.04641 15.0797 7.0667 15.2259 7.10377 15.366L5.83422 16.6219ZM5.83422 13.3615C4.19446 13.3615 2.86038 12.0417 2.86038 10.4194V10.3068C3.2985 10.2072 3.94811 9.97585 4.62577 9.43667C4.86553 9.66046 5.2082 9.93497 5.64457 10.1704C6.16071 10.4489 6.87353 10.7066 7.74422 10.7066C8.0751 10.7066 8.42913 10.6685 8.80338 10.5811C8.71819 12.1285 7.41912 13.3615 5.83422 13.3615Z" fill="black"/>
</svg>
