<svg width="26" height="26" viewBox="0 0 26 26" fill="none" xmlns="http://www.w3.org/2000/svg">
<path fill-rule="evenodd" clip-rule="evenodd" d="M3.36455 24.749C2.97403 24.3584 2.97403 23.7253 3.36455 23.3347L5.19298 21.5063V19.0921C5.19298 18.7353 5.38313 18.4055 5.69194 18.2267L18.0005 11.1007L17.5067 10.6068C17.1162 10.2163 17.1162 9.58313 17.5067 9.19261C17.8972 8.80209 18.5304 8.80209 18.9209 9.19261L20.3351 10.6068C20.5548 10.8265 20.6599 11.1358 20.6195 11.4439C20.5792 11.7519 20.3979 12.0237 20.129 12.1794L7.19298 19.6687V21.9205C7.19298 22.1857 7.08762 22.4401 6.90009 22.6276L4.77877 24.749C4.38824 25.1395 3.75508 25.1395 3.36455 24.749Z" fill="white"/>
<path fill-rule="evenodd" clip-rule="evenodd" d="M22.81 11.6675C22.2242 11.0817 21.2745 11.0817 20.6887 11.6675C20.1029 12.2533 20.1029 13.203 20.6887 13.7888C21.2745 14.3746 22.2242 14.3746 22.81 13.7888C23.3958 13.203 23.3958 12.2533 22.81 11.6675ZM24.2242 10.2533C22.8574 8.88643 20.6413 8.88643 19.2745 10.2533C17.9076 11.6201 17.9076 13.8362 19.2745 15.203C20.6413 16.5699 22.8574 16.5699 24.2242 15.203C25.591 13.8362 25.591 11.6201 24.2242 10.2533Z" fill="white"/>
<path fill-rule="evenodd" clip-rule="evenodd" d="M0.536126 21.9205C0.92665 22.3111 1.55982 22.3111 1.95034 21.9205L3.77877 20.0921H6.19298C6.54982 20.0921 6.87962 19.902 7.05841 19.5931L14.1844 7.28456L14.6783 7.7784C15.0688 8.16892 15.702 8.16892 16.0925 7.7784C16.483 7.38787 16.483 6.75471 16.0925 6.36418L14.6783 4.94997C14.4586 4.73029 14.1493 4.62519 13.8412 4.66555C13.5332 4.70592 13.2614 4.88717 13.1057 5.15604L5.61643 18.0921H3.36455C3.09934 18.0921 2.84498 18.1975 2.65745 18.385L0.536126 20.5063C0.145602 20.8968 0.145602 21.53 0.536126 21.9205Z" fill="white"/>
<path fill-rule="evenodd" clip-rule="evenodd" d="M11.6001 4.70026C11.3535 4.4536 11.2261 4.11912 11.2334 3.75791C11.2445 3.20573 10.8059 2.7491 10.2537 2.73799C9.70154 2.72688 9.2449 3.16549 9.23379 3.71767C9.2164 4.58154 9.52583 5.45439 10.1859 6.11447C11.5351 7.46368 13.7059 7.33653 15.0318 6.01063C16.3577 4.68473 16.4849 2.51393 15.1357 1.16473C14.4756 0.504643 13.6027 0.195221 12.7388 0.212607C12.1867 0.22372 11.7481 0.680353 11.7592 1.23253C11.7703 1.7847 12.2269 2.22332 12.7791 2.2122C13.1403 2.20493 13.4748 2.33228 13.7214 2.57894C14.2102 3.06766 14.2443 3.96969 13.6176 4.59642C12.9909 5.22314 12.0888 5.18898 11.6001 4.70026Z" fill="white"/>
</svg>
