<svg width="20" height="36" viewBox="0 0 20 36" fill="none" xmlns="http://www.w3.org/2000/svg">
<path fill-rule="evenodd" clip-rule="evenodd" d="M9.57002 2.12667C13.5876 2.12667 17.0507 5.31599 17.0507 10.2719C17.0507 13.8558 16.2847 16.0236 15.4547 17.4762C15.0337 18.2129 14.5814 18.7921 14.1525 19.3115C14.086 19.392 14.0173 19.474 13.9477 19.5572C13.5999 19.9729 13.2274 20.4181 12.9714 20.8533C12.4699 21.7059 12.1287 22.997 11.9265 24.0903C11.8216 24.6569 11.7467 25.212 11.7068 25.6903C11.6692 26.1409 11.6548 26.6075 11.7093 26.9552L13.8103 26.6256C13.7978 26.546 13.7904 26.2952 13.8261 25.8672C13.8595 25.4669 13.9242 24.9822 14.0177 24.4771C14.2119 23.4268 14.5018 22.4461 14.8044 21.9316C14.9633 21.6615 15.1945 21.384 15.5378 20.972C15.6165 20.8775 15.7012 20.776 15.7921 20.6658C16.2498 20.1117 16.7912 19.4238 17.3012 18.5314C18.3329 16.7258 19.1774 14.1877 19.1774 10.2719C19.1774 4.21551 14.8348 0 9.57002 0V2.12667Z" fill="white"/>
<path fill-rule="evenodd" clip-rule="evenodd" d="M9.60737 2.12667C5.5898 2.12667 2.12665 5.31599 2.12667 10.2719C2.12668 13.8558 2.89267 16.0236 3.72272 17.4762C4.14367 18.2129 4.59599 18.7921 5.02494 19.3115C5.09144 19.392 5.16006 19.474 5.22966 19.5572C5.5775 19.9729 5.94997 20.4181 6.20601 20.8533C6.70752 21.7059 7.04871 22.997 7.25094 24.0903C7.35576 24.6569 7.43068 25.212 7.47058 25.6903C7.50817 26.1409 7.52259 26.6075 7.46806 26.9552C7.46806 26.9552 5.3546 26.7052 5.36708 26.6256C5.37956 26.546 5.38699 26.2952 5.35128 25.8672C5.31788 25.4669 5.25318 24.9822 5.15974 24.4771C4.96546 23.4268 4.6756 22.4461 4.37296 21.9316C4.21409 21.6615 3.98288 21.384 3.63957 20.972C3.56085 20.8775 3.47624 20.776 3.38525 20.6658C2.92757 20.1117 2.38618 19.4238 1.87624 18.5314C0.844519 16.7258 1.46744e-05 14.1877 0 10.2719C-2.27868e-05 4.21551 4.34258 0 9.60737 0V2.12667Z" fill="white"/>
<path fill-rule="evenodd" clip-rule="evenodd" d="M11.9727 16.9185C12.7693 15.728 13.323 13.9758 13.323 11.9469C13.323 9.91801 12.7693 8.16579 11.9727 6.97528C11.1678 5.77227 10.2599 5.31668 9.50747 5.31668C8.75507 5.31668 7.84715 5.77227 7.04219 6.97528C6.2456 8.16579 5.69197 9.91801 5.69197 11.9469C5.69197 13.9758 6.2456 15.728 7.04219 16.9185C7.84715 18.1215 8.75507 18.5771 9.50747 18.5771C10.2599 18.5771 11.1678 18.1215 11.9727 16.9185ZM9.50747 20.4536C12.6511 20.4536 15.1994 16.645 15.1994 11.9469C15.1994 7.24877 12.6511 3.4402 9.50747 3.4402C6.36388 3.4402 3.8155 7.24877 3.8155 11.9469C3.8155 16.645 6.36388 20.4536 9.50747 20.4536Z" fill="white"/>
<path fill-rule="evenodd" clip-rule="evenodd" d="M8.89471 23.6173C9.24803 21.3561 8.73141 19.7388 8.51032 19.3187L10.0601 18.503C10.4719 19.2854 11.0312 21.2883 10.6251 23.8877C10.5386 24.4411 10.4648 24.8708 10.4043 25.2231C10.289 25.8941 10.222 26.2841 10.2079 26.7123C10.188 27.3187 10.2833 27.98 10.6186 29.6565L8.90122 30C8.57199 28.3539 8.4299 27.4962 8.45748 26.6549C8.47556 26.1035 8.57142 25.5437 8.70308 24.7748C8.76119 24.4354 8.82627 24.0554 8.89471 23.6173Z" fill="white"/>
<path d="M8.74353 31.0136C8.33289 31.1303 8.0946 31.5578 8.2113 31.9685C8.32799 32.3791 8.75548 32.6174 9.16613 32.5007L9.89808 32.2927C10.0455 32.6867 10.2682 33.2083 10.6251 33.7036C11.1155 34.3843 11.8518 35.0301 12.9923 35.4831C13.3773 35.636 13.7948 35.4009 13.9086 35.0026C14.0224 34.6044 13.7881 34.1958 13.4076 34.0319C12.6107 33.6886 12.1432 33.2447 11.8421 32.8267C11.6041 32.4964 11.4637 32.1844 11.3479 31.8807L11.9895 31.6984C12.4001 31.5817 12.6384 31.1542 12.5217 30.7435C12.405 30.3329 11.9775 30.0946 11.5669 30.2113L8.74353 31.0136Z" fill="white"/>
</svg>
