<svg width="25" height="30" viewBox="0 0 25 30" fill="none" xmlns="http://www.w3.org/2000/svg">
<path d="M23.9416 0H21.6342C19.8635 0 18.3386 1.06948 17.6694 2.59629H3.74973C3.01042 2.59629 2.33118 2.99927 1.97698 3.64834L0.246264 6.82163C-0.286939 7.79883 0.0745843 9.02798 1.05193 9.56104C1.34783 9.72246 1.6821 9.80786 2.01799 9.80786C2.75803 9.80786 3.43743 9.40444 3.79163 8.75537L4.94841 6.63457H6.34573V7.21157C6.34573 8.64287 7.51028 9.80742 8.94202 9.80742H9.23044V11.5384H8.6533C6.26736 11.5384 4.32644 13.4795 4.32644 15.8654V25.673C4.32644 28.0589 6.26736 30 8.6533 30H16.7304C19.1162 30 21.0572 28.0589 21.0572 25.673V15.8654C21.0572 13.4795 19.1162 11.5384 16.7304 11.5384H16.1533V9.80742H17.6697C18.3386 11.3342 19.8635 12.4037 21.6342 12.4037H23.942C24.4198 12.4037 24.8072 12.0163 24.8072 11.5384V0.86543C24.8072 0.387451 24.4198 0 23.9416 0ZM4.43455 4.90371C4.11814 4.90371 3.82664 5.07686 3.67502 5.35488L2.27244 7.92642C2.21164 8.0376 2.1012 8.077 2.01799 8.077C1.97024 8.077 1.92395 8.06514 1.88088 8.0417C1.74143 7.96553 1.68957 7.79004 1.76575 7.65029L3.49661 4.47715C3.54714 4.38442 3.64426 4.327 3.74973 4.327H6.49412C6.48987 4.33857 6.48679 4.35044 6.48254 4.36201C6.47317 4.38999 6.46409 4.41812 6.45544 4.44653C6.45032 4.46367 6.44548 4.48096 6.44036 4.49868C6.43289 4.52607 6.42571 4.55361 6.41897 4.5813C6.41458 4.59946 6.41062 4.61748 6.40637 4.63594C6.40007 4.66377 6.39465 4.69189 6.38953 4.72031C6.38601 4.73848 6.38279 4.7562 6.37986 4.77422C6.37488 4.80469 6.37063 4.83545 6.36697 4.86606C6.36521 4.87866 6.36301 4.89111 6.36155 4.90371H4.43455ZM19.3263 15.8654V25.673C19.3263 27.1047 18.1617 28.2693 16.7304 28.2693H8.6533C7.22185 28.2693 6.05715 27.1047 6.05715 25.673V25.0963H9.23044C9.70828 25.0963 10.0957 24.7087 10.0957 24.2307C10.0957 23.7527 9.70828 23.3654 9.23044 23.3654H6.05715V21.3463H8.07629C8.55413 21.3463 8.94158 20.9587 8.94158 20.4807C8.94158 20.0027 8.55413 19.6154 8.07629 19.6154H6.05715V17.5963H9.23044C9.70828 17.5963 10.0957 17.2087 10.0957 16.7307C10.0957 16.2527 9.70828 15.8654 9.23044 15.8654H6.05715C6.05715 14.434 7.22185 13.2693 8.6533 13.2693H16.7304C18.1617 13.2693 19.3263 14.434 19.3263 15.8654ZM14.4226 11.5384H10.9609V9.80742H14.4226V11.5384ZM8.94158 8.077C8.46448 8.077 8.07629 7.68867 8.07629 7.21157V5.19258C8.07629 4.71519 8.46448 4.327 8.94158 4.327H17.3072V5.48071H12.6916C12.2137 5.48071 11.8263 5.86831 11.8263 6.34629C11.8263 6.82412 12.2137 7.21157 12.6916 7.21157H17.3072V8.077H8.94158ZM23.0763 10.673H21.6342C20.2024 10.673 19.0379 9.50845 19.0379 8.077V4.327C19.0379 2.89526 20.2024 1.73071 21.6342 1.73071H23.0763V10.673Z" fill="white"/>
</svg>
