<svg width="25" height="26" viewBox="0 0 25 26" fill="none" xmlns="http://www.w3.org/2000/svg">
<path fill-rule="evenodd" clip-rule="evenodd" d="M23.8442 15.0762C24.3544 15.2878 24.5964 15.8729 24.3849 16.383C23.879 17.603 23.2169 18.7414 22.424 19.7732C22.0875 20.2112 21.4597 20.2933 21.0217 19.9568C20.5838 19.6203 20.5016 18.9925 20.8381 18.5546C21.5258 17.6597 22.0994 16.6732 22.5374 15.6169C22.749 15.1067 23.334 14.8647 23.8442 15.0762ZM1.20711 21.1388C1.54365 20.7009 2.17146 20.6187 2.60936 20.9553C3.50427 21.643 4.49081 22.2167 5.5472 22.6548C6.05736 22.8663 6.29941 23.4514 6.08785 23.9615C5.87628 24.4717 5.29121 24.7138 4.78105 24.5022C3.56097 23.9962 2.42255 23.3341 1.39064 22.541C0.952738 22.2045 0.870569 21.5767 1.20711 21.1388ZM19.8394 21.1392C20.1759 21.5771 20.0937 22.2049 19.6558 22.5414C18.6239 23.3344 17.4856 23.9964 16.2656 24.5023C15.7554 24.7139 15.1703 24.4718 14.9588 23.9617C14.7472 23.4515 14.9893 22.8664 15.4994 22.6549C16.5558 22.2168 17.5423 21.6433 18.4371 20.9556C18.875 20.6191 19.5028 20.7013 19.8394 21.1392ZM13.3436 24.3933C13.415 24.9409 13.029 25.4428 12.4813 25.5142C11.8401 25.5978 11.1866 25.6409 10.5235 25.6409C9.86053 25.6409 9.20714 25.5979 8.56606 25.5143C8.01842 25.4428 7.63236 24.941 7.70377 24.3933C7.77519 23.8457 8.27704 23.4596 8.82469 23.5311C9.38024 23.6035 9.94723 23.6409 10.5235 23.6409C11.0998 23.6409 11.667 23.6035 12.2227 23.531C12.7703 23.4596 13.2722 23.8456 13.3436 24.3933Z" fill="white"/>
<path fill-rule="evenodd" clip-rule="evenodd" d="M18.2735 4.24234L16.8593 2.82812L11.887 7.80049L13.3012 9.2147L18.2735 4.24234ZM18.2735 1.41391C17.4925 0.632863 16.2262 0.632863 15.4451 1.41391L9.05854 7.80049L13.3012 12.0431L19.6878 5.65655C20.4688 4.8755 20.4688 3.60917 19.6878 2.82812L18.2735 1.41391Z" fill="white"/>
<path fill-rule="evenodd" clip-rule="evenodd" d="M10.4726 9.21484L3.93584 15.7516C5.79487 15.4506 7.72802 14.7879 9.06089 13.455L11.8868 10.6291L10.4726 9.21484ZM11.1797 7.09352C10.7892 6.703 10.156 6.703 9.7655 7.09352L0.429647 16.4294C-0.155997 17.015 0.186966 17.9681 1.01519 17.9711C3.5194 17.9803 7.78888 17.5554 10.4751 14.8692L14.0093 11.335C14.3998 10.9445 14.3987 10.3125 14.0081 9.92195L11.1797 7.09352Z" fill="white"/>
</svg>
