<svg width="29" height="29" viewBox="0 0 29 29" fill="none" xmlns="http://www.w3.org/2000/svg">
<path fill-rule="evenodd" clip-rule="evenodd" d="M21.5039 10.6123C22.3045 10.4024 23.3227 9.73279 24.5099 8.54561C25.6971 7.35842 26.3667 6.34023 26.5766 5.53957C26.7347 4.93694 26.6797 4.35138 25.9241 3.59586C25.1686 2.84034 24.5831 2.78532 23.9804 2.94335C23.1798 3.15333 22.1616 3.82289 20.9744 5.01007C19.7872 6.19726 19.1176 7.21545 18.9077 8.01611C18.7496 8.61874 18.8047 9.2043 19.5602 9.95982C20.3157 10.7153 20.9013 10.7704 21.5039 10.6123ZM18.146 11.374C20.6208 13.8489 23.3857 12.4982 25.9241 9.95982C28.4625 7.42141 29.8132 4.65652 27.3383 2.18165C24.8635 -0.293228 22.0986 1.05745 19.5602 3.59586C17.0218 6.13427 15.6711 8.89916 18.146 11.374Z" fill="white"/>
<path fill-rule="evenodd" clip-rule="evenodd" d="M19.8015 10.3505C19.9761 10.8745 19.6929 11.4408 19.169 11.6155L17.7807 12.0782C17.05 12.3218 16.5241 12.9633 16.4286 13.7275L16.2306 15.3109C16.0129 17.0526 14.6852 18.4489 12.9567 18.7539L10.8134 19.1321C10.1167 19.2551 9.53675 19.737 9.28833 20.3995L7.76829 24.4529C7.57437 24.97 6.99795 25.232 6.48083 25.0381C5.96371 24.8442 5.70171 24.2678 5.89563 23.7507L7.41568 19.6972C7.91252 18.3723 9.07238 17.4085 10.4659 17.1626L12.6091 16.7843C13.4734 16.6318 14.1372 15.9337 14.2461 15.0629L14.444 13.4795C14.6351 11.951 15.6869 10.668 17.1482 10.1809L18.5365 9.71809C19.0605 9.54344 19.6268 9.8266 19.8015 10.3505Z" fill="white"/>
<path fill-rule="evenodd" clip-rule="evenodd" d="M9.73114 9.90742C10.1159 9.82767 10.7091 9.49653 11.4884 8.71718C12.2678 7.93783 12.5989 7.34466 12.6787 6.95989C12.7114 6.8021 12.7025 6.68004 12.6613 6.55632C12.6165 6.42214 12.5021 6.19535 12.1955 5.88875C11.8889 5.58215 11.6622 5.46779 11.528 5.42303C11.4043 5.38175 11.2822 5.37292 11.1244 5.40562C10.7396 5.48537 10.1465 5.81651 9.36712 6.59586C8.58777 7.37521 8.25663 7.96838 8.17688 8.35315C8.14417 8.51094 8.15301 8.633 8.19428 8.75672C8.23905 8.8909 8.35341 9.11769 8.66001 9.42429C8.96661 9.73089 9.1934 9.84525 9.32758 9.89001C9.4513 9.93129 9.57335 9.94012 9.73114 9.90742ZM7.2458 10.8385C9.1707 12.7634 11.1453 11.8888 12.9027 10.1314C14.66 8.37403 15.5347 6.39944 13.6098 4.47454C11.6849 2.54964 9.71026 3.42429 7.9529 5.18165C6.19554 6.93901 5.32089 8.9136 7.2458 10.8385Z" fill="white"/>
<path fill-rule="evenodd" clip-rule="evenodd" d="M9.30064 10.3746C9.23965 9.82568 8.74523 9.43014 8.19633 9.49113L6.93317 9.63148C5.35283 9.80708 4.08305 11.014 3.82757 12.5834C3.73774 13.1352 3.35648 13.5952 2.83097 13.7859L1.06298 14.4274C0.543807 14.6158 0.275644 15.1893 0.464014 15.7085C0.652384 16.2277 1.22596 16.4958 1.74512 16.3075L3.51312 15.666C4.71984 15.2281 5.59532 14.1718 5.80158 12.9048C5.91284 12.2213 6.46582 11.6957 7.15403 11.6193L8.41719 11.4789C8.9661 11.4179 9.36163 10.9235 9.30064 10.3746Z" fill="white"/>
<path fill-rule="evenodd" clip-rule="evenodd" d="M21.7311 21.9074C22.1159 21.8277 22.7091 21.4965 23.4884 20.7172C24.2678 19.9378 24.5989 19.3447 24.6787 18.9599C24.7114 18.8021 24.7025 18.68 24.6613 18.5563C24.6165 18.4221 24.5021 18.1954 24.1955 17.8888C23.8889 17.5822 23.6622 17.4678 23.528 17.423C23.4043 17.3817 23.2822 17.3729 23.1244 17.4056C22.7396 17.4854 22.1465 17.8165 21.3671 18.5959C20.5878 19.3752 20.2566 19.9684 20.1769 20.3532C20.1442 20.5109 20.153 20.633 20.1943 20.7567C20.2391 20.8909 20.3534 21.1177 20.66 21.4243C20.9666 21.7309 21.1934 21.8452 21.3276 21.89C21.4513 21.9313 21.5734 21.9401 21.7311 21.9074ZM19.2458 22.8385C21.1707 24.7634 23.1453 23.8888 24.9027 22.1314C26.66 20.374 27.5347 18.3994 25.6098 16.4745C23.6849 14.5496 21.7103 15.4243 19.9529 17.1816C18.1955 18.939 17.3209 20.9136 19.2458 22.8385Z" fill="white"/>
<path fill-rule="evenodd" clip-rule="evenodd" d="M21.3006 22.3746C21.2397 21.8257 20.7452 21.4301 20.1963 21.4911L18.9332 21.6315C17.3528 21.8071 16.083 23.014 15.8276 24.5834C15.7377 25.1352 15.3565 25.5952 14.831 25.7859L13.063 26.4274C12.5438 26.6158 12.2756 27.1893 12.464 27.7085C12.6524 28.2277 13.226 28.4958 13.7451 28.3075L15.5131 27.666C16.7198 27.2281 17.5953 26.1718 17.8016 24.9048C17.9128 24.2213 18.4658 23.6957 19.154 23.6193L20.4172 23.4789C20.9661 23.4179 21.3616 22.9235 21.3006 22.3746Z" fill="white"/>
</svg>
