<svg width="26" height="30" viewBox="0 0 26 30" fill="none" xmlns="http://www.w3.org/2000/svg">
<path d="M23.5762 14.3291L21.8467 1.02277C16.0155 -0.342944 9.99211 -0.3389 4.15333 1.02277L2.42381 14.3291C1.41072 14.7456 0.695282 15.7427 0.695282 16.9042V18.8085C0.695282 20.3432 1.94386 21.5918 3.4785 21.5918H4.50501C4.55241 26.2362 8.34462 30 13 30C17.6555 30 21.4477 26.2362 21.4951 21.5918H22.5216C24.0562 21.5918 25.3048 20.3432 25.3048 18.8085V16.9042C25.3048 15.7427 24.5894 14.7457 23.5762 14.3291ZM20.6173 15.6613L19.5919 14.6359V13.1365C20.2756 13.3073 20.9608 13.503 21.648 13.7266L21.6442 14.6344L20.6173 15.6613ZM5.73631 2.48428C10.5596 1.51426 15.4402 1.51426 20.2638 2.48428L21.479 11.8315C18.633 10.9749 15.8162 10.5464 12.9999 10.5464C10.1837 10.5464 7.36704 10.9748 4.52112 11.8315L5.73631 2.48428ZM4.35583 14.6344L4.35202 13.7266C5.03927 13.503 5.72441 13.3073 6.40815 13.1365V14.6359L5.38275 15.6613L4.35583 14.6344ZM2.4531 18.8085V16.9042C2.4531 16.4485 2.75217 16.0617 3.1642 15.9286L4.5039 17.2683V19.8339H3.4785C2.91307 19.8339 2.4531 19.374 2.4531 18.8085ZM19.7384 21.5039C19.7384 25.2194 16.7156 28.2422 13 28.2422C9.28453 28.2422 6.26172 25.2194 6.26172 21.5039V17.2683L8.16603 15.364V12.7552C11.397 12.1609 14.6031 12.1609 17.8341 12.7552V15.364L19.7384 17.2683V21.5039ZM23.547 18.8085C23.547 19.3739 23.087 19.8339 22.5216 19.8339H21.4962V17.2683L22.8359 15.9286C23.2479 16.0617 23.547 16.4485 23.547 16.9042V18.8085Z" fill="white"/>
<path d="M13.879 9.05248V7.14508H15.7864V5.38726H13.879V3.47998H12.1212V5.38726H10.2138V7.14508H12.1212V9.05248H13.879Z" fill="white"/>
</svg>
