<svg width="24" height="30" viewBox="0 0 24 30" fill="none" xmlns="http://www.w3.org/2000/svg">
<path d="M11.7262 11.5256C11.3606 11.16 10.7662 11.1581 10.3987 11.5237L7.31249 14.6119L6.10124 13.3987C5.73562 13.0331 5.14124 13.0331 4.77562 13.3987C4.40999 13.7644 4.40999 14.3587 4.77562 14.7244L6.65062 16.5994C6.83249 16.7831 7.07249 16.875 7.31249 16.875C7.55249 16.875 7.79249 16.7831 7.97624 16.6012L11.7262 12.8512C12.0919 12.4856 12.0919 11.8912 11.7262 11.5256Z" fill="white"/>
<path d="M11.7262 19.0256C11.3606 18.66 10.7662 18.6581 10.3987 19.0237L7.31249 22.1119L6.10124 20.9006C5.73562 20.535 5.14124 20.535 4.77562 20.9006C4.40999 21.2662 4.40999 21.8606 4.77562 22.2262L6.65062 24.1012C6.83249 24.2831 7.07249 24.375 7.31249 24.375C7.55249 24.375 7.79249 24.2831 7.97624 24.1012L11.7262 20.3512C12.0919 19.9856 12.0919 19.3912 11.7262 19.0256Z" fill="white"/>
<path d="M18.5625 13.125H14.8125C14.295 13.125 13.875 13.545 13.875 14.0625C13.875 14.58 14.295 15 14.8125 15H18.5625C19.08 15 19.5 14.58 19.5 14.0625C19.5 13.545 19.08 13.125 18.5625 13.125Z" fill="white"/>
<path d="M18.5625 20.625H14.8125C14.295 20.625 13.875 21.045 13.875 21.5625C13.875 22.08 14.295 22.5 14.8125 22.5H18.5625C19.08 22.5 19.5 22.08 19.5 21.5625C19.5 21.045 19.08 20.625 18.5625 20.625Z" fill="white"/>
<path d="M21.375 3.75H17.625V2.8125C17.625 2.295 17.205 1.875 16.6875 1.875H14.6531C14.265 0.78375 13.2225 0 12 0C10.7775 0 9.735 0.78375 9.34688 1.875H7.3125C6.795 1.875 6.375 2.295 6.375 2.8125V3.75H2.625C1.59188 3.75 0.75 4.59188 0.75 5.625V28.125C0.75 29.1581 1.59188 30 2.625 30H21.375C22.4081 30 23.25 29.1581 23.25 28.125V5.625C23.25 4.59188 22.4081 3.75 21.375 3.75ZM8.25 3.75H10.125C10.6425 3.75 11.0625 3.33 11.0625 2.8125C11.0625 2.295 11.4825 1.875 12 1.875C12.5175 1.875 12.9375 2.295 12.9375 2.8125C12.9375 3.33 13.3575 3.75 13.875 3.75H15.75V5.625H8.25V3.75ZM21.375 28.125H2.625V5.625H6.375V6.5625C6.375 7.08 6.795 7.5 7.3125 7.5H16.6875C17.205 7.5 17.625 7.08 17.625 6.5625V5.625H21.375V28.125Z" fill="white"/>
</svg>
