<svg width="18" height="24" viewBox="0 0 18 24" fill="none" xmlns="http://www.w3.org/2000/svg">
<path fill-rule="evenodd" clip-rule="evenodd" d="M0 1C0 0.447715 0.447715 0 1 0H3C3.55228 0 4 0.447715 4 1C4 1.55228 3.55228 2 3 2H2V10C2 11.3086 3.40211 13 6 13C8.59789 13 10 11.3086 10 10V2H9C8.44772 2 8 1.55228 8 1C8 0.447715 8.44772 0 9 0H11C11.5523 0 12 0.447715 12 1V10C12 12.4207 9.89827 14.5319 7 14.9319V18C7 20.3265 8.92268 22 11.5 22C14.0773 22 16 20.3265 16 18V14C16 13.4477 16.4477 13 17 13C17.5523 13 18 13.4477 18 14V18C18 21.6735 14.9227 24 11.5 24C8.07732 24 5 21.6735 5 18V14.9319C2.10173 14.5319 0 12.4207 0 10V1Z" fill="white"/>
</svg>
