<svg width="28" height="28" viewBox="0 0 28 28" fill="none" xmlns="http://www.w3.org/2000/svg">
<path fill-rule="evenodd" clip-rule="evenodd" d="M16.0701 2.79308C16.494 2.87984 16.8784 3.10176 17.1655 3.42554L18.8213 5.29276L21.2662 5.79308C21.6902 5.87984 22.0746 6.10176 22.3617 6.42554L24.0174 8.29276L25.4297 8.58175C26.7671 8.85543 27.4433 10.3589 26.7608 11.5412L18.1482 26.4586C17.4656 27.6408 15.8255 27.8069 14.9197 26.7855L13.9633 25.707L11.5184 25.2066C11.0944 25.1199 10.7101 24.898 10.4229 24.5742L8.76719 22.707L6.32224 22.2066C5.89829 22.1199 5.51391 21.898 5.2268 21.5742L3.57103 19.707L2.15878 19.418C0.821381 19.1443 0.145133 17.6408 0.827691 16.4586L9.44026 1.54115C10.1228 0.358928 11.763 0.192826 12.6687 1.21421L13.6251 2.29276L16.0701 2.79308ZM15.6691 4.75248L13.2242 4.25215C12.8002 4.1654 12.4158 3.94348 12.1287 3.6197L11.1723 2.54115L2.55974 17.4586L3.97199 17.7476C4.39595 17.8343 4.78033 18.0562 5.06744 18.38L6.7232 20.2472L9.16815 20.7476C9.5921 20.8343 9.97648 21.0562 10.2636 21.38L11.9194 23.2472L14.3643 23.7476C14.7883 23.8343 15.1726 24.0562 15.4597 24.38L16.4161 25.4586L25.0287 10.5412L23.6165 10.2522C23.1925 10.1654 22.8081 9.94348 22.521 9.6197L20.8653 7.75248L18.4203 7.25215C17.9964 7.1654 17.612 6.94348 17.3249 6.6197L15.6691 4.75248Z" fill="white"/>
<path fill-rule="evenodd" clip-rule="evenodd" d="M11.7938 17.464C13.707 18.5685 16.1533 17.913 17.2579 15.9999C18.3625 14.0867 17.707 11.6403 15.7938 10.5358C13.8806 9.4312 11.4343 10.0867 10.3297 11.9999C9.22514 13.913 9.88064 16.3594 11.7938 17.464ZM10.7938 19.196C13.6636 20.8529 17.3331 19.8696 18.99 16.9999C20.6468 14.1301 19.6636 10.4606 16.7938 8.80372C13.9241 7.14686 10.2545 8.13011 8.59766 10.9999C6.94081 13.8696 7.92406 17.5392 10.7938 19.196Z" fill="white"/>
</svg>
