<svg width="20" height="25" viewBox="0 0 20 25" fill="none" xmlns="http://www.w3.org/2000/svg">
<path fill-rule="evenodd" clip-rule="evenodd" d="M7.58094 7.16656L7.56535 7.18701C6.0844 9.10446 4.82766 10.7447 3.92386 12.3599C3.0363 13.9461 2.5647 15.3823 2.5647 16.8511C2.5647 19.0145 3.45639 20.4627 4.76832 21.4305C6.15025 22.45 8.10412 22.9997 10.1707 22.9997C12.2373 22.9997 14.1912 22.45 15.5731 21.4305C16.885 20.4627 17.7767 19.0145 17.7767 16.8511C17.7767 15.3813 17.3046 13.9434 16.4231 12.3527C15.5425 10.7634 14.3337 9.15622 12.9222 7.27934C12.8965 7.24526 12.8708 7.21109 12.8451 7.17683C11.9708 6.04474 11.0742 4.87246 10.2036 3.63287C9.5048 4.61936 8.79066 5.56447 8.10757 6.4685C7.92964 6.70397 7.75383 6.93665 7.58094 7.16656ZM14.4358 5.96448C14.4801 6.02335 14.5242 6.08208 14.5683 6.14069C17.3563 9.84708 19.7767 13.0648 19.7767 16.8511C19.7767 22.4899 14.9353 24.9997 10.1707 24.9997C5.40613 24.9997 0.564697 22.4899 0.564697 16.8511C0.564697 13.0049 3.06226 9.74545 5.98249 5.96448C6.16066 5.72757 6.34003 5.49014 6.52009 5.25181C7.46096 4.00642 8.42034 2.73654 9.32268 1.38724C9.73973 0.763618 10.6778 0.764023 11.0926 1.38921C12.1584 2.99597 13.2971 4.49014 14.4358 5.96448Z" fill="white"/>
<path fill-rule="evenodd" clip-rule="evenodd" d="M5.36768 14.9997C5.91996 14.9997 6.36768 15.4474 6.36768 15.9997C6.36768 16.7381 6.53802 17.2504 6.76501 17.6158C6.99393 17.9844 7.31611 18.2608 7.70322 18.4694C8.50688 18.9025 9.50973 18.9997 10.1707 18.9997C10.7229 18.9997 11.1707 19.4474 11.1707 19.9997C11.1707 20.552 10.7229 20.9997 10.1707 20.9997C9.39069 20.9997 7.99204 20.8969 6.75444 20.23C6.12092 19.8886 5.51252 19.39 5.06602 18.671C4.6176 17.949 4.36768 17.0613 4.36768 15.9997C4.36768 15.4474 4.81539 14.9997 5.36768 14.9997Z" fill="white"/>
</svg>
