<svg width="25" height="24" viewBox="0 0 25 24" fill="none" xmlns="http://www.w3.org/2000/svg">
<path d="M21.6271 6.99306C21.6403 6.93848 21.6569 6.88478 21.6569 6.82758V0.827598C21.6569 0.370797 21.2092 0 20.6569 0H17.1569C16.6046 0 16.1569 0.370797 16.1569 0.827598V2.29733L14.0895 0.52275C13.6827 0.186341 13.1369 0.0206597 12.5529 0.0473759C12.019 0.0746305 11.5114 0.265749 11.123 0.588027L1.03099 9.00331C0.687433 9.28938 0.689384 9.7523 1.03538 10.0362C1.34202 10.2881 1.81446 10.3137 2.15696 10.1186V23.1725C2.15696 23.6291 2.60501 24.0001 3.15697 24.0001H21.657C22.2092 24.0001 22.657 23.6291 22.657 23.1725V9.98239L22.7073 10.0259C22.8811 10.1739 23.1121 10.2493 23.343 10.2493C23.5638 10.2493 23.7844 10.181 23.9553 10.0444C24.3063 9.76442 24.3166 9.3021 23.9787 9.01199L21.6271 6.99306ZM18.1569 1.6552H19.6569V4.82978L18.1569 3.58839V1.6552ZM10.6569 22.3448V16.9655H14.1569V22.3448H10.6569ZM20.6569 8.27591V22.3448H16.1569V16.138C16.1569 15.6814 15.7091 15.3104 15.1569 15.3104H9.6569C9.10486 15.3104 8.65689 15.6814 8.65689 16.138V22.3448H4.15691V8.68964C4.15691 8.62255 4.14447 8.55808 4.12642 8.4957L12.3735 1.61886C12.4528 1.55297 12.561 1.51038 12.6613 1.50546C12.7789 1.49799 12.8249 1.54187 12.8302 1.54624L20.6584 8.26676C20.6579 8.26959 20.6569 8.27268 20.6569 8.27591Z" fill="white"/>
<path d="M9.03189 10.5516C9.03189 12.206 10.6579 13.5517 12.6568 13.5517C14.6559 13.5517 16.2819 12.206 16.2819 10.5516C16.2819 8.89725 14.6559 7.55161 12.6568 7.55161C10.6579 7.55168 9.03189 8.89731 9.03189 10.5516ZM14.5319 10.5516C14.5319 11.4069 13.6905 12.1034 12.6568 12.1034C11.6229 12.1034 10.7819 11.4069 10.7819 10.5516C10.7819 9.69638 11.6229 8.99994 12.6568 8.99994C13.6905 8.99994 14.5319 9.69638 14.5319 10.5516Z" fill="white"/>
</svg>
