<svg width="34" height="34" viewBox="0 0 34 34" fill="none" xmlns="http://www.w3.org/2000/svg">
<g clip-path="url(#clip0)">
<path d="M24.6167 7.34315C24.8918 7.34315 25.1147 7.12016 25.1147 6.84511V4.3064C25.1147 4.03134 24.8918 3.80835 24.6167 3.80835C24.3416 3.80835 24.1187 4.03134 24.1187 4.3064V6.84511C24.1187 7.12016 24.3416 7.34315 24.6167 7.34315Z" fill="black"/>
<path d="M22.956 7.72298C23.1632 7.54209 23.1505 7.21311 22.956 7.01867L21.1609 5.22351C20.9663 5.02901 20.651 5.02901 20.4565 5.22351C20.262 5.41802 20.262 5.73338 20.4565 5.92782L22.2517 7.72298C22.4293 7.92087 22.7199 7.92917 22.956 7.72298Z" fill="black"/>
<path d="M26.9809 7.72293L28.776 5.92784C28.9705 5.73334 28.9705 5.41798 28.776 5.22354C28.5815 5.02904 28.2661 5.02897 28.0717 5.22354L26.2766 7.0187C26.0821 7.2132 26.0796 7.53102 26.2766 7.723C26.4625 7.90422 26.7116 7.93743 26.9809 7.72293Z" fill="black"/>
<path d="M12.2181 20.0366H9.67941C9.40436 20.0366 9.18137 19.8136 9.18137 19.5385V17.4978H7.1407C6.86565 17.4978 6.64266 17.2749 6.64266 16.9998V14.4611C6.64266 14.186 6.86565 13.963 7.1407 13.963H9.18137V11.9224C9.18137 11.6473 9.40436 11.4243 9.67941 11.4243H12.2181C12.4932 11.4243 12.7162 11.6473 12.7162 11.9224V13.963H14.7568C15.0319 13.963 15.2549 14.186 15.2549 14.4611V16.9998C15.2549 17.2749 15.0319 17.4978 14.7568 17.4978H12.7162V19.5385C12.7162 19.8136 12.4932 20.0366 12.2181 20.0366ZM14.2588 16.5017V14.9591H12.2181C11.9431 14.9591 11.7201 14.7361 11.7201 14.4611V12.4204H10.1775V14.4611C10.1775 14.7361 9.95447 14.9591 9.67941 14.9591H7.63875V16.5017H9.67941C9.95447 16.5017 10.1775 16.7247 10.1775 16.9998V19.0405H11.7201V16.9998C11.7201 16.7247 11.9431 16.5017 12.2181 16.5017H14.2588Z" fill="black"/>
<path d="M6.85303 25.0781C7.75011 25.0781 8.47998 25.808 8.47998 26.7051C8.47998 27.6022 7.75011 28.332 6.85303 28.332C5.95595 28.332 5.22607 27.6022 5.22607 26.7051C5.22607 25.808 5.95595 25.0781 6.85303 25.0781ZM6.85303 27.3359C7.20086 27.3359 7.48389 27.0529 7.48389 26.7051C7.48389 26.3572 7.20086 26.0742 6.85303 26.0742C6.50519 26.0742 6.22217 26.3572 6.22217 26.7051C6.22217 27.053 6.50519 27.3359 6.85303 27.3359Z" fill="black"/>
<path d="M1.49414 8.88525H4.49039C4.76545 8.88525 4.98844 9.10825 4.98844 9.3833C4.98844 9.65836 4.76545 9.88135 4.49039 9.88135H1.49414C1.21949 9.88135 0.996094 10.1047 0.996094 10.3794V21.5795H20.3104V10.3794C20.3104 10.1047 20.087 9.88135 19.8123 9.88135H6.66121C6.38616 9.88135 6.16316 9.65836 6.16316 9.3833C6.16316 9.10825 6.38616 8.88525 6.66121 8.88525H19.8123C20.6362 8.88525 21.3064 9.55549 21.3064 10.3794V11.424H22.8487V10.653C22.8487 9.67841 23.6416 8.88559 24.6161 8.88559C25.5906 8.88559 26.3835 9.67841 26.3835 10.653V11.424H27.0752C28.0992 11.424 29.0068 12.0384 29.3876 12.9895L31.3877 17.9892L33.8541 20.4557C33.9475 20.549 34 20.6757 34 20.8078V27.1549C34 27.43 33.777 27.653 33.502 27.653H30.5092C30.0951 29.116 28.7487 30.1914 27.1549 30.1914C25.5612 30.1914 24.2147 29.1161 23.8007 27.653H16.4103C16.1353 27.653 15.9123 27.43 15.9123 27.1549C15.9123 26.8799 16.1353 26.6569 16.4103 26.6569H20.3104V25.1143H9.95456C10.1936 25.5781 10.3314 26.1019 10.3391 26.6569H14.2402C14.5152 26.6569 14.7382 26.8799 14.7382 27.1549C14.7382 27.43 14.5152 27.653 14.2402 27.653H10.2082C9.79419 29.116 8.44774 30.1914 6.85392 30.1914C5.26011 30.1914 3.91372 29.1161 3.49961 27.653H0.498047C0.222992 27.653 0 27.43 0 27.1549V10.3794C0 9.55549 0.670238 8.88525 1.49414 8.88525ZM25.3874 10.653C25.3874 10.2277 25.0414 9.88168 24.6161 9.88168C24.1908 9.88168 23.8448 10.2277 23.8448 10.653V11.424H25.3874V10.653ZM30.64 26.6569H33.0039V25.1143H30.2555C30.4945 25.5781 30.6324 26.1019 30.64 26.6569ZM27.1548 29.1953C28.528 29.1953 29.6451 28.0782 29.6451 26.705C29.6451 25.3319 28.528 24.2148 27.1548 24.2148C25.7817 24.2148 24.6646 25.3319 24.6646 26.705C24.6646 28.0782 25.7818 29.1953 27.1548 29.1953ZM21.3064 26.6569H23.6698C23.6773 26.1019 23.8153 25.5781 24.0543 25.1143H21.3065V26.6569H21.3064ZM21.3064 24.1182H24.8204C25.4388 23.5595 26.2578 23.2188 27.1548 23.2188C28.0519 23.2188 28.8708 23.5596 29.4893 24.1182H33.0039V22.5756H21.3064V24.1182ZM21.3064 21.5795H33.0039V21.0141L30.757 18.7671H27.7146C27.4396 18.7671 27.2166 18.5441 27.2166 18.2691C27.2166 17.994 27.4396 17.771 27.7146 17.771H30.2276L28.4628 13.3595C28.2343 12.7887 27.6897 12.42 27.0752 12.42L23.8452 12.4203V16.2769C23.8452 17.243 24.7241 17.7326 25.5438 17.771C25.8189 17.771 26.0419 17.994 26.0419 18.2691C26.0419 18.5441 25.8189 18.7671 25.5438 18.7671C24.1436 18.8052 22.8491 17.7357 22.8491 16.2769V12.42H21.3064V21.5795ZM6.85392 29.1953C8.22707 29.1953 9.34416 28.0782 9.34416 26.705C9.34416 25.3319 8.22707 24.2148 6.85392 24.2148C5.48077 24.2148 4.36369 25.3319 4.36369 26.705C4.36369 28.0782 5.48084 29.1953 6.85392 29.1953ZM0.996094 26.6569H3.36885C3.37642 26.1019 3.51435 25.5781 3.75335 25.1143H0.996094V26.6569ZM0.996094 24.1182H4.51948C5.13799 23.5595 5.95684 23.2188 6.85392 23.2188C7.75101 23.2188 8.56993 23.5596 9.18837 24.1182H20.3104V22.5756H0.996094V24.1182Z" fill="black"/>
<path d="M27.155 25.0781C28.0521 25.0781 28.782 25.808 28.782 26.7051C28.782 27.6022 28.0521 28.332 27.155 28.332C26.2579 28.332 25.5281 27.6022 25.5281 26.7051C25.5281 25.808 26.2579 25.0781 27.155 25.0781ZM27.155 27.3359C27.5029 27.3359 27.7859 27.0529 27.7859 26.7051C27.7859 26.3572 27.5029 26.0742 27.155 26.0742C26.8072 26.0742 26.5242 26.3572 26.5242 26.7051C26.5242 27.053 26.8072 27.3359 27.155 27.3359Z" fill="black"/>
</g>
<defs>
<clipPath id="clip0">
<rect width="34" height="34" fill="white" transform="matrix(-1 0 0 1 34 0)"/>
</clipPath>
</defs>
</svg>
