<svg width="24" height="26" viewBox="0 0 24 26" fill="none" xmlns="http://www.w3.org/2000/svg">
<path fill-rule="evenodd" clip-rule="evenodd" d="M9.09015 8.87636C7.24189 9.89219 6 11.8389 6 14.0667C6 17.3346 8.67725 20 12 20C15.3228 20 18 17.3346 18 14.0667C18 11.8389 16.7581 9.89219 14.9098 8.87636L15.8732 7.12364C18.3289 8.47334 20 11.0736 20 14.0667C20 18.4571 16.4092 22 12 22C7.59077 22 4 18.4571 4 14.0667C4 11.0736 5.67112 8.47334 8.12683 7.12364L9.09015 8.87636Z" fill="white"/>
<path fill-rule="evenodd" clip-rule="evenodd" d="M8.66658 4.56876C4.78126 5.94203 2 9.6475 2 14C2 19.5228 6.47715 24 12 24C17.5228 24 22 19.5228 22 14C22 9.6475 19.2187 5.94203 15.3334 4.56876L15.9999 2.68308C20.6593 4.32995 24 8.77356 24 14C24 20.6274 18.6274 26 12 26C5.37258 26 0 20.6274 0 14C0 8.77356 3.34067 4.32995 8.00009 2.68308L8.66658 4.56876Z" fill="white"/>
<path fill-rule="evenodd" clip-rule="evenodd" d="M13 2H11C9.89543 2 9 2.89543 9 4V6C9 7.10457 9.89543 8 11 8H13C14.1046 8 15 7.10457 15 6V4C15 2.89543 14.1046 2 13 2ZM11 0C8.79086 0 7 1.79086 7 4V6C7 8.20914 8.79086 10 11 10H13C15.2091 10 17 8.20914 17 6V4C17 1.79086 15.2091 0 13 0H11Z" fill="white"/>
</svg>
