<svg width="26" height="25" viewBox="0 0 26 25" fill="none" xmlns="http://www.w3.org/2000/svg">
<path d="M8.16553 9.79962C8.16553 9.49905 8.41153 9.25537 8.71498 9.25537H8.72128C9.02472 9.25537 9.26758 9.49905 9.26758 9.79962C9.26758 10.1002 9.01842 10.3439 8.71498 10.3439C8.41153 10.3439 8.16553 10.1002 8.16553 9.79962Z" fill="black"/>
<path d="M5.94981 12.0168C6.1986 12.2387 6.51384 12.3609 6.83758 12.3609C7.16132 12.3609 7.47656 12.2387 7.72542 12.0168C7.95092 11.8156 8.29832 11.8336 8.50139 12.0569C8.70447 12.2802 8.6863 12.6242 8.46088 12.8253C8.00989 13.2275 7.43341 13.4491 6.83758 13.4491C6.24175 13.4491 5.66527 13.2276 5.21428 12.8253C4.98886 12.6242 4.97069 12.2801 5.17384 12.0569C5.37692 11.8337 5.72424 11.8157 5.94981 12.0168Z" fill="black"/>
<path d="M16.8721 10.3439C16.5687 10.3439 16.3258 10.1002 16.3258 9.79962C16.3258 9.49905 16.5749 9.25537 16.8783 9.25537C17.1817 9.25537 17.4277 9.49905 17.4277 9.79962C17.4277 10.1002 17.1817 10.3439 16.8783 10.3439H16.8721Z" fill="black"/>
<path d="M20.0913 9.79962C20.0913 9.49905 20.3405 9.25537 20.6439 9.25537C20.9474 9.25537 21.1934 9.49905 21.1934 9.79962C21.1934 10.1002 20.9474 10.3439 20.6439 10.3439H20.6376C20.3342 10.3439 20.0913 10.1002 20.0913 9.79962Z" fill="black"/>
<path d="M20.3789 12.8252C19.9279 13.2275 19.3514 13.4491 18.7556 13.4491C18.1598 13.4491 17.5833 13.2276 17.1323 12.8252C16.9068 12.6242 16.8887 12.2802 17.0918 12.0569C17.2948 11.8336 17.6423 11.8157 17.8677 12.0168C18.1165 12.2387 18.4318 12.3609 18.7556 12.3609C19.0793 12.3609 19.3945 12.2387 19.6433 12.0168C19.8688 11.8157 20.2162 11.8336 20.4193 12.0569C20.6225 12.2801 20.6043 12.6242 20.3789 12.8252Z" fill="black"/>
<path d="M13.9941 3.51087C14.786 2.80957 15.808 2.42334 16.8717 2.42334H20.6382C23.0181 2.42334 24.9543 4.33885 24.9543 6.69328V8.4658C25.2681 8.73012 25.4901 9.09142 25.5577 9.50266C25.6437 10.0259 25.496 10.5553 25.1524 10.955C24.8086 11.3549 24.3073 11.5843 23.7771 11.5843H23.6684C23.4897 13.1767 22.5346 14.5404 21.1877 15.2969V16.265C21.1877 16.5758 21.3899 16.8447 21.6909 16.934L23.8484 17.5743C24.8853 17.8822 25.582 18.8085 25.582 19.8796V23.4603C25.582 23.7605 25.336 24.0039 25.0326 24.0039C24.7291 24.0039 24.4831 23.7605 24.4831 23.4603V19.8796C24.4831 19.2924 24.1012 18.7844 23.5326 18.6156L22.4302 18.2884C21.413 19.1735 20.119 19.6579 18.755 19.6579C17.39 19.6579 16.0932 19.1718 15.0752 18.2843C15.0461 18.2889 15.017 18.2917 14.9882 18.2917C14.7519 18.2917 14.5336 18.1397 14.4621 17.9042C14.3749 17.6167 14.5399 17.3136 14.8305 17.2274L15.819 16.934C16.12 16.8447 16.3223 16.5758 16.3223 16.265V15.291C15.2351 14.6795 14.3868 13.6703 14.016 12.438C13.9295 12.1503 14.0951 11.8476 14.3859 11.7619C14.6768 11.6762 14.9827 11.8401 15.0693 12.1278C15.5505 13.7274 17.0662 14.8445 18.755 14.8445C20.8751 14.8445 22.5998 13.1381 22.5998 11.0407C22.5998 10.7404 22.8458 10.4971 23.1493 10.4971H23.7771C23.9845 10.4971 24.1807 10.4073 24.3153 10.2507C24.4517 10.092 24.5077 9.88831 24.473 9.67733C24.4198 9.35365 24.0845 9.10005 23.7098 9.10005H23.1492C22.154 9.10005 21.3442 8.29903 21.3442 7.31435V6.73532L15.7238 7.84742C15.4259 7.90641 15.1368 7.71536 15.0773 7.42096C15.0178 7.12656 15.2108 6.8402 15.5084 6.78134L21.786 5.53922C21.9473 5.50726 22.1148 5.54865 22.2421 5.65193C22.3694 5.75514 22.4432 5.90944 22.4432 6.0723V7.31442C22.4432 7.69956 22.7599 8.01296 23.1493 8.01296H23.7099C23.7588 8.01296 23.8072 8.01571 23.8554 8.01934V6.69343C23.8554 4.93846 22.4121 3.51065 20.6382 3.51065H16.8716C16.0788 3.51065 15.3171 3.79846 14.7269 4.32109C14.5009 4.52128 14.1535 4.50229 13.9511 4.27862C13.7487 4.05474 13.7679 3.71112 13.9941 3.51087ZM17.4212 15.7468V16.265C17.4212 16.9764 17.0062 17.6008 16.3673 17.8878C17.076 18.3319 17.8987 18.5708 18.755 18.5708C19.612 18.5708 20.4341 18.3318 21.1426 17.8877C20.5038 17.6007 20.0889 16.9763 20.0889 16.2649V15.75C19.6643 15.8679 19.2171 15.9316 18.755 15.9316C18.2969 15.9316 17.849 15.867 17.4212 15.7468Z" fill="black"/>
<path d="M1.89314 3.26648V1.42585C1.89314 1.03295 2.09116 0.669328 2.42281 0.453201C2.75446 0.237146 3.17035 0.20069 3.53519 0.355791L6.83197 1.75743L10.1287 0.355791C10.4937 0.200617 10.9094 0.237074 11.2411 0.453201C11.5728 0.669328 11.7708 1.03295 11.7708 1.42585V3.26648C11.7708 3.44702 11.7285 3.62118 11.6512 3.77788C12.93 5.04116 13.6541 6.75474 13.6541 8.55674V9.79886H13.6537C13.6531 10.2213 13.5033 10.631 13.2245 10.9553C12.8807 11.3552 12.3794 11.5846 11.8491 11.5846H11.7405C11.5622 13.173 10.6114 14.5337 9.2697 15.2914V16.2654C9.2697 16.5762 9.4719 16.8451 9.77292 16.9344L11.9304 17.5747C12.9673 17.8825 13.6641 18.8089 13.6641 19.88V23.4608C13.6641 23.761 13.4181 24.0043 13.1146 24.0043C12.8112 24.0043 12.5652 23.761 12.5652 23.4608V19.88C12.5652 19.2927 12.1832 18.7848 11.6146 18.6161L10.5123 18.2889C9.49498 19.1738 8.19988 19.6584 6.83695 19.6584C5.47285 19.6584 4.179 19.1739 3.16171 18.2889L2.05929 18.6161C1.49072 18.7848 1.10874 19.2928 1.10874 19.88V23.4608C1.10874 23.761 0.862737 24.0043 0.559293 24.0043C0.25585 24.0043 0.00984192 23.761 0.00984192 23.4608V19.88C0.00984192 18.8089 0.706544 17.8825 1.74354 17.5748L3.90098 16.9345C4.20193 16.8452 4.4042 16.5763 4.4042 16.2654V15.3031C3.05189 14.5478 2.0927 13.1811 1.9135 11.5848H1.80486C1.2746 11.5848 0.773285 11.3554 0.429476 10.9555C0.150721 10.6312 0.00090313 10.2215 0.000244141 9.799H-0.000123024V8.55689C-0.000123024 6.75858 0.728009 5.03507 2.00948 3.7715C1.93416 3.61625 1.89314 3.44448 1.89314 3.26648ZM3.10127 1.35467C3.07556 1.34373 3.05072 1.3459 3.02728 1.36112C3.00384 1.37634 2.99204 1.39816 2.99204 1.42585V3.26648C2.99204 3.29417 3.00391 3.31591 3.02728 3.3312C3.05065 3.34642 3.07549 3.3486 3.10127 3.33765L5.43336 2.34616L3.10127 1.35467ZM10.6719 1.42585C10.6719 1.39816 10.66 1.37634 10.6367 1.36112C10.623 1.35221 10.6089 1.34779 10.5944 1.34779C10.584 1.34779 10.5734 1.35011 10.5627 1.35467L8.23058 2.34616L10.5627 3.33765C10.5885 3.3486 10.6133 3.34642 10.6367 3.3312C10.66 3.31598 10.6719 3.29417 10.6719 3.26648V1.42585ZM10.7432 4.42148C10.6937 4.42778 10.644 4.43148 10.5942 4.43148C10.4367 4.43148 10.2784 4.40002 10.1288 4.33639L6.83197 2.93475L3.53519 4.33639C3.38552 4.40002 3.22728 4.43148 3.06984 4.43148C3.01768 4.43148 2.96559 4.42764 2.91395 4.42075C1.85541 5.40188 1.21329 6.74358 1.11402 8.16841C1.34772 8.06933 1.60449 8.01309 1.87211 8.01309H2.43263C2.82193 8.01309 3.13871 7.69977 3.13871 7.31455C3.13871 7.05545 3.32354 6.83236 3.58039 6.78156L9.85798 5.53944C10.0194 5.5074 10.1868 5.54886 10.3141 5.65214C10.4414 5.75535 10.5152 5.90965 10.5152 6.07251V7.31463C10.5152 7.69977 10.832 8.01316 11.2213 8.01316H11.7818C12.0499 8.01316 12.3071 8.06962 12.5412 8.16899C12.4427 6.74068 11.8024 5.40362 10.7432 4.42148ZM4.44933 17.888C5.1579 18.332 5.97995 18.5711 6.83695 18.5711C7.69329 18.5711 8.51585 18.3321 9.22472 17.888C8.58589 17.601 8.17087 16.9766 8.17087 16.2652V15.7477C7.7434 15.8673 7.2927 15.932 6.82706 15.932C6.3686 15.932 5.92479 15.869 5.50318 15.7529V16.2652C5.5031 16.9766 5.08816 17.6009 4.44933 17.888ZM1.26662 10.2509C1.4012 10.4075 1.59746 10.4973 1.80486 10.4973H2.43263C2.73607 10.4973 2.98208 10.7406 2.98208 11.0409C2.98208 13.1383 4.70691 14.8447 6.82699 14.8447C8.94706 14.8447 10.6719 13.1383 10.6719 11.0409C10.6719 10.7406 10.9179 10.4973 11.2214 10.4973H11.8491C12.0566 10.4973 12.2528 10.4075 12.3874 10.2509C12.5238 10.0922 12.5798 9.88851 12.5451 9.67746C12.4919 9.35377 12.1567 9.10025 11.7819 9.10025H11.2214C10.2261 9.10025 9.41637 8.29923 9.41637 7.31455V6.73553L4.17761 7.7721C3.97285 8.53572 3.26808 9.10025 2.43263 9.10025H1.87211C1.49731 9.10025 1.16208 9.35377 1.10889 9.67746C1.07416 9.88858 1.13021 10.0922 1.26662 10.2509Z" fill="black"/>
</svg>
