<?xml version="1.0" encoding="utf-8"?>
<!-- Generator: Adobe Illustrator 26.0.1, SVG Export Plug-In . SVG Version: 6.00 Build 0)  -->
<svg version="1.1" id="Слой_1" xmlns="http://www.w3.org/2000/svg" xmlns:xlink="http://www.w3.org/1999/xlink" x="0px" y="0px"
	 viewBox="0 0 1190.6 221.1" style="enable-background:new 0 0 1190.6 221.1;" xml:space="preserve">
<style type="text/css">
	.st0{fill:#FFFFFF;}
	.st1{fill:#27926D;}
	.st2{fill-rule:evenodd;clip-rule:evenodd;fill:#FFFFFF;}
</style>
<g>
	<path class="st1" d="M345.2,123.7c-6.5,8.3-12.3,12-22.9,12c-14.8,0-27.2-11.1-27.2-26.2c0-14.7,11.9-25.9,27.4-25.9
		c9.2,0,16.4,4.6,21.5,11.8l16.1-16.6c-9.4-13.5-23.4-18.3-39.4-18.3c-28.4,0-50.8,21.1-50.8,49.8c0,28.8,22.6,49.2,50.8,49.2
		c17,0,30.6-6.6,40.9-19.9L345.2,123.7z"/>
	<path class="st1" d="M373.8,157.2h23.8l0.8-55.1l17.2,29.1h13.2l17.2-29.1l0.8,55.1h23.8l-1.5-94h-23.1l-23.8,38l-23.7-38h-23
		L373.8,157.2z"/>
	<path class="st1" d="M484.5,124.4h22.7H530v-19.4h-22.7h-22.7V124.4z"/>
	<path class="st1" d="M570,118.6h5.8c6.8,0,12.4,7,15.6,13.6l12.7,25h27.8L614.3,122c-4.3-8-9-13-17.2-15.6
		c6.6-2.8,10.9-6.9,15.3-15.9l14.3-27.2h-26.9l-11.4,22.3c-3.3,7.2-7.2,10.3-14.2,10.3H570V63.2h-24.4v94H570V118.6z"/>
	<path class="st1" d="M656.7,88.4c0,38-4,48.3-17.8,48.3v20.4c0,0,2.8,0,4.3,0c20,0,33.8-14.5,33.8-48.7h10.9v48.8h23.3V88.4H656.7z
		"/>
	<path class="st1" d="M793.7,157.2V88.4h-20.1l-24.7,35.1V88.4h-22.2v68.8h18.8l26.1-35.1v35.1H793.7z"/>
	<path class="st1" d="M852.8,88.4v24.2h-20.3V88.4h-23.3v68.8h23.3V132h20.3v25.2h23.3V88.4H852.8z"/>
	<path class="st1" d="M958.7,157.2V88.4h-20.1l-24.7,35.1V88.4h-22.2v68.8h18.7l26.1-35.3v35.3H958.7z"/>
	<path class="st1" d="M997.1,131.2h4.1c5,0,8,4.8,10,8.6l8.4,17.4h24.8l-11-22.9c-4.3-7.9-8.1-11.8-14.6-14
		c5.4-1.8,9.1-4.6,12.8-11.8l9.9-20.2h-23.7l-7.7,16.2c-2.3,4.9-4.3,6.6-9.1,6.6h-4V88.4h-22.9v68.8h22.9V131.2z"/>
	<path class="st1" d="M1111.8,157.2v-40.6c0-18.8-12.3-28.6-30.2-28.6c-15.4,0-27.2,4.8-32.1,10.6l10.7,11.7c3.9-2.8,9.8-4.9,18-4.9
		c4.7,0,10.8,1.6,10.8,8.5v1.3c-3.2-0.4-5-0.6-9.2-0.6c-16.7,0-31,8.3-31,24.7c0,16.1,11.7,20.3,20.3,20.3c8.8,0,14.1-2.1,20-8.4
		v6.2H1111.8z M1089.1,132.4c-0.7,9.1-6.6,11.5-11.5,11.5c-5.1,0-7.7-3.2-7.7-8.2c0-4.7,5.1-8.3,12.8-8.3c3,0,5.1,0.1,6.3,0.6V132.4
		z"/>
	<path class="st1" d="M78.8,81.5c0-23.3,0-35,7.2-42.3c7.2-7.2,18.9-7.2,42.3-7.2h58.1c23.3,0,35,0,42.3,7.2
		c7.2,7.3,7.2,18.9,7.2,42.3v58.1c0,23.3,0,35-7.2,42.3c-7.3,7.2-18.9,7.2-42.3,7.2h-58.1c-23.3,0-35,0-42.3-7.2s-7.2-18.9-7.2-42.3
		V81.5z"/>
	<path class="st2" d="M158.5,157.4c-31.8,0-59.7-20.9-59.1-43.2c-0.8-16.3,8.3-33.5,28.8-42.6c7.6-3.4,20.7-6.3,33.4-6.4
		c2.8-0.1,4.6-0.4,7.1-0.9c1.6-0.3,3.4-0.7,6-1c4.2-0.6,9.9-1.2,14.9,0.8c5.8,2.9,11.5,7.3,11.5,9.4c0,2.1-3.8,5.9-6.3,6.2
		c-4.3,0.5-9.7-0.3-16.5-1.4c-5.2-0.8-11.2-1.8-18-2.3c-28.7-0.4-49.7,18.9-49.1,37.7c0.7,23.9,30.6,34.3,49.1,34.3
		c51.4,0.3,49.8-45.5,37.7-47.7c-3.9-0.7-7.1,6.1-10.5,13.6c-4,8.7-8.4,18.4-15.1,18.3c-6.2-0.1-11.1-10.4-15.2-19.1
		c-2.9-6-5.3-11.2-7.5-11.5c-4-0.4-7,8.9-9.7,17.1c-1.8,5.5-3.4,10.5-5,11.6c-3.7,3.7-13.4-4.3-12.1-7.4c1.3-3,2.6-1.9,4-0.6
		c1.1,1,2.4,2.2,3.8,0.9c0.5-0.5,1.3-2.7,2.3-5.8c3-8.7,8.2-24.3,17.2-25c6.4-0.5,11.5,11.1,15.6,20.3c2.6,6,4.8,11,6.7,11
		c2.1,0,4.2-4.6,6.7-10.3c4.3-9.4,9.8-21.6,18.8-20.1C221.1,97.2,222.9,157.4,158.5,157.4z M188.2,69c0,1-1.6,1.1-4.9,1
		c-2.5-0.1-4.1-0.8-3.7-2.1c0.4-1.3,2.6-1.4,5-0.9C185.6,67.2,188.2,67.9,188.2,69z"/>
</g>
</svg>
