<svg width="18" height="14" fill="none" xmlns="http://www.w3.org/2000/svg"><path d="M17.84 1.576L12.381 7l5.46 5.424c.098-.206.158-.434.158-.678V2.254c0-.244-.06-.472-.159-.678zM16.417.672H1.581c-.243 0-.471.06-.678.158l6.978 6.942c.617.617 1.62.617 2.237 0L17.095.83a1.563 1.563 0 00-.678-.158zM.159 1.576A1.564 1.564 0 000 2.254v9.492c0 .244.06.472.159.678L5.618 7 .158 1.576z" fill="#fff"/><path d="M11.636 7.746l-.773.772a2.64 2.64 0 01-3.728 0l-.773-.772L.903 13.17c.207.098.435.158.678.158h14.836c.244 0 .472-.06.678-.158l-5.46-5.424z" fill="#fff"/></svg>