<svg width="20" height="20" fill="none" xmlns="http://www.w3.org/2000/svg"><g clip-path="url(#clip0)"><path d="M17.945 5.928A8.185 8.185 0 0020 3.799a8.563 8.563 0 01-2.363.647 4.078 4.078 0 001.805-2.266 8.204 8.204 0 01-2.6.992 4.099 4.099 0 00-7.093 2.803c0 .326.028.638.095.936a11.608 11.608 0 01-8.451-4.29A4.135 4.135 0 00.83 4.695c0 1.42.73 2.678 1.821 3.408A4.053 4.053 0 01.8 7.597v.045a4.12 4.12 0 003.285 4.029 4.076 4.076 0 01-1.075.135c-.262 0-.527-.015-.776-.07.531 1.623 2.04 2.817 3.831 2.856a8.242 8.242 0 01-5.084 1.749c-.336 0-.658-.015-.981-.056a11.547 11.547 0 006.29 1.84c7.236 0 11.952-6.037 11.655-12.197z" fill="#fff"/></g><defs><clipPath id="clip0"><path fill="#fff" d="M0 0h20v20H0z"/></clipPath></defs></svg>