<svg width="13" height="23" viewBox="0 0 13 23" fill="none" xmlns="http://www.w3.org/2000/svg">
<path d="M6.43059 11.4835C9.50166 11.4835 11.9959 8.96078 11.9959 5.85475C11.9959 2.74873 9.50166 0.226074 6.43059 0.226074C3.35951 0.226074 0.865234 2.74873 0.865234 5.85475C0.865234 8.97655 3.35951 11.4835 6.43059 11.4835ZM6.43059 3.53707C7.69331 3.53707 8.73779 4.57767 8.73779 5.87054C8.73779 7.14763 7.7089 8.20398 6.43059 8.20398C5.16786 8.20398 4.12338 7.1634 4.12338 5.87054C4.12338 4.57767 5.15227 3.53707 6.43059 3.53707Z" fill="white"/>
<path d="M8.67445 16.0718C9.81246 15.8038 10.9037 15.3623 11.9014 14.7159C12.6653 14.2271 12.8991 13.2181 12.4159 12.4455C11.9326 11.673 10.9349 11.4364 10.171 11.9252C7.89499 13.3757 4.96422 13.3757 2.68819 11.9252C1.92432 11.4364 0.926606 11.673 0.443341 12.4455C-0.0399253 13.2181 0.193913 14.2271 0.957785 14.7159C1.9555 15.3466 3.06233 15.8038 4.18475 16.0718L1.06691 19.2252C0.427751 19.8716 0.427751 20.9122 1.06691 21.5586C1.37869 21.874 1.7996 22.0474 2.22051 22.0474C2.64142 22.0474 3.06233 21.8897 3.37411 21.5586L6.4296 18.4684L9.48509 21.5586C10.1242 22.2051 11.1531 22.2051 11.7923 21.5586C12.4315 20.9122 12.4315 19.8716 11.7923 19.2252L8.67445 16.0718Z" fill="white"/>
</svg>
