<svg width="13" height="21" fill="none" xmlns="http://www.w3.org/2000/svg"><path d="M12.167 13.126c.463-.463.53-1.125.133-1.787-.332-.53-.927-.795-1.59-.662-.264.066-.529.198-.793.397-2.052 1.39-4.832 1.324-6.884-.066l-.397-.199c-.728-.33-1.456-.198-1.853.464-.464.661-.398 1.39.198 1.985.133.133.265.199.331.331l.066.066c.927.728 2.052 1.192 3.508 1.39l-.86.86-2.25 2.251c-.2.199-.464.53-.464.993 0 .596.331 1.191.927 1.456.198.133.397.133.595.133.331 0 .729-.133.993-.464l2.582-2.581.066-.066s.066 0 .066.066c.53.595 1.125 1.125 1.655 1.72l.794.795c.33.331.596.463.993.463.595.067 1.257-.33 1.522-.926a1.325 1.325 0 00-.33-1.589c-.663-.662-1.325-1.39-2.053-2.052L7.997 14.98c.596-.066 1.258-.198 1.853-.463.993-.331 1.721-.794 2.317-1.39z" fill="#fff"/><path d="M6.475 11.273c2.846 0 5.163-2.25 5.163-5.097 0-1.39-.53-2.714-1.523-3.707C9.122 1.477 7.865.947 6.541.947c-2.846 0-5.097 2.317-5.163 5.097 0 1.39.53 2.647 1.523 3.64.926 1.059 2.184 1.589 3.574 1.589zm-1.456-6.62a2.053 2.053 0 011.456-.595c1.191 0 2.052.927 2.052 2.052 0 1.191-.927 2.052-2.052 2.052-1.192 0-2.052-.927-2.052-2.052 0-.53.199-1.06.596-1.456z" fill="#fff"/><path d="M12.167 13.126c.463-.463.53-1.125.133-1.787-.332-.53-.927-.795-1.59-.662-.264.066-.529.198-.793.397-2.052 1.39-4.832 1.324-6.884-.066l-.397-.199c-.728-.33-1.456-.198-1.853.464-.464.661-.398 1.39.198 1.985.133.133.265.199.331.331l.066.066c.927.728 2.052 1.192 3.508 1.39l-.86.86-2.25 2.251c-.2.199-.464.53-.464.993 0 .596.331 1.191.927 1.456.198.133.397.133.595.133.331 0 .729-.133.993-.464l2.582-2.581.066-.066s.066 0 .066.066c.53.595 1.125 1.125 1.655 1.72l.794.795c.33.331.596.463.993.463.595.067 1.257-.33 1.522-.926a1.325 1.325 0 00-.33-1.589c-.663-.662-1.325-1.39-2.053-2.052L7.997 14.98c.596-.066 1.258-.198 1.853-.463.993-.331 1.721-.794 2.317-1.39z" fill="#fff"/></svg>