<svg width="26" height="15" viewBox="0 0 26 15" fill="none" xmlns="http://www.w3.org/2000/svg">
<path fill-rule="evenodd" clip-rule="evenodd" d="M13.0263 14.7885H14.5222C14.5222 14.7885 14.9741 14.7412 15.2079 14.4891C15.4261 14.2527 15.4105 13.8271 15.4105 13.8271C15.4105 13.8271 15.3793 11.794 16.3143 11.4946C17.2337 11.1951 18.418 13.4646 19.6646 14.3315C20.6152 14.9934 21.332 14.8516 21.332 14.8516L24.6824 14.8043C24.6824 14.8043 26.4277 14.694 25.6018 13.307C25.5395 13.1967 25.1187 12.2826 23.1085 10.3914C21.0048 8.42131 21.2853 8.73651 23.8253 5.33226C25.3681 3.25188 25.9758 1.99105 25.7888 1.43943C25.6018 0.919338 24.4798 1.06118 24.4798 1.06118L20.7087 1.0927C20.7087 1.0927 20.4282 1.06118 20.2256 1.18726C20.0231 1.31335 19.8984 1.59704 19.8984 1.59704C19.8984 1.59704 19.3062 3.2046 18.5115 4.57576C16.8285 7.45992 16.1585 7.61753 15.8935 7.4284C15.2546 7.01863 15.4105 5.75779 15.4105 4.85945C15.4105 2.06985 15.8312 0.903575 14.6001 0.604126C14.195 0.509564 13.8833 0.430765 12.8393 0.430765C11.4991 0.415005 10.3616 0.430761 9.70706 0.761731C9.27074 0.966616 8.94349 1.45519 9.14607 1.47095C9.3954 1.50247 9.95639 1.62856 10.2525 2.03833C10.642 2.57418 10.6265 3.75621 10.6265 3.75621C10.6265 3.75621 10.8446 7.05015 10.1122 7.45992C9.59798 7.74361 8.91233 7.16047 7.41635 4.54424C6.65278 3.2046 6.07621 1.72312 6.07621 1.72312C6.07621 1.72312 5.96713 1.43943 5.76455 1.29759C5.5308 1.12422 5.18797 1.06118 5.18797 1.06118L1.60387 1.07694C1.60387 1.07694 1.05846 1.0927 0.871461 1.32911C0.700047 1.53399 0.855878 1.97529 0.855878 1.97529C0.855878 1.97529 3.66083 8.61043 6.83978 11.9516C9.72265 14.9934 13.0263 14.7885 13.0263 14.7885Z" fill="white"/>
</svg>
