<svg width="21" height="22" viewBox="0 0 21 22" fill="none" xmlns="http://www.w3.org/2000/svg">
<path d="M10.7755 2.58421C13.4869 2.58421 13.7986 2.59997 14.8738 2.64725C15.8556 2.69453 16.401 2.85213 16.7594 2.99398C17.2269 3.1831 17.5697 3.40375 17.9281 3.76624C18.2865 4.12873 18.5047 4.4597 18.6917 4.94827C18.8319 5.31076 19.0033 5.84662 19.0345 6.85529C19.0813 7.94276 19.0968 8.25797 19.0968 11.0003C19.0968 13.7426 19.0813 14.0578 19.0345 15.1453C18.9878 16.1382 18.8319 16.6898 18.6917 17.0523C18.5047 17.5251 18.2865 17.8718 17.9281 18.2343C17.5697 18.5968 17.2425 18.8175 16.7594 19.0066C16.401 19.1484 15.8711 19.3218 14.8738 19.3533C13.7986 19.4006 13.4869 19.4164 10.7755 19.4164C8.06403 19.4164 7.75237 19.4006 6.67713 19.3533C5.6954 19.306 5.14999 19.1484 4.79158 19.0066C4.32409 18.8175 3.98126 18.5968 3.62285 18.2343C3.26444 17.8718 3.04628 17.5409 2.85928 17.0523C2.71903 16.6898 2.54762 16.1539 2.51645 15.1453C2.4697 14.0578 2.45412 13.7426 2.45412 11.0003C2.45412 8.25797 2.4697 7.94276 2.51645 6.85529C2.5632 5.86238 2.71903 5.31076 2.85928 4.94827C3.04628 4.47546 3.26444 4.12873 3.62285 3.76624C3.98126 3.40375 4.30851 3.1831 4.79158 2.99398C5.14999 2.85213 5.67982 2.67877 6.67713 2.64725C7.73678 2.59997 8.06403 2.58421 10.7755 2.58421ZM10.7755 0.740234C8.01728 0.740234 7.67445 0.755995 6.59922 0.803276C5.52399 0.850558 4.776 1.02392 4.13709 1.27609C3.46702 1.54402 2.90603 1.89075 2.34504 2.45812C1.78405 3.0255 1.44122 3.59287 1.17631 4.27057C0.92698 4.91675 0.755566 5.67325 0.708816 6.76072C0.662067 7.84819 0.646484 8.21068 0.646484 10.9845C0.646484 13.7741 0.662067 14.1208 0.708816 15.2083C0.755566 16.2958 0.92698 17.0523 1.17631 17.6985C1.44122 18.3762 1.78405 18.9435 2.34504 19.5109C2.90603 20.0783 3.46702 20.425 4.13709 20.693C4.776 20.9451 5.52399 21.1185 6.59922 21.1658C7.67445 21.213 8.03286 21.2288 10.7755 21.2288C13.5181 21.2288 13.8765 21.213 14.9517 21.1658C16.027 21.1185 16.775 20.9451 17.4139 20.693C18.0839 20.425 18.6449 20.0783 19.2059 19.5109C19.7669 18.9435 20.1097 18.3762 20.3747 17.6985C20.624 17.0523 20.7954 16.2958 20.8422 15.2083C20.8889 14.1208 20.9045 13.7584 20.9045 10.9845C20.9045 8.21068 20.8889 7.84819 20.8422 6.76072C20.7954 5.67325 20.624 4.91675 20.3747 4.27057C20.1097 3.59287 19.7669 3.0255 19.2059 2.45812C18.6449 1.89075 18.0839 1.54402 17.4139 1.27609C16.775 1.02392 16.027 0.850558 14.9517 0.803276C13.8765 0.755995 13.5181 0.740234 10.7755 0.740234Z" fill="white"/>
<path d="M10.777 5.73633C7.89414 5.73633 5.57227 8.10039 5.57227 11.0003C5.57227 13.9002 7.90973 16.2643 10.777 16.2643C13.6443 16.2643 15.9818 13.9002 15.9818 11.0003C15.9818 8.10039 13.6443 5.73633 10.777 5.73633ZM10.777 14.4203C8.90704 14.4203 7.39548 12.8916 7.39548 11.0003C7.39548 9.10906 8.90704 7.5803 10.777 7.5803C12.647 7.5803 14.1585 9.10906 14.1585 11.0003C14.1585 12.8916 12.647 14.4203 10.777 14.4203Z" fill="white"/>
<path d="M16.1842 6.74476C16.8555 6.74476 17.3997 6.19438 17.3997 5.51545C17.3997 4.83652 16.8555 4.28613 16.1842 4.28613C15.5129 4.28613 14.9688 4.83652 14.9688 5.51545C14.9688 6.19438 15.5129 6.74476 16.1842 6.74476Z" fill="white"/>
</svg>
