<svg width="19" height="12" fill="none" xmlns="http://www.w3.org/2000/svg"><path d="M18.318 10.176c0-.073-.073-.073-.073-.146-.294-.587-.953-1.32-1.833-2.126-.44-.367-.66-.66-.806-.807-.22-.293-.22-.513-.147-.806.073-.22.367-.586.88-1.246.293-.367.44-.587.66-.807 1.1-1.466 1.612-2.419 1.466-2.859l-.074-.073c-.073-.073-.146-.147-.293-.147-.146-.073-.366-.073-.586 0h-3.299l-.073.074c-.074.073-.074.073-.074.146-.293.807-.66 1.467-1.026 2.2-.22.366-.44.733-.66 1.026-.22.293-.366.513-.513.66-.147.146-.293.22-.367.366-.073.074-.22.147-.22.074-.073 0-.146 0-.146-.074l-.22-.22c-.073-.073-.073-.22-.147-.366v-.367-.44-.44-.806-.66-.513-.44c0-.073-.073-.22-.073-.293l-.22-.22c-.073-.073-.22-.073-.293-.146A6.575 6.575 0 008.86.573c-1.173 0-1.979.073-2.272.22-.147.073-.293.147-.367.293-.146.147-.146.22-.073.22.367.073.66.22.806.44l.074.147c.073.073.073.22.146.44.074.22.074.44.074.732v1.173c0 .367-.074.587-.074.807 0 .22-.073.366-.146.44-.074.146-.074.22-.147.22 0 0 0 .073-.073.073-.074 0-.147.073-.293.073-.074 0-.22-.073-.294-.146a.883.883 0 01-.366-.367c-.147-.147-.293-.367-.44-.66-.147-.293-.367-.586-.513-1.026l-.147-.293c-.073-.147-.22-.44-.366-.807-.147-.366-.294-.66-.44-1.026a1.012 1.012 0 00-.22-.293h-.073s-.074-.074-.147-.074-.147-.073-.22-.073H.65c-.292 0-.439.073-.512.147l-.074.073v.147c0 .073 0 .146.074.293.366.88.806 1.76 1.246 2.639.44.806.88 1.54 1.173 2.053.366.513.66 1.026 1.026 1.466.367.44.587.733.66.88l.293.293.22.22c.147.146.367.366.66.586.293.22.66.44 1.026.66.367.22.807.366 1.246.513.514.147.953.22 1.393.147h1.1c.22 0 .366-.074.513-.22l.073-.074c0-.073.074-.073.074-.146v-.293c0-.294 0-.514.073-.734.073-.22.073-.366.147-.513.073-.146.146-.22.22-.293l.146-.147h.073c.147-.073.367 0 .514.147.22.147.44.367.586.587.147.22.367.44.66.733.293.293.513.513.66.586l.22.147c.146.073.293.146.513.22.22.073.366.073.513.073l2.492-.073c.22 0 .44-.074.587-.147.146-.073.22-.147.22-.293v-.293c-.147-.147-.147-.22-.147-.294z" fill="#fff"/></svg>