<svg width="46" height="46" viewBox="0 0 46 46" fill="none" xmlns="http://www.w3.org/2000/svg">
<circle cx="23" cy="23" r="23" fill="#953478"/>
<g clip-path="url(#clip0_115_5615)">
<path d="M26.3174 34.7757C26.6227 34.7757 26.8702 34.5282 26.8702 34.2228C26.8702 33.9175 26.6227 33.6699 26.3174 33.6699C26.012 33.6699 25.7645 33.9175 25.7645 34.2228C25.7645 34.5282 26.012 34.7757 26.3174 34.7757Z" fill="white"/>
<path d="M24.1058 34.7757C24.4112 34.7757 24.6587 34.5282 24.6587 34.2228C24.6587 33.9175 24.4112 33.6699 24.1058 33.6699C23.8005 33.6699 23.5529 33.9175 23.5529 34.2228C23.5529 34.5282 23.8005 34.7757 24.1058 34.7757Z" fill="white"/>
<path d="M21.8943 34.7757C22.1996 34.7757 22.4471 34.5282 22.4471 34.2228C22.4471 33.9175 22.1996 33.6699 21.8943 33.6699C21.5889 33.6699 21.3414 33.9175 21.3414 34.2228C21.3414 34.5282 21.5889 34.7757 21.8943 34.7757Z" fill="white"/>
<path d="M20.2446 24.1899C20.3741 26.2077 22.056 27.8099 24.1058 27.8099C26.1557 27.8099 27.8376 26.2077 27.9671 24.1899C28.2947 24.382 28.6754 24.4926 29.0818 24.4926C30.3012 24.4926 31.2933 23.5005 31.2933 22.2811C31.2933 21.471 30.85 20.7347 30.1593 20.349C29.9617 18.4545 28.7652 16.986 27.2418 16.7775C26.5198 16.0657 25.3676 15.6465 24.1058 15.6465C22.8436 15.6465 21.6913 16.0657 20.9697 16.7775C19.4463 16.986 18.2499 18.4545 18.0524 20.349C17.3617 20.7347 16.9183 21.4709 16.9183 22.2811C16.9183 23.5005 17.9104 24.4926 19.1299 24.4926C19.5362 24.4926 19.917 24.382 20.2446 24.1899ZM26.8703 23.9398C26.8703 25.4641 25.6301 26.7042 24.1058 26.7042C22.5815 26.7042 21.3414 25.4641 21.3414 23.9398V21.1753C21.3414 20.5656 21.8375 20.0696 22.4472 20.0696C23.0569 20.0696 23.553 20.5656 23.553 21.1753C23.553 21.4806 23.8005 21.7282 24.1058 21.7282C24.4111 21.7282 24.6587 21.4806 24.6587 21.1753C24.6587 20.5656 25.1548 20.0696 25.7645 20.0696C26.3742 20.0696 26.8703 20.5656 26.8703 21.1753V23.9398ZM18.0241 22.2811C18.0241 21.8119 18.3212 21.3922 18.7635 21.237C18.9776 21.1618 19.124 20.9635 19.1328 20.7367C19.1931 19.1819 20.1267 17.9183 21.2581 17.86C21.4086 17.8523 21.5494 17.7835 21.6479 17.6695C22.1372 17.1037 23.0791 16.7523 24.1058 16.7523C25.1322 16.7523 26.074 17.1038 26.5639 17.6698C26.6624 17.7836 26.8031 17.8523 26.9535 17.86C28.0849 17.9183 29.0185 19.1819 29.0789 20.7367C29.0877 20.9635 29.2342 21.1618 29.4482 21.237C29.8904 21.3922 30.1876 21.8119 30.1876 22.2811C30.1876 22.8908 29.6915 23.3869 29.0818 23.3869C28.4721 23.3869 27.976 22.8908 27.976 22.2811V21.1753C27.976 19.9559 26.9839 18.9638 25.7645 18.9638C25.1047 18.9638 24.5114 19.2543 24.1058 19.714C23.7003 19.2543 23.107 18.9638 22.4472 18.9638C21.2277 18.9638 20.2356 19.9559 20.2356 21.1753V22.2811C20.2356 22.8908 19.7396 23.3869 19.1299 23.3869C18.5202 23.3869 18.0241 22.8908 18.0241 22.2811Z" fill="white"/>
<path d="M25.2116 23.3867C24.9063 23.3867 24.6587 23.6343 24.6587 23.9396C24.6587 24.2445 24.4107 24.4925 24.1058 24.4925C23.8009 24.4925 23.5529 24.2445 23.5529 23.9396C23.5529 23.6343 23.3053 23.3867 23 23.3867C22.6947 23.3867 22.4471 23.6343 22.4471 23.9396C22.4471 24.8542 23.1912 25.5983 24.1058 25.5983C25.0204 25.5983 25.7645 24.8542 25.7645 23.9396C25.7645 23.6343 25.5169 23.3867 25.2116 23.3867Z" fill="white"/>
<path d="M30.1876 31.8455V29.6339C30.1876 29.3286 29.94 29.0811 29.6347 29.0811H18.577C18.2716 29.0811 18.0241 29.3286 18.0241 29.6339V31.8455C18.0241 32.1508 18.2716 32.3984 18.577 32.3984H29.6347C29.94 32.3984 30.1876 32.1508 30.1876 31.8455ZM29.0818 31.2926H19.1299V30.1868H29.0818V31.2926Z" fill="white"/>
<path d="M24.1058 37.1536C24.4112 37.1536 24.6587 36.9061 24.6587 36.6007C24.6587 36.2954 24.4112 36.0479 24.1058 36.0479C23.8005 36.0479 23.5529 36.2954 23.5529 36.6007C23.5529 36.9061 23.8005 37.1536 24.1058 37.1536Z" fill="white"/>
<path d="M12.4952 11.6101V34.389C12.4952 35.9133 13.7354 37.1534 15.2597 37.1534H21.6178C21.9232 37.1534 22.1707 36.9058 22.1707 36.6005C22.1707 36.2952 21.9232 36.0476 21.6178 36.0476H15.8125V14.3745H32.3991V36.0476H26.5938C26.2885 36.0476 26.0409 36.2952 26.0409 36.6005C26.0409 36.9058 26.2885 37.1534 26.5938 37.1534H32.952C33.2573 37.1534 33.5049 36.9058 33.5049 36.6005V13.8217C33.5049 13.5164 33.2573 13.2688 32.952 13.2688C32.0374 13.2688 31.2933 12.5247 31.2933 11.6101C31.2933 10.6955 32.0374 9.95147 32.952 9.95147C33.2573 9.95147 33.5049 9.70389 33.5049 9.39859C33.5049 9.09328 33.2573 8.8457 32.952 8.8457H15.2597C13.7354 8.8457 12.4952 10.0858 12.4952 11.6101ZM14.7068 35.9525C14.0633 35.7243 13.601 35.1098 13.601 34.389V13.7902C13.923 14.0296 14.299 14.2054 14.7068 14.2984V35.9525ZM16.3654 12.163H30.2432C30.3264 12.5714 30.5 12.9472 30.7419 13.2688H15.378C14.4377 13.2688 13.601 12.5864 13.601 11.6101C13.601 10.6955 14.3451 9.95147 15.2597 9.95092H30.7419C30.4999 10.2731 30.3264 10.6489 30.2432 11.0572H16.3654C16.0601 11.0572 15.8125 11.3048 15.8125 11.6101C15.8125 11.9154 16.0601 12.163 16.3654 12.163Z" fill="white"/>
</g>
<defs>
<clipPath id="clip0_115_5615">
<rect width="28.3077" height="28.3077" fill="white" transform="translate(8.84619 8.8457)"/>
</clipPath>
</defs>
</svg>
