<?xml version="1.0" encoding="utf-8"?><svg width="193" height="165" viewBox="0 0 193 165" xmlns="http://www.w3.org/2000/svg" xmlns:xlink="http://www.w3.org/1999/xlink"><svg width="32" height="32" fill="none" viewBox="-1 -1 32 32" id="check-it" x="33" y="74" xmlns="http://www.w3.org/2000/svg"><g clip-path="url(#aaclip0)" fill="#3B9670"><path d="M15 30c8.27 0 15-6.729 15-15 0-1.428-.2-2.835-.594-4.182a1.249 1.249 0 10-2.4.702c.328 1.12.494 2.29.494 3.48 0 6.892-5.608 12.5-12.5 12.5S2.5 21.892 2.5 15 8.108 2.5 15 2.5c2.505 0 4.915.732 6.97 2.118a1.25 1.25 0 001.397-2.073A14.907 14.907 0 0015 0C6.73 0 0 6.729 0 15s6.73 15 15 15z"/><path d="M27.866 2.866L15 15.732l-4.116-4.116a1.25 1.25 0 00-1.768 1.768l5 5c.245.244.564.366.884.366.32 0 .64-.122.884-.366l13.75-13.75a1.25 1.25 0 00-1.768-1.768z"/></g><defs><clipPath id="aaclip0"><path fill="#fff" d="M0 0h30v30H0z"/></clipPath></defs></svg><svg width="34" height="34" fill="none" viewBox="-1 -1 34 34" id="edit" x="77" xmlns="http://www.w3.org/2000/svg"><g clip-path="url(#abclip0)" fill="#3B9670"><path d="M29.535 20.102a.797.797 0 00-.797.797v7.076a2.393 2.393 0 01-2.391 2.391H3.985a2.393 2.393 0 01-2.391-2.39V7.206a2.394 2.394 0 012.39-2.39h7.077a.797.797 0 100-1.595H3.985A3.99 3.99 0 000 7.207v20.769a3.99 3.99 0 003.985 3.985h22.362a3.99 3.99 0 003.985-3.985v-7.077a.797.797 0 00-.797-.797z"/><path d="M30.016 1.172a3.586 3.586 0 00-5.072 0L10.726 15.39a.795.795 0 00-.205.351l-1.87 6.75a.797.797 0 00.981.981l6.75-1.87a.796.796 0 00.351-.204l14.218-14.22a3.59 3.59 0 000-5.071l-.935-.935zM12.462 15.908L24.1 4.271l3.753 3.753-11.637 11.637-3.753-3.753zm-.75 1.505l2.999 2.998-4.148 1.15 1.15-4.148zM29.825 6.052l-.845.845-3.753-3.753.845-.845a1.992 1.992 0 012.818 0l.935.935c.777.779.777 2.04 0 2.818z"/></g><defs><clipPath id="abclip0"><path fill="#fff" d="M0 0h32v32H0z"/></clipPath></defs></svg><svg width="33" height="30" fill="none" viewBox="-1 -1 33 30" id="form-calendar" x="77" y="34" xmlns="http://www.w3.org/2000/svg"><path d="M27.651 2.907H25.77V1.415a.783.783 0 00-.78-.782c-.43 0-.782.352-.782.782v1.492h-7.652V1.415a.783.783 0 00-.781-.782c-.43 0-.781.352-.781.782v1.492H7.262V1.415A.783.783 0 006.48.633c-.43 0-.781.352-.781.782v1.492H3.896C2.178 2.907.78 4.353.78 6.072v18.169a3.117 3.117 0 003.116 3.126h23.747a3.116 3.116 0 003.116-3.118V6.072c.008-1.719-1.39-3.165-3.108-3.165zm1.554 21.334c0 .86-.687 1.555-1.546 1.563H3.896a1.554 1.554 0 01-1.554-1.555V6.072c0-.867.695-1.602 1.554-1.602H5.7v1.133c0 .43.351.782.78.782.43 0 .782-.352.782-.782V4.47h7.73v1.133c0 .43.352.782.782.782.43 0 .78-.352.78-.782V4.47h7.654v1.133c0 .43.35.782.78.782.43 0 .781-.352.781-.782V4.47h1.882c.867 0 1.554.743 1.554 1.602v18.169z" fill="#3C9670"/><path d="M13.72 9.55h-1.367a.784.784 0 00-.78.781c0 .43.35.782.78.782h1.367c.43 0 .78-.352.78-.782a.783.783 0 00-.78-.781zM19.155 9.55h-1.367c-.43 0-.78.351-.78.781 0 .43.35.782.78.782h1.367c.43 0 .78-.352.78-.782a.778.778 0 00-.78-.781zM24.637 9.55H23.27c-.43 0-.78.351-.78.781 0 .43.35.782.78.782h1.367c.43 0 .78-.352.78-.782a.783.783 0 00-.78-.781zM13.72 14.942h-1.367a.784.784 0 00-.78.781c0 .43.35.781.78.781h1.367c.43 0 .78-.351.78-.78a.784.784 0 00-.78-.782zM8.246 14.942H6.87c-.43 0-.78.351-.78.781 0 .43.35.781.78.781h1.367c.43 0 .78-.351.78-.78a.777.777 0 00-.772-.782zM19.155 14.942h-1.367c-.43 0-.78.351-.78.781 0 .43.35.781.78.781h1.367c.43 0 .78-.351.78-.78a.779.779 0 00-.78-.782zM24.637 14.942H23.27c-.43 0-.78.351-.78.781 0 .43.35.781.78.781h1.367c.43 0 .78-.351.78-.78a.784.784 0 00-.78-.782zM13.72 20.256h-1.367a.784.784 0 00-.78.781c0 .43.35.781.78.781h1.367c.43 0 .78-.351.78-.781a.784.784 0 00-.78-.781zM8.246 20.256H6.87c-.43 0-.78.351-.78.781 0 .43.35.781.78.781h1.367c.43 0 .78-.351.78-.781a.777.777 0 00-.772-.781zM19.155 20.256h-1.367c-.43 0-.78.351-.78.781 0 .43.35.781.78.781h1.367c.43 0 .78-.351.78-.781a.779.779 0 00-.78-.781z" fill="#3C9670"/></svg><svg width="33" height="32" fill="none" viewBox="-1 -1 33 32" id="form-clock" y="74" xmlns="http://www.w3.org/2000/svg"><path d="M15.537 30C7.272 30 .547 23.271.547 15S7.273 0 15.538 0c8.266 0 14.99 6.729 14.99 15s-6.724 15-14.99 15zm0-28.125C8.305 1.875 2.422 7.763 2.422 15c0 7.238 5.883 13.125 13.115 13.125 7.233 0 13.116-5.887 13.116-13.125 0-7.237-5.883-13.125-13.116-13.125z" fill="#3C9670"/><path d="M22.095 23.125a.93.93 0 01-.662-.275l-6.558-6.563a.938.938 0 01-.274-.662v-8.75a.938.938 0 011.873 0v8.361l6.284 6.288a.938.938 0 01-.663 1.601z" fill="#3C9670"/></svg><svg width="18" height="11" fill="none" viewBox="-1 -1 18 11" id="form-select" x="170" y="82" xmlns="http://www.w3.org/2000/svg"><path fill-rule="evenodd" clip-rule="evenodd" d="M.293.293a1 1 0 011.414 0L8 6.586 14.293.293a1 1 0 111.414 1.414L9.414 8a2 2 0 01-2.828 0L.293 1.707a1 1 0 010-1.414z" fill="#3C9670"/></svg><svg width="24" height="28" fill="none" viewBox="-1 -1 24 28" id="icon-metro" x="140" y="85" xmlns="http://www.w3.org/2000/svg"><path d="M9.772 24.759L10.97 26l7.361-7.622a10.94 10.94 0 003.043-7.61C21.374 4.82 16.718 0 10.975 0 5.232 0 .576 4.821.576 10.768c0 2.968 1.165 5.665 3.036 7.603.16.165.369.262.606.262.467 0 .845-.392.845-.876a.914.914 0 00-.26-.632 9.146 9.146 0 01-2.538-6.357c0-4.972 3.906-9.017 8.708-9.017 4.801 0 8.71 4.045 8.71 9.017 0 2.487-.978 4.74-2.555 6.373L9.772 24.76z" fill="#fff"/><path d="M12.636 12.891v1.048h4.018v-1.048h-.782l-2.66-6.963-2.242 4.066-2.24-4.066-2.662 6.963h-.78v1.048h4.018v-1.048h-.601l.585-1.736 1.68 2.864 1.682-2.864.586 1.736h-.602z" fill="#fff"/></svg><svg width="16" height="11" fill="none" viewBox="-1 -1 16 11" id="metro" x="170" y="109" xmlns="http://www.w3.org/2000/svg"><path d="M9.209 7.71v1.135h4.541V7.71h-.883L9.86.166 7.326 4.571 4.794.166 1.785 7.71H.904v1.135h4.541V7.71h-.68l.662-1.881 1.899 3.103 1.9-3.104.663 1.882h-.68z" fill="#fff"/></svg><svg width="10" height="16" fill="none" viewBox="-1 -1 10 16" id="nav-arrow-left" x="180" y="93" xmlns="http://www.w3.org/2000/svg"><path d="M7 1L1 7l6 6" stroke="#fff" stroke-width="2" stroke-linecap="round" stroke-linejoin="round"/></svg><svg width="10" height="16" fill="none" viewBox="-1 -1 10 16" id="nav-arrow-right" x="170" y="93" xmlns="http://www.w3.org/2000/svg"><path d="M1 1l6 6-6 6" stroke="#fff" stroke-width="2" stroke-linecap="round" stroke-linejoin="round"/></svg><svg width="34" height="34" fill="none" viewBox="-1 -1 34 34" id="program-info" x="43" y="34" xmlns="http://www.w3.org/2000/svg"><path d="M16 0C7.178 0 0 7.178 0 16c0 8.823 7.178 16 16 16s16-7.177 16-16c0-8.822-7.178-16-16-16zm0 29.09C8.782 29.09 2.91 23.219 2.91 16S8.781 2.91 16 2.91 29.09 8.781 29.09 16 23.219 29.09 16 29.09z" fill="#000"/><path d="M16 6.788c-1.07 0-1.94.87-1.94 1.94 0 1.07.87 1.939 1.94 1.939 1.069 0 1.939-.87 1.939-1.939 0-1.07-.87-1.94-1.94-1.94zm0 6.788c-.804 0-1.455.652-1.455 1.455v8.727a1.455 1.455 0 002.91 0v-8.727c0-.803-.652-1.455-1.455-1.455z" fill="#000"/></svg><svg width="21" height="18" fill="none" viewBox="-1 -1 21 18" id="section-menu" x="170" y="24" xmlns="http://www.w3.org/2000/svg"><path fill-rule="evenodd" clip-rule="evenodd" d="M18 1H1v2h17V1zM0 0v4h19V0H0zM18 7H1v2h17V7zM0 6v4h19V6H0zM18 13H1v2h17v-2zM0 12v4h19v-4H0z" fill="#000"/></svg><svg width="27" height="26" fill="none" viewBox="-1 -1 27 26" id="services-icon-1" x="75" y="137" xmlns="http://www.w3.org/2000/svg"><path d="M21.627 6.993c.013-.055.03-.108.03-.165v-6c0-.457-.448-.828-1-.828h-3.5c-.552 0-1 .37-1 .828v1.47L14.089.522c-.406-.337-.952-.502-1.536-.476a2.44 2.44 0 00-1.43.541L1.031 9.003c-.344.286-.342.75.004 1.033.307.252.78.278 1.122.083v13.053c0 .457.448.828 1 .828h18.5c.552 0 1-.37 1-.828V9.982l.05.044a.984.984 0 00.636.223c.22 0 .441-.068.612-.205.351-.28.362-.742.024-1.032l-2.352-2.019zm-3.47-5.338h1.5V4.83l-1.5-1.242V1.655zm-7.5 20.69v-5.38h3.5v5.38h-3.5zm10-14.07v14.07h-4.5v-6.207c0-.457-.448-.828-1-.828h-5.5c-.552 0-1 .371-1 .828v6.207h-4.5V8.69a.696.696 0 00-.03-.194l8.247-6.877a.507.507 0 01.287-.114c.118-.007.164.037.17.041l7.827 6.72-.001.01z" fill="#fff"/><path d="M9.032 10.552c0 1.654 1.626 3 3.625 3s3.625-1.346 3.625-3c0-1.655-1.626-3-3.625-3-2 0-3.625 1.345-3.625 3zm5.5 0c0 .855-.841 1.551-1.875 1.551s-1.875-.696-1.875-1.551c0-.856.84-1.552 1.875-1.552 1.034 0 1.875.696 1.875 1.552z" fill="#fff"/></svg><svg width="30" height="30" fill="none" viewBox="-1 -1 30 30" id="services-icon-10" x="140" xmlns="http://www.w3.org/2000/svg"><path fill-rule="evenodd" clip-rule="evenodd" d="M16.07 2.793a2 2 0 011.096.633l1.655 1.867 2.445.5a2 2 0 011.096.633l1.655 1.867 1.413.289a2 2 0 011.33 2.96l-8.612 14.917a2 2 0 01-3.228.326l-.957-1.078-2.445-.5a2 2 0 01-1.095-.633l-1.656-1.867-2.445-.5a2 2 0 01-1.095-.633L3.57 19.707l-1.412-.289a2 2 0 01-1.331-2.96L9.44 1.542a2 2 0 013.229-.327l.956 1.079 2.445.5zm-.4 1.96l-2.446-.5a2 2 0 01-1.095-.633l-.957-1.079L2.56 17.46l1.412.289a2 2 0 011.095.632l1.656 1.867 2.445.5a2 2 0 011.096.633l1.655 1.867 2.445.5a2 2 0 011.096.633l.956 1.079L25.03 10.54l-1.413-.289a2 2 0 01-1.095-.632l-1.656-1.868-2.445-.5a2 2 0 01-1.095-.632l-1.656-1.868z" fill="#fff"/><path fill-rule="evenodd" clip-rule="evenodd" d="M11.794 17.464a4 4 0 104-6.929 4 4 0 00-4 6.929zm-1 1.732a6 6 0 106-10.392 6 6 0 00-6 10.392z" fill="#fff"/></svg><svg width="30" height="23" fill="none" viewBox="-1 -1 30 23" id="services-icon-11" x="31" y="106" xmlns="http://www.w3.org/2000/svg"><path fill-rule="evenodd" clip-rule="evenodd" d="M3.155 1.625C5.118.3 7.467-.183 9.78.061c3.182.332 5.85 2.729 6.04 5.58a9.05 9.05 0 01.025.09c.48.485 1.01 1.226 1.03 2.167.02 1.023-.562 1.94-1.622 2.717l.105.077c.08.058.163.118.255.19.053.01.166.02.362-.013.267-.044.58-.152.875-.3.3-.161.476-.26.57-.337a2.987 2.987 0 01.267-.191l.01-.007.032-.021a.99.99 0 01.093-.102c.639-.601 1.344-1.05 2.177-1.24.83-.19 1.684-.1 2.584.198.797.242 1.49.562 2.118.852l.15.06.033-.01a31.775 31.775 0 01.419-.113 5.07 5.07 0 00.389-.101c.03-.01.063-.018.098-.028.203-.058.456-.127.747-.174a1 1 0 11.319 1.974c-.17.027-.33.07-.518.123l-.078.023c-.152.043-.34.097-.528.137l-.193.054c-.156.043-.305.084-.41.107-.084.019-.23.048-.396.043a1.164 1.164 0 01-.504-.129l-.3-.12a1.028 1.028 0 01-.044-.02c-.65-.3-1.235-.568-1.895-.768a1.096 1.096 0 01-.025-.008c-.66-.22-1.136-.239-1.52-.15-.37.083-.75.288-1.189.688-.14.174-.294.283-.374.338a4.883 4.883 0 01-.128.086c-.032.02-.047.03-.078.056-.258.208-.606.395-.85.527l-.04.02a5.223 5.223 0 01-1.483.505c-.488.082-1.116.093-1.673-.207a1.013 1.013 0 01-.154-.103 5.22 5.22 0 00-.167-.124 9.668 9.668 0 01-.969-.792c-.103-.083-.383-.315-.558-.598a1 1 0 01.222-1.305l.018-.014c.176-.143.513-.415.872-.608l.214-.115c.718-.537.77-.9.767-1.037-.004-.198-.129-.474-.448-.797-.221-.192-.35-.409-.433-.63a3.735 3.735 0 01-.081-.264 3.895 3.895 0 00-.04-.141.997.997 0 01-.044-.256c-.068-1.699-1.784-3.542-4.257-3.8-1.912-.201-3.785.204-5.314 1.244a.997.997 0 01-.044.028c-.763.462-1.227 1.013-1.48 1.625-.25.608-.326 1.354-.179 2.266.263.84.585 1.671 1.163 2.393.575.719 1.447 1.383 2.906 1.776a1.24 1.24 0 01.67.487 1.586 1.586 0 01.196.398 1 1 0 01.12.286l.014.053c.072.29.173.696.195 1.078a4.581 4.581 0 01.088.496 2.306 2.306 0 00.078.409c.316 1.465.996 2.415 2.038 3.077C11.39 18.51 13.402 19 15.38 19c1.89 0 3.648-.419 4.943-1.137l.003-.002c.875-.482 1.372-1.037 1.595-1.571.214-.513.222-1.116-.094-1.826a1 1 0 111.826-.815c.512 1.148.566 2.327.113 3.412-.444 1.063-1.326 1.919-2.474 2.551-1.65.915-3.756 1.388-5.912 1.388-2.252 0-4.654-.549-6.414-1.635l-.01-.006c-1.522-.966-2.493-2.38-2.917-4.311a4.086 4.086 0 01-.114-.595 2.304 2.304 0 00-.056-.324 1 1 0 01-.045-.295c0-.128-.039-.321-.115-.636-1.637-.514-2.764-1.356-3.553-2.343C1.322 9.812.91 8.661.625 7.74a1 1 0 01-.031-.127C.387 6.399.452 5.234.885 4.184c.434-1.051 1.205-1.908 2.27-2.559z" fill="#fff"/></svg><svg width="22" height="27" fill="none" viewBox="-1 -1 22 27" id="services-icon-12" x="53" y="137" xmlns="http://www.w3.org/2000/svg"><path fill-rule="evenodd" clip-rule="evenodd" d="M7.58 7.167l-.015.02c-1.48 1.917-2.737 3.558-3.641 5.173-.888 1.586-1.36 3.022-1.36 4.491 0 2.164.892 3.612 2.204 4.58C6.15 22.45 8.104 23 10.171 23c2.066 0 4.02-.55 5.402-1.57 1.312-.967 2.204-2.415 2.204-4.579 0-1.47-.472-2.908-1.354-4.498-.88-1.59-2.09-3.197-3.5-5.074a96.89 96.89 0 01-2.719-3.646c-.7.986-1.413 1.931-2.096 2.836l-.527.698zm6.856-1.203l.132.177c2.788 3.706 5.209 6.924 5.209 10.71 0 5.639-4.842 8.149-9.606 8.149C5.406 25 .565 22.49.565 16.85c0-3.846 2.497-7.106 5.417-10.887l.538-.712c.941-1.246 1.9-2.515 2.803-3.865a1.07 1.07 0 011.77.002c1.065 1.607 2.204 3.101 3.343 4.575z" fill="#fff"/><path fill-rule="evenodd" clip-rule="evenodd" d="M5.368 15a1 1 0 011 1c0 .738.17 1.25.397 1.616.229.368.551.645.938.853.804.433 1.807.53 2.468.53a1 1 0 010 2c-.78 0-2.179-.102-3.417-.769a4.424 4.424 0 01-1.688-1.559c-.448-.722-.698-1.61-.698-2.671a1 1 0 011-1z" fill="#fff"/></svg><svg width="31" height="31" fill="none" viewBox="-1 -1 31 31" id="services-icon-13" y="106" xmlns="http://www.w3.org/2000/svg"><path fill-rule="evenodd" clip-rule="evenodd" d="M21.504 10.612c.8-.21 1.819-.88 3.006-2.066 1.187-1.188 1.857-2.206 2.067-3.006.158-.603.103-1.189-.653-1.944-.755-.756-1.34-.81-1.944-.653-.8.21-1.818.88-3.006 2.067-1.187 1.187-1.856 2.205-2.066 3.006-.158.603-.103 1.188.652 1.944.756.755 1.341.81 1.944.652zm-3.358.762c2.475 2.475 5.24 1.124 7.778-1.414 2.538-2.539 3.89-5.303 1.414-7.778-2.475-2.475-5.24-1.125-7.778 1.414-2.538 2.538-3.889 5.303-1.414 7.778z" fill="#fff"/><path fill-rule="evenodd" clip-rule="evenodd" d="M19.802 10.35a1 1 0 01-.633 1.266l-1.388.462a2 2 0 00-1.352 1.65l-.198 1.583a4 4 0 01-3.274 3.443l-2.144.378A2 2 0 009.288 20.4l-1.52 4.054a1 1 0 01-1.872-.702l1.52-4.054a4 4 0 013.05-2.534l2.143-.379a2 2 0 001.637-1.721l.198-1.584a4 4 0 012.704-3.298l1.389-.463a1 1 0 011.265.633zM9.731 9.907c.385-.08.978-.41 1.757-1.19.78-.78 1.11-1.372 1.19-1.757a.734.734 0 00-.017-.404c-.044-.134-.159-.36-.466-.667-.306-.307-.533-.421-.667-.466a.734.734 0 00-.404-.017c-.384.08-.978.41-1.757 1.19-.78.78-1.11 1.372-1.19 1.757a.733.733 0 00.017.404c.045.134.16.36.466.667.307.307.533.421.668.466.123.041.245.05.403.017zm-2.485.931c1.925 1.925 3.9 1.05 5.657-.707 1.757-1.757 2.632-3.732.707-5.656-1.925-1.925-3.9-1.05-5.657.707-1.757 1.757-2.632 3.732-.707 5.656z" fill="#fff"/><path fill-rule="evenodd" clip-rule="evenodd" d="M9.3 10.375a1 1 0 00-1.104-.884l-1.263.14a3.543 3.543 0 00-3.105 2.952 1.543 1.543 0 01-.997 1.203l-1.768.641a1 1 0 10.682 1.88l1.768-.641a3.543 3.543 0 002.289-2.761 1.543 1.543 0 011.352-1.286l1.263-.14a1 1 0 00.884-1.104zM21.731 21.907c.385-.08.978-.41 1.757-1.19.78-.78 1.11-1.372 1.19-1.757a.734.734 0 00-.017-.404c-.045-.134-.159-.36-.466-.667-.306-.307-.533-.421-.667-.466a.733.733 0 00-.404-.017c-.384.08-.977.41-1.757 1.19-.78.78-1.11 1.372-1.19 1.757a.733.733 0 00.017.404c.045.134.16.36.466.667.307.307.533.421.668.466.123.041.245.05.403.017zm-2.485.931c1.925 1.925 3.9 1.05 5.657-.707 1.757-1.757 2.632-3.732.707-5.657-1.925-1.924-3.9-1.05-5.657.708-1.758 1.757-2.632 3.732-.707 5.657z" fill="#fff"/><path fill-rule="evenodd" clip-rule="evenodd" d="M21.3 22.375a1 1 0 00-1.104-.884l-1.263.14a3.543 3.543 0 00-3.105 2.952 1.543 1.543 0 01-.997 1.203l-1.768.641a1 1 0 10.682 1.88l1.768-.641a3.543 3.543 0 002.289-2.761 1.543 1.543 0 011.352-1.286l1.263-.14a1 1 0 00.884-1.104z" fill="#fff"/></svg><svg width="23" height="24" fill="none" viewBox="-1 -1 23 24" id="services-icon-14" x="140" y="137" xmlns="http://www.w3.org/2000/svg"><path fill-rule="evenodd" clip-rule="evenodd" d="M4.018 2.689C4.183 1.299 5.423 0 7 0c1.231 0 2.257.792 2.726 1.8.384-.19.815-.3 1.274-.3 1.694 0 3 1.5 3 3v4.611l1.49-1.013c1.078-.993 2.997-1.096 4.167.074 1.198 1.198 1.06 3.181 0 4.242l-2.01 2.01-.084.157c-.1.185-.244.44-.42.73-.347.566-.852 1.313-1.436 1.896-.542.543-1.33 1.197-1.957 1.699-.288.23-.55.434-.75.589V21a1 1 0 01-1 1H5a1 1 0 01-1-1v-1.7a85.95 85.95 0 01-.973-1.52c-.628-1.004-1.399-2.288-1.921-3.333-.584-1.166-.847-2.69-.975-3.837a22.503 22.503 0 01-.13-2.06L0 8.514V8.5L1 8.5H0v-3c0-1.5 1.306-3 3-3 .36 0 .702.068 1.018.189zM4 5.5v3.379a1 1 0 002 0V3c0-.472.485-1 1-1s1 .528 1 1v5.879a1 1 0 002 0V4.5c0-.472.485-1 1-1s1 .528 1 1V11a1 1 0 001.562.827l3.121-2.121a.997.997 0 00.145-.12c.334-.334 1.05-.364 1.415 0 .364.364.333 1.08 0 1.414l-2.122 2.121c-.076.077-.14.166-.188.263l-.001.002-.006.01-.024.047-.098.186c-.087.16-.213.385-.368.638-.318.52-.726 1.11-1.143 1.526-.458.457-1.17 1.053-1.793 1.551a53.22 53.22 0 01-1.017.793l-.062.047-.02.015A1 1 0 0011 19v1H6v-1a1 1 0 00-.168-.555l-.021-.032-.064-.096a70.993 70.993 0 01-1.024-1.597c-.622-.996-1.351-2.212-1.829-3.167-.416-.834-.653-2.06-.775-3.163A20.51 20.51 0 012 8.53V5.5c0-.472.485-1 1-1s1 .528 1 1z" fill="#fff"/></svg><svg width="27" height="32" fill="none" viewBox="-1 -1 27 32" id="services-icon-15" x="111" y="64" xmlns="http://www.w3.org/2000/svg"><path d="M23.942 0h-2.308a4.333 4.333 0 00-3.965 2.596H3.75c-.739 0-1.418.403-1.772 1.052L.247 6.822a2.021 2.021 0 001.771 2.986c.74 0 1.42-.404 1.774-1.053l1.156-2.12h1.398v.577a2.599 2.599 0 002.596 2.595h.288v1.731h-.577a4.332 4.332 0 00-4.327 4.327v9.808A4.332 4.332 0 008.653 30h8.077a4.332 4.332 0 004.327-4.327v-9.808a4.332 4.332 0 00-4.327-4.327h-.577v-1.73h1.517a4.332 4.332 0 003.964 2.596h2.308a.865.865 0 00.865-.866V.865A.865.865 0 0023.942 0zM4.435 4.904a.866.866 0 00-.76.45L2.272 7.927a.29.29 0 01-.391.116.289.289 0 01-.115-.392l1.73-3.173a.288.288 0 01.254-.15h2.744l-.011.035-.028.085-.015.052a3.105 3.105 0 00-.021.082l-.013.055a1.939 1.939 0 00-.039.23l-.005.038H4.435zm14.891 10.961v9.808a2.599 2.599 0 01-2.596 2.596H8.653a2.6 2.6 0 01-2.596-2.596v-.577H9.23a.865.865 0 000-1.73H6.057v-2.02h2.02a.866.866 0 000-1.73h-2.02v-2.02H9.23a.865.865 0 000-1.73H6.057a2.6 2.6 0 012.596-2.597h8.077a2.6 2.6 0 012.596 2.596zm-4.903-4.327H10.96v-1.73h3.462v1.73zM8.942 8.077a.866.866 0 01-.866-.865v-2.02c0-.477.388-.865.866-.865h8.365v1.154h-4.615a.865.865 0 000 1.73h4.615v.866H8.942zm14.134 2.596h-1.442a2.599 2.599 0 01-2.596-2.596v-3.75a2.599 2.599 0 012.596-2.596h1.442v8.942z" fill="#fff"/></svg><svg width="22" height="38" fill="none" viewBox="-1 -1 22 38" id="services-icon-16" y="36" xmlns="http://www.w3.org/2000/svg"><path fill-rule="evenodd" clip-rule="evenodd" d="M9.57 2.127c4.018 0 7.48 3.189 7.48 8.145 0 3.584-.765 5.752-1.595 7.204-.421.737-.874 1.316-1.303 1.835l-.204.246c-.348.416-.72.861-.977 1.296-.501.853-.842 2.144-1.044 3.237-.105.567-.18 1.122-.22 1.6-.038.45-.052.918.002 1.265l2.101-.33c-.012-.079-.02-.33.016-.758.034-.4.098-.885.192-1.39.194-1.05.484-2.03.786-2.545.16-.27.39-.548.734-.96l.254-.306c.458-.554 1-1.242 1.51-2.135 1.03-1.805 1.875-4.343 1.875-8.26C19.177 4.217 14.835 0 9.57 0v2.127z" fill="#fff"/><path fill-rule="evenodd" clip-rule="evenodd" d="M9.607 2.127c-4.017 0-7.48 3.189-7.48 8.145 0 3.584.766 5.752 1.596 7.204.42.737.873 1.316 1.302 1.835.066.081.135.163.205.246.347.416.72.861.976 1.296.502.853.843 2.144 1.045 3.237.105.567.18 1.122.22 1.6.037.45.052.918-.003 1.265 0 0-2.113-.25-2.1-.33.012-.079.019-.33-.017-.758-.033-.4-.098-.885-.191-1.39-.195-1.05-.484-2.03-.787-2.545-.159-.27-.39-.548-.733-.96l-.255-.306c-.457-.554-.999-1.242-1.509-2.135C.845 16.726 0 14.188 0 10.271 0 4.217 4.343 0 9.607 0v2.127z" fill="#fff"/><path fill-rule="evenodd" clip-rule="evenodd" d="M11.973 16.919c.796-1.191 1.35-2.943 1.35-4.972 0-2.029-.554-3.781-1.35-4.972-.805-1.203-1.713-1.658-2.466-1.658-.752 0-1.66.455-2.465 1.658-.796 1.19-1.35 2.943-1.35 4.972 0 2.029.554 3.781 1.35 4.972.805 1.203 1.713 1.658 2.465 1.658.753 0 1.66-.456 2.466-1.659zm-2.466 3.535c3.144 0 5.692-3.809 5.692-8.507 0-4.698-2.548-8.507-5.692-8.507-3.143 0-5.691 3.809-5.691 8.507 0 4.698 2.548 8.507 5.691 8.507z" fill="#fff"/><path fill-rule="evenodd" clip-rule="evenodd" d="M8.895 23.617c.353-2.26-.164-3.878-.385-4.298l1.55-.816c.412.782.971 2.785.565 5.385-.086.553-.16.983-.22 1.335-.116.671-.183 1.061-.197 1.49-.02.606.075 1.267.41 2.944L8.902 30c-.329-1.646-.471-2.504-.444-3.345.019-.552.114-1.111.246-1.88.058-.34.123-.72.192-1.158z" fill="#fff"/><path d="M8.744 31.014a.773.773 0 00.422 1.487l.732-.208c.148.394.37.915.727 1.41.49.681 1.227 1.327 2.367 1.78.385.153.803-.082.917-.48.113-.399-.12-.807-.501-.971-.797-.343-1.265-.787-1.566-1.205a3.961 3.961 0 01-.494-.946l.641-.183a.773.773 0 00-.422-1.487l-2.823.803z" fill="#fff"/></svg><svg width="29" height="32" fill="none" viewBox="-1 -1 29 32" id="services-icon-17" x="111" xmlns="http://www.w3.org/2000/svg"><path d="M7.664 0c2.7 0 4.971.916 6.152 2.278C14.998.916 17.27 0 19.97 0 23.912 0 27 1.93 27 4.395h-1.758c0-1.248-2.165-2.637-5.273-2.637-3.108 0-5.274 1.39-5.274 2.637v1.04a2.633 2.633 0 011.758 2.475v.88H11.18v-.88c0-1.144.737-2.11 1.758-2.475v-1.04c0-1.248-2.166-2.637-5.274-2.637s-5.273 1.39-5.273 2.637H.633C.633 1.93 3.72 0 7.664 0zM12.836 26.29a2.637 2.637 0 01-1.656-2.442c0-1.036 1.13-2.853 1.758-3.786v-2.646a2.632 2.632 0 01-1.758-2.475v-.879h5.273v.88c0 1.144-.737 2.11-1.758 2.474v2.646c.629.933 1.758 2.75 1.758 3.786a2.637 2.637 0 01-1.656 2.443 2.633 2.633 0 002.535 1.951h2.637V30h-2.637a4.378 4.378 0 01-3.516-1.785A4.378 4.378 0 0110.301 30H7.664v-1.758h2.637c1.215 0 2.23-.83 2.535-1.951zM16.453 10.547H11.18v1.758h5.273v-1.758z" fill="#fff"/></svg><svg width="34" height="34" fill="none" viewBox="-1 -1 34 34" id="services-icon-2" x="43" xmlns="http://www.w3.org/2000/svg"><path d="M31.935 18.97c-.362-2.228-2.437-3.907-4.825-3.907h-1.33c-.934-.958-3.886-3.684-6.97-3.378v-1.31h4.688V4.75h-4.687V0h-5.625v4.75H8.498v5.625h4.688v1.31c-3.083-.306-6.035 2.42-6.968 3.377H4.887c-2.389 0-4.463 1.68-4.825 3.908-.425 2.611 1.394 4.997 3.929 5.407.48 1.135 1.877 1.936 3.57 1.936 2.103 0 3.75-1.236 3.75-2.813 0-1.577-1.647-2.813-3.75-2.813-1.62 0-2.967.733-3.502 1.79-1.366-.338-2.397-1.664-2.146-3.206.216-1.33 1.495-2.334 2.974-2.334h.92c.465 1.627 2.07 1.861 3.17 2.043 1.246.206 2.032.389 2.434 1.19.574 1.145.595 1.986.62 2.96.016.633.033 1.288.192 2.059.48 2.324.963 2.616.963 4.745V32h5.625l-.013-.938c0-3.903.336-2.774.976-5.873.159-.771.175-1.426.192-2.06.024-.973.046-1.813.62-2.959.404-.804 1.19-.986 2.436-1.19 1.057-.174 2.7-.398 3.167-2.043h.921c1.48 0 2.758 1.004 2.974 2.334.25 1.536-.774 2.867-2.146 3.206-.535-1.057-1.883-1.79-3.502-1.79-2.103 0-3.75 1.236-3.75 2.813 0 1.577 1.647 2.813 3.75 2.813 1.693 0 3.09-.801 3.57-1.936 2.536-.41 4.353-2.797 3.93-5.407zM7.561 22.563c1.145 0 1.875.555 1.875.937s-.73.938-1.875.938-1.875-.556-1.875-.938c0-.382.73-.938 1.875-.938zM10.373 8.5V6.625h4.688v-4.75h1.875v4.75h4.687V8.5h-4.687v4.688H15.06V8.5h-4.688zm12.345 8.63c-1.244.204-2.947.483-3.808 2.2-.762 1.52-.792 2.705-.819 3.752-.014.576-.028 1.12-.154 1.728-.54 2.615-.935 2.19-.993 5.315H15.06c0-2.733-.532-3.044-1.001-5.315-.126-.608-.14-1.152-.154-1.728-.027-1.047-.058-2.233-.82-3.752-.859-1.713-2.56-1.995-3.804-2.2-1.245-.206-1.607-.335-1.696-.79 1.093-1.123 3.527-3.091 5.6-2.762v1.485h5.625v-1.484c2.074-.33 4.508 1.639 5.6 2.762-.089.455-.45.584-1.693.788zm1.718 7.308c-1.145 0-1.875-.556-1.875-.938 0-.382.73-.938 1.875-.938s1.875.556 1.875.938c0 .382-.73.938-1.875.938z" fill="#fff"/></svg><svg width="26" height="32" fill="none" viewBox="-1 -1 26 32" id="services-icon-3" x="111" y="32" xmlns="http://www.w3.org/2000/svg"><path d="M11.726 11.526a.94.94 0 00-1.327-.002l-3.087 3.088-1.21-1.213a.938.938 0 00-1.326 1.325L6.65 16.6a.928.928 0 00.661.276c.24 0 .48-.092.664-.274l3.75-3.75a.938.938 0 000-1.325zM11.726 19.026a.94.94 0 00-1.327-.002l-3.087 3.088-1.21-1.211a.938.938 0 00-1.326 1.325l1.875 1.875a.942.942 0 001.326 0l3.75-3.75a.938.938 0 000-1.325zM18.563 13.125h-3.75a.938.938 0 000 1.875h3.75a.938.938 0 000-1.875zM18.563 20.625h-3.75a.938.938 0 000 1.875h3.75a.938.938 0 000-1.875z" fill="#fff"/><path d="M21.375 3.75h-3.75v-.938a.938.938 0 00-.938-.937h-2.034A2.82 2.82 0 0012 0a2.82 2.82 0 00-2.653 1.875H7.313a.938.938 0 00-.938.938v.937h-3.75A1.878 1.878 0 00.75 5.625v22.5C.75 29.158 1.592 30 2.625 30h18.75a1.878 1.878 0 001.875-1.875v-22.5a1.878 1.878 0 00-1.875-1.875zm-13.125 0h1.875c.518 0 .938-.42.938-.938a.938.938 0 011.874 0c0 .518.42.938.938.938h1.875v1.875h-7.5V3.75zm13.125 24.375H2.625v-22.5h3.75v.938c0 .517.42.937.938.937h9.375c.517 0 .937-.42.937-.938v-.937h3.75v22.5z" fill="#fff"/></svg><svg width="28" height="32" fill="none" viewBox="-1 -1 28 32" id="services-icon-4" x="65" y="74" xmlns="http://www.w3.org/2000/svg"><path d="M23.576 14.33l-1.73-13.307a38.772 38.772 0 00-17.693 0l-1.73 13.306a2.787 2.787 0 00-1.728 2.575v1.904a2.786 2.786 0 002.783 2.784h1.027C4.552 26.236 8.345 30 13 30c4.655 0 8.448-3.764 8.495-8.408h1.027a2.786 2.786 0 002.783-2.784v-1.904a2.787 2.787 0 00-1.729-2.575zm-2.959 1.331l-1.025-1.025v-1.5c.684.171 1.369.367 2.056.59l-.004.908-1.027 1.027zM5.737 2.484c4.823-.97 9.703-.97 14.527 0l1.215 9.348c-2.846-.857-5.663-1.286-8.48-1.286-2.815 0-5.632.429-8.478 1.286l1.215-9.348zm-1.381 12.15l-.004-.907c.687-.224 1.372-.42 2.056-.59v1.499L5.383 15.66l-1.027-1.027zm-1.903 4.174v-1.904c0-.456.3-.842.711-.975l1.34 1.34v2.565H3.479c-.566 0-1.026-.46-1.026-1.026zm17.285 2.696A6.746 6.746 0 0113 28.242a6.746 6.746 0 01-6.738-6.738v-4.236l1.904-1.904v-2.609a26.436 26.436 0 019.668 0v2.609l1.904 1.904v4.236zm3.809-2.696c0 .566-.46 1.026-1.025 1.026h-1.026v-2.566l1.34-1.34c.412.134.711.52.711.976v1.904z" fill="#fff"/><path d="M13.879 9.052V7.145h1.907V5.387H13.88V3.48h-1.758v1.907h-1.907v1.758h1.907v1.907h1.758z" fill="#fff"/></svg><svg width="20" height="26" fill="none" viewBox="-1 -1 20 26" id="services-icon-5" x="102" y="137" xmlns="http://www.w3.org/2000/svg"><path fill-rule="evenodd" clip-rule="evenodd" d="M0 1a1 1 0 011-1h2a1 1 0 010 2H2v8c0 1.309 1.402 3 4 3s4-1.691 4-3V2H9a1 1 0 010-2h2a1 1 0 011 1v9c0 2.42-2.102 4.532-5 4.932V18c0 2.326 1.923 4 4.5 4s4.5-1.674 4.5-4v-4a1 1 0 112 0v4c0 3.674-3.077 6-6.5 6S5 21.674 5 18v-3.068c-2.898-.4-5-2.511-5-4.932V1z" fill="#fff"/></svg><svg width="30" height="27" fill="none" viewBox="-1 -1 30 27" id="services-icon-6" x="140" y="30" xmlns="http://www.w3.org/2000/svg"><path fill-rule="evenodd" clip-rule="evenodd" d="M7.94 13.804l6.364-6.364a3 3 0 10-4.242-4.243L3.698 9.561a3 3 0 104.242 4.243zM15.72 1.783a5 5 0 00-7.071 0L2.284 8.147a5 5 0 007.07 7.07l6.365-6.363a5 5 0 000-7.071z" fill="#fff"/><path fill-rule="evenodd" clip-rule="evenodd" d="M11.476 11.682L5.819 6.025l1.414-1.414 5.657 5.657-1.414 1.414zM11.88 22.122a3 3 0 104.242-4.243 3 3 0 00-4.242 4.242zm-1.415-5.657a5 5 0 107.072 7.07 5 5 0 00-7.072-7.07z" fill="#fff"/><path fill-rule="evenodd" clip-rule="evenodd" d="M16.83 18.586l-4.95 4.95-1.415-1.415 4.95-4.95 1.414 1.415zM19.95 13.193a3 3 0 104.243-4.243 3 3 0 00-4.242 4.243zm-1.413-5.657a5 5 0 107.07 7.07 5 5 0 00-7.07-7.07z" fill="#fff"/><path fill-rule="evenodd" clip-rule="evenodd" d="M24.9 9.657l-4.949 4.95-1.414-1.414 4.95-4.95L24.9 9.657z" fill="#fff"/></svg><svg width="28" height="28" fill="none" viewBox="-1 -1 28 28" id="services-icon-7" x="140" y="57" xmlns="http://www.w3.org/2000/svg"><path fill-rule="evenodd" clip-rule="evenodd" d="M3.365 24.749a1 1 0 010-1.414l1.828-1.829v-2.414a1 1 0 01.499-.865L18 11.1l-.493-.494a1 1 0 011.414-1.414l1.414 1.414a1 1 0 01-.206 1.572L7.193 19.67v2.252a1 1 0 01-.293.707L4.78 24.749a1 1 0 01-1.414 0z" fill="#fff"/><path fill-rule="evenodd" clip-rule="evenodd" d="M22.81 11.668a1.5 1.5 0 10-2.121 2.12 1.5 1.5 0 002.121-2.12zm1.414-1.415a3.5 3.5 0 10-4.95 4.95 3.5 3.5 0 004.95-4.95zM.536 21.92a1 1 0 001.414 0l1.829-1.828h2.414a1 1 0 00.865-.499l7.126-12.308.494.493a1 1 0 101.415-1.414L14.678 4.95a1 1 0 00-1.572.206l-7.49 12.936H3.365a1 1 0 00-.708.293l-2.12 2.121a1 1 0 000 1.415z" fill="#fff"/><path fill-rule="evenodd" clip-rule="evenodd" d="M11.6 4.7a1.277 1.277 0 01-.367-.942 1 1 0 00-2-.04 3.277 3.277 0 00.953 2.396c1.35 1.35 3.52 1.223 4.846-.103s1.453-3.497.104-4.846a3.277 3.277 0 00-2.397-.952 1 1 0 00.04 2c.361-.008.696.12.942.366.49.489.523 1.39-.103 2.017-.627.627-1.53.593-2.018.104z" fill="#fff"/></svg><svg width="27" height="28" fill="none" viewBox="-1 -1 27 28" id="services-icon-8" x="26" y="137" xmlns="http://www.w3.org/2000/svg"><path fill-rule="evenodd" clip-rule="evenodd" d="M23.844 15.076a1 1 0 01.54 1.307 14.985 14.985 0 01-1.96 3.39 1 1 0 11-1.586-1.218 12.984 12.984 0 001.7-2.938 1 1 0 011.306-.54zM1.207 21.14a1 1 0 011.402-.184 12.988 12.988 0 002.938 1.7 1 1 0 11-.766 1.847 14.984 14.984 0 01-3.39-1.961 1 1 0 01-.184-1.402zm18.632 0a1 1 0 01-.183 1.402 14.983 14.983 0 01-3.39 1.961 1 1 0 11-.767-1.847 12.983 12.983 0 002.938-1.7 1 1 0 011.402.184zm-6.495 3.254a1 1 0 01-.863 1.121 15.138 15.138 0 01-3.915 0 1 1 0 01.259-1.983 13.14 13.14 0 003.398 0 1 1 0 011.12.862zM18.273 4.242L16.86 2.828 11.887 7.8l1.414 1.415 4.972-4.973zm0-2.828a2 2 0 00-2.828 0L9.06 7.8l4.242 4.243 6.387-6.386a2 2 0 000-2.829l-1.415-1.414z" fill="#fff"/><path fill-rule="evenodd" clip-rule="evenodd" d="M10.473 9.215l-6.537 6.537c1.859-.301 3.792-.964 5.125-2.297l2.826-2.826-1.414-1.414zm.707-2.121a1 1 0 00-1.415 0L.43 16.429c-.586.586-.243 1.54.585 1.542 2.504.01 6.774-.416 9.46-3.102l3.534-3.534a.999.999 0 000-1.413l-2.83-2.828z" fill="#fff"/></svg><svg width="26" height="28" fill="none" viewBox="-1 -1 26 28" id="services-icon-9" y="137" xmlns="http://www.w3.org/2000/svg"><path fill-rule="evenodd" clip-rule="evenodd" d="M9.09 8.876C7.242 9.892 6 11.84 6 14.066 6 17.336 8.677 20 12 20s6-2.665 6-5.933c0-2.228-1.242-4.175-3.09-5.19l.963-1.753C18.33 8.474 20 11.074 20 14.067 20 18.457 16.41 22 12 22s-8-3.543-8-7.933c0-2.993 1.671-5.594 4.127-6.943l.963 1.752z" fill="#fff"/><path fill-rule="evenodd" clip-rule="evenodd" d="M8.667 4.569A10.005 10.005 0 002 14c0 5.523 4.477 10 10 10s10-4.477 10-10c0-4.352-2.781-8.058-6.667-9.431L16 2.683C20.66 4.33 24 8.773 24 14c0 6.627-5.373 12-12 12S0 20.627 0 14C0 8.774 3.34 4.33 8 2.683l.667 1.886z" fill="#fff"/><path fill-rule="evenodd" clip-rule="evenodd" d="M13 2h-2a2 2 0 00-2 2v2a2 2 0 002 2h2a2 2 0 002-2V4a2 2 0 00-2-2zm-2-2a4 4 0 00-4 4v2a4 4 0 004 4h2a4 4 0 004-4V4a4 4 0 00-4-4h-2z" fill="#fff"/></svg><svg width="43" height="18" fill="none" viewBox="-1 -1 43 18" id="slider-arrow-next" y="18" xmlns="http://www.w3.org/2000/svg"><path fill-rule="evenodd" clip-rule="evenodd" d="M34.343.929l6.364 6.364a1 1 0 010 1.414l-6.364 6.364a1 1 0 01-1.414-1.414L37.586 9H0V7h37.586l-4.657-4.657A1 1 0 0134.343.929z" fill="#fff"/></svg><svg width="17" height="20" fill="none" viewBox="-1 -1 17 20" id="slider-arrow-next-2" x="170" y="62" xmlns="http://www.w3.org/2000/svg"><path d="M14 7.268c1.333.77 1.333 2.694 0 3.464L3.5 16.794c-1.333.77-3-.192-3-1.732V2.938c0-1.54 1.667-2.502 3-1.732L14 7.268z" fill="#fff"/></svg><svg width="43" height="18" fill="none" viewBox="-1 -1 43 18" id="slider-arrow-prev" xmlns="http://www.w3.org/2000/svg"><path fill-rule="evenodd" clip-rule="evenodd" d="M6.657.929L.293 7.293a1 1 0 000 1.414l6.364 6.364a1 1 0 001.414-1.414L3.414 9H41V7H3.414l4.657-4.657A1 1 0 006.657.929z" fill="#fff"/></svg><svg width="17" height="20" fill="none" viewBox="-1 -1 17 20" id="slider-arrow-prev-2" x="170" y="42" xmlns="http://www.w3.org/2000/svg"><path d="M1 7.268c-1.333.77-1.333 2.694 0 3.464l10.5 6.062c1.333.77 3-.192 3-1.732V2.938c0-1.54-1.667-2.502-3-1.732L1 7.268z" fill="#fff"/></svg><svg width="15" height="27" fill="none" viewBox="-1 -1 15 27" id="social-facebook" x="22" y="36" xmlns="http://www.w3.org/2000/svg"><path d="M8.539 24.595v-11.08h3.677l.546-4.318H8.539V6.44c0-1.245.343-2.096 2.119-2.096h2.26V.482c-.39-.047-1.73-.173-3.288-.173-3.257 0-5.486 2.017-5.486 5.705v3.183H.436v4.319h3.693v11.08h4.41z" fill="#fff"/></svg><svg width="23" height="24" fill="none" viewBox="-1 -1 23 24" id="social-instagram" x="170" xmlns="http://www.w3.org/2000/svg"><path d="M10.775 2.584c2.712 0 3.024.016 4.099.063.982.048 1.527.205 1.885.347.468.19.81.41 1.17.772.358.363.576.694.763 1.182.14.363.311.899.343 1.907.046 1.088.062 1.403.062 4.145 0 2.743-.016 3.058-.063 4.145-.046.993-.202 1.545-.342 1.907-.187.473-.405.82-.764 1.182a3.105 3.105 0 01-1.169.773c-.358.141-.888.315-1.885.346-1.075.048-1.387.063-4.099.063-2.711 0-3.023-.015-4.098-.063-.982-.047-1.527-.205-1.885-.346-.468-.19-.81-.41-1.17-.773a3.147 3.147 0 01-.763-1.182c-.14-.362-.311-.898-.343-1.907-.046-1.087-.062-1.402-.062-4.145 0-2.742.016-3.057.062-4.145.047-.993.203-1.544.343-1.907.187-.473.405-.82.764-1.182a3.106 3.106 0 011.169-.772c.358-.142.888-.315 1.885-.347 1.06-.047 1.387-.063 4.098-.063zm0-1.844c-2.758 0-3.1.016-4.176.063-1.075.048-1.823.22-2.462.473a5.01 5.01 0 00-1.792 1.182 5.079 5.079 0 00-1.169 1.813C.927 4.917.756 5.673.71 6.76.662 7.848.646 8.21.646 10.985c0 2.79.016 3.136.063 4.223.047 1.088.218 1.844.467 2.49a5.078 5.078 0 001.169 1.813 5.01 5.01 0 001.792 1.182c.639.252 1.387.425 2.462.473 1.075.047 1.434.063 4.176.063 2.743 0 3.101-.016 4.177-.063 1.075-.047 1.823-.22 2.462-.473a5.011 5.011 0 001.792-1.182 5.08 5.08 0 001.169-1.813c.249-.646.42-1.402.467-2.49.047-1.087.063-1.45.063-4.223 0-2.774-.016-3.137-.063-4.224-.047-1.088-.218-1.844-.467-2.49a5.08 5.08 0 00-1.17-1.813 5.01 5.01 0 00-1.791-1.182c-.639-.252-1.387-.425-2.462-.473C13.877.756 13.518.74 10.775.74z" fill="#fff"/><path d="M10.777 5.736C7.894 5.736 5.572 8.1 5.572 11c0 2.9 2.338 5.264 5.205 5.264S15.982 13.9 15.982 11c0-2.9-2.338-5.264-5.205-5.264zm0 8.684c-1.87 0-3.382-1.528-3.382-3.42 0-1.89 1.512-3.42 3.382-3.42s3.382 1.53 3.382 3.42c0 1.892-1.512 3.42-3.382 3.42zM16.184 6.745c.671 0 1.216-.55 1.216-1.23 0-.678-.544-1.229-1.216-1.229-.671 0-1.215.55-1.215 1.23 0 .678.544 1.229 1.215 1.229z" fill="#fff"/></svg><svg width="15" height="25" fill="none" viewBox="-1 -1 15 25" id="social-ok" x="93" y="74" xmlns="http://www.w3.org/2000/svg"><path d="M6.43 11.483c3.072 0 5.566-2.522 5.566-5.628 0-3.106-2.494-5.629-5.565-5.629S.865 2.75.865 5.855c0 3.122 2.495 5.628 5.566 5.628zm0-7.946c1.263 0 2.308 1.04 2.308 2.334 0 1.277-1.03 2.333-2.307 2.333-1.263 0-2.308-1.04-2.308-2.333a2.315 2.315 0 012.308-2.334zM8.674 16.072c1.138-.268 2.23-.71 3.227-1.356a1.652 1.652 0 00.515-2.27 1.612 1.612 0 00-2.245-.52 6.978 6.978 0 01-7.483 0 1.612 1.612 0 00-2.245.52 1.652 1.652 0 00.515 2.27c.998.63 2.104 1.088 3.227 1.356l-3.118 3.153a1.66 1.66 0 000 2.334c.312.315.733.488 1.154.488.42 0 .841-.157 1.153-.488l3.056-3.09 3.055 3.09c.64.646 1.668.646 2.307 0a1.66 1.66 0 000-2.334l-3.118-3.153z" fill="#fff"/></svg><svg width="28" height="17" fill="none" viewBox="-1 -1 28 17" id="social-vk" x="140" y="113" xmlns="http://www.w3.org/2000/svg"><path fill-rule="evenodd" clip-rule="evenodd" d="M13.026 14.789h1.496s.452-.048.686-.3c.218-.236.203-.662.203-.662s-.032-2.033.903-2.332c.92-.3 2.104 1.97 3.35 2.837.951.661 1.668.52 1.668.52l3.35-.048s1.746-.11.92-1.497c-.063-.11-.483-1.024-2.494-2.916-2.103-1.97-1.823-1.654.717-5.059 1.543-2.08 2.15-3.341 1.964-3.893-.187-.52-1.31-.378-1.31-.378l-3.77.032s-.28-.032-.483.094c-.203.126-.328.41-.328.41s-.592 1.608-1.386 2.979c-1.684 2.884-2.354 3.042-2.619 2.852-.638-.41-.482-1.67-.482-2.569 0-2.79.42-3.955-.81-4.255-.406-.094-.718-.173-1.762-.173-1.34-.016-2.477 0-3.132.33-.436.206-.764.694-.56.71.248.031.81.158 1.105.567.39.536.374 1.718.374 1.718s.219 3.294-.514 3.704c-.514.284-1.2-.3-2.696-2.916-.763-1.34-1.34-2.82-1.34-2.82s-.109-.285-.311-.426c-.234-.174-.577-.237-.577-.237l-3.584.016s-.546.016-.733.252c-.171.205-.015.646-.015.646S3.66 8.61 6.84 11.952c2.883 3.041 6.186 2.837 6.186 2.837z" fill="#fff"/></svg><svg width="18" height="24" fill="none" viewBox="-1 -1 18 24" id="video-arrow" x="122" y="137" xmlns="http://www.w3.org/2000/svg"><path d="M15.095 10.057L2.758 1.124A1.492 1.492 0 001.208 1c-.5.253-.813.765-.813 1.318v17.862a1.477 1.477 0 001.489 1.481c.305 0 .613-.096.874-.287l12.337-8.926c.39-.286.617-.727.617-1.196a1.47 1.47 0 00-.617-1.196z" fill="#fff"/></svg></svg>