<svg width="108" height="103" viewBox="0 0 108 103" fill="none" xmlns="http://www.w3.org/2000/svg">
<path d="M52.1267 2.00948C52.7746 0.276788 55.2254 0.276788 55.8733 2.00948L68.3486 35.3725C68.6297 36.1242 69.3328 36.6351 70.1346 36.6701L105.72 38.2251C107.568 38.3058 108.325 40.6367 106.878 41.7883L79.0025 63.9628C78.3745 64.4624 78.1059 65.289 78.3203 66.0624L87.8379 100.386C88.3322 102.169 86.3494 103.61 84.8068 102.589L55.1038 82.9301C54.4346 82.4872 53.5654 82.4872 52.8962 82.9301L23.1932 102.589C21.6506 103.61 19.6678 102.169 20.1621 100.386L29.6797 66.0624C29.8941 65.289 29.6255 64.4624 28.9975 63.9628L1.1224 41.7883C-0.325278 40.6367 0.432075 38.3058 2.28017 38.2251L37.8654 36.6701C38.6672 36.6351 39.3703 36.1242 39.6514 35.3725L52.1267 2.00948Z" fill="#F3BE01"/>
</svg>
