<svg width="17" height="28" viewBox="0 0 17 28" fill="none" xmlns="http://www.w3.org/2000/svg">
<path fill-rule="evenodd" clip-rule="evenodd" d="M2.21791 0.0539378C1.27941 0.238016 0.400695 1.06429 0.100461 2.04511C0.0043202 2.35913 0 2.87324 0 13.9943C0 25.1154 0.0043202 25.6295 0.100461 25.9436C0.407859 26.9478 1.28149 27.7538 2.2633 27.9388C2.66563 28.0146 14.1234 28.0146 14.5258 27.9388C15.5076 27.7538 16.3812 26.9478 16.6886 25.9436C16.7847 25.6295 16.7891 25.1154 16.7891 13.9943C16.7891 2.87324 16.7847 2.35913 16.6886 2.04511C16.3812 1.04083 15.5076 0.234899 14.5258 0.0498362C14.1595 -0.0191795 2.57113 -0.0152966 2.21791 0.0539378ZM14.617 1.55724C14.7726 1.63479 14.9746 1.79251 15.0659 1.90774C15.419 2.35349 15.3945 1.45547 15.3945 13.9943C15.3945 26.5332 15.419 25.6352 15.0659 26.0809C14.9746 26.1962 14.7726 26.3539 14.617 26.4314L14.334 26.5725H8.39453H2.45509L2.17208 26.4314C2.01644 26.3539 1.81442 26.1962 1.72315 26.0809C1.37009 25.6352 1.39453 26.5332 1.39453 13.9943C1.39453 1.45547 1.37009 2.35349 1.72315 1.90774C1.81442 1.79251 2.01644 1.63479 2.17208 1.55724L2.45509 1.4162H8.39453H14.334L14.617 1.55724ZM5.46438 2.44903C5.29616 2.55157 5.11328 2.85394 5.11328 3.02949C5.11328 3.20503 5.29616 3.5074 5.46438 3.60994C5.81104 3.82136 6.26894 3.68338 6.44383 3.31479C6.5555 3.07947 6.55736 2.99706 6.45641 2.7555C6.30306 2.38844 5.81235 2.23685 5.46438 2.44903ZM7.77777 2.46265C7.46637 2.69496 7.38358 3.05956 7.57203 3.3686C7.77531 3.70209 7.83962 3.71308 9.58125 3.71286C11.0258 3.7127 11.1702 3.70417 11.3247 3.60994C11.4929 3.5074 11.6758 3.20503 11.6758 3.02949C11.6758 2.85394 11.4929 2.55157 11.3247 2.44903C11.1698 2.35453 11.0267 2.34644 9.54297 2.34781C7.99755 2.34928 7.92329 2.35415 7.77777 2.46265ZM8.01932 22.9133C7.40994 23.0992 7.01641 23.6337 7.01641 24.2756C7.01641 24.8296 7.29996 25.2658 7.82031 25.5122C8.3475 25.7619 9.00517 25.6326 9.41713 25.1983C9.89171 24.6981 9.89319 23.8764 9.42058 23.3174C9.13002 22.9738 8.45715 22.7797 8.01932 22.9133Z" fill="#AE3D8D"/>
</svg>
