<svg width="24" height="24" viewBox="0 0 24 24" fill="none" xmlns="http://www.w3.org/2000/svg">
<path fill-rule="evenodd" clip-rule="evenodd" d="M11.101 0.022573C9.36183 0.189261 8.03986 0.559292 6.59512 1.28389C5.44734 1.85951 4.51378 2.54271 3.52809 3.52836C2.47397 4.58253 1.81261 5.50822 1.18209 6.81218C0.443016 8.34054 0.0695165 9.86136 0.00787592 11.5934C-0.0632803 13.5926 0.347813 15.4953 1.23727 17.2837C1.86384 18.5436 2.50763 19.4349 3.52809 20.4554C4.55981 21.4871 5.45512 22.1313 6.71817 22.7509C7.59947 23.1832 8.16848 23.3937 9.06192 23.6178C11.4048 24.2054 13.7644 24.0926 16.0431 23.2839C16.6668 23.0626 17.7882 22.52 18.3197 22.1824C21.1407 20.3904 23.1147 17.5477 23.7524 14.3591C23.9286 13.4778 23.9666 13.0588 23.9666 11.9919C23.9666 10.925 23.9286 10.506 23.7524 9.62469C23.132 6.52254 21.2439 3.73681 18.5541 1.95481C17.9412 1.54878 16.6284 0.895058 15.976 0.671089C15.0206 0.343057 14.0377 0.131182 13.0463 0.0395886C12.5687 -0.00452077 11.4831 -0.0140364 11.101 0.022573ZM13.4916 1.70454C15.7546 2.04434 17.7052 3.02989 19.3294 4.65411C20.9623 6.28695 21.9334 8.21867 22.2877 10.5387C22.4004 11.2765 22.4004 12.7072 22.2877 13.445C22.0115 15.2536 21.3577 16.8204 20.2733 18.2729C19.8464 18.8447 18.8444 19.8466 18.2726 20.2736C16.3811 21.6858 14.3304 22.3704 11.9916 22.3704C9.65709 22.3704 7.59787 21.6821 5.72095 20.2745C3.55284 18.6485 2.11744 16.2132 1.69566 13.445C1.58227 12.7008 1.5818 11.2714 1.69472 10.5387C2.23172 7.05486 4.31128 4.19543 7.4213 2.66468C8.6227 2.07331 9.71929 1.77354 11.265 1.61384C11.6326 1.57587 13.0077 1.63189 13.4916 1.70454ZM11.7411 4.83997C11.5221 4.91989 11.3649 5.06145 11.2677 5.26639C11.2038 5.40106 11.1947 5.83765 11.1947 8.79237V12.1646L11.3002 12.3572C11.3817 12.5061 11.8742 12.9241 13.4682 14.1975C14.6025 15.1038 15.5876 15.8747 15.6572 15.9107C15.7269 15.9468 15.8872 15.9763 16.0136 15.9763C16.5824 15.9763 16.9482 15.3628 16.6954 14.8327C16.6386 14.7134 16.1099 14.264 14.7042 13.1399L12.7904 11.6096L12.7777 8.45722L12.765 5.30482L12.6337 5.1327C12.4086 4.83753 12.0605 4.72339 11.7411 4.83997Z" fill="black"/>
</svg>
