<svg width="64" height="64" viewBox="0 0 64 64" fill="none" xmlns="http://www.w3.org/2000/svg">
<path fill-rule="evenodd" clip-rule="evenodd" d="M38.6496 5.09795C34.6633 6.80579 28.9102 6.80578 24.924 5.09794C21.6852 3.71035 18.0625 3.58167 14.7197 5.03568C7.66555 8.10409 4.50161 17.071 7.57188 25.1599C7.57256 25.1617 7.57253 25.1637 7.57178 25.1654V25.1654L8.5299 27.2488C11.7687 34.2913 14.2099 41.6738 15.8082 49.2588L17.3286 56.4741C17.8548 58.5484 19.7141 60 21.8447 60C24.1329 60 26.0827 58.331 26.446 56.0612L28.5894 42.669C28.8418 41.0917 30.1967 39.9319 31.7868 39.9319C33.377 39.9319 34.7319 41.0917 34.9843 42.669L37.1277 56.0612C37.4909 58.331 39.4407 60 41.729 60C43.8595 60 45.7189 58.5484 46.245 56.4741L47.7654 49.2588C49.3637 41.6738 51.805 34.2913 55.0437 27.2488L56.0018 25.1654V25.1654C56.0011 25.1637 56.0011 25.1617 56.0018 25.1599C59.072 17.071 55.9081 8.10409 48.8539 5.03568C45.5112 3.58165 41.8884 3.71034 38.6496 5.09795Z" fill="url(#paint0_linear_115_4030)"/>
<path d="M6.80866 22.5927C9.33878 28.6877 13.4609 35.158 19.9545 40.7405C22.4712 42.9041 25.1941 44.7053 28.0246 46.1975L28.5894 42.669C28.8418 41.0917 30.1967 39.9319 31.7868 39.9319C33.377 39.9319 34.7319 41.0917 34.9843 42.669L36.0923 49.5922C39.8231 50.815 43.58 51.6213 47.1625 52.1198L47.7654 49.2588C49.3637 41.6738 51.8049 34.2913 55.0437 27.2488L56.0018 25.1654C56.0011 25.1637 56.0011 25.1617 56.0017 25.1599C59.072 17.071 55.9081 8.10409 48.8539 5.03568C45.5112 3.58165 41.8884 3.71034 38.6496 5.09795C34.6633 6.80579 28.9102 6.80578 24.924 5.09794C21.6852 3.71035 18.0624 3.58167 14.7197 5.03568C8.40567 7.78215 5.20836 15.2543 6.80866 22.5927Z" fill="url(#paint1_linear_115_4030)"/>
<path d="M6.80866 22.5927C9.33878 28.6877 13.4609 35.158 19.9545 40.7405C22.4712 42.9041 25.1941 44.7053 28.0246 46.1975L28.5894 42.669C28.8418 41.0917 30.1967 39.9319 31.7868 39.9319C33.377 39.9319 34.7319 41.0917 34.9843 42.669L36.0923 49.5922C39.8231 50.815 43.58 51.6213 47.1625 52.1198L47.7654 49.2588C49.3637 41.6738 51.8049 34.2913 55.0437 27.2488L56.0018 25.1654C56.0011 25.1637 56.0011 25.1617 56.0017 25.1599C59.072 17.071 55.9081 8.10409 48.8539 5.03568C45.5112 3.58165 41.8884 3.71034 38.6496 5.09795C34.6633 6.80579 28.9102 6.80578 24.924 5.09794C21.6852 3.71035 18.0624 3.58167 14.7197 5.03568C8.40567 7.78215 5.20836 15.2543 6.80866 22.5927Z" fill="url(#paint2_linear_115_4030)" fill-opacity="0.1"/>
<path d="M6.80866 22.5927C9.33878 28.6877 13.4609 35.158 19.9545 40.7405C22.4712 42.9041 25.1941 44.7053 28.0246 46.1975L28.5894 42.669C28.8418 41.0917 30.1967 39.9319 31.7868 39.9319C33.377 39.9319 34.7319 41.0917 34.9843 42.669L36.0923 49.5922C39.8231 50.815 43.58 51.6213 47.1625 52.1198L47.7654 49.2588C49.3637 41.6738 51.8049 34.2913 55.0437 27.2488L56.0018 25.1654C56.0011 25.1637 56.0011 25.1617 56.0017 25.1599C59.072 17.071 55.9081 8.10409 48.8539 5.03568C45.5112 3.58165 41.8884 3.71034 38.6496 5.09795C34.6633 6.80579 28.9102 6.80578 24.924 5.09794C21.6852 3.71035 18.0624 3.58167 14.7197 5.03568C8.40567 7.78215 5.20836 15.2543 6.80866 22.5927Z" fill="url(#paint3_linear_115_4030)" fill-opacity="0.1"/>
<path d="M24.0761 43.8577C23.1455 43.2396 22.2332 42.5818 21.3431 41.8824C20.9134 38.1856 19.9477 34.563 18.4697 31.1302L14.9833 23.0328C12.6208 17.5457 17.583 11.7343 23.3725 13.208L27.253 14.1958C29.843 14.855 32.5568 14.855 35.1467 14.1958L39.4407 13.1028C45.154 11.6485 50.098 17.3016 47.8954 22.7703L44.3806 31.4966C42.5439 36.0567 41.5999 40.9271 41.5999 45.8432V51.1093C41.0093 50.9757 40.4169 50.8329 39.8235 50.6804L38.8382 41.0738C38.5662 38.422 36.925 36.1064 34.513 34.9713C32.668 34.103 30.5318 34.103 28.6868 34.9713C26.2748 36.1064 24.6336 38.422 24.3616 41.0738L24.0761 43.8577Z" fill="url(#paint4_radial_115_4030)"/>
<defs>
<linearGradient id="paint0_linear_115_4030" x1="13.1201" y1="4" x2="43.7335" y2="57.76" gradientUnits="userSpaceOnUse">
<stop stop-color="#F0F6F9"/>
<stop offset="1" stop-color="#CDDFF2"/>
</linearGradient>
<linearGradient id="paint1_linear_115_4030" x1="48.8" y1="2.4" x2="31.2" y2="38.8" gradientUnits="userSpaceOnUse">
<stop stop-color="#E0EDF6"/>
<stop offset="1" stop-color="#A5CAE8"/>
</linearGradient>
<linearGradient id="paint2_linear_115_4030" x1="11.6" y1="38.8" x2="16.8" y2="32" gradientUnits="userSpaceOnUse">
<stop stop-color="#043A70"/>
<stop offset="1" stop-color="#065099" stop-opacity="0"/>
</linearGradient>
<linearGradient id="paint3_linear_115_4030" x1="47.2" y1="52" x2="48.4" y2="46.4" gradientUnits="userSpaceOnUse">
<stop stop-color="#002C57"/>
<stop offset="1" stop-color="#065099" stop-opacity="0"/>
</linearGradient>
<radialGradient id="paint4_radial_115_4030" cx="0" cy="0" r="1" gradientUnits="userSpaceOnUse" gradientTransform="translate(31.4059 34.7698) rotate(-70.7665) scale(23.3192 20.6416)">
<stop stop-color="#F8BAB9"/>
<stop offset="1" stop-color="#C9706F"/>
</radialGradient>
</defs>
</svg>
