<svg width="64" height="64" viewBox="0 0 64 64" fill="none" xmlns="http://www.w3.org/2000/svg">
<path fill-rule="evenodd" clip-rule="evenodd" d="M38.6496 5.09795C34.6633 6.80579 28.9102 6.80578 24.924 5.09794C21.6852 3.71035 18.0625 3.58167 14.7197 5.03568C7.66555 8.10409 4.50161 17.071 7.57188 25.1599C7.57256 25.1617 7.57253 25.1637 7.57178 25.1654V25.1654L8.5299 27.2488C11.7687 34.2913 14.2099 41.6738 15.8082 49.2588L17.3286 56.4741C17.8548 58.5484 19.7141 60 21.8447 60C24.1329 60 26.0827 58.331 26.446 56.0612L28.5894 42.669C28.8418 41.0917 30.1967 39.9319 31.7868 39.9319C33.377 39.9319 34.7319 41.0917 34.9843 42.669L37.1277 56.0612C37.4909 58.331 39.4407 60 41.729 60C43.8595 60 45.7189 58.5484 46.245 56.4741L47.7654 49.2588C49.3637 41.6738 51.805 34.2913 55.0437 27.2488L56.0018 25.1654V25.1654C56.0011 25.1637 56.0011 25.1617 56.0018 25.1599C59.072 17.071 55.9081 8.10409 48.8539 5.03568C45.5112 3.58165 41.8884 3.71034 38.6496 5.09795Z" fill="url(#paint0_linear_115_4022)"/>
<g filter="url(#filter0_f_115_4022)">
<path d="M16.0256 9.89238L15.8214 8.91803C15.7093 8.38311 15.2376 8 14.691 8C14.1291 8 13.6488 8.40438 13.553 8.95803L13.4351 9.63917C12.9471 12.4598 10.7718 14.6884 7.96379 15.2445L6.47235 15.5399C5.96545 15.6403 5.60019 16.085 5.60019 16.6017C5.60019 17.1347 5.98812 17.5883 6.5146 17.6711L7.67015 17.8527C10.628 18.3175 12.9551 20.6257 13.444 23.5797L13.5601 24.2815C13.6516 24.8345 14.1298 25.24 14.6903 25.24C15.2362 25.24 15.7062 24.8548 15.8135 24.3196L16.0674 23.0533C16.6006 20.3934 18.7277 18.3431 21.4054 17.908L22.8333 17.6759C23.3604 17.5903 23.7476 17.1351 23.7476 16.6011C23.7476 16.084 23.3838 15.6381 22.8771 15.5344L21.387 15.2292C18.6958 14.6781 16.5891 12.581 16.0256 9.89238Z" fill="url(#paint1_linear_115_4022)"/>
</g>
<path d="M15.6153 11.837L15.1839 8.44291C15.1517 8.18975 14.9363 8 14.6811 8C14.4198 8 14.2013 8.19868 14.1765 8.45882L13.8558 11.8294C13.6671 13.8128 12.1199 15.3957 10.1413 15.6295L6.04262 16.114C5.79029 16.1438 5.60019 16.3577 5.60019 16.6118C5.60019 16.8728 5.80042 17.0901 6.06051 17.1114L9.92638 17.4283C12.0112 17.5993 13.6714 19.2439 13.8621 21.327L14.1782 24.7813C14.202 25.0411 14.4199 25.24 14.6808 25.24C14.9359 25.24 15.1508 25.0497 15.1818 24.7966L15.6066 21.3216C15.8629 19.2256 17.554 17.5967 19.658 17.419L23.2871 17.1126C23.5474 17.0906 23.7476 16.8729 23.7476 16.6116C23.7476 16.3574 23.5579 16.1432 23.3056 16.1125L19.4404 15.6419C17.4446 15.3989 15.8689 13.8315 15.6153 11.837Z" fill="url(#paint2_linear_115_4022)"/>
<g filter="url(#filter1_f_115_4022)">
<path d="M47.4396 33.9897L47.3112 33.377C47.2407 33.0407 46.9441 32.7998 46.6004 32.7998C46.2471 32.7998 45.9451 33.0541 45.8849 33.4022L45.8108 33.8305C45.5039 35.604 44.1362 37.0052 42.3706 37.3549L41.4328 37.5407C41.1141 37.6038 40.8844 37.8834 40.8844 38.2083C40.8844 38.5434 41.1283 38.8287 41.4594 38.8807L42.1859 38.9949C44.0458 39.2871 45.5089 40.7384 45.8163 42.5958L45.8894 43.0371C45.9469 43.3848 46.2476 43.6398 46.6 43.6398C46.9432 43.6398 47.2388 43.3976 47.3062 43.0611L47.4658 42.2649C47.8011 40.5924 49.1386 39.3032 50.8222 39.0296L51.7201 38.8837C52.0515 38.8299 52.2949 38.5437 52.2949 38.2079C52.2949 37.8828 52.0662 37.6024 51.7476 37.5372L50.8107 37.3453C49.1185 36.9988 47.7939 35.6802 47.4396 33.9897Z" fill="url(#paint3_linear_115_4022)"/>
</g>
<path d="M47.1816 35.2124L46.9103 33.0783C46.8901 32.9191 46.7547 32.7998 46.5942 32.7998C46.4299 32.7998 46.2925 32.9247 46.2769 33.0883L46.0753 35.2076C45.9566 36.4547 44.9838 37.45 43.7397 37.597L41.1626 37.9017C41.0039 37.9204 40.8844 38.0549 40.8844 38.2147C40.8844 38.3788 41.0103 38.5154 41.1738 38.5288L43.6046 38.7281C44.9154 38.8355 45.9594 39.8696 46.0792 41.1794L46.278 43.3514C46.293 43.5148 46.43 43.6398 46.594 43.6398C46.7544 43.6398 46.8896 43.5202 46.909 43.361L47.1761 41.176C47.3373 39.8581 48.4006 38.8339 49.7236 38.7222L52.0054 38.5295C52.1691 38.5157 52.2949 38.3788 52.2949 38.2145C52.2949 38.0547 52.1756 37.92 52.017 37.9007L49.5867 37.6048C48.3318 37.452 47.341 36.4665 47.1816 35.2124Z" fill="url(#paint4_linear_115_4022)"/>
<defs>
<filter id="filter0_f_115_4022" x="1.6001" y="4" width="26.1475" height="25.2402" filterUnits="userSpaceOnUse" color-interpolation-filters="sRGB">
<feFlood flood-opacity="0" result="BackgroundImageFix"/>
<feBlend mode="normal" in="SourceGraphic" in2="BackgroundImageFix" result="shape"/>
<feGaussianBlur stdDeviation="2" result="effect1_foregroundBlur_115_4022"/>
</filter>
<filter id="filter1_f_115_4022" x="36.8843" y="28.7998" width="19.4106" height="18.8398" filterUnits="userSpaceOnUse" color-interpolation-filters="sRGB">
<feFlood flood-opacity="0" result="BackgroundImageFix"/>
<feBlend mode="normal" in="SourceGraphic" in2="BackgroundImageFix" result="shape"/>
<feGaussianBlur stdDeviation="2" result="effect1_foregroundBlur_115_4022"/>
</filter>
<linearGradient id="paint0_linear_115_4022" x1="13.1201" y1="4" x2="43.7335" y2="57.76" gradientUnits="userSpaceOnUse">
<stop stop-color="#F0F6F9"/>
<stop offset="1" stop-color="#CDDFF2"/>
</linearGradient>
<linearGradient id="paint1_linear_115_4022" x1="14.6739" y1="8" x2="14.6739" y2="25.24" gradientUnits="userSpaceOnUse">
<stop stop-color="white"/>
<stop offset="1" stop-color="white"/>
</linearGradient>
<linearGradient id="paint2_linear_115_4022" x1="14.6739" y1="8" x2="14.6739" y2="25.24" gradientUnits="userSpaceOnUse">
<stop stop-color="white"/>
<stop offset="1" stop-color="white"/>
</linearGradient>
<linearGradient id="paint3_linear_115_4022" x1="46.5897" y1="32.7998" x2="46.5897" y2="43.6398" gradientUnits="userSpaceOnUse">
<stop stop-color="white"/>
<stop offset="1" stop-color="white"/>
</linearGradient>
<linearGradient id="paint4_linear_115_4022" x1="46.5897" y1="32.7998" x2="46.5897" y2="43.6398" gradientUnits="userSpaceOnUse">
<stop stop-color="white"/>
<stop offset="1" stop-color="white"/>
</linearGradient>
</defs>
</svg>
