<svg width="64" height="64" viewBox="0 0 64 64" fill="none" xmlns="http://www.w3.org/2000/svg">
<path fill-rule="evenodd" clip-rule="evenodd" d="M38.6496 5.09795C34.6633 6.80579 28.9102 6.80578 24.924 5.09794C21.6852 3.71035 18.0625 3.58167 14.7197 5.03568C7.66555 8.10409 4.50161 17.071 7.57188 25.1599C7.57256 25.1617 7.57253 25.1637 7.57178 25.1654L8.5299 27.2488C11.7687 34.2913 14.2099 41.6738 15.8082 49.2588L17.3286 56.4741C17.8548 58.5484 19.7141 60 21.8447 60C24.1329 60 26.0827 58.331 26.446 56.0612L28.5894 42.669C28.8418 41.0917 30.1967 39.9319 31.7868 39.9319C33.377 39.9319 34.7319 41.0917 34.9843 42.669L37.1277 56.0612C37.4909 58.331 39.4407 60 41.729 60C43.8596 60 45.7189 58.5484 46.245 56.4741L47.7654 49.2588C49.3637 41.6738 51.805 34.2913 55.0437 27.2488L56.0018 25.1654C56.0011 25.1637 56.0011 25.1617 56.0018 25.1599C59.072 17.071 55.9081 8.10409 48.8539 5.03568C45.5112 3.58165 41.8884 3.71034 38.6496 5.09795Z" fill="url(#paint0_linear_115_4026)"/>
<defs>
<linearGradient id="paint0_linear_115_4026" x1="13.1201" y1="4" x2="43.7335" y2="57.76" gradientUnits="userSpaceOnUse">
<stop stop-color="#F0F6F9"/>
<stop offset="1" stop-color="#CDDFF2"/>
</linearGradient>
</defs>
</svg>
