<svg width="50" height="50" viewBox="0 0 50 50" fill="none" xmlns="http://www.w3.org/2000/svg">
<rect width="50" height="50" rx="25" fill="#389DAC"/>
<path d="M17.7056 35C17.5189 35 17.3509 34.9347 17.2016 34.804C17.0709 34.6547 17.0056 34.4867 17.0056 34.3V16.128C17.0056 15.9227 17.0709 15.7547 17.2016 15.624C17.3322 15.4747 17.5002 15.4 17.7056 15.4H26.3576C28.7282 15.4 30.4922 15.8853 31.6496 16.856C32.8069 17.8267 33.3856 19.208 33.3856 21C33.3856 21.896 33.1429 22.6707 32.6576 23.324C32.1909 23.9773 31.6682 24.4533 31.0896 24.752C31.8549 25.088 32.4989 25.648 33.0216 26.432C33.5442 27.1973 33.8056 28.0653 33.8056 29.036C33.8056 30.9213 33.1802 32.3867 31.9296 33.432C30.6976 34.4773 28.9242 35 26.6096 35H17.7056ZM25.7696 23.156C26.4602 23.156 26.9922 22.9693 27.3656 22.596C27.7389 22.2227 27.9256 21.7373 27.9256 21.14C27.9256 20.5613 27.7389 20.0947 27.3656 19.74C27.0109 19.3667 26.4789 19.18 25.7696 19.18H22.2696V23.156H25.7696ZM26.0216 31.22C26.7496 31.22 27.3096 31.0147 27.7016 30.604C28.1122 30.1747 28.3176 29.652 28.3176 29.036C28.3176 28.4013 28.1122 27.8787 27.7016 27.468C27.2909 27.0387 26.7309 26.824 26.0216 26.824H22.2696V31.22H26.0216Z" fill="white"/>
</svg>
