<svg width="67" height="45" viewBox="0 0 67 45" fill="none" xmlns="http://www.w3.org/2000/svg">
<path d="M0.441406 5.5287C0.441406 2.47528 2.91669 0 5.97011 0H61.2571C64.3105 0 66.7858 2.47528 66.7858 5.5287V38.7009C66.7858 41.7543 64.3105 44.2296 61.2571 44.2296H5.97011C2.91669 44.2296 0.441406 41.7543 0.441406 38.7009V5.5287Z" fill="#005A9C"/>
<path fill-rule="evenodd" clip-rule="evenodd" d="M22.5566 24.8803C28.3679 22.3666 36.5231 20.0889 47.3223 22.3699L47.4358 19.6062C36.0413 18.3505 27.8653 22.0124 22.5566 24.6073V24.8803Z" fill="#F7B600"/>
<path fill-rule="evenodd" clip-rule="evenodd" d="M11.499 27.4063H17.0872V29.1366H13.615L13.5919 30.7341H17.052V32.3924H13.5801L13.5925 33.9899H17.0171V35.7199H11.501L11.499 27.4063ZM18.4907 26.7089H20.5249L20.532 35.7199H18.4979L18.4907 26.7089ZM27.5224 35.0349C26.8328 35.6354 25.7806 35.9361 24.845 35.9361C22.7058 35.9361 21.7352 34.3745 21.7352 32.8245C21.7352 30.9983 23.0679 29.449 24.9034 29.449C27.1479 29.449 27.8493 31.0828 27.8493 33.1611H23.7697C23.7697 33.6298 24.062 34.4224 25.1843 34.4224C25.8974 34.4224 26.2948 34.2062 26.8445 33.8219L27.5224 35.0349ZM26.026 31.9357C26.026 31.3111 25.7336 30.7459 25.0557 30.7459C24.4127 30.7459 23.9217 31.3346 23.7932 31.9357H26.026ZM34.0228 35.3115C33.4617 35.6716 32.5381 35.9361 31.8598 35.9361C29.9895 35.9361 28.645 34.8308 28.645 32.8369C28.645 30.7945 29.9777 29.449 31.9887 29.449C32.6901 29.449 33.5318 29.677 33.9876 29.9774L33.3331 31.3467C33.0291 31.2149 32.7015 31.1063 32.3743 31.1063C31.3574 31.1063 30.6792 31.7315 30.6792 32.7283C30.6792 33.594 31.3339 34.2782 32.1991 34.2782C32.5847 34.2782 32.9707 34.0982 33.2979 33.9299L34.0228 35.3115ZM34.7745 29.665H35.6935L35.6867 27.6101H37.6506L37.604 29.665H39.276L39.2404 31.179H37.5691C37.5691 32.0199 37.5104 32.909 37.5104 33.4257C37.5104 33.954 37.6392 34.2062 38.0953 34.2062C38.3755 34.2062 38.6095 34.062 38.8434 33.9182L39.2874 35.336C38.691 35.7085 37.9664 35.9365 37.2764 35.9365C35.6279 35.9365 35.5464 34.8673 35.5464 33.4736C35.5464 32.7283 35.6044 31.984 35.6044 31.179H34.7278L34.7745 29.665ZM40.3164 29.665H42.3508V30.5182H42.3736C42.6777 30.0016 43.0751 29.4966 43.8705 29.4966C44.0923 29.4966 44.3259 29.5208 44.537 29.5687L44.2681 31.6353C44.0695 31.575 43.847 31.515 43.5429 31.515C42.865 31.515 42.3387 32.1037 42.3387 32.2241L42.3038 35.7202H40.27L40.3164 29.665ZM48.2222 29.4487C50.3963 29.4487 51.5189 30.8666 51.5189 32.6921C51.5189 34.5183 50.3963 35.9361 48.2222 35.9361C46.0475 35.9361 44.9249 34.5183 44.9249 32.6921C44.9245 30.8666 46.0475 29.4487 48.2222 29.4487ZM48.2222 34.35C49.1921 34.35 49.4844 33.485 49.4844 32.6921C49.4844 31.8992 49.1921 31.0349 48.2222 31.0349C47.2516 31.0349 46.9593 31.8992 46.9593 32.6921C46.9593 33.485 47.2516 34.35 48.2222 34.35ZM52.6245 29.665H54.6583V30.3258C55.1262 29.8577 55.839 29.449 56.5642 29.449C57.815 29.449 58.493 30.1575 58.493 31.8157C58.493 33.0532 58.4816 34.3865 58.4701 35.7202H56.4357C56.4471 34.5545 56.4592 33.3774 56.4592 32.1278C56.4592 31.6353 56.3303 31.2511 55.7225 31.2511C55.395 31.2511 54.9271 31.5391 54.6583 31.8036L54.6476 35.7202H52.5772L52.6245 29.665ZM28.2317 17.192L30.8025 8.48407H33.0953L30.5248 17.192H28.2317ZM27.207 8.48608L25.1441 12.1774C24.6192 13.145 24.3119 13.6331 24.1644 14.244H24.1334C24.1696 13.4695 24.0646 12.519 24.0548 11.9813L23.8271 8.48608H19.967L19.9269 8.72077C20.9186 8.72077 21.5068 9.23239 21.669 10.2798L22.4213 17.192H24.797L29.6006 8.48608H27.207ZM45.0394 17.192L44.9764 15.8972L42.1136 15.8952L41.528 17.1923H39.0385L43.5517 8.50083H46.6076L47.3723 17.1923H45.0394V17.192ZM44.7768 12.0557C44.7507 11.412 44.7295 10.5386 44.7722 10.0095H44.7383C44.5986 10.4424 43.999 11.7399 43.7354 12.3785L42.8823 14.2869H44.8932L44.7768 12.0557ZM35.5023 17.4401C33.8838 17.4401 32.8092 16.912 32.0422 16.4413L33.1341 14.7274C33.8228 15.1234 34.3637 15.5797 35.6074 15.5797C36.0083 15.5797 36.393 15.4731 36.6116 15.0835C36.9309 14.5169 36.5381 14.2125 35.6429 13.6911L35.2009 13.3954C33.8727 12.463 33.2979 11.5779 33.923 10.0317C34.3236 9.04296 35.378 8.29297 37.1189 8.29297C38.3188 8.29297 39.4446 8.82638 40.0997 9.34772L38.8444 10.8611C38.2039 10.3294 37.6738 10.0605 37.0667 10.0605C36.5832 10.0605 36.2155 10.2523 36.0886 10.5111C35.8498 10.9979 36.1656 11.3285 36.8634 11.7744L37.3896 12.1184C39.0016 13.1627 39.3853 14.2584 38.982 15.283C38.2865 17.0458 36.9261 17.4401 35.5023 17.4401Z" fill="white"/>
</svg>
