<svg width="67" height="45" viewBox="0 0 67 45" fill="none" xmlns="http://www.w3.org/2000/svg">
<path d="M0 5.5287C0 2.47528 2.47528 0 5.5287 0H60.8157C63.8691 0 66.3444 2.47528 66.3444 5.5287V38.7009C66.3444 41.7543 63.8691 44.2296 60.8157 44.2296H5.5287C2.47528 44.2296 0 41.7543 0 38.7009V5.5287Z" fill="white"/>
<path d="M57.0971 13.8711H53.6214C52.5707 13.8711 51.7624 14.1944 51.2774 15.2452L44.6494 30.3602H49.3375C49.3375 30.3602 50.1458 28.3395 50.3074 27.8545C50.7924 27.8545 55.3997 27.8545 56.0463 27.8545C56.208 28.4203 56.6121 30.2794 56.6121 30.2794H60.8152L57.0971 13.8711ZM51.6007 24.4597C52.0048 23.4897 53.3789 19.8524 53.3789 19.8524C53.3789 19.9333 53.7831 18.8825 53.9447 18.3167L54.2681 19.7716C54.2681 19.7716 55.1572 23.7322 55.3188 24.5405H51.6007V24.4597Z" fill="#00579F"/>
<path d="M44.9739 24.945C44.9739 28.3398 41.9024 30.603 37.1335 30.603C35.1127 30.603 33.1728 30.1988 32.1221 29.7139L32.7687 25.9957L33.3345 26.2382C34.7894 26.8849 35.7594 27.1273 37.5376 27.1273C38.8309 27.1273 40.205 26.6424 40.205 25.5108C40.205 24.7833 39.6392 24.2983 37.8609 23.49C36.1635 22.6817 33.9003 21.3885 33.9003 19.0444C33.9003 15.8113 37.0526 13.6289 41.4982 13.6289C43.1956 13.6289 44.6506 13.9522 45.5397 14.3564L44.893 17.9128L44.5697 17.5895C43.7614 17.2662 42.7107 16.9429 41.1749 16.9429C39.4775 17.0237 38.6692 17.7512 38.6692 18.3978C38.6692 19.1253 39.6392 19.6911 41.1749 20.4185C43.7614 21.631 44.9739 23.0051 44.9739 24.945Z" fill="#00579F"/>
<path d="M5.52832 14.0343L5.60915 13.7109H12.5604C13.5304 13.7109 14.2578 14.0343 14.5003 15.085L16.0361 22.3596C14.5003 18.4798 10.9439 15.3275 5.52832 14.0343Z" fill="#F9B50B"/>
<path d="M25.8171 13.8699L18.785 30.2782H14.0161L9.97461 16.5372C12.8845 18.3963 15.3093 21.3062 16.1984 23.3269L16.6834 25.0243L21.0482 13.7891H25.8171V13.8699Z" fill="#00579F"/>
<path d="M27.6757 13.7891H32.1213L29.2923 30.2782H24.8467L27.6757 13.7891Z" fill="#00579F"/>
<path d="M0 38.7012H66.3444C66.3444 41.7546 63.8691 44.2299 60.8157 44.2299H5.5287C2.47529 44.2299 0 41.7546 0 38.7012Z" fill="#F7B600"/>
<path d="M0 5.5287C0 2.47528 2.47528 0 5.5287 0H60.8157C63.8691 0 66.3444 2.47528 66.3444 5.5287H0Z" fill="#00579F"/>
<path d="M57.0971 13.8711H53.6214C52.5707 13.8711 51.7624 14.1944 51.2774 15.2452L44.6494 30.3602H49.3375C49.3375 30.3602 50.1458 28.3395 50.3074 27.8545C50.7924 27.8545 55.3997 27.8545 56.0463 27.8545C56.208 28.4203 56.6121 30.2794 56.6121 30.2794H60.8152L57.0971 13.8711ZM51.6007 24.4597C52.0048 23.4897 53.3789 19.8524 53.3789 19.8524C53.3789 19.9333 53.7831 18.8825 53.9447 18.3167L54.2681 19.7716C54.2681 19.7716 55.1572 23.7322 55.3188 24.5405H51.6007V24.4597Z" fill="#00579F"/>
<path d="M44.9739 24.945C44.9739 28.3398 41.9024 30.603 37.1335 30.603C35.1127 30.603 33.1728 30.1988 32.1221 29.7139L32.7687 25.9957L33.3345 26.2382C34.7894 26.8849 35.7594 27.1273 37.5376 27.1273C38.8309 27.1273 40.205 26.6424 40.205 25.5108C40.205 24.7833 39.6392 24.2983 37.8609 23.49C36.1635 22.6817 33.9003 21.3885 33.9003 19.0444C33.9003 15.8113 37.0526 13.6289 41.4982 13.6289C43.1956 13.6289 44.6506 13.9522 45.5397 14.3564L44.893 17.9128L44.5697 17.5895C43.7614 17.2662 42.7107 16.9429 41.1749 16.9429C39.4775 17.0237 38.6692 17.7512 38.6692 18.3978C38.6692 19.1253 39.6392 19.6911 41.1749 20.4185C43.7614 21.631 44.9739 23.0051 44.9739 24.945Z" fill="#00579F"/>
<path d="M5.52832 14.0343L5.60915 13.7109H12.5604C13.5304 13.7109 14.2578 14.0343 14.5003 15.085L16.0361 22.3596C14.5003 18.4798 10.9439 15.3275 5.52832 14.0343Z" fill="#F9B50B"/>
<path d="M25.8171 13.8699L18.785 30.2782H14.0161L9.97461 16.5372C12.8845 18.3963 15.3093 21.3062 16.1984 23.3269L16.6834 25.0243L21.0482 13.7891H25.8171V13.8699Z" fill="#00579F"/>
<path d="M27.6757 13.7891H32.1213L29.2923 30.2782H24.8467L27.6757 13.7891Z" fill="#00579F"/>
<path d="M0 38.7012H66.3444C66.3444 41.7546 63.8691 44.2299 60.8157 44.2299H5.5287C2.47529 44.2299 0 41.7546 0 38.7012Z" fill="#F7B600"/>
<path d="M0 5.5287C0 2.47528 2.47528 0 5.5287 0H60.8157C63.8691 0 66.3444 2.47528 66.3444 5.5287H0Z" fill="#00579F"/>
</svg>
