<svg width="62" height="60" viewBox="0 0 62 60" fill="none" xmlns="http://www.w3.org/2000/svg">
<g clip-path="url(#clip0_0_1897)">
<path d="M60.9688 45.8906L36.5603 6.90246C35.2523 4.75781 32.9275 3.49219 30.348 3.49219C27.7686 3.49219 25.4439 4.75781 24.0997 6.93738L1.03125 45.8906C-0.312894 48.0703 -0.349222 50.707 0.958469 52.957C2.2664 55.1719 4.62761 56.5078 7.27981 56.5078H54.7202C57.3723 56.5078 59.7335 55.1719 61.0416 52.957C62.3492 50.707 62.3129 48.0703 60.9688 45.8906Z" fill="url(#paint0_linear_0_1897)"/>
<path d="M33.9805 17.8359V31.8984C33.9805 33.832 32.3457 35.4141 30.3477 35.4141C28.3496 35.4141 26.7149 33.832 26.7149 31.8984V17.8359C26.7149 15.9023 28.3496 14.3203 30.3477 14.3203C32.3457 14.3203 33.9805 15.9025 33.9805 17.8359Z" fill="white"/>
<path d="M33.9805 45.9609C33.9805 47.8945 32.3457 49.4766 30.3477 49.4766C28.3496 49.4766 26.7149 47.8945 26.7149 45.9609C26.7149 44.0273 28.3496 42.4453 30.3477 42.4453C32.3457 42.4453 33.9805 44.0275 33.9805 45.9609Z" fill="white"/>
<path d="M33.9805 45.9609C33.9805 47.8945 32.3457 49.4766 30.3477 49.4766V42.4453C32.3457 42.4453 33.9805 44.0275 33.9805 45.9609Z" fill="white"/>
<path d="M33.9805 17.8359V31.8984C33.9805 33.832 32.3457 35.4141 30.3477 35.4141V14.3203C32.3457 14.3203 33.9805 15.9025 33.9805 17.8359Z" fill="white"/>
</g>
<defs>
<linearGradient id="paint0_linear_0_1897" x1="31" y1="3.49219" x2="31" y2="56.5078" gradientUnits="userSpaceOnUse">
<stop stop-color="#FF8787"/>
<stop offset="1" stop-color="#D14141"/>
</linearGradient>
<clipPath id="clip0_0_1897">
<rect width="62" height="60" fill="white"/>
</clipPath>
</defs>
</svg>
