<svg width="48" height="48" viewBox="0 0 48 48" fill="none" xmlns="http://www.w3.org/2000/svg">
<g clip-path="url(#clip0_0_1869)">
<path d="M47.2016 36.7125L28.3047 5.52192C27.2921 3.8062 25.4922 2.7937 23.4953 2.7937C21.4983 2.7937 19.6985 3.8062 18.6579 5.54986L0.798384 36.7125C-0.242241 38.4562 -0.270366 40.5656 0.742041 42.3656C1.75463 44.1375 3.58267 45.2062 5.63598 45.2062H42.364C44.4173 45.2062 46.2453 44.1375 47.258 42.3656C48.2704 40.5656 48.2423 38.4562 47.2016 36.7125Z" fill="url(#paint0_linear_0_1869)"/>
<path d="M26.3075 14.2688V25.5188C26.3075 27.0657 25.0419 28.3313 23.495 28.3313C21.9481 28.3313 20.6825 27.0657 20.6825 25.5188V14.2688C20.6825 12.7219 21.9481 11.4563 23.495 11.4563C25.0419 11.4563 26.3075 12.722 26.3075 14.2688Z" fill="white"/>
<path d="M26.3075 36.7688C26.3075 38.3157 25.0419 39.5813 23.495 39.5813C21.9481 39.5813 20.6825 38.3157 20.6825 36.7688C20.6825 35.2219 21.9481 33.9563 23.495 33.9563C25.0419 33.9563 26.3075 35.222 26.3075 36.7688Z" fill="white"/>
<path d="M26.3075 36.7688C26.3075 38.3157 25.0419 39.5813 23.495 39.5813V33.9563C25.0419 33.9563 26.3075 35.222 26.3075 36.7688Z" fill="white"/>
<path d="M26.3075 14.2688V25.5188C26.3075 27.0657 25.0419 28.3313 23.495 28.3313V11.4563C25.0419 11.4563 26.3075 12.722 26.3075 14.2688Z" fill="white"/>
</g>
<defs>
<linearGradient id="paint0_linear_0_1869" x1="24" y1="2.7937" x2="24" y2="45.2062" gradientUnits="userSpaceOnUse">
<stop stop-color="#FF8787"/>
<stop offset="1" stop-color="#D14141"/>
</linearGradient>
<clipPath id="clip0_0_1869">
<rect width="48" height="48" fill="white"/>
</clipPath>
</defs>
</svg>
