<?xml version="1.0" encoding="utf-8"?><!DOCTYPE svg PUBLIC "-//W3C//DTD SVG 20010904//EN" "http://www.w3.org/TR/2001/REC-SVG-20010904/DTD/svg10.dtd"><svg width="153" height="118" viewBox="0 0 153 118" xmlns="http://www.w3.org/2000/svg" xmlns:xlink="http://www.w3.org/1999/xlink"><svg width="15" height="9" fill="none" viewBox="-1 -1 15 9" id="arrow-down" x="129.52" y="96" xmlns="http://www.w3.org/2000/svg"><path fill-rule="evenodd" clip-rule="evenodd" d="M.26.327A1 1 0 011.673.26L6.5 4.65 11.327.26a1 1 0 011.346 1.48l-5.5 5a1 1 0 01-1.346 0l-5.5-5A1 1 0 01.26.327z" fill="#A03339"/></svg><svg width="15" height="9" fill="none" viewBox="-1 -1 15 9" id="arrow-up" x="129.52" y="105" xmlns="http://www.w3.org/2000/svg"><path fill-rule="evenodd" clip-rule="evenodd" d="M.26 6.673a1 1 0 001.413.067L6.5 2.35l4.827 4.389a1 1 0 001.346-1.48l-5.5-5a1 1 0 00-1.346 0l-5.5 5A1 1 0 00.26 6.673z" fill="#A03339"/></svg><svg width="18" height="18" fill="none" viewBox="-1 -1 18 18" id="calendar" x="129.52" y="48" xmlns="http://www.w3.org/2000/svg"><path d="M1.875 1.25h.75V0h1.25v1.25h8.25V0h1.25v1.25h.75c1.034 0 1.875.841 1.875 1.875v11A1.877 1.877 0 0114.125 16H1.875A1.877 1.877 0 010 14.125v-11C0 2.091.841 1.25 1.875 1.25zM1.25 14.125c0 .345.28.625.625.625h12.25c.345 0 .625-.28.625-.625v-8.25H1.25v8.25zm0-9.5h13.5v-1.5a.626.626 0 00-.625-.625h-.75v1.25h-1.25V2.5h-8.25v1.25h-1.25V2.5h-.75a.626.626 0 00-.625.625v1.5z" fill="#fff"/><path d="M12.375 7.188h1.25v1.25h-1.25v-1.25zM9.875 7.188h1.25v1.25h-1.25v-1.25zM7.375 7.188h1.25v1.25h-1.25v-1.25zM4.875 7.188h1.25v1.25h-1.25v-1.25zM2.375 7.188h1.25v1.25h-1.25v-1.25zM12.375 9.688h1.25v1.25h-1.25v-1.25zM9.875 9.688h1.25v1.25h-1.25v-1.25zM7.375 9.688h1.25v1.25h-1.25v-1.25zM4.875 9.688h1.25v1.25h-1.25v-1.25zM12.375 12.188h1.25v1.25h-1.25v-1.25zM9.875 12.188h1.25v1.25h-1.25v-1.25zM7.375 12.188h1.25v1.25h-1.25v-1.25zM4.875 12.188h1.25v1.25h-1.25v-1.25zM2.375 9.688h1.25v1.25h-1.25v-1.25z" fill="#fff"/></svg><svg width="18" height="18" fill="none" viewBox="-1 -1 18 18" id="calendar-brown" x="129.52" y="66" xmlns="http://www.w3.org/2000/svg"><path d="M1.875 1.25h.75V0h1.25v1.25h8.25V0h1.25v1.25h.75c1.034 0 1.875.841 1.875 1.875v11A1.877 1.877 0 0114.125 16H1.875A1.877 1.877 0 010 14.125v-11C0 2.091.841 1.25 1.875 1.25zM1.25 14.125c0 .345.28.625.625.625h12.25c.345 0 .625-.28.625-.625v-8.25H1.25v8.25zm0-9.5h13.5v-1.5a.626.626 0 00-.625-.625h-.75v1.25h-1.25V2.5h-8.25v1.25h-1.25V2.5h-.75a.626.626 0 00-.625.625v1.5z" fill="#7E7E7E"/><path d="M12.375 7.188h1.25v1.25h-1.25v-1.25zM9.875 7.188h1.25v1.25h-1.25v-1.25zM7.375 7.188h1.25v1.25h-1.25v-1.25zM4.875 7.188h1.25v1.25h-1.25v-1.25zM2.375 7.188h1.25v1.25h-1.25v-1.25zM12.375 9.688h1.25v1.25h-1.25v-1.25zM9.875 9.688h1.25v1.25h-1.25v-1.25zM7.375 9.688h1.25v1.25h-1.25v-1.25zM4.875 9.688h1.25v1.25h-1.25v-1.25zM12.375 12.188h1.25v1.25h-1.25v-1.25zM9.875 12.188h1.25v1.25h-1.25v-1.25zM7.375 12.188h1.25v1.25h-1.25v-1.25zM4.875 12.188h1.25v1.25h-1.25v-1.25zM2.375 9.688h1.25v1.25h-1.25v-1.25z" fill="#7E7E7E"/></svg><svg version="1.0" width="25" height="41" viewBox="-1 -1 232 392" id="callico" y="50" xmlns="http://www.w3.org/2000/svg"><path d="M93 366c-16-13-42-51-58-83-25-47-31-73-34-141-3-82-3-82 30-113 46-43 78-37 97 19 16 48 6 72-31 72-17 0-19 4-13 43 4 23 15 58 24 77 15 31 21 35 56 35 39 0 40 1 55 48 18 58 10 67-56 67-29 0-50-7-70-24z" fill="#fff"/></svg><svg width="31" height="31" fill="none" viewBox="-1 -1 31 31" id="lk" x="98.52000000000001" xmlns="http://www.w3.org/2000/svg"><path fill-rule="evenodd" clip-rule="evenodd" d="M19.852 22A5.616 5.616 0 009.1 22H7a7.66 7.66 0 0114.954 0h-2.102zm-5.38-16a4.5 4.5 0 110 9 4.5 4.5 0 010-9zm0 2a2.5 2.5 0 110 5 2.5 2.5 0 010-5z" fill="#1B5773"/><path fill-rule="evenodd" clip-rule="evenodd" d="M14.5 27C21.404 27 27 21.404 27 14.5S21.404 2 14.5 2 2 7.596 2 14.5 7.596 27 14.5 27zm0 2C22.508 29 29 22.508 29 14.5S22.508 0 14.5 0 0 6.492 0 14.5 6.492 29 14.5 29z" fill="#1B5773"/></svg><svg width="42" height="31" fill="none" viewBox="-1 -1 42 31" id="logo" x="56.52" xmlns="http://www.w3.org/2000/svg"><path fill-rule="evenodd" clip-rule="evenodd" d="M33.615 8.614c-3.294-.28-6.345 9.941-8.31 9.976-.794.048-1.853-2.512-3.172-5.075-1.334-2.598-2.937-5.194-4.803-5.07-4.221.291-5.724 9.942-6.432 10.484-.56.42-1.243-.07-1.811-.562-.53-.455-.958-.912-1.096-.634-.281.574 3.897 4.202 4.69 2.925 1.455-2.271 3.201-8.911 4.75-8.943 1.811 0 3.976 9.285 7.673 9.32 2.157.015 3.904-2.426 5.335-4.866 1.436-2.452 2.553-4.903 3.448-4.867 6.233.284 5.903 14.017-12.11 13.93-6.466-.002-17.024-2.684-17.26-9.897-.234-5.65 6.57-11.5 16.611-11.378 2.349.041 4.228.341 6.484.787 1.912.166 4.024.46 5.955.627l.231-.832 2.489.371-2.12-.988 1.226-.745c-1.222-.945-2.3-2.183-4.035-2.839C30.532.085 29.451 0 28.372 0c-.703 0-1.404.036-2.032.083-1.883.128-3.143.578-4.746.62-4.44.042-9 .902-11.683 1.938C2.74 5.395-.26 11.082.017 15.993c.377 6.637 9.335 12.5 20.487 12.502 22.572.008 23.515-18.964 13.11-19.88zM29.318 1.8c.353.02.626.2.612.403-.014.203-.311.352-.664.332-.353-.019-.626-.2-.612-.404.014-.203.31-.352.664-.331z" fill="#7E7F7F"/></svg><svg version="1.1" id="map-point-gray" x="15" y="91" viewBox="-1 -1 26 26" xml:space="preserve" width="26" height="26" xmlns="http://www.w3.org/2000/svg"><style>.hst0,.hst1{fill-rule:evenodd;clip-rule:evenodd;fill:#c3beba}.hst1{fill:#fff}</style><path class="hst0" d="M16.56 6.29c.17.01.32-.06.33-.16s-.13-.19-.3-.2c-.17-.01-.32.06-.33.16s.12.19.3.2z"/><path class="hst0" d="M12 0C5.37 0 0 5.37 0 12s5.37 12 12 12 12-5.37 12-12S18.63 0 12 0zm.25 19.05c-5.48 0-9.89-2.88-10.07-6.15-.14-2.41 1.34-5.21 4.86-6.56 1.32-.51 3.56-.93 5.74-.95.79-.02 1.41-.24 2.33-.3.31-.02.65-.04 1-.04.53 0 1.06.04 1.47.17.85.32 1.38.93 1.98 1.4l-.6.37 1.04.49-1.22-.18-.11.41c-.95-.08-1.99-.23-2.93-.31-1.11-.22-2.03-.37-3.19-.39-4.93-.08-8.28 2.79-8.16 5.57.12 3.55 5.31 4.86 8.49 4.87 8.86.04 9.02-6.71 5.95-6.85-.44-.02-.99 1.19-1.7 2.39-.7 1.2-1.56 2.4-2.62 2.39-1.82-.02-2.88-4.58-3.77-4.58-.76.02-1.62 3.28-2.34 4.4-.39.63-2.44-1.16-2.31-1.44.07-.14.28.09.54.31.28.24.62.48.89.28.35-.27 1.09-5.01 3.16-5.16.92-.06 1.71 1.22 2.36 2.49.65 1.26 1.17 2.52 1.56 2.49.97-.02 2.47-5.04 4.09-4.9 5.12.46 4.66 9.78-6.44 9.78z"/><path class="hst1" d="M18.69 9.28c-1.62-.14-3.12 4.89-4.09 4.9-.39.02-.91-1.23-1.56-2.49-.66-1.28-1.44-2.55-2.36-2.49-2.08.14-2.81 4.89-3.16 5.16-.28.21-.61-.03-.89-.28-.26-.22-.47-.45-.54-.31-.14.28 1.92 2.07 2.31 1.44.72-1.12 1.57-4.38 2.34-4.4.89 0 1.96 4.57 3.77 4.58 1.06.01 1.92-1.19 2.62-2.39.71-1.21 1.25-2.41 1.7-2.39 3.06.14 2.9 6.89-5.95 6.85-3.18 0-8.37-1.32-8.49-4.87-.12-2.79 3.23-5.66 8.16-5.6 1.15.02 2.08.17 3.19.39.94.08 1.98.23 2.93.31l.11-.41 1.22.18-1.04-.49.6-.37c-.6-.46-1.13-1.07-1.98-1.4-.41-.12-.94-.17-1.47-.17-.35 0-.69.02-1 .04-.93.06-1.55.28-2.33.3-2.18.04-4.42.46-5.74.97-3.53 1.35-5 4.15-4.86 6.56.18 3.26 4.59 6.15 10.07 6.15 11.1 0 11.56-9.32 6.44-9.77zm-2.11-3.36c.17.01.31.1.3.2s-.15.17-.33.16c-.17-.01-.31-.1-.3-.2.01-.09.16-.17.33-.16z"/></svg><svg version="1.1" id="map-point-green" x="41" y="91" viewBox="-1 -1 26 26" xml:space="preserve" width="26" height="26" xmlns="http://www.w3.org/2000/svg"><style>.ist0,.ist1{fill-rule:evenodd;clip-rule:evenodd;fill:#98ddda}.ist1{fill:#fff}</style><path class="ist0" d="M16.56 6.29c.17.01.32-.06.33-.16s-.13-.19-.3-.2c-.17-.01-.32.06-.33.16s.12.19.3.2z"/><path class="ist0" d="M12 0C5.37 0 0 5.37 0 12s5.37 12 12 12 12-5.37 12-12S18.63 0 12 0zm.25 19.05c-5.48 0-9.89-2.88-10.07-6.15-.14-2.41 1.34-5.21 4.86-6.56 1.32-.51 3.56-.93 5.74-.95.79-.02 1.41-.24 2.33-.3.31-.02.65-.04 1-.04.53 0 1.06.04 1.47.17.85.32 1.38.93 1.98 1.4l-.6.37 1.04.49-1.22-.18-.11.41c-.95-.08-1.99-.23-2.93-.31-1.11-.22-2.03-.37-3.19-.39-4.93-.08-8.28 2.79-8.16 5.57.12 3.55 5.31 4.86 8.49 4.87 8.86.04 9.02-6.71 5.95-6.85-.44-.02-.99 1.19-1.7 2.39-.7 1.2-1.56 2.4-2.62 2.39-1.82-.02-2.88-4.58-3.77-4.58-.76.02-1.62 3.28-2.34 4.4-.39.63-2.44-1.16-2.31-1.44.07-.14.28.09.54.31.28.24.62.48.89.28.35-.27 1.09-5.01 3.16-5.16.92-.06 1.71 1.22 2.36 2.49.65 1.26 1.17 2.52 1.56 2.49.97-.02 2.47-5.04 4.09-4.9 5.12.46 4.66 9.78-6.44 9.78z"/><path class="ist1" d="M18.69 9.28c-1.62-.14-3.12 4.89-4.09 4.9-.39.02-.91-1.23-1.56-2.49-.66-1.28-1.44-2.55-2.36-2.49-2.08.14-2.81 4.89-3.16 5.16-.28.21-.61-.03-.89-.28-.26-.22-.47-.45-.54-.31-.14.28 1.92 2.07 2.31 1.44.72-1.12 1.57-4.38 2.34-4.4.89 0 1.96 4.57 3.77 4.58 1.06.01 1.92-1.19 2.62-2.39.71-1.21 1.25-2.41 1.7-2.39 3.06.14 2.9 6.89-5.95 6.85-3.18 0-8.37-1.32-8.49-4.87-.12-2.79 3.23-5.66 8.16-5.6 1.15.02 2.08.17 3.19.39.94.08 1.98.23 2.93.31l.11-.41 1.22.18-1.04-.49.6-.37c-.6-.46-1.13-1.07-1.98-1.4-.41-.12-.94-.17-1.47-.17-.35 0-.69.02-1 .04-.93.06-1.55.28-2.33.3-2.18.04-4.42.46-5.74.97-3.53 1.35-5 4.15-4.86 6.56.18 3.26 4.59 6.15 10.07 6.15 11.1 0 11.56-9.32 6.44-9.77zm-2.11-3.36c.17.01.31.1.3.2s-.15.17-.33.16c-.17-.01-.31-.1-.3-.2.01-.09.16-.17.33-.16z"/></svg><svg width="17" height="12" fill="none" viewBox="-1 -1 17 12" id="metro" x="129.52" y="84" xmlns="http://www.w3.org/2000/svg"><path d="M9.659 8.5v1.2h4.803V8.5h-.934L10.348.521 7.668 5.18 4.988.52l-3.182 7.98H.875v1.2h4.803V8.5H4.96l.7-1.99 2.008 3.282L9.678 6.51l.7 1.99H9.66z" fill="#fff"/></svg><svg width="28.26" height="50" fill="none" viewBox="-1.1 -1.1 31.21 55.21" id="nav-left" xmlns="http://www.w3.org/2000/svg"><path fill-rule="evenodd" clip-rule="evenodd" d="M28.121 1.379a3 3 0 010 4.242L7.243 26.5 28.12 47.379a3 3 0 11-4.242 4.242l-23-23a3 3 0 010-4.242l23-23a3 3 0 014.242 0z" fill="#D8D3AB"/></svg><svg width="24" height="40" fill="none" viewBox="-1 -1 24 40" id="nav-left-s" x="25" y="50" xmlns="http://www.w3.org/2000/svg"><path fill-rule="evenodd" clip-rule="evenodd" d="M21.121.879a3 3 0 010 4.242L7.243 19 21.12 32.879a3 3 0 11-4.242 4.242l-16-16a3 3 0 010-4.242l16-16a3 3 0 014.242 0z" fill="#D8D3AB"/></svg><svg width="28.26" height="50" fill="none" viewBox="-1.1 -1.1 31.21 55.21" id="nav-right" x="28.26" xmlns="http://www.w3.org/2000/svg"><path fill-rule="evenodd" clip-rule="evenodd" d="M.879 1.379a3 3 0 000 4.242L21.757 26.5.88 47.379A3 3 0 105.12 51.62l23-23a3 3 0 000-4.242l-23-23a3 3 0 00-4.242 0z" fill="#D8D3AB"/></svg><svg width="24" height="40" fill="none" viewBox="-1 -1 24 40" id="nav-right-s" x="49" y="50" xmlns="http://www.w3.org/2000/svg"><path fill-rule="evenodd" clip-rule="evenodd" d="M.879.879a3 3 0 000 4.242L14.757 19 .88 32.879A3 3 0 105.12 37.12l16-16a3 3 0 000-4.242l-16-16a3 3 0 00-4.242 0z" fill="#D8D3AB"/></svg><svg width="24" height="24" fill="none" viewBox="-1 -1 24 24" id="search" x="97" y="91" xmlns="http://www.w3.org/2000/svg"><path fill-rule="evenodd" clip-rule="evenodd" d="M9.23 16c4.042 0 7.232-3.181 7.232-7s-3.19-7-7.231-7C5.189 2 2 5.181 2 9s3.19 7 7.23 7zm0 2c5.099 0 9.232-4.03 9.232-9S14.329 0 9.23 0 0 4.03 0 9s4.133 9 9.23 9z" fill="#1B5773"/><path fill-rule="evenodd" clip-rule="evenodd" d="M20.33 21.235l-6.014-5.868 1.433-1.395 6.013 5.868-1.433 1.395z" fill="#1B5773"/></svg><svg width="31" height="18" fill="none" viewBox="-1 -1 31 18" id="slider-next" x="98.52000000000001" y="31" xmlns="http://www.w3.org/2000/svg"><path fill-rule="evenodd" clip-rule="evenodd" d="M22.343 15.071l6.364-6.364a1 1 0 000-1.414L22.343.929a1 1 0 10-1.414 1.414L25.586 7H0v2h25.586l-4.657 4.657a1 1 0 001.414 1.414z" fill="#fff"/></svg><svg width="31" height="18" fill="none" viewBox="-1 -1 31 18" id="slider-prev" x="98.52000000000001" y="49" xmlns="http://www.w3.org/2000/svg"><path fill-rule="evenodd" clip-rule="evenodd" d="M6.657 15.071L.293 8.707a1 1 0 010-1.414L6.657.929A1 1 0 018.07 2.343L3.414 7H29v2H3.414l4.657 4.657a1 1 0 01-1.414 1.414z" fill="#fff"/></svg><svg width="15" height="27" fill="none" viewBox="-1 -1 15 27" id="social-facebook" x="73" y="50" xmlns="http://www.w3.org/2000/svg"><path d="M8.539 24.595v-11.08h3.677l.546-4.318H8.539V6.44c0-1.245.343-2.096 2.119-2.096h2.26V.482c-.39-.047-1.73-.173-3.288-.173-3.257 0-5.486 2.017-5.486 5.705v3.183H.436v4.319h3.693v11.08h4.41z" fill="#fff"/></svg><svg width="15" height="27" fill="none" viewBox="-1 -1 15 27" id="social-facebook-active" y="91" xmlns="http://www.w3.org/2000/svg"><path d="M8.539 24.595v-11.08h3.677l.546-4.318H8.539V6.44c0-1.245.343-2.096 2.119-2.096h2.26V.482c-.39-.047-1.73-.173-3.288-.173-3.257 0-5.486 2.017-5.486 5.705v3.183H.436v4.319h3.693v11.08h4.41z" fill="#d8d3ab"/></svg><svg width="23" height="24" fill="none" viewBox="-1 -1 23 24" id="social-instagram" x="129.52" xmlns="http://www.w3.org/2000/svg"><path d="M10.775 2.584c2.712 0 3.024.016 4.099.063.982.048 1.527.205 1.885.347.468.19.81.41 1.17.772.358.363.576.694.763 1.182.14.363.311.899.343 1.907.046 1.088.062 1.403.062 4.145 0 2.743-.016 3.058-.063 4.145-.046.993-.202 1.545-.342 1.907-.187.473-.405.82-.764 1.182a3.105 3.105 0 01-1.169.773c-.358.141-.888.315-1.885.346-1.075.048-1.387.063-4.099.063-2.711 0-3.023-.015-4.098-.063-.982-.047-1.527-.205-1.885-.346-.468-.19-.81-.41-1.17-.773a3.147 3.147 0 01-.763-1.182c-.14-.362-.311-.898-.343-1.907-.046-1.087-.062-1.402-.062-4.145 0-2.742.016-3.057.062-4.145.047-.993.203-1.544.343-1.907.187-.473.405-.82.764-1.182a3.106 3.106 0 011.169-.772c.358-.142.888-.315 1.885-.347 1.06-.047 1.387-.063 4.098-.063zm0-1.844c-2.758 0-3.1.016-4.176.063-1.075.048-1.823.22-2.462.473a5.01 5.01 0 00-1.792 1.182 5.079 5.079 0 00-1.169 1.813C.927 4.917.756 5.673.71 6.76.662 7.848.646 8.21.646 10.985c0 2.79.016 3.136.063 4.223.047 1.088.218 1.844.467 2.49a5.078 5.078 0 001.169 1.813 5.01 5.01 0 001.792 1.182c.639.252 1.387.425 2.462.473 1.075.047 1.434.063 4.176.063 2.743 0 3.101-.016 4.177-.063 1.075-.047 1.823-.22 2.462-.473a5.011 5.011 0 001.792-1.182 5.08 5.08 0 001.169-1.813c.249-.646.42-1.402.467-2.49.047-1.087.063-1.45.063-4.223 0-2.774-.016-3.137-.063-4.224-.047-1.088-.218-1.844-.467-2.49a5.08 5.08 0 00-1.17-1.813 5.01 5.01 0 00-1.791-1.182c-.639-.252-1.387-.425-2.462-.473C13.877.756 13.518.74 10.775.74z" fill="#fff"/><path d="M10.777 5.736C7.894 5.736 5.572 8.1 5.572 11c0 2.9 2.338 5.264 5.205 5.264S15.982 13.9 15.982 11c0-2.9-2.338-5.264-5.205-5.264zm0 8.684c-1.87 0-3.382-1.528-3.382-3.42 0-1.89 1.512-3.42 3.382-3.42s3.382 1.53 3.382 3.42c0 1.892-1.512 3.42-3.382 3.42zM16.184 6.745c.671 0 1.216-.55 1.216-1.23 0-.678-.544-1.229-1.216-1.229-.671 0-1.215.55-1.215 1.23 0 .678.544 1.229 1.215 1.229z" fill="#fff"/></svg><svg width="23" height="24" fill="none" viewBox="-1 -1 23 24" id="social-instagram-active" x="129.52" y="24" xmlns="http://www.w3.org/2000/svg"><path d="M10.775 2.584c2.712 0 3.024.016 4.099.063.982.048 1.527.205 1.885.347.468.19.81.41 1.17.772.358.363.576.694.763 1.182.14.363.311.899.343 1.907.046 1.088.062 1.403.062 4.145 0 2.743-.016 3.058-.063 4.145-.046.993-.202 1.545-.342 1.907-.187.473-.405.82-.764 1.182a3.105 3.105 0 01-1.169.773c-.358.141-.888.315-1.885.346-1.075.048-1.387.063-4.099.063-2.711 0-3.023-.015-4.098-.063-.982-.047-1.527-.205-1.885-.346-.468-.19-.81-.41-1.17-.773a3.147 3.147 0 01-.763-1.182c-.14-.362-.311-.898-.343-1.907-.046-1.087-.062-1.402-.062-4.145 0-2.742.016-3.057.062-4.145.047-.993.203-1.544.343-1.907.187-.473.405-.82.764-1.182a3.106 3.106 0 011.169-.772c.358-.142.888-.315 1.885-.347 1.06-.047 1.387-.063 4.098-.063zm0-1.844c-2.758 0-3.1.016-4.176.063-1.075.048-1.823.22-2.462.473a5.01 5.01 0 00-1.792 1.182 5.079 5.079 0 00-1.169 1.813C.927 4.917.756 5.673.71 6.76.662 7.848.646 8.21.646 10.985c0 2.79.016 3.136.063 4.223.047 1.088.218 1.844.467 2.49a5.078 5.078 0 001.169 1.813 5.01 5.01 0 001.792 1.182c.639.252 1.387.425 2.462.473 1.075.047 1.434.063 4.176.063 2.743 0 3.101-.016 4.177-.063 1.075-.047 1.823-.22 2.462-.473a5.011 5.011 0 001.792-1.182 5.08 5.08 0 001.169-1.813c.249-.646.42-1.402.467-2.49.047-1.087.063-1.45.063-4.223 0-2.774-.016-3.137-.063-4.224-.047-1.088-.218-1.844-.467-2.49a5.08 5.08 0 00-1.17-1.813 5.01 5.01 0 00-1.791-1.182c-.639-.252-1.387-.425-2.462-.473C13.877.756 13.518.74 10.775.74z" fill="#d8d3ab"/><path d="M10.777 5.736C7.894 5.736 5.572 8.1 5.572 11c0 2.9 2.338 5.264 5.205 5.264S15.982 13.9 15.982 11c0-2.9-2.338-5.264-5.205-5.264zm0 8.684c-1.87 0-3.382-1.528-3.382-3.42 0-1.89 1.512-3.42 3.382-3.42s3.382 1.53 3.382 3.42c0 1.892-1.512 3.42-3.382 3.42zM16.184 6.745c.671 0 1.216-.55 1.216-1.23 0-.678-.544-1.229-1.216-1.229-.671 0-1.215.55-1.215 1.23 0 .678.544 1.229 1.215 1.229z" fill="#d8d3ab"/></svg><svg width="15" height="25" fill="none" viewBox="-1 -1 15 25" id="social-ok" x="67" y="91" xmlns="http://www.w3.org/2000/svg"><path d="M6.43 11.483c3.072 0 5.566-2.522 5.566-5.628 0-3.106-2.494-5.629-5.565-5.629S.865 2.75.865 5.855c0 3.122 2.495 5.628 5.566 5.628zm0-7.946c1.263 0 2.308 1.04 2.308 2.334 0 1.277-1.03 2.333-2.307 2.333-1.263 0-2.308-1.04-2.308-2.333a2.315 2.315 0 012.308-2.334zM8.674 16.072c1.138-.268 2.23-.71 3.227-1.356a1.652 1.652 0 00.515-2.27 1.612 1.612 0 00-2.245-.52 6.978 6.978 0 01-7.483 0 1.612 1.612 0 00-2.245.52 1.652 1.652 0 00.515 2.27c.998.63 2.104 1.088 3.227 1.356l-3.118 3.153a1.66 1.66 0 000 2.334c.312.315.733.488 1.154.488.42 0 .841-.157 1.153-.488l3.056-3.09 3.055 3.09c.64.646 1.668.646 2.307 0a1.66 1.66 0 000-2.334l-3.118-3.153z" fill="#fff"/></svg><svg width="15" height="25" fill="none" viewBox="-1 -1 15 25" id="social-ok-active" x="82" y="91" xmlns="http://www.w3.org/2000/svg"><path d="M6.43 11.483c3.072 0 5.566-2.522 5.566-5.628 0-3.106-2.494-5.629-5.565-5.629S.865 2.75.865 5.855c0 3.122 2.495 5.628 5.566 5.628zm0-7.946c1.263 0 2.308 1.04 2.308 2.334 0 1.277-1.03 2.333-2.307 2.333-1.263 0-2.308-1.04-2.308-2.333a2.315 2.315 0 012.308-2.334zM8.674 16.072c1.138-.268 2.23-.71 3.227-1.356a1.652 1.652 0 00.515-2.27 1.612 1.612 0 00-2.245-.52 6.978 6.978 0 01-7.483 0 1.612 1.612 0 00-2.245.52 1.652 1.652 0 00.515 2.27c.998.63 2.104 1.088 3.227 1.356l-3.118 3.153a1.66 1.66 0 000 2.334c.312.315.733.488 1.154.488.42 0 .841-.157 1.153-.488l3.056-3.09 3.055 3.09c.64.646 1.668.646 2.307 0a1.66 1.66 0 000-2.334l-3.118-3.153z" fill="#d8d3ab"/></svg><svg width="28" height="17" fill="none" viewBox="-1 -1 28 17" id="social-vk" x="98.52000000000001" y="67" xmlns="http://www.w3.org/2000/svg"><path fill-rule="evenodd" clip-rule="evenodd" d="M13.026 14.789h1.496s.452-.048.686-.3c.218-.236.203-.662.203-.662s-.032-2.033.903-2.332c.92-.3 2.104 1.97 3.35 2.837.951.661 1.668.52 1.668.52l3.35-.048s1.746-.11.92-1.497c-.063-.11-.483-1.024-2.494-2.916-2.103-1.97-1.823-1.654.717-5.059 1.543-2.08 2.15-3.341 1.964-3.893-.187-.52-1.31-.378-1.31-.378l-3.77.032s-.28-.032-.483.094c-.203.126-.328.41-.328.41s-.592 1.608-1.386 2.979c-1.684 2.884-2.354 3.042-2.619 2.852-.638-.41-.482-1.67-.482-2.569 0-2.79.42-3.955-.81-4.255-.406-.094-.718-.173-1.762-.173-1.34-.016-2.477 0-3.132.33-.436.206-.764.694-.56.71.248.031.81.158 1.105.567.39.536.374 1.718.374 1.718s.219 3.294-.514 3.704c-.514.284-1.2-.3-2.696-2.916-.763-1.34-1.34-2.82-1.34-2.82s-.109-.285-.311-.426c-.234-.174-.577-.237-.577-.237l-3.584.016s-.546.016-.733.252c-.171.205-.015.646-.015.646S3.66 8.61 6.84 11.952c2.883 3.041 6.186 2.837 6.186 2.837z" fill="#fff"/></svg><svg width="28" height="17" fill="none" viewBox="-1 -1 28 17" id="social-vk-active" x="56.52" y="31" xmlns="http://www.w3.org/2000/svg"><path fill-rule="evenodd" clip-rule="evenodd" d="M13.026 14.789h1.496s.452-.048.686-.3c.218-.236.203-.662.203-.662s-.032-2.033.903-2.332c.92-.3 2.104 1.97 3.35 2.837.951.661 1.668.52 1.668.52l3.35-.048s1.746-.11.92-1.497c-.063-.11-.483-1.024-2.494-2.916-2.103-1.97-1.823-1.654.717-5.059 1.543-2.08 2.15-3.341 1.964-3.893-.187-.52-1.31-.378-1.31-.378l-3.77.032s-.28-.032-.483.094c-.203.126-.328.41-.328.41s-.592 1.608-1.386 2.979c-1.684 2.884-2.354 3.042-2.619 2.852-.638-.41-.482-1.67-.482-2.569 0-2.79.42-3.955-.81-4.255-.406-.094-.718-.173-1.762-.173-1.34-.016-2.477 0-3.132.33-.436.206-.764.694-.56.71.248.031.81.158 1.105.567.39.536.374 1.718.374 1.718s.219 3.294-.514 3.704c-.514.284-1.2-.3-2.696-2.916-.763-1.34-1.34-2.82-1.34-2.82s-.109-.285-.311-.426c-.234-.174-.577-.237-.577-.237l-3.584.016s-.546.016-.733.252c-.171.205-.015.646-.015.646S3.66 8.61 6.84 11.952c2.883 3.041 6.186 2.837 6.186 2.837z" fill="#d8d3ab"/></svg><svg width="11" height="12" fill="none" viewBox="-1 -1 11 12" id="submenu" x="84.52000000000001" y="31" xmlns="http://www.w3.org/2000/svg"><path fill-rule="evenodd" clip-rule="evenodd" d="M0 1a1 1 0 011-1h7a1 1 0 010 2H1a1 1 0 01-1-1zM0 5a1 1 0 011-1h4a1 1 0 010 2H1a1 1 0 01-1-1zM0 9a1 1 0 011-1h7a1 1 0 010 2H1a1 1 0 01-1-1z" fill="#A03339"/></svg></svg>