<svg width="60" height="60" viewBox="0 0 60 60" fill="none" xmlns="http://www.w3.org/2000/svg">
<g clip-path="url(#clip0)">
<path d="M29.9846 31.5428C31.5361 31.5428 33.0639 30.9274 34.0544 29.7899C34.6919 29.0577 34.6151 27.9473 33.8829 27.3098C33.1506 26.6723 32.0404 26.7491 31.4029 27.4813C30.8157 28.1558 29.2613 28.2449 28.5979 27.482C27.9607 26.7496 26.8505 26.672 26.118 27.3091C25.3854 27.9463 25.3081 29.0565 25.9451 29.7891C26.8718 30.8548 28.3373 31.5428 29.9846 31.5428Z" fill="#A22D2F"/>
<path d="M53.5633 57.8518C51.4021 48.3616 51.5359 48.9309 51.4961 48.8113C50.5298 45.9008 48.3323 43.6058 45.4677 42.5149L35.6001 38.7533V36.6222C40.0925 34.6593 43.3716 30.4044 43.9218 25.2691H44.5872C47.495 25.2691 49.8607 22.9035 49.8607 19.9957C49.8607 17.0879 47.495 14.7223 44.5872 14.7223H44.0013C44.0013 13.6119 43.871 14.9796 44.9969 5.5623C45.3506 2.60426 43.0368 0 40.0599 0H19.9405C16.9614 0 14.6503 2.60613 15.0035 5.56195C16.1281 14.9748 15.9982 13.6087 15.9982 14.7223H15.4122C12.5045 14.7223 10.1388 17.0879 10.1388 19.9957C10.1388 22.9035 12.5045 25.2691 15.4122 25.2691H16.077C16.6002 30.2568 19.7421 34.5884 24.3993 36.6206V38.7533L14.5324 42.5147C11.6672 43.6058 9.46965 45.9009 8.50332 48.8113C8.46371 48.9306 8.59813 48.358 6.43614 57.8518C6.18582 58.9512 7.02242 60 8.15012 60H51.8493C52.9767 60 53.8136 58.9515 53.5633 57.8518ZM32.0845 37.6352V39.9645C32.0845 41.1146 31.1493 42.0504 29.9997 42.0504C28.8501 42.0504 27.915 41.1146 27.915 39.9645V37.6349C29.2905 37.8405 30.7653 37.8323 32.0845 37.6352ZM44.5872 18.2379C45.5565 18.2379 46.345 19.0264 46.345 19.9957C46.345 20.965 45.5565 21.7535 44.5872 21.7535H44.0013V18.2379H44.5872ZM19.9405 3.51562H40.0599C40.9334 3.51562 41.6101 4.27559 41.5061 5.145L40.6834 12.027H34.9931C34.2732 9.9157 32.2764 8.45039 29.9997 8.45039C27.7075 8.45039 25.7217 9.92906 25.0064 12.027H19.3166L18.4943 5.14488C18.3907 4.27758 19.0651 3.51562 19.9405 3.51562ZM28.2429 13.7557C28.2426 13.7438 28.2424 13.7318 28.2419 13.72C28.244 12.7525 29.0319 11.966 29.9997 11.966C30.9712 11.966 31.7518 12.7546 31.7575 13.7224V13.7231C31.7572 13.734 31.7568 13.7448 31.7567 13.7557C31.741 14.7074 30.9528 15.4816 29.9998 15.4816C29.0469 15.4816 28.2587 14.7074 28.2429 13.7557ZM13.6544 19.9957C13.6544 19.0264 14.443 18.2379 15.4122 18.2379H15.9982V21.7535H15.4122C14.443 21.7535 13.6544 20.965 13.6544 19.9957ZM19.5138 23.5113C19.5138 21.562 19.5138 16.4041 19.5138 15.5426H25.0543C25.8015 17.553 27.7464 18.9973 29.9997 18.9973C32.2531 18.9973 34.1981 17.553 34.9453 15.5426H40.4857C40.4857 24.5291 40.5194 24.2311 40.3971 25.1484C39.7345 30.2816 35.3459 34.2738 29.9997 34.2738C24.5117 34.2738 19.5138 30.0002 19.5138 23.5113ZM11.8655 49.8432C12.5104 47.9753 13.9344 46.5043 15.7841 45.7999L24.9192 42.3176C25.5666 43.7104 26.7695 44.7936 28.2418 45.2818V56.4844H10.3532L11.8655 49.8432ZM31.7575 56.4844V45.2818C33.23 44.7936 34.4328 43.7104 35.0802 42.3176L44.2159 45.8002C46.065 46.5043 47.489 47.9753 48.1339 49.8432L49.6462 56.4844H31.7575Z" fill="#A22D2F"/>
<path d="M42.1689 48.252H36.7188C35.748 48.252 34.9609 49.039 34.9609 50.0098C34.9609 50.9805 35.748 51.7676 36.7188 51.7676H42.1689C43.1397 51.7676 43.9267 50.9805 43.9267 50.0098C43.9267 49.039 43.1397 48.252 42.1689 48.252Z" fill="#A22D2F"/>
</g>
<defs>
<clipPath id="clip0">
<rect width="60" height="60" fill="white"/>
</clipPath>
</defs>
</svg>
