<svg width="60" height="60" viewBox="0 0 60 60" fill="none" xmlns="http://www.w3.org/2000/svg">
<path d="M51.2132 8.78679C45.547 3.12055 38.0132 0 30 0C21.9868 0 14.453 3.12055 8.78679 8.78679C3.12055 14.453 0 21.9868 0 30C0 38.0132 3.12055 45.547 8.78679 51.2132C14.453 56.8795 21.9866 60 30 60C38.0134 60 45.547 56.8795 51.2132 51.2132C56.8795 45.547 60 38.0132 60 30C60 21.9868 56.8795 14.453 51.2132 8.78679ZM48.7281 48.728C43.7256 53.7304 37.0745 56.4855 30 56.4855C22.9255 56.4855 16.2744 53.7304 11.272 48.728C6.26956 43.7256 3.51453 37.0745 3.51453 30C3.51453 22.9255 6.26956 16.2744 11.272 11.272C16.2744 6.26956 22.9255 3.51453 30 3.51453C37.0746 3.51453 43.7256 6.26956 48.7281 11.272C53.7304 16.2744 56.4855 22.9256 56.4855 30C56.4855 37.0744 53.7304 43.7256 48.7281 48.728Z" fill="#A22D2F"/>
<path d="M47.1495 22.084H37.9504V12.8849C37.9504 11.9145 37.1636 11.1277 36.1932 11.1277H23.9167C22.9462 11.1277 22.1594 11.9145 22.1594 12.8849V22.084H12.9604C11.9899 22.084 11.2031 22.8708 11.2031 23.8413V36.1177C11.2031 37.0882 11.9899 37.875 12.9604 37.875H22.1594V47.0739C22.1594 48.0444 22.9462 48.8312 23.9167 48.8312H36.1932C37.1636 48.8312 37.9504 48.0444 37.9504 47.0739V37.875H47.1495C48.12 37.875 48.9067 37.0882 48.9067 36.1177V23.8413C48.9067 22.8708 48.12 22.084 47.1495 22.084ZM45.3922 34.3605H36.1932C35.2227 34.3605 34.4359 35.1472 34.4359 36.1177V45.3167H25.674V36.1177C25.674 35.1472 24.8872 34.3605 23.9167 34.3605H14.7177V25.5985H23.9167C24.8872 25.5985 25.674 24.8117 25.674 23.8413V14.6422H34.4359V23.8413C34.4359 24.8117 35.2227 25.5985 36.1932 25.5985H45.3922V34.3605Z" fill="#A22D2F"/>
</svg>
