<?xml version="1.0" encoding="utf-8"?>
<!-- Generator: Adobe Illustrator 13.0.0, SVG Export Plug-In . SVG Version: 6.00 Build 14948)  -->
<!DOCTYPE svg PUBLIC "-//W3C//DTD SVG 1.1//EN" "http://www.w3.org/Graphics/SVG/1.1/DTD/svg11.dtd">
<svg version="1.1" id="Layer_1" xmlns="http://www.w3.org/2000/svg" xmlns:xlink="http://www.w3.org/1999/xlink" x="0px" y="0px"
	 width="350.585px" height="49.709px" viewBox="0 0 350.585 49.709" enable-background="new 0 0 350.585 49.709"
	 xml:space="preserve">
<path fill="#FFFFFF" d="M0,2.437v44.473c0,1.326,1.077,2.403,2.403,2.403h44.473c1.327,0,2.404-1.077,2.404-2.403V2.437
	c0-1.327-1.077-2.404-2.404-2.404H2.403C1.077,0.032,0,1.109,0,2.437"/>
<path fill="#BBBDBF" d="M36.99,2.527c-0.078,0.285,0.484,0.698,1.423,0.736c1.268,0.052,1.781-0.013,1.853-0.293
	c0.067-0.28-0.601-0.607-1.514-0.834C37.841,1.919,37.05,2.252,36.99,2.527"/>
<path fill="#BBBDBF" d="M9.464,4.389C13.499,2.578,20.359,1.074,27.037,1c2.1-0.064,3.808-0.667,6.08-0.967H2.403
	C1.079,0.033,0,1.109,0,2.439v9.073C2.342,8.653,5.472,6.17,9.464,4.389"/>
<path fill="#BBBDBF" d="M41.726,0.366c2.611,1.144,4.23,3.31,6.066,4.958L45.95,6.627l3.184,1.726l-3.738-0.65L45.05,9.157
	c-2.907-0.289-6.086-0.804-8.959-1.093c-3.398-0.781-6.221-1.297-9.755-1.375C11.232,6.474,1,16.698,1.354,26.573
	C1.701,39.177,17.586,43.866,27.312,43.87c12.228,0.068,19.035-4.779,21.968-10.169V21.474c-0.934-1.143-2.209-1.866-3.751-1.945
	c-2.688-0.127-6.711,17.069-13.212,17.004c-5.559-0.058-8.817-16.289-11.541-16.289c-2.329,0.056-4.958,11.66-7.149,15.631
	c-1.194,2.229-7.47-4.104-7.046-5.113c0.424-1.001,2.743,3.511,4.367,2.093c1.069-0.951,3.327-17.813,9.672-18.327
	c5.576-0.424,9.591,17.911,12.001,17.738c2.954-0.065,7.545-17.93,12.498-17.438c1.564,0.16,2.954,0.64,4.162,1.365V2.438
	c0-1.328-1.076-2.406-2.401-2.406h-6.465C40.879,0.119,41.328,0.224,41.726,0.366"/>
<path fill="#BBBDBF" d="M30.402,49.313h16.477c1.325,0,2.401-1.079,2.401-2.403v-6.204C45.351,45.009,39.181,48.384,30.402,49.313"
	/>
<path fill="#BBBDBF" d="M0,39.56v7.35c0,1.324,1.077,2.403,2.403,2.403h18.416C12.164,48.327,4.728,44.614,0,39.56"/>
<g>
	<path fill="#808183" d="M94.276,16.715C95.2,17.641,95.2,18.75,95.2,21.526h-0.741c-0.183-3.146-2.22-4.628-4.808-4.628
		c-3.704,0-5.369,3.332-5.369,7.589c0,4.256,1.665,7.589,5.369,7.589c2.588,0,4.068-1.11,5.365-2.962l0.74,0.554
		c-1.665,2.778-3.889,3.887-6.85,3.887c-5.548,0-8.14-4.07-8.14-9.067c0-4.997,2.591-9.068,8.14-9.068
		C91.499,15.419,93.35,15.791,94.276,16.715"/>
	<path fill="#808183" d="M107.602,33.186h-0.744l-6.292-13.881v13.881h-1.479V15.791h3.514l5.554,12.212l5.552-12.212h3.332v11.844
		c0,2.775,1.107,5.551,2.777,5.551v0.74c-4.627,0-6.109-2.404-6.109-6.291v-7.958L107.602,33.186z"/>
	<rect x="121.479" y="22.081" fill="#808183" width="9.437" height="2.593"/>
	<path fill="#808183" d="M147.019,16.715c0.923,0.926,0.923,2.035,0.923,4.811h-0.74c-0.184-3.146-2.221-4.628-4.811-4.628
		c-3.702,0-5.367,3.332-5.367,7.589c0,4.256,1.665,7.589,5.367,7.589c2.59,0,4.07-1.11,5.367-2.962l0.74,0.554
		c-1.665,2.778-3.891,3.887-6.85,3.887c-5.549,0-8.142-4.07-8.142-9.067c0-4.997,2.593-9.068,8.142-9.068
		C144.241,15.419,146.092,15.791,147.019,16.715"/>
	<path fill="#808183" d="M154.234,17.271c-2.223,0-3.888,1.296-3.888,3.7h-0.738V18.75c0-1.479,0.555-2.96,2.773-2.96h13.143v1.481
		h-6.107v15.915h-3.33V17.271H154.234z"/>
	<path fill="#808183" d="M174.774,16.901c-2.773,0-4.626,3.329-4.626,7.585c0,4.256,1.854,7.59,4.626,7.59
		c2.778,0,4.626-3.334,4.626-7.59C179.4,20.23,177.552,16.901,174.774,16.901 M174.774,15.419c5.183,0,8.144,4.07,8.144,9.067
		c0,4.998-2.961,9.07-8.144,9.07c-5.183,0-8.142-4.072-8.142-9.07C166.632,19.49,169.591,15.419,174.774,15.419"/>
	<path fill="#808183" d="M195.13,33.186h-0.738l-6.295-13.881v13.881h-1.48V15.791h3.52l5.551,12.212l5.553-12.212h3.332v11.844
		c0,2.775,1.108,5.551,2.773,5.551v0.74c-4.626,0-6.105-2.404-6.105-6.291v-7.958L195.13,33.186z"/>
	<path fill="#808183" d="M219.56,24.673h-1.109c-3.701,0-5.928,1.481-5.928,3.703c0,2.402,1.67,3.513,3.52,3.513
		c1.852,0,2.775-1.11,3.518-2.221V24.673z M221.037,33.186l-1.293-1.664h-0.184c-0.742,0.925-2.406,2.035-5.184,2.035
		c-2.033,0-5.367-1.11-5.367-5.181c0-4.072,4.443-5.183,9.441-5.183h1.109c0-5.181-1.666-6.292-3.887-6.292
		c-2.037,0-3.518,0.74-4.074,3.146h-1.662c0-1.297,0-2.406,0.924-3.332c0.924-0.925,3.332-1.296,5.553-1.296
		c3.33,0,6.477,1.11,6.477,7.774v9.992H221.037z"/>
	<path fill="#808183" d="M229.738,17.271c-2.222,0-3.887,1.296-3.887,3.7h-0.738V18.75c0-1.479,0.553-2.96,2.774-2.96h13.142v1.481
		h-6.107v15.915h-3.33V17.271H229.738z"/>
	<path fill="#808183" d="M250.279,16.901c-2.773,0-4.627,3.329-4.627,7.585c0,4.256,1.854,7.59,4.627,7.59
		c2.777,0,4.625-3.334,4.625-7.59C254.904,20.23,253.056,16.901,250.279,16.901 M250.279,15.419c5.182,0,8.143,4.07,8.143,9.067
		c0,4.998-2.961,9.07-8.143,9.07s-8.143-4.072-8.143-9.07C242.136,19.49,245.097,15.419,250.279,15.419"/>
	<path fill="#808183" d="M266.935,21.712c0,8.882-1.482,11.845-4.996,11.845c-0.557,0-1.484-0.186-2.037-0.371V32.26
		c2.775-0.184,3.883-3.146,3.883-12.03c0-2.218-0.367-3.7-2.623-3.7v-0.739h15.027v17.395h-3.331V17.272h-5.923V21.712z"/>
	<path fill="#808183" d="M288.4,16.901c-2.775,0-4.623,3.329-4.623,7.585c0,4.256,1.848,7.59,4.623,7.59
		c2.777,0,4.631-3.334,4.631-7.59C293.031,20.23,291.177,16.901,288.4,16.901 M288.4,15.419c5.188,0,8.145,4.07,8.145,9.067
		c0,4.998-2.957,9.07-8.145,9.07c-5.18,0-8.141-4.072-8.141-9.07C280.259,19.49,283.22,15.419,288.4,15.419"/>
	<path fill="#808183" d="M300.248,20.231c0-2.222-0.369-3.7-2.594-3.7h-0.367v-0.739H309.5c2.221,0,2.777,1.479,2.777,2.958v2.224
		h-0.74c0-2.408-1.67-3.703-3.887-3.703h-4.073v15.916h-3.329V20.231z"/>
	<path fill="#808183" d="M326.71,19.123l-7.773,14.063h-3.33V20.233c0-2.222-0.371-3.703-2.594-3.703h-0.553v-0.74h3.146
		c2.59,0,3.33,0.74,3.33,4.443v9.622l7.773-14.065h3.33v17.396h-3.33V19.123z"/>
	<path fill="#808183" d="M344.66,17.455c-0.555-0.183-1.664-0.367-2.406-0.367c-2.59,0-4.254,1.109-4.254,3.699
		c0,2.592,1.664,3.7,4.254,3.7c0.742,0,1.852-0.183,2.406-0.367V17.455z M347.992,33.186h-3.332v-7.403h-2.889l-2.219,4.443
		c-1.109,2.221-2.406,3.331-4.514,3.331c-0.742,0-1.482-0.186-2.037-0.371v-0.739c1.664-0.187,2.777-1.668,3.518-2.962l2.221-3.887
		c-2.221-0.369-4.258-2.035-4.258-4.811c0-3.886,3.33-4.996,7.4-4.996h8.703v0.739c-2.223,0-2.594,1.482-2.594,3.7V33.186z"/>
</g>
<g>
	<rect x="65.569" fill="#893439" width="1.417" height="49.709"/>
</g>
</svg>
