<?xml version="1.0" encoding="utf-8"?>
<!-- Generator: Adobe Illustrator 24.0.2, SVG Export Plug-In . SVG Version: 6.00 Build 0)  -->
<svg version="1.1" id="Слой_1" xmlns="http://www.w3.org/2000/svg" xmlns:xlink="http://www.w3.org/1999/xlink" x="0px" y="0px"
	 viewBox="0 0 24 24" style="enable-background:new 0 0 24 24;" xml:space="preserve">
<style type="text/css">
	.st0{fill-rule:evenodd;clip-rule:evenodd;fill:#FFFFFF;}
	.st1{fill-rule:evenodd;clip-rule:evenodd;fill:#C3BEBA;}
	.st2{fill-rule:evenodd;clip-rule:evenodd;fill:#98DDDA;}
</style>
<path class="st0" d="M18.69,9.25c-1.62-0.14-3.12,4.89-4.09,4.9c-0.39,0.02-0.91-1.23-1.56-2.49c-0.66-1.28-1.44-2.55-2.36-2.49
	c-2.08,0.14-2.81,4.89-3.16,5.16c-0.28,0.21-0.61-0.03-0.89-0.28c-0.26-0.22-0.47-0.45-0.54-0.31c-0.14,0.28,1.92,2.07,2.31,1.44
	c0.72-1.12,1.57-4.38,2.34-4.4c0.89,0,1.96,4.57,3.77,4.58c1.06,0.01,1.92-1.19,2.62-2.39c0.71-1.21,1.25-2.41,1.7-2.39
	c3.06,0.14,2.9,6.89-5.95,6.85c-3.18,0-8.37-1.32-8.49-4.87c-0.12-2.78,3.23-5.66,8.16-5.6c1.15,0.02,2.08,0.17,3.19,0.39
	c0.94,0.08,1.98,0.23,2.93,0.31l0.11-0.41L20,7.43l-1.04-0.49l0.6-0.37c-0.6-0.46-1.13-1.07-1.98-1.4C17.17,5.05,16.64,5,16.11,5
	c-0.35,0-0.69,0.02-1,0.04c-0.93,0.06-1.55,0.28-2.33,0.3C10.6,5.38,8.36,5.81,7.04,6.32c-3.53,1.35-5,4.15-4.86,6.56
	c0.18,3.26,4.59,6.15,10.07,6.15C23.35,19.03,23.81,9.7,18.69,9.25z M16.58,5.9c0.17,0.01,0.31,0.1,0.3,0.2s-0.15,0.17-0.33,0.16
	c-0.17-0.01-0.31-0.1-0.3-0.2S16.41,5.89,16.58,5.9z"/>
<g>
	<path class="st1" d="M4.39,12.56C4.5,15.8,8.83,17.17,12,17.39v-4.86c-0.48-0.94-0.89-1.75-1.26-1.75
		c-0.76,0.02-1.62,3.28-2.34,4.4c-0.39,0.63-2.44-1.16-2.31-1.44c0.07-0.14,0.28,0.09,0.54,0.31c0.28,0.24,0.62,0.48,0.89,0.28
		c0.35-0.27,1.09-5.01,3.16-5.16C11.16,9.14,11.6,9.46,12,9.96V6.98C7.37,7.13,4.28,9.89,4.39,12.56z"/>
	<path class="st1" d="M2.18,12.88c-0.14-2.41,1.34-5.21,4.86-6.56C8.2,5.87,10.08,5.49,12,5.39V0.02c-6.63,0-12,5.37-12,12
		s5.37,12,12,12v-5C6.63,18.93,2.36,16.09,2.18,12.88z"/>
</g>
<g>
	<path class="st2" d="M18.83,10.57c-0.44-0.02-0.99,1.19-1.7,2.39c-0.7,1.2-1.56,2.4-2.62,2.39c-1.05-0.01-1.85-1.54-2.51-2.83v4.86
		c0.3,0.02,0.6,0.03,0.87,0.03C21.73,17.47,21.89,10.71,18.83,10.57z"/>
	<path class="st2" d="M16.88,6.1c0.01-0.1-0.13-0.19-0.3-0.2c-0.17-0.01-0.32,0.06-0.33,0.16s0.13,0.19,0.3,0.2
		C16.73,6.27,16.88,6.2,16.88,6.1z"/>
	<path class="st2" d="M12-0.02v5.41c0.26-0.01,0.52-0.02,0.78-0.02c0.79-0.02,1.41-0.24,2.33-0.3c0.31-0.02,0.65-0.04,1-0.04
		c0.53,0,1.06,0.04,1.47,0.17c0.85,0.32,1.38,0.93,1.98,1.4l-0.6,0.37L20,7.46l-1.22-0.18l-0.11,0.41
		c-0.95-0.08-1.99-0.23-2.93-0.31c-1.11-0.22-2.03-0.37-3.19-0.39C12.36,6.99,12.18,7,12,7v2.98c0.38,0.47,0.73,1.08,1.05,1.7
		c0.65,1.26,1.17,2.52,1.56,2.49c0.97-0.02,2.47-5.04,4.09-4.9c5.12,0.45,4.65,9.78-6.45,9.77c-0.08,0-0.16-0.01-0.25-0.01v4.96
		c6.63,0,12-5.37,12-12C24,5.35,18.63-0.02,12-0.02z"/>
</g>
</svg>
