<svg width="49" height="62" viewBox="0 0 49 62" fill="none" xmlns="http://www.w3.org/2000/svg">
<g filter="url(#filter0_d)">
<path d="M24.35 8C16.4268 8 10 14.4268 10 22.35C10 33.1125 24.35 49 24.35 49C24.35 49 38.7 33.1125 38.7 22.35C38.7001 14.4268 32.2733 8 24.35 8Z" fill="#71CECE"/>
<path d="M24.35 49L23.6079 49.6703L24.35 50.4919L25.0921 49.6703L24.35 49ZM24.35 49C25.0921 49.6703 25.0923 49.6701 25.0925 49.6699L25.0932 49.6691L25.0956 49.6664L25.1043 49.6567L25.1369 49.6204C25.1653 49.5886 25.2068 49.5419 25.2606 49.481C25.3683 49.3591 25.5252 49.18 25.7242 48.949C26.1222 48.4871 26.6891 47.8169 27.3686 46.9796C28.7268 45.3061 30.5394 42.9597 32.354 40.2702C34.1666 37.5837 35.9936 34.5367 37.3704 31.4633C38.7414 28.4031 39.7 25.243 39.7 22.35C39.7001 13.8745 32.8256 7 24.35 7C15.8745 7 9 13.8745 9 22.35C9 25.243 9.9586 28.4031 11.3296 31.4633C12.7064 34.5367 14.5334 37.5837 16.346 40.2702C18.1606 42.9597 19.9732 45.3061 21.3313 46.9796C22.0109 47.8169 22.5778 48.4871 22.9758 48.949C23.1748 49.18 23.3317 49.3591 23.4393 49.481C23.4932 49.5419 23.5347 49.5886 23.5631 49.6204L23.5957 49.6567L23.6044 49.6664L23.6068 49.6691L23.6075 49.6699C23.6077 49.6701 23.6079 49.6703 24.35 49Z" stroke="white" stroke-width="2"/>
</g>
<mask id="mask0" mask-type="alpha" maskUnits="userSpaceOnUse" x="10" y="8" width="14" height="42">
<rect x="10" y="8" width="14" height="42" fill="#C4C4C4"/>
</mask>
<g mask="url(#mask0)">
<path d="M24.35 8C16.4268 8 10 14.4268 10 22.35C10 33.1125 24.35 49 24.35 49C24.35 49 38.7 33.1125 38.7 22.35C38.7001 14.4268 32.2733 8 24.35 8Z" fill="#71CECE"/>
</g>
<mask id="mask1" mask-type="alpha" maskUnits="userSpaceOnUse" x="24" y="8" width="15" height="42">
<rect width="15" height="42" transform="matrix(-1 0 0 1 39 8)" fill="#C4C4C4"/>
</mask>
<g mask="url(#mask1)">
<path d="M24.35 8C16.4268 8 10 14.4268 10 22.35C10 33.1125 24.35 49 24.35 49C24.35 49 38.7 33.1125 38.7 22.35C38.7001 14.4268 32.2733 8 24.35 8Z" fill="#B0B0B0"/>
</g>
<path fill-rule="evenodd" clip-rule="evenodd" d="M30.531 19.3054C29.0353 19.1481 27.6512 24.9259 26.7587 24.9474C26.3976 24.9736 25.9173 23.5268 25.3198 22.0775C24.7147 20.6092 23.9867 19.1409 23.1396 19.2101C21.2223 19.3745 20.5397 24.833 20.2182 25.1381C19.9649 25.3764 19.6548 25.0975 19.3957 24.821C19.1556 24.5636 18.9608 24.3062 18.8984 24.4635C18.7717 24.7877 20.6683 26.84 21.0275 26.1177C21.6874 24.833 22.4816 21.0788 23.1831 21.0621C24.0056 21.0621 24.9889 26.3132 26.6661 26.3322C27.6455 26.3418 28.4378 24.9617 29.0883 23.5816C29.7406 22.1943 30.2474 20.8095 30.6539 20.8309C33.4826 20.9906 33.3332 28.7564 25.1572 28.7063C22.2225 28.7063 17.4292 27.1903 17.3233 23.1096C17.2174 19.9156 20.3052 16.6072 24.8622 16.6763C25.9286 16.7001 26.7814 16.8694 27.8063 17.122C28.6742 17.215 29.6328 17.3818 30.5083 17.4772L30.6123 17.0076L31.7411 17.2174L30.7787 16.6596L31.3346 16.2377C30.7806 15.7038 30.2908 15.003 29.5024 14.6336C29.128 14.4905 28.6363 14.4429 28.1466 14.4429C27.8271 14.4429 27.5094 14.4643 27.2239 14.4905C26.3692 14.5621 25.7982 14.8171 25.0702 14.8409C23.0545 14.8648 20.984 15.351 19.7663 15.9374C16.5159 17.4867 15.1545 20.7022 15.2793 23.4791C15.4495 27.2309 19.5167 30.5464 24.5786 30.5488C34.8251 30.5536 35.2525 19.825 30.531 19.3054Z" fill="white"/>
<path d="M26.3128 23.4841L26.3017 23.4601L26.2905 23.4697L26.2979 23.4938L26.3313 23.5274L26.3128 23.4841Z" fill="white"/>
<path d="M28.4313 15.5768C28.7816 15.5948 28.925 15.5722 28.9449 15.4864C28.9648 15.3961 28.7776 15.2968 28.5268 15.2245C28.276 15.1568 28.053 15.2606 28.0371 15.3464C28.0132 15.4368 28.1685 15.5677 28.4313 15.5768Z" fill="#71CECE"/>
<defs>
<filter id="filter0_d" x="0" y="0" width="48.7" height="61.9838" filterUnits="userSpaceOnUse" color-interpolation-filters="sRGB">
<feFlood flood-opacity="0" result="BackgroundImageFix"/>
<feColorMatrix in="SourceAlpha" type="matrix" values="0 0 0 0 0 0 0 0 0 0 0 0 0 0 0 0 0 0 127 0"/>
<feOffset dy="2"/>
<feGaussianBlur stdDeviation="4"/>
<feColorMatrix type="matrix" values="0 0 0 0 0 0 0 0 0 0 0 0 0 0 0 0 0 0 0.33 0"/>
<feBlend mode="normal" in2="BackgroundImageFix" result="effect1_dropShadow"/>
<feBlend mode="normal" in="SourceGraphic" in2="effect1_dropShadow" result="shape"/>
</filter>
</defs>
</svg>
